<?xml version="1.0" encoding="UTF-8" standalone="no"?>
<!DOCTYPE svg  PUBLIC '-//W3C//DTD SVG 1.1//EN'  'http://www.w3.org/Graphics/SVG/1.1/DTD/svg11.dtd'>
<svg xmlns="http://www.w3.org/2000/svg">
<defs>
<font id="IRANSans-Regular" horiz-adv-x="0">
<font-face underline-position="-103" font-weight="400" descent="-410" panose-1="2 11 6 6 3 8 4 2 2 4" units-per-em="2048" unicode-range="U+0020-2122" bbox="-697 -1315 3911 2378" x-height="1062" underline-thickness="102" font-family="IRANSans" ascent="1638" cap-height="1466"/>
<missing-glyph horiz-adv-x="2048"/>
<glyph arabic-form="isolated" glyph-name="uni0621" horiz-adv-x="1019" unicode="ء" d="M750 517q-17 8 -36 15q-17 6 -39.5 12t-48.5 11q-20 3 -40 3q-24 0 -48 -4q-48 -12 -80.5 -47.5t-40.5 -80.5q-3 -21 3 -50q6 -26 21 -49.5t36 -42.5t47 -32t55 -17q15 -2 30 -3t30 4q38 6 75.5 18.5t67.5 24.5q34 14 66 31l64 -120q-59 -32 -148 -65.5t-216 -80.5 l-341 -126l-48 130l268 101q-52 32 -89.5 83t-51.5 109q-8 30 -8 61q0 22 4 44q6 43 25.5 82t49 70.5t68 54t82.5 32.5q43 10 85 10q27 0 55 -4q31 -5 60 -14t52 -17q26 -10 50 -21z"/>
<glyph arabic-form="isolated" glyph-name="uni0627" horiz-adv-x="573" unicode="ا" d="M398 -10l-197 11q15 227 19 429q2 94 1 183q0 99 -2 191q-4 172 -12.5 309t-17.5 233t-15.5 148.5t-6.5 53.5l196 30q2 -6 15 -120.5t22 -266.5t13.5 -275.5t4.5 -268t-3.5 -310.5t-16.5 -347z"/>
<glyph arabic-form="isolated" glyph-name="uni062D" horiz-adv-x="1532" unicode="ح" d="M841 -775q-109 0 -193.5 12.5t-130.5 28.5q-227 73 -348 217q-78 89 -112 197q-25 79 -25 172q0 32 3 66q10 102 48 192.5t107 171.5q60 69 134 125t164 98q123 57 255 89.5t256 47.5q-28 14 -54.5 26.5t-54.5 26.5q-106 52 -191 90.5t-145 46.5q-19 3 -38 3 q-116 0 -212 -102q-23 -24 -38.5 -47t-27.5 -43q-7 -11 -12.5 -21.5t-10.5 -20.5l-182 76q3 4 11 22t23 44t38 58.5t55 65.5q88 97 195 137q76 29 159 29q33 0 67 -5q84 -11 180 -53.5t218 -101.5q109 -55 231.5 -112t267.5 -105l-36 -192q-2 0 -43 1h-37q-32 -1 -72 -1 q-68 -2 -155 -8t-183 -21t-194 -41t-186 -67q-24 -11 -56.5 -29.5t-68.5 -45t-72 -61.5t-66 -78.5t-51 -96.5t-26 -115q-2 -22 -2 -44q0 -288 348 -404q18 -7 53.5 -13.5t82.5 -10.5t103 -5h23q45 0 92 3q50 4 107.5 13.5t116.5 28.5t117 48t108 72l131 -150 q-72 -63 -156 -104t-172 -65.5t-176 -34.5t-167 -10z"/>
<glyph arabic-form="isolated" glyph-name="uni062F" horiz-adv-x="997" unicode="د" d="M455 1q-26 0 -51 1t-54 4q-63 6 -119 17t-98.5 22t-68 19t-26.5 8l66 188l22 -7q22 -7 59 -16.5t86 -19.5t103 -15q39 -4 83 -4h11q50 0 98 9.5t90.5 29.5t72.5 55q16 18 16 53q0 26 -9 63q-11 49 -35.5 102.5t-59 107t-76.5 104.5t-87.5 94.5t-92.5 78t-92 53.5l81 182 q59 -27 119 -70t116.5 -97t108 -116.5t93.5 -129t73 -133.5t46 -131q12 -56 12 -101t-8.5 -80t-22.5 -61t-30 -45q-92 -111 -257 -147q-38 -10 -80 -14t-89 -4z"/>
<glyph arabic-form="isolated" glyph-name="uni0631" horiz-adv-x="897" unicode="ر" d="M654 650q28 -93 53 -184q10 -39 21 -81t20.5 -84t16.5 -81.5t11 -73.5q1 -11 2 -25t1 -31q0 -87 -25.5 -169t-71 -157.5t-108 -144.5t-136 -129.5t-155 -112.5t-165.5 -93l-87 176q105 52 204 120.5t176.5 149.5t124.5 172t47 188q0 4 -1 16l-2 22q-3 31 -10 67.5t-16 75 t-19 77t-20 74.5q-24 84 -51 168z"/>
<glyph arabic-form="isolated" glyph-name="uni0633" horiz-adv-x="2583" unicode="س" d="M2369 736q5 -10 18.5 -36t31 -64t36 -86t34 -101t25.5 -110t10 -112q-1 -86 -20.5 -161t-60 -131t-104.5 -88t-155 -32q-28 0 -60 8.5t-64 25t-61 41.5t-50 57q-60 -71 -135 -100t-159 -33h-17q-38 0 -68 7q-37 9 -63 21q-31 14 -53 33q1 -17 1 -34q-1 -71 -11 -137 q-12 -84 -43 -159t-82.5 -140t-127.5 -115q-92 -63 -208.5 -96t-261.5 -40q-10 0 -20 -0.5t-19 -0.5q-132 0 -240.5 37.5t-193.5 112.5q-76 67 -125.5 161t-65.5 205q-9 55 -9 111v12q1 62 8 118.5t19 107t24 90.5q31 102 66.5 174.5t61.5 107.5l159 -117q-20 -26 -47.5 -87 t-51 -141t-35.5 -171q-6 -45 -5 -88q0 -45 6 -89q4 -26 13.5 -62t29 -74t50 -75.5t76.5 -67t109.5 -48t147.5 -18.5h33q213 9 342.5 84t174.5 214q27 82 29 165v28q0 69 -10 134q-12 79 -36 150.5t-49 129.5q-24 54 -41.5 83t-17.5 31l167 108q6 -16 16 -38 q8 -19 19.5 -45.5t27.5 -61.5q27 -63 56.5 -121.5t66 -103.5t82.5 -71q43 -24 98 -24h9q52 1 84.5 21t52 53t27.5 77q8 43 10 93q2 31 1 64q-1 18 -1 38q-1 32 0 63v40l203 20l2 -30q1 -13 1 -28t1 -28q1 -25 3.5 -63.5t8.5 -82t17 -87.5t28.5 -79.5t43.5 -57.5t63 -22 q34 0 60.5 19.5t44.5 52.5t26 75q6 34 6 71v18q-3 64 -18.5 122.5t-35.5 110.5t-42 95t-38 75z"/>
<glyph arabic-form="isolated" glyph-name="uni0635" horiz-adv-x="2795" unicode="ص" d="M1734 209q43 -15 98 -26t116 -16q44 -4 89 -4q18 0 36 1q64 2 126.5 12t120 29.5t104.5 49.5q115 72 127 205q1 21 -4 40.5t-13.5 36t-18.5 29.5t-18 21q-29 28 -61.5 44t-65.5 23q-29 6 -57 6h-7q-32 -1 -58 -7q-81 -14 -159.5 -56t-146.5 -106q-38 -36 -69.5 -74 t-57.5 -75t-46 -71t-35 -62zM772 -649q-24 0 -49.5 1t-51.5 5q-98 7 -179.5 31t-147.5 64q-63 37 -108.5 87.5t-78.5 113.5q-57 121 -57 275v5q0 63 10 128.5t28 137.5q15 60 34 114t38 97.5t34.5 74t24.5 43.5l166 -106q-8 -11 -26.5 -49t-39 -94.5t-39.5 -126.5 q-20 -70 -28 -141q-5 -42 -4 -84q0 -29 2 -59q6 -70 35 -128q79 -164 353 -187q44 -4 85 -4q219 0 345 109q43 36 71.5 78.5t46.5 87.5t26 89t11 82q2 26 2 52q0 61 -10 124q-14 91 -35 171.5t-42.5 143t-31.5 89.5q-4 4 -5 8.5t-4 9.5l184 77l8 -23q32 -75 72 -142t75 -122 q13 -20 31.5 -39.5t42.5 -39.5q18 33 42 73t55 83t67.5 87t80.5 86q89 85 194 140t214 75q53 9 103 9q70 0 134 -18q108 -31 188 -115q60 -60 87 -130q23 -59 23 -123q0 -12 -1 -24q-8 -114 -62.5 -204.5t-151.5 -153.5q-54 -35 -114 -58t-119 -36.5t-115 -20t-104 -7.5 q-27 -1 -53 -1q-86 0 -172 12q-112 16 -201 49q-51 20 -97 44t-87 53q2 -37 1.5 -73t-1.5 -71q-10 -139 -63 -255q-29 -66 -69.5 -120.5t-91.5 -98.5q-184 -155 -475 -155z"/>
<glyph arabic-form="isolated" glyph-name="uni0637" horiz-adv-x="1776" unicode="ط" d="M641 208q24 -3 46 -4t48 -3h2q63 -3 134 -3h23q84 0 173 17t179 57t176 117q18 19 34.5 44.5t28.5 53.5t18.5 57.5t5.5 57.5q-3 32 -13.5 49t-21.5 25q-73 60 -160 60q-22 0 -45 -4q-101 -16 -222 -100t-255 -233q-24 -29 -46.5 -54.5t-43.5 -50.5zM856 0q-33 0 -64.5 1 t-61.5 3h-5q-156 8 -311.5 42t-322.5 98l72 185q133 -52 258 -83q21 31 52.5 74t72.5 94l7 10q12 86 18 154t7 134v27q0 55 -3 115q-4 74 -11 173q-8 108 -17 200.5t-17 160t-13.5 106t-5.5 39.5l196 36l3 -26q3 -26 8 -68t11 -96t11.5 -110t11 -110t8.5 -97 q4 -56 6.5 -89.5t4 -56.5t2.5 -41.5t1.5 -43.5t1 -63.5t2.5 -101.5q241 229 461 262q39 6 76 6q153 0 283 -105q101 -82 107 -216q1 -14 1 -28q0 -40 -8 -80q-12 -53 -33.5 -100t-48.5 -87t-54 -68l-1 -2l-2 -2q-89 -80 -181.5 -128.5t-183 -74.5t-176.5 -34.5t-162 -8.5z "/>
<glyph arabic-form="isolated" glyph-name="uni0639" horiz-adv-x="1438" unicode="ع" d="M803 -753q-93 0 -165 9t-113 22q-115 34 -203 85.5t-153 121.5q-81 89 -117 195q-29 87 -29 190q0 23 1 47q5 101 41.5 192.5t102.5 176.5q112 141 291 231q21 12 42.5 21.5t44.5 19.5l-6 4q-136 94 -152 265q-3 26 -3 51q0 62 18 120q25 82 84 149q63 72 147 113t178 45 h20q145 0 295 -96q56 -37 88.5 -67.5t37.5 -33.5l-144 -137q-41 40 -88 71q-40 26 -92 47q-47 19 -97 19h-10q-54 -3 -102.5 -25.5t-82.5 -64.5q-21 -25 -39 -67q-15 -33 -15 -79q0 -12 1 -26q8 -80 68 -122q50 -33 136 -50q44 -9 95 -9q48 0 102 8q46 6 87.5 12.5 t73.5 11.5q37 6 69 12l42 -192q-2 0 -21.5 -3.5t-54 -9t-81 -13.5t-101.5 -17q-87 -14 -151.5 -28.5t-116 -30t-94.5 -34t-88 -40.5q-24 -11 -56 -30.5t-67.5 -47t-70.5 -63.5t-63.5 -80.5t-47.5 -98t-23 -116.5q-1 -16 -1 -32q0 -301 359 -404q19 -6 55 -12q36 -5 82 -9 q41 -3 89 -4h14q56 0 116 8q49 6 107 17t116.5 31.5t115.5 51t105 75.5l134 -144q-74 -70 -163 -115.5t-182.5 -72.5t-187.5 -37.5t-177 -10.5z"/>
<glyph arabic-form="isolated" glyph-name="uni0643" horiz-adv-x="2024" unicode="ك" d="M1862 955q6 -181 10 -291t4 -156q-1 -50 -11.5 -100t-36.5 -99q-82 -153 -284 -233q-111 -43 -253.5 -65t-319.5 -22q-361 5 -575 84q-206 78 -280 229q-42 81 -42 176t39 198q14 36 29 66t27.5 52t21.5 35.5l11 16.5l159 -118q-6 -8 -12 -17t-11 -19q-10 -17 -21 -39.5 t-21 -50.5q-24 -66 -24 -121q0 -50 20 -89q49 -98 224 -150.5t455 -53.5q321 0 500 71q135 55 182 143q15 27 20.5 56.5t6.5 58.5q-2 59 -6 169.5t-11 261.5q-4 110 -9.5 205.5t-10.5 167.5t-9.5 116.5t-5.5 53.5l196 21q1 -16 5.5 -63.5t10.5 -120.5t11.5 -168t10.5 -205z M1144 868q-12 3 -27 6q-13 2 -29.5 4.5t-35.5 2.5q-15 0 -30.5 -2.5t-31.5 -9.5v2q-32 -14 -51.5 -42.5t-19.5 -61.5q0 -17 8 -36l-1 1q14 -35 49.5 -58.5t78.5 -23.5q11 0 21 1t21 6q26 8 51 21t45 25q23 14 43 29l59 -78q-39 -29 -98 -62t-144 -80l-227 -126l-48 87 l179 100q-41 17 -72.5 49t-48.5 71q-14 34 -14 74q0 31 9.5 60.5t27 55t42 45.5t54.5 32q47 19 98 19q23 0 44 -3t38 -7q19 -4 38 -9z"/>
<glyph arabic-form="isolated" glyph-name="uni0644" horiz-adv-x="1434" unicode="ل" d="M367 339q-29 -44 -52 -106q-20 -54 -36.5 -132t-16.5 -183q0 -99 38 -169.5t94.5 -115.5t120.5 -67t116 -25q14 -1 28 -1q37 0 77 6q56 8 110 29t103 56.5t86.5 86t60 117t22.5 151.5q0 79 -2.5 187t-6 231t-8.5 253.5t-10 254.5q-11 291 -26 609l196 8q15 -320 26 -613 q5 -125 10 -256t8.5 -254.5t6 -232t2.5 -187.5q0 -126 -32 -223.5t-85.5 -170t-123 -121.5t-145.5 -78.5t-153 -40.5q-56 -8 -108 -8q-19 0 -36 1q-61 3 -126.5 19t-128.5 46.5t-119.5 75.5t-99 107.5t-67.5 143.5q-24 78 -24 173v8q1 129 20 222.5t42 156.5q26 72 60 122z "/>
<glyph arabic-form="isolated" glyph-name="uni0645" horiz-adv-x="1178" unicode="م" d="M556 346l63 -26q46 -20 89.5 -36.5t81.5 -30.5t58.5 -19t27.5 -6q8 5 19.5 25.5t22.5 62.5q12 45 14 93v11q0 42 -11 82q-12 52 -32.5 80.5t-42 42t-41.5 16.5t-31 3h-2q-34 0 -76 -44q-43 -45 -84 -126q-18 -33 -31.5 -66.5t-24.5 -61.5zM134 -731l-37 927q0 6 0.5 28 t7.5 50.5t24 59t49 54.5q13 10 31.5 19.5t42.5 14t53.5 3.5t65.5 -11q11 34 27 72t37 79q31 58 62.5 102.5t63.5 77.5q98 96 211 96h9q81 -3 147 -35.5t114 -95.5q75 -103 85 -251q2 -23 2 -47q-1 -44 -7 -86q-10 -65 -33 -123q-29 -73 -75 -117t-104 -54q-28 -4 -62 1 t-78 18.5t-99.5 35t-127.5 50.5q-56 24 -111.5 46t-105.5 38q-9 3 -16.5 5t-12.5 2q-3 -15 -3 -24l36 -935h-196z"/>
<glyph arabic-form="isolated" glyph-name="uni0647" horiz-adv-x="974" unicode="ه" d="M497 704q-29 -26 -67.5 -66t-72.5 -88t-57.5 -100.5t-23.5 -102.5q0 -15 2.5 -31t11 -31.5t24.5 -30.5t43 -27q19 -9 39 -14.5t37 -8.5t31 -4t21 -1q9 0 25.5 0.5t36 3t40 8t39.5 14.5q37 20 53.5 48.5t16.5 73.5q0 65 -50 156t-145 197q-1 1 -1.5 2t-2.5 2zM485 0 q-5 0 -24.5 1t-48.5 5.5t-65.5 14t-73.5 27.5q-95 44 -144.5 120t-49.5 179q0 180 163 377q33 39 63.5 70t53.5 52q-30 27 -48 42t-18 16l126 153q1 -2 21.5 -19t52.5 -47t73 -70.5t84 -88.5q122 -139 182.5 -260.5t60.5 -224.5t-45.5 -179t-133.5 -119q-32 -16 -65 -25.5 t-63 -15t-56.5 -7t-44.5 -1.5z"/>
<glyph arabic-form="isolated" glyph-name="uni0648" horiz-adv-x="952" unicode="و" d="M450 650q-36 0 -78 -53q-29 -35 -47.5 -84t-29.5 -108q-5 -27 -5 -50q0 -54 26 -86q15 -20 38 -32.5t48 -20t49.5 -11t42.5 -4.5q50 -3 94 -3h22q52 1 91 4q-3 63 -15 120.5t-30.5 106.5t-42.5 88.5t-49 68.5q-10 10 -22.5 21.5t-27 21t-31 15.5t-33.5 6zM221 -688 l-97 172q101 56 189.5 120.5t159.5 131.5t122.5 134.5t77.5 129.5q-28 -1 -58 -1q-15 1 -31 1q-48 0 -103 5q-217 14 -321 142q-68 86 -68 206q0 41 8 86q14 85 43 154t73 126q50 63 110 95.5t124 32.5q142 0 261 -128q51 -56 89 -129.5t62 -157.5t33 -175q4 -46 4.5 -91.5 t-4.5 -90.5q-9 -97 -63 -199.5t-151 -208.5q-92 -100 -207 -189t-253 -166z"/>
<glyph arabic-form="isolated" glyph-name="uni0649" horiz-adv-x="1733" unicode="ى" d="M1371 832q54 11 104 11q14 0 28 -1q63 -4 111 -15t77.5 -23t32.5 -13l-87 -183l-19 8q-19 8 -49.5 14t-70.5 8q-9 1 -18 1q-32 0 -67 -7q-91 -18 -166 -75.5t-125 -144.5q-36 -61 -48 -122q-6 -29 -5 -53q0 -27 7 -49q7 -20 23 -33t41.5 -22.5t59.5 -17t76 -15.5 q63 -12 123.5 -27t111.5 -50q23 -17 45 -41q23 -24 39 -60q15 -36 21 -83q2 -17 2 -35q0 -34 -6 -73q-18 -98 -88 -180t-186 -140q-110 -56 -249.5 -85t-303.5 -29q-189 0 -334.5 54.5t-238.5 158.5q-82 94 -116 218q-22 81 -21 171q0 49 6 100q8 65 22 134.5t30.5 135.5 t34 125.5t32 105.5t24.5 74t11 32l191 -67q-45 -140 -84 -279t-58 -285q-6 -40 -6 -83q0 -40 8 -80q8 -44 27 -86.5t52 -79.5q63 -72 169.5 -108t250.5 -36q142 0 254.5 23t192 60.5t125 85t54.5 97.5q4 25 3.5 41t-3.5 25.5t-7.5 14t-8.5 7.5q-12 8 -29 14t-37.5 11 t-43 9.5t-45.5 8.5q-49 9 -98 20t-94 31q-125 54 -165 172q-14 42 -17 90q-1 13 -1 26q0 36 6 72q8 50 26.5 101.5t46.5 101.5q36 62 82.5 114.5t101 93.5t116 69t127.5 42z"/>
<glyph glyph-name="uni066F.init" horiz-adv-x="839" unicode="ٯ" d="M-101 98q0 42 29 70t71 28q111 0 193.5 10.5t142.5 27t99.5 37t63.5 39.5q13 11 21 20l16 18h-101q-54 0 -105 8.5t-96 25.5t-82 42.5t-63 58.5q-14 18 -28 43.5t-23 59.5q-9 32 -11 74v17q0 35 6 75q14 77 41 140.5t66 113.5q45 59 101 89t116 30q132 0 240 -117 q46 -51 81.5 -118t57.5 -143.5t30 -158.5q4 -39 4 -77q0 -43 -5 -85h-1q-6 -40 -17 -81q-3 -12 -9 -32.5t-20 -46t-37.5 -54t-59.5 -56.5q-194 -153 -606 -156h-17q-41 0 -69.5 28.5t-28.5 69.5zM356 927q-14 0 -33 -13.5t-37.5 -40.5t-34.5 -66t-24 -90q-4 -23 -4 -43 q0 -44 21 -69q20 -24 58.5 -39t92.5 -18q51 -2 95.5 -2t77.5 2q-7 97 -37.5 183.5t-81.5 142.5q-16 18 -40.5 35.5t-52.5 17.5z"/>
<glyph arabic-form="isolated" glyph-name="uni06A9" horiz-adv-x="2182" unicode="ک" d="M2193 1521l-794 -333q31 -25 65 -53t71 -62q303 -277 343 -520q7 -40 7 -78q0 -132 -86 -242q-6 -8 -18.5 -22.5t-34 -32.5t-53 -38.5t-74.5 -41.5q-76 -35 -155 -55q-79 -19 -160 -29q-82 -10 -164 -12q-33 -1 -65 -1q-49 0 -99 2q-180 2 -323 21.5t-252 59.5 q-206 81 -280 230q-42 80 -42 174.5t39 199.5q29 72 57 116.5t33 52.5l158 -117l-23 -37q-9 -17 -20.5 -39t-21.5 -50q-24 -68 -24 -122q0 -50 20 -88q50 -99 225 -150.5t457 -52.5q52 -2 99.5 -2.5t89.5 2.5q84 5 150 15.5t114.5 24.5t81.5 28q62 26 88.5 47t31.5 26l3 3 l4 7q45 59 45 129q0 19 -3 39q-32 176 -278 404q-50 45 -96.5 82.5t-83 64.5t-58.5 42t-21 16l15 173l955 401z"/>
<glyph arabic-form="isolated" glyph-name="uni06BA" horiz-adv-x="1503" unicode="ں" d="M677 -688q-265 0 -433 150q-79 69 -127.5 162t-64.5 204q-9 55 -9 111v11q1 62 8 119t19 107.5t24 90.5q31 102 67.5 174.5t60.5 107.5l159 -117q-13 -18 -30 -51.5t-34.5 -78t-33.5 -98.5t-26.5 -112.5t-13.5 -118.5q-1 -16 -1 -33q0 -43 6 -84q4 -26 16 -61t34.5 -72 t57 -73.5t84 -66t115 -49t151.5 -23.5h1h1q212 9 342 84t176 214q26 86 28 173v17q0 78 -12 150q-14 80 -37.5 149.5t-46.5 121t-40 81t-18 29.5l166 106q3 -5 25 -42t50 -99.5t56 -146t43 -180.5q12 -79 12 -164v-40q-4 -107 -39 -215q-29 -94 -86 -169.5t-141 -130.5 q-91 -63 -208 -96t-262 -40q-10 0 -20 -0.5t-19 -0.5z"/>
<glyph arabic-form="final" glyph-name="uni06C1.fina" horiz-adv-x="1148" unicode="ہ" d="M869 64q-68 24 -131.5 52t-124.5 57q-46 22 -90.5 42.5t-86 36t-79 25t-68.5 9.5q-42 0 -78.5 -18t-68 -45t-56.5 -59t-42.5 -59t-27 -45.5t-9.5 -19.5l-181 81q1 1 8.5 17t22 40.5t35 55t47.5 62.5q78 93 166 140.5t184 47.5q48 0 98 -11t101 -29.5t103.5 -42.5 t106.5 -49q94 -45 189.5 -84.5t192.5 -56.5q26 -5 52 -7.5t52 -2.5l-1 -195q-19 -6 -41 -8q-8 0 -15 -1q-17 0 -33 2q-26 3 -52 9t-51 13q-59 17 -122 43z"/>
<glyph arabic-form="isolated" glyph-name="uni06D2" horiz-adv-x="1862" unicode="ے" d="M784 761l190 -42q-1 -6 -9 -33.5t-24.5 -64t-43 -75t-65.5 -66.5q-26 -19 -63.5 -33.5t-89.5 -31.5q-51 -18 -110.5 -40t-111.5 -51q-69 -38 -102 -78q15 -11 43 -23t77 -23q38 -8 85.5 -14t106.5 -10t131.5 -6t160.5 -2q105 0 207.5 10t194 24.5t169.5 32t135 32.5 t89.5 25t33.5 10l61 -185q-2 0 -22 -6.5t-55.5 -16.5t-85.5 -23t-111 -26q-56 -12 -126 -24.5t-149.5 -23t-165.5 -17t-175 -6.5q-94 0 -171.5 2t-141 6t-116 11t-95.5 16q-106 24 -172 65q-79 49 -112 129l-1 69q25 71 78.5 123.5t120 90.5t137 65t130.5 48q14 5 30 10.5 t30.5 10.5t25.5 10t16 8q13 9 24 25.5t19.5 34.5t14.5 35t8 28z"/>
<glyph glyph-name=".notdef" horiz-adv-x="2048"/>
<glyph glyph-name=".null"/>
<glyph glyph-name="nonmarkingreturn" horiz-adv-x="2048"/>
<glyph glyph-name="space" horiz-adv-x="628" unicode=" "/>
<glyph glyph-name="space" horiz-adv-x="628" unicode=" "/>
<glyph glyph-name="exclam" horiz-adv-x="579" unicode="!" d="M184 0v205h207v-205h-207zM231 364l-55 777v325h223v-325l-52 -777h-116z"/>
<glyph glyph-name="quotedbl" horiz-adv-x="762" unicode='&quot;' d="M475 947l-49 279v240h205v-240l-48 -279h-108zM144 947l-50 279v240h205v-240l-45 -279h-110z"/>
<glyph glyph-name="numbersign" horiz-adv-x="1139" unicode="#" d="M370 550h314l75 363h-315zM103 -25l87 426h-169v149h199l74 363h-273v149h303l87 429h150l-87 -429h315l87 429h151l-87 -429h173v-149h-203l-75 -363h278v-149h-308l-87 -426h-150l86 426h-314l-87 -426h-150z"/>
<glyph glyph-name="dollar" horiz-adv-x="1156" unicode="$" d="M616 121q106 13 174 91t68 193q0 97 -48 157t-194 107v-548zM510 1365q-106 -16 -166 -84t-60 -161q0 -92 52 -154t174 -99v498zM510 -211v180q-136 17 -220 61t-146 140q-62 97 -71 237l181 34q21 -145 74 -213q76 -96 182 -107v573q-111 21 -227 86q-87 48 -133 133 t-46 193q0 192 136 311q91 80 270 98v86h106v-86q157 -15 249 -92q118 -98 142 -269l-186 -28q-17 106 -67 162t-138 75v-519q136 -34 180 -53q84 -37 137 -90t81 -126t29 -158q0 -187 -119 -312t-308 -134v-182h-106z"/>
<glyph glyph-name="percent" horiz-adv-x="1771" unicode="%" d="M1381 597q-69 0 -113 -58t-44 -213q0 -140 45 -198t111 -58q70 0 114 58t44 212q0 142 -45 200t-112 57zM1067 344q0 158 79 268t230 109q138 -1 228 -99t91 -289q1 -187 -91 -287t-227 -100q-133 0 -221 100t-89 298zM433 -54l802 1545h146l-799 -1545h-149zM432 1367 q-68 0 -112 -58t-44 -213q0 -140 45 -198t111 -58q68 0 112 58t45 212q0 142 -45 200t-112 57zM119 1114q0 157 79 267t229 110q139 -1 229 -99t90 -289q0 -187 -92 -287t-225 -100t-221 99t-89 299z"/>
<glyph glyph-name="ampersand" horiz-adv-x="1456" unicode="&amp;" d="M860 315l-330 409q-146 -88 -197 -162t-51 -147q0 -89 71 -185t201 -96q82 0 168 50t138 131zM607 937q117 69 151 121t35 115q1 75 -47 123t-119 47q-73 0 -121 -47t-49 -115q-1 -33 17 -71t53 -80zM973 173q-89 -99 -194 -149t-227 -49q-225 0 -357 152 q-107 124 -107 277q0 136 88 246t261 192q-99 114 -132 185t-33 137q0 132 104 230t260 97q150 0 246 -92t95 -221q0 -209 -277 -357l263 -335q45 88 70 204l187 -40q-48 -192 -130 -316q101 -134 229 -225l-121 -143q-109 70 -225 207z"/>
<glyph glyph-name="quotesingle" horiz-adv-x="397" unicode="&apos;" d="M136 947l-46 274v245h205v-245l-48 -274h-111z"/>
<glyph glyph-name="parenleft" horiz-adv-x="779" unicode="(" d="M479 -431q-149 188 -252 440t-103 522q0 238 77 456q90 253 278 504h129q-121 -208 -160 -297q-61 -138 -96 -288q-43 -187 -43 -376q0 -481 299 -961h-129z"/>
<glyph glyph-name="parenright" horiz-adv-x="778" unicode=")" d="M253 -431h-129q299 480 299 961q0 188 -43 373q-34 150 -95 288q-39 90 -161 300h129q188 -251 278 -504q77 -218 77 -456q0 -270 -104 -522t-251 -440z"/>
<glyph glyph-name="asterisk" horiz-adv-x="858" unicode="*" d="M64 1197l46 142q159 -56 231 -97q-19 181 -20 249h145q-3 -99 -23 -248q103 52 236 96l46 -142q-127 -42 -249 -56q61 -53 172 -189l-120 -85q-58 79 -137 215q-74 -141 -130 -215l-118 85q116 143 166 189q-129 25 -245 56z"/>
<glyph glyph-name="plus" horiz-adv-x="1219" unicode="+" d="M513 237v402h-399v168h399v399h170v-399h399v-168h-399v-402h-170z"/>
<glyph glyph-name="comma" horiz-adv-x="588" unicode="," d="M182 0v205h205v-205q0 -112 -40 -182t-127 -108l-50 77q57 25 84 73t30 140h-102z"/>
<glyph glyph-name="hyphen" horiz-adv-x="681" unicode="-" d="M65 440v181h553v-181h-553z"/>
<glyph glyph-name="period" horiz-adv-x="567" unicode="." d="M186 0v205h205v-205h-205z"/>
<glyph glyph-name="slash" horiz-adv-x="590" unicode="/" d="M0 -25l425 1516h144l-424 -1516h-145z"/>
<glyph glyph-name="zero" horiz-adv-x="1144" unicode="0" d="M270 723q0 -361 84 -481t209 -119q125 0 209 120t84 480q0 362 -84 481t-211 119q-124 0 -198 -105q-93 -134 -93 -495zM85 723q-1 261 53 419t160 244t265 86q118 0 207 -48t147 -136q58 -90 91 -218t33 -347q0 -259 -53 -417q-52 -158 -158 -244t-267 -87 q-212 0 -333 152q-145 183 -145 596z"/>
<glyph glyph-name="one" horiz-adv-x="1036" unicode="1" d="M763 0h-180v1147q-65 -62 -171 -124t-189 -93v174q151 71 264 172t160 196h116v-1472z"/>
<glyph glyph-name="two" horiz-adv-x="1223" unicode="2" d="M1031 173v-173h-969v10q0 59 21 115q37 99 119 195t235 222q239 196 323 310t84 217q0 107 -76 181t-200 73q-130 0 -208 -78t-79 -216l-185 19q19 208 143 316t333 108q211 0 334 -117t123 -290q0 -88 -36 -173q-35 -85 -119 -179t-278 -258q-162 -137 -208 -185 t-76 -97h719z"/>
<glyph glyph-name="three" horiz-adv-x="1182" unicode="3" d="M86 387l180 24q32 -153 106 -221t181 -67q127 0 215 88t87 218q0 125 -81 205t-206 80q-51 0 -127 -20l20 158q18 -2 29 -2q115 0 207 60t92 185q0 99 -67 164t-173 65q-105 0 -175 -66t-90 -198l-180 32q33 180 150 280t291 100q120 0 221 -52q100 -52 154 -140 q54 -89 54 -189q0 -95 -51 -173t-151 -124q130 -30 202 -124t72 -237q0 -191 -140 -325t-354 -134q-192 0 -320 115t-146 298z"/>
<glyph glyph-name="four" horiz-adv-x="1111" unicode="4" d="M662 516v661l-459 -661h459zM662 0v351h-636v165l669 950h147v-950h198v-165h-198v-351h-180z"/>
<glyph glyph-name="five" horiz-adv-x="1155" unicode="5" d="M85 384l189 16q22 -138 98 -208t184 -69q130 0 220 98t90 260q0 154 -86 243t-227 89q-87 1 -157 -39t-110 -103l-169 22l142 753h729v-172h-585l-79 -394q132 92 277 92q192 0 324 -133t132 -342q0 -199 -116 -344q-141 -178 -385 -178q-200 0 -326 112t-145 297z"/>
<glyph glyph-name="six" horiz-adv-x="1155" unicode="6" d="M284 475q0 -93 40 -178t110 -129q71 -44 149 -45q114 0 196 92t82 250q0 151 -81 239t-204 88q-122 0 -207 -88t-85 -229zM1019 1107l-179 -14q-24 106 -68 154q-73 77 -180 77q-86 0 -151 -48q-85 -62 -134 -181t-51 -339q65 99 159 147t197 48q180 -1 306 -133 t127 -342q1 -138 -59 -256t-164 -182q-104 -63 -236 -63q-225 -1 -367 165t-142 546q0 425 157 618q137 168 369 168q173 0 283 -97t133 -268z"/>
<glyph glyph-name="seven" horiz-adv-x="1150" unicode="7" d="M97 1274v173h949v-140q-140 -149 -278 -396t-212 -508q-54 -184 -69 -403h-185q3 173 68 418q64 244 186 472t259 384h-718z"/>
<glyph glyph-name="eight" horiz-adv-x="1196" unicode="8" d="M268 423q0 -77 36 -149t109 -112q72 -40 155 -39q129 0 213 83t84 211q-1 130 -87 215t-216 85q-126 0 -210 -84t-84 -210zM326 1100q0 -104 67 -170t174 -66q105 0 171 66t66 160q0 98 -68 166t-171 68t-171 -66t-68 -158zM362 795q-112 41 -166 117t-54 182 q0 160 115 269t306 109q192 0 309 -112t117 -271q1 -101 -53 -177t-163 -117q135 -44 205 -142t71 -234q0 -188 -133 -316t-350 -128q-217 1 -350 129t-133 320q1 144 73 240t206 131z"/>
<glyph glyph-name="nine" horiz-adv-x="1229" unicode="9" d="M849 986q-1 155 -83 246t-198 91q-120 0 -209 -98t-89 -254q0 -139 84 -227t209 -88t205 88t81 242zM112 339l173 16q22 -122 84 -177t159 -55q84 0 146 38q62 37 102 101t67 172t27 220q0 12 -1 36q-53 -86 -147 -140t-203 -53q-182 0 -308 132t-126 348q-1 223 131 359 t330 136q144 0 262 -77t180 -219t61 -413q0 -281 -61 -447q-62 -166 -182 -254q-120 -87 -282 -87q-172 -1 -281 95t-131 269z"/>
<glyph glyph-name="colon" horiz-adv-x="579" unicode=":" d="M185 0v205h205v-205h-205zM185 857v205h205v-205h-205z"/>
<glyph glyph-name="semicolon" horiz-adv-x="586" unicode=";" d="M182 0v205h205v-205q0 -112 -40 -182t-127 -108l-50 77q57 25 84 73t30 140h-102zM182 857v205h205v-205h-205z"/>
<glyph glyph-name="less" horiz-adv-x="1296" unicode="&lt;" d="M112 641v168l971 410v-179l-770 -316l770 -319v-179z"/>
<glyph glyph-name="equal" horiz-adv-x="1282" unicode="=" d="M1082 417h-968v168h968v-168zM1082 862h-968v168h968v-168z"/>
<glyph glyph-name="greater" horiz-adv-x="1244" unicode="&gt;" d="M1083 641l-971 -415v179l769 319l-769 316v179l971 -410v-168z"/>
<glyph glyph-name="question" horiz-adv-x="1275" unicode="?" d="M461 0v205h205v-205h-205zM472 361q-1 36 -1 54q0 106 30 183q22 58 71 117q36 43 130 125t121 132q28 49 28 107q0 105 -82 185t-201 79q-115 0 -192 -72t-101 -225l-185 22q24 205 148 314t327 109q215 0 343 -117t128 -283q0 -96 -45 -177t-176 -197 q-88 -78 -115 -115t-40 -85t-15 -156h-173z"/>
<glyph glyph-name="at" horiz-adv-x="2175" unicode="@" d="M677 434q0 -137 65 -213t149 -76q56 -1 118 33q63 34 119 100t92 168t36 203q0 136 -68 211t-164 75q-64 -1 -120 -33t-110 -104q-53 -72 -85 -175t-32 -189zM1161 163q-65 -75 -145 -121t-162 -45q-89 0 -173 52q-85 52 -137 160t-52 237q0 158 82 318t202 240 q121 80 235 80q87 0 166 -46t136 -138l34 155h179l-144 -671q-30 -140 -30 -155q0 -27 20 -47t50 -19q53 0 139 61q115 80 181 214t66 278q0 167 -86 312t-254 232q-170 87 -375 87q-233 1 -427 -109t-300 -314t-107 -439q1 -245 107 -422t308 -261t446 -85q262 0 439 88 t265 214h181q-51 -105 -175 -214t-295 -173t-412 -63q-221 0 -409 57q-188 58 -320 172t-199 263q-84 189 -84 408q0 244 100 465q123 271 347 415t544 144q248 1 446 -101t311 -303q97 -173 97 -376q0 -290 -204 -515q-182 -202 -398 -202q-70 0 -112 21t-62 60 q-13 25 -19 86z"/>
<glyph glyph-name="A" horiz-adv-x="1373" unicode="A" d="M420 602h497l-153 406q-70 185 -104 304q-28 -141 -79 -280zM-3 0l563 1466h209l600 -1466h-221l-171 444h-613l-161 -444h-206z"/>
<glyph glyph-name="B" horiz-adv-x="1337" unicode="B" d="M344 173h365q94 0 132 7q67 12 112 40t74 82t29 123q0 83 -42 143t-116 84t-215 25h-339v-504zM344 850h317q129 0 185 17q74 22 112 73t37 128q0 72 -35 128t-100 76t-223 21h-293v-443zM150 0v1466h550q168 0 270 -44t158 -138q58 -92 58 -193q0 -94 -51 -177 t-154 -134q133 -39 205 -133t71 -222q1 -103 -43 -191t-108 -137t-160 -73t-237 -24h-559z"/>
<glyph glyph-name="C" horiz-adv-x="1557" unicode="C" d="M1204 514l194 -49q-61 -239 -219.5 -364.5t-387.5 -125.5q-237 0 -385.5 96.5t-226 279.5t-77.5 393q0 229 87.5 399.5t249 259t355.5 88.5q220 0 370 -112t209 -315l-191 -45q-51 160 -148 233t-244 73q-169 0 -282.5 -81t-159.5 -217.5t-46 -281.5q0 -187 54.5 -326.5 t169.5 -208.5t249 -69q163 0 276 94t153 279z"/>
<glyph glyph-name="D" horiz-adv-x="1508" unicode="D" d="M352 173h313q145 0 227 27t132 76q70 70 108 186t38 282q0 230 -76 354t-183 165q-78 30 -251 30h-308v-1120zM158 0v1466h505q171 0 261 -21q126 -29 215 -105q115 -98 173 -250t58 -349q0 -167 -39 -296t-100 -213t-133 -134q-72 -48 -176 -73q-102 -25 -235 -25h-529z "/>
<glyph glyph-name="E" horiz-adv-x="1380" unicode="E" d="M162 0v1466h1060v-173h-866v-449h811v-172h-811v-499h900v-173h-1094z"/>
<glyph glyph-name="F" horiz-adv-x="1311" unicode="F" d="M168 0v1466h989v-173h-795v-454h688v-173h-688v-666h-194z"/>
<glyph glyph-name="G" horiz-adv-x="1707" unicode="G" d="M844 575v172l621 1v-544q-143 -114 -295 -172t-312 -57q-216 1 -392 93t-267 267q-90 175 -90 391q-1 214 89 400t258 275q168 90 387 90q159 1 287 -51t202 -144q73 -92 111 -240l-175 -48q-33 112 -82 176t-140 102t-202 39q-133 -1 -230 -41q-96 -40 -156 -106 t-93 -145q-56 -136 -56 -295q-1 -196 67 -328t197 -196t274 -64q126 0 246 48t182 104v273h-431z"/>
<glyph glyph-name="H" horiz-adv-x="1498" unicode="H" d="M164 0v1466h194v-602h762v602h194v-1466h-194v691h-762v-691h-194z"/>
<glyph glyph-name="I" horiz-adv-x="562" unicode="I" d="M191 0v1466h194v-1466h-194z"/>
<glyph glyph-name="J" horiz-adv-x="1014" unicode="J" d="M59 416l175 24q7 -168 63 -230t155 -62q73 0 126 34t73 90q20 58 20 184v1010h194v-999q-1 -184 -45 -285t-140 -154t-227 -53q-193 0 -295 111q-99 107 -99 314v16z"/>
<glyph glyph-name="K" horiz-adv-x="1516" unicode="K" d="M150 0v1466h194v-727l728 727h263l-615 -594l642 -872h-256l-522 742l-240 -234v-508h-194z"/>
<glyph glyph-name="L" horiz-adv-x="1241" unicode="L" d="M150 0v1466h194v-1293h722v-173h-916z"/>
<glyph glyph-name="M" horiz-adv-x="1707" unicode="M" d="M152 0v1466h292l347 -1038q48 -145 70 -217q25 80 78 235l351 1020h261v-1466h-187v1227l-426 -1227h-175l-424 1248v-1248h-187z"/>
<glyph glyph-name="N" horiz-adv-x="1541" unicode="N" d="M156 0v1466h199l770 -1151v1151h186v-1466h-199l-770 1152v-1152h-186z"/>
<glyph glyph-name="O" horiz-adv-x="1707" unicode="O" d="M299 711q0 -265 142.5 -417.5t357.5 -152.5q219 0 360.5 154t141.5 437q0 179 -60.5 312.5t-177 207t-261.5 73.5q-206 0 -354.5 -141.5t-148.5 -472.5zM99 714q0 365 196 571.5t506 206.5q203 0 366 -97t248.5 -270.5t85.5 -393.5q0 -223 -90 -399t-255 -266.5 t-356 -90.5q-207 0 -370 100t-247 273t-84 366z"/>
<glyph glyph-name="P" horiz-adv-x="1433" unicode="P" d="M352 769h379q188 0 267 70t79 197q-1 92 -47 158t-122 86q-49 13 -181 13h-375v-524zM158 0v1466h553q146 0 223 -14q108 -18 181 -68t117 -142q44 -91 45 -200q0 -186 -119 -316t-430 -130h-376v-596h-194z"/>
<glyph glyph-name="Q" horiz-adv-x="1707" unicode="Q" d="M842 405q168 -47 277 -140q171 156 171 469q0 178 -60 311t-178 207q-116 74 -261 73q-217 -1 -360 -149t-143 -443q0 -286 142 -439t361 -153q104 0 196 39q-91 59 -192 84zM1269 157q135 -93 249 -136l-57 -135q-158 57 -315 180q-163 -91 -360 -91q-199 0 -361 96 q-161 96 -249 270t-88 392q0 217 88 395t250 271t364 93q203 0 366 -96q162 -96 248 -270t86 -392q0 -182 -55 -326t-166 -251z"/>
<glyph glyph-name="R" horiz-adv-x="1593" unicode="R" d="M355 819h417q133 -1 208 27t114 88t39 132q1 104 -75 171t-239 67h-464v-485zM161 0v1466h650q196 0 298 -40t163 -139q61 -100 61 -221q0 -156 -101 -263t-312 -136q77 -37 117 -73q85 -78 161 -195l255 -399h-244l-194 305q-85 132 -140 202t-99 98t-88 39 q-33 7 -108 7h-225v-651h-194z"/>
<glyph glyph-name="S" horiz-adv-x="1394" unicode="S" d="M92 471l183 16q13 -111 61 -181t147 -114q100 -44 225 -43q111 0 196 33q84 32 126 90t42 126t-40 120t-132 87q-59 23 -261 71t-283 92q-104 54 -156 136t-52 183q0 111 63 207t184 147q121 50 269 50q164 -1 288 -53t191 -154t72 -231l-186 -14q-15 139 -101 210 t-256 71q-176 0 -256 -64t-81 -156q0 -79 57 -130q56 -50 292 -104t325 -94q128 -60 189 -150t61 -208q0 -116 -67 -220q-66 -104 -192 -162t-283 -57q-199 0 -333 58q-134 59 -212 175q-76 116 -80 263z"/>
<glyph glyph-name="T" horiz-adv-x="1275" unicode="T" d="M531 0v1293h-483v173h1162v-173h-485v-1293h-194z"/>
<glyph glyph-name="U" horiz-adv-x="1522" unicode="U" d="M1120 1466h194v-847q0 -221 -50 -351t-180.5 -211.5t-342.5 -81.5q-206 0 -337 71t-187 205.5t-56 367.5v847h194v-846q0 -191 35.5 -281.5t122 -139.5t211.5 -49q214 0 305 97t91 373v846z"/>
<glyph glyph-name="V" horiz-adv-x="1361" unicode="V" d="M577 0l-568 1466h210l381 -1065q46 -128 77 -240q34 120 79 240l396 1065h198l-574 -1466h-199z"/>
<glyph glyph-name="W" horiz-adv-x="1913" unicode="W" d="M414 0l-389 1466h199l223 -961q36 -151 62 -300q56 235 66 271l279 990h234l210 -742q79 -276 114 -519q28 139 73 319l230 942h195l-402 -1466h-187l-309 1117q-39 140 -46 172q-23 -101 -43 -172l-311 -1117h-198z"/>
<glyph glyph-name="X" horiz-adv-x="1407" unicode="X" d="M9 0l567 764l-500 702h231l266 -376q83 -117 118 -180q49 80 116 167l295 389h211l-515 -691l555 -775h-240l-369 523q-31 45 -64 98q-49 -80 -70 -110l-368 -511h-233z"/>
<glyph glyph-name="Y" horiz-adv-x="1394" unicode="Y" d="M571 0v621l-565 845h236l289 -442q80 -124 149 -248q66 115 160 259l284 431h226l-585 -845v-621h-194z"/>
<glyph glyph-name="Z" horiz-adv-x="1281" unicode="Z" d="M41 0v180l751 939q80 100 152 174h-818v173h1050v-173l-823 -1017l-89 -103h936v-173h-1159z"/>
<glyph glyph-name="bracketleft" horiz-adv-x="702" unicode="[" d="M139 -407v1873h397v-149h-217v-1575h217v-149h-397z"/>
<glyph glyph-name="backslash" horiz-adv-x="572" unicode="\" d="M425 -25l-425 1516h145l424 -1516h-144z"/>
<glyph glyph-name="bracketright" horiz-adv-x="526" unicode="]" d="M436 -407h-397v149h217v1575h-217v149h397v-1873z"/>
<glyph glyph-name="asciicircum" horiz-adv-x="997" unicode="^" d="M239 690h-185l353 801h145l355 -801h-181l-247 597z"/>
<glyph glyph-name="underscore" horiz-adv-x="1133" unicode="_" d="M-31 -407v130h1193v-130h-1193z"/>
<glyph glyph-name="grave" horiz-adv-x="584" unicode="`" d="M465 1194h-145l-231 280h241z"/>
<glyph glyph-name="a" horiz-adv-x="1205" unicode="a" d="M813 533q-98 -40 -294 -68q-111 -16 -157 -36t-71 -58.5t-25 -85.5q0 -72 54.5 -120t159.5 -48q104 0 185 45.5t119 124.5q29 61 29 180v66zM828 131q-100 -85 -192.5 -120t-198.5 -35q-175 0 -269 85.5t-94 218.5q0 78 35.5 142.5t93 103.5t129.5 59q53 14 160 27 q218 26 321 62q1 37 1 47q0 110 -51 155q-69 61 -205 61q-127 0 -187.5 -44.5t-89.5 -157.5l-176 24q24 113 79 182.5t159 107t241 37.5q136 0 221 -32t125 -80.5t56 -122.5q9 -46 9 -166v-240q0 -251 11.5 -317.5t45.5 -127.5h-188q-28 56 -36 131z"/>
<glyph glyph-name="b" horiz-adv-x="1194" unicode="b" d="M299 539q0 -191 52 -276q85 -139 230 -139q118 0 204 102t86 306q-1 208 -83 307t-199 99q-118 0 -204 -102t-86 -297zM301 0h-167v1466h180v-523q114 143 291 143q97 0 185 -40t144 -110q56 -72 89 -173q32 -101 32 -216q0 -273 -135 -422t-324 -149q-188 0 -295 157 v-133z"/>
<glyph glyph-name="c" horiz-adv-x="1119" unicode="c" d="M828 389l177 -23q-29 -183 -148.5 -286.5t-293.5 -103.5q-218 0 -350.5 142.5t-132.5 408.5q0 172 57 301t173.5 193.5t253.5 64.5q173 0 283 -87.5t141 -248.5l-175 -27q-25 107 -88.5 161t-153.5 54q-136 0 -221 -97.5t-85 -308.5q0 -214 82 -311t214 -97q106 0 177 65 t90 200z"/>
<glyph glyph-name="d" horiz-adv-x="1131" unicode="d" d="M255 530q0 -204 86 -305t203 -101q118 0 200 96t83 295q0 218 -84 320t-207 102q-120 0 -200 -98t-81 -309zM824 0v134q-101 -158 -297 -158q-127 0 -233 70t-166 196q-58 126 -58 288q0 158 53 288t159 199t237 69q96 0 171 -40t122 -106v526h179v-1466h-167z"/>
<glyph glyph-name="e" horiz-adv-x="1194" unicode="e" d="M271 633h593q-12 134 -68 201q-86 104 -223 104q-124 0 -208.5 -83t-93.5 -222zM862 342l186 -23q-44 -163 -163 -253t-304 -90q-233 0 -369.5 143.5t-136.5 402.5q0 268 138 416t358 148q213 0 348 -145t135 -408q0 -16 -1 -48h-792q10 -175 99 -268t222 -93 q99 0 169 52t111 166z"/>
<glyph glyph-name="f" horiz-adv-x="640" unicode="f" d="M178 0v922h-159v140h159v113q0 107 19 159q25 70 91 114t184 43q76 0 168 -18l-27 -157q-56 10 -106 10q-82 0 -116 -35t-34 -131v-98h207v-140h-207v-922h-179z"/>
<glyph glyph-name="g" horiz-adv-x="1119" unicode="g" d="M251 550q0 -209 83 -305t208 -96q124 -1 208 95t84 300q0 195 -86 294t-209 99q-120 1 -204 -97t-84 -290zM102 -88l175 -26q11 -81 61 -118q67 -50 183 -50q125 0 193 50t92 140q13 51 13 208v23q-118 -139 -294 -139q-219 0 -339 158t-120 379q0 153 55 281t159 198 t246 70q188 0 310 -152v128h166v-918q0 -248 -50 -352t-160 -163q-110 -60 -270 -60q-190 -1 -307 85q-113 83 -113 247v11z"/>
<glyph glyph-name="h" horiz-adv-x="1090" unicode="h" d="M135 0v1466h180v-526q126 146 318 146q118 0 205 -46q86 -46 124 -129q38 -82 38 -238v-673h-180v673q0 135 -58 197t-166 61q-80 1 -150 -41t-101 -113q-30 -71 -30 -196v-581h-180z"/>
<glyph glyph-name="i" horiz-adv-x="463" unicode="i" d="M136 0v1062h180v-1062h-180zM136 1259v207h180v-207h-180z"/>
<glyph glyph-name="j" horiz-adv-x="507" unicode="j" d="M-94 -412l34 153q54 -14 85 -14q55 1 82 37t27 182v1116h180v-1120q0 -196 -51 -273q-65 -100 -216 -100q-73 0 -141 19zM134 1257v209h180v-209h-180z"/>
<glyph glyph-name="k" horiz-adv-x="1053" unicode="k" d="M136 0v1466h180v-836l426 432h233l-406 -394l447 -668h-222l-351 543l-127 -122v-421h-180z"/>
<glyph glyph-name="l" horiz-adv-x="530" unicode="l" d="M131 0v1466h180v-1466h-180z"/>
<glyph glyph-name="m" horiz-adv-x="1707" unicode="m" d="M135 0v1062h161v-149q50 77 133 125t189 48q118 0 194 -49t106 -137q126 186 328 186q158 0 243 -88t85 -269v-729h-179v669q1 107 -17 155t-64 77t-108 29q-112 0 -186 -74t-74 -239v-617h-180v690q0 120 -44 180t-144 60q-76 0 -140 -40t-94 -117q-29 -77 -29 -222 v-551h-180z"/>
<glyph glyph-name="n" horiz-adv-x="1117" unicode="n" d="M135 0v1062h162v-151q117 175 338 175q96 0 176.5 -34.5t120.5 -90.5t56 -133q10 -50 10 -175v-653h-180v646q0 110 -21 164.5t-74.5 87t-125.5 32.5q-115 0 -198.5 -73t-83.5 -277v-580h-180z"/>
<glyph glyph-name="o" horiz-adv-x="1223" unicode="o" d="M253 531q0 -204 89 -305.5t224 -101.5q134 0 223 102t89 311q0 197 -89.5 298.5t-222.5 101.5q-135 0 -224 -101t-89 -305zM68 531q0 295 164 437q137 118 334 118q219 0 358 -143.5t139 -396.5q0 -205 -61.5 -322.5t-179 -182.5t-256.5 -65q-223 0 -360.5 143 t-137.5 412z"/>
<glyph glyph-name="p" horiz-adv-x="1182" unicode="p" d="M298 525q0 -205 83 -303t201 -98q120 0 206 102t85 314q1 203 -83 304t-200 101q-116 1 -204 -107t-88 -313zM135 -407v1469h164v-138q58 82 131 122t177 40q136 0 240 -70t157 -198t53 -279q-1 -163 -59 -293t-170 -200t-234 -70q-90 0 -162 38t-117 96v-517h-180z"/>
<glyph glyph-name="q" horiz-adv-x="1152" unicode="q" d="M257 534q0 -206 86 -308t206 -102q115 0 198 98t83 296q0 212 -88 319t-205 107t-199 -100t-81 -310zM812 -407v520q-42 -59 -118 -98t-160 -39q-190 0 -326 151t-136 414q0 160 56 287q56 126 160 192q106 66 232 66q197 0 310 -166v142h162v-1469h-180z"/>
<glyph glyph-name="r" horiz-adv-x="831" unicode="r" d="M133 0v1062h162v-161q63 113 115 149t115 36q91 0 185 -58l-62 -167q-66 39 -132 39q-59 0 -106 -36t-67 -98q-30 -96 -30 -210v-556h-180z"/>
<glyph glyph-name="s" horiz-adv-x="1025" unicode="s" d="M63 317l178 28q15 -107 83 -164t192 -57t184 50t60 119q0 61 -53 96q-37 24 -184 61q-199 50 -275 86t-116 102q-40 64 -39 142q1 72 33 132t88 100q42 30 114 52t156 22q126 0 220 -36t139 -98t62 -164l-176 -24q-11 82 -69 128t-163 46q-124 0 -177 -41t-53 -96 q0 -35 22 -63q22 -29 69 -48q27 -10 159 -46q191 -52 267 -84t118 -94q43 -62 43 -154q-1 -90 -53 -170t-151 -122q-99 -44 -224 -44q-207 0 -315 86t-139 255z"/>
<glyph glyph-name="t" horiz-adv-x="638" unicode="t" d="M528 161l26 -159q-76 -16 -136 -16q-98 0 -152 31t-76 81t-22 213v611h-132v140h132v263l179 108v-371h181v-140h-181v-621q-1 -77 9 -99t32 -35t61 -13q30 0 79 7z"/>
<glyph glyph-name="u" horiz-adv-x="1150" unicode="u" d="M831 0v156q-124 -180 -337 -180q-94 0 -175.5 36t-121 90.5t-55.5 133.5q-11 53 -11 168v658h180v-589q0 -141 11 -190q17 -71 72 -111.5t136 -40.5t152 41.5t100.5 113t29.5 207.5v569h180v-1062h-161z"/>
<glyph glyph-name="v" horiz-adv-x="1030" unicode="v" d="M430 0l-404 1062h190l228 -636q37 -103 68 -214q24 84 67 202l236 648h185l-402 -1062h-168z"/>
<glyph glyph-name="w" horiz-adv-x="1500" unicode="w" d="M331 0l-325 1062h186l169 -613l63 -228q4 17 55 219l169 622h185l159 -616l53 -203l61 205l182 614h175l-332 -1062h-187l-169 636l-41 181l-215 -817h-188z"/>
<glyph glyph-name="x" horiz-adv-x="1050" unicode="x" d="M15 0l388 552l-359 510h225l163 -249q46 -71 74 -119q44 66 81 117l179 251h215l-367 -500l395 -562h-221l-218 330l-58 89l-279 -419h-218z"/>
<glyph glyph-name="y" horiz-adv-x="1058" unicode="y" d="M127 -409l-20 169q59 -16 103 -16q60 0 96 20t59 56q17 27 55 134q5 15 16 44l-403 1064h194l221 -615q43 -117 77 -246q31 124 74 242l227 619h180l-404 -1080q-65 -175 -101 -241q-48 -89 -110 -130.5t-148 -41.5q-52 0 -116 22z"/>
<glyph glyph-name="z" horiz-adv-x="1067" unicode="z" d="M40 0v146l676 776q-115 -6 -203 -6h-433v146h868v-119l-575 -674l-111 -123q121 9 227 9h491v-155h-940z"/>
<glyph glyph-name="braceleft" horiz-adv-x="784" unicode="{" d="M57 612q77 2 125 42t65 108q16 69 17 236t6 220q10 84 34 135t60 81t92 47q38 10 124 10h56v-157h-31q-104 0 -138 -38t-34 -167q0 -262 -11 -331q-18 -107 -62 -165t-136 -103q110 -46 160 -140t49 -310q0 -195 4 -232q9 -68 41 -95t127 -27h31v-157h-56q-98 0 -142 16 q-64 23 -106 75t-54 130q-12 79 -14 259q-1 180 -17 249q-17 69 -65 109t-125 42v163z"/>
<glyph glyph-name="bar" horiz-adv-x="508" unicode="|" d="M188 -431v1922h157v-1922h-157z"/>
<glyph glyph-name="braceright" horiz-adv-x="713" unicode="}" d="M626 612v-163q-78 -2 -126 -42q-48 -41 -64 -109t-17 -235t-6 -220q-9 -85 -33 -135t-61 -82q-36 -30 -92 -46q-38 -11 -124 -11h-56v157h31q104 0 138 38t34 168q0 250 9 317q16 111 64 177t136 104q-115 56 -162 146t-47 305q0 195 -5 233q-7 68 -39 94t-128 26h-31 v157h56q98 0 142 -16q64 -22 106 -74q43 -52 55 -131t13 -259q1 -181 17 -249t64 -108t126 -42z"/>
<glyph glyph-name="asciitilde" horiz-adv-x="1237" unicode="~" d="M87 557v205q106 120 278 120q60 0 126 -18t188 -69q69 -29 103 -38t70 -9q64 0 134 39t124 98v-212q-64 -60 -130 -87t-147 -27q-61 0 -115 14t-172 67t-198 53q-64 1 -120 -27t-141 -109z"/>
<glyph glyph-name="exclamdown" horiz-adv-x="660" unicode="¡" d="M400 697l55 -776v-325h-223v325l52 776h116zM447 1062v-205h-207v205h207z"/>
<glyph glyph-name="cent" horiz-adv-x="1119" unicode="¢" d="M638 940q-32 3 -50 3q-82 1 -154 -45t-106 -142q-36 -96 -36 -221q0 -132 32 -223t91 -135zM744 894l-222 -766q33 -9 61 -9q103 0 179 71t93 199l179 -20q-32 -185 -156 -291t-292 -106q-49 0 -103 14l-118 -395l-112 32l115 398q-115 55 -188 183t-73 322q1 178 59 306 t174 191q116 64 238 64q36 0 100 -8l113 387l110 -32l-112 -387q99 -43 152 -115t74 -182l-175 -27q-26 112 -96 171z"/>
<glyph glyph-name="sterling" horiz-adv-x="1241" unicode="£" d="M396 809h315v-148h-284q19 -44 19 -88q0 -87 -42 -184t-136 -198q79 22 144 22q83 0 187 -25q172 -41 233 -41q74 0 192 56l58 -165q-92 -39 -142 -51t-101 -12q-42 0 -85 8q-28 5 -130 37t-132 37q-47 8 -94 8q-72 0 -154 -25t-148 -68l-69 173q96 53 163 151t67 241 q0 61 -17 124h-196v148h154q-33 111 -42 163t-9 101q0 208 154 325q124 93 300 93q181 1 299 -99t144 -280l-179 -27q-15 120 -89 189t-179 69q-111 1 -185 -71t-73 -173q0 -111 57 -290z"/>
<glyph glyph-name="currency" horiz-adv-x="1209" unicode="¤" d="M305 726q0 -108 76 -184t183 -76t183 76t76 184q1 107 -75 183t-184 76q-107 0 -183 -76t-76 -183zM213 961l-139 136l115 119l139 -139q106 72 237 72q132 0 237 -72l139 139l116 -119l-139 -136q71 -110 71 -235q0 -126 -71 -236l139 -136l-116 -119l-139 140 q-105 -73 -237 -73q-131 0 -237 73l-139 -140l-115 119l139 136q-71 110 -71 236q0 125 71 235z"/>
<glyph glyph-name="yen" horiz-adv-x="1160" unicode="¥" d="M477 0v325h-415v139h415v143h-415v148h341l-406 711h200l290 -516q49 -88 76 -154q23 53 82 163l274 507h214l-405 -711h341v-148h-412v-143h412v-139h-412v-325h-180z"/>
<glyph glyph-name="brokenbar" horiz-adv-x="562" unicode="¦" d="M345 360v-791h-157v791h157zM345 1491v-790h-157v790h157z"/>
<glyph glyph-name="section" horiz-adv-x="1205" unicode="§" d="M728 244q74 38 110 88t37 99q0 57 -52 120q-53 63 -225 169q-137 84 -204 138q-82 -46 -116 -92t-34 -102q0 -63 46 -120t207 -152q134 -79 231 -148zM143 -70l181 26q28 -130 89 -182t166 -53q101 0 159 52t58 122q0 51 -36 94q-62 75 -340 245q-148 90 -206 142 t-96 122q-37 70 -37 146q0 96 60 174t165 109q-71 67 -100 125t-29 123q0 128 100 222t265 94q187 0 292 -89t126 -258l-187 -19q-21 122 -73 170t-142 48q-92 1 -148 -49t-57 -110q0 -52 36 -96q56 -68 306 -220q157 -96 212 -141q71 -60 105 -124t33 -139q0 -113 -73 -193 q-42 -46 -154 -93q80 -61 120 -131t39 -150q0 -89 -50 -167t-144 -120t-203 -41q-191 -1 -303 95t-134 266z"/>
<glyph glyph-name="dieresis" horiz-adv-x="750" unicode="¨" d="M434 1270v205h188v-205h-188zM61 1270v205h188v-205h-188z"/>
<glyph glyph-name="copyright" horiz-adv-x="1536" unicode="©" d="M1000 614l123 -36q-29 -126 -127 -200t-237 -74q-176 0 -286 114t-110 316q0 132 50 230q51 98 143 146q92 50 211 50q133 0 221 -64t120 -172l-119 -29q-31 73 -89 113t-137 40q-115 0 -189 -82t-75 -235q1 -153 71 -231t182 -79q90 0 158 52t90 141zM758 1366 q-160 0 -310 -82t-235 -232q-85 -152 -85 -316q0 -162 84 -312t233 -234q150 -84 313 -83q163 -1 313 83t233 234t83 312q-1 164 -85 316t-235 232q-151 82 -309 82zM758 1491q190 1 371 -97t282 -280t101 -378q0 -195 -100 -375q-100 -179 -278 -279q-180 -100 -376 -100 t-376 100t-279 279q-100 180 -100 375q-1 196 101 378t283 280t371 97z"/>
<glyph glyph-name="ordfeminine" horiz-adv-x="756" unicode="ª" d="M533 1104q-53 -14 -192 -36q-90 -14 -117 -39q-28 -26 -28 -64q0 -41 34 -70t96 -29q73 0 127 39t72 96q7 20 8 103zM548 853q-122 -107 -256 -107q-113 0 -179 62t-66 157q0 48 16 84q15 36 47 64t82 45q35 11 99 21l147 22q72 14 96 20q-1 70 -14 94q-12 23 -48 41 t-95 18q-79 0 -118 -32t-48 -93l-137 34q12 89 88 149t217 59q164 0 232 -61q67 -62 67 -181v-240l-1 -61q0 -134 41 -184h-148q-20 40 -22 89z"/>
<glyph glyph-name="guillemotleft" horiz-adv-x="1184" unicode="«" d="M727 528l264 -456h-152l-313 456l313 456h152zM340 528l259 -456h-146l-319 456l319 456h148z"/>
<glyph glyph-name="logicalnot" horiz-adv-x="1323" unicode="¬" d="M1082 424h-170v438h-798v168h968v-606z"/>
<glyph glyph-name="uni00AD" horiz-adv-x="724" unicode="­" d="M65 440v181h553v-181h-553z"/>
<glyph glyph-name="registered" horiz-adv-x="1593" unicode="®" d="M558 776h159q113 0 155 34t42 90q0 36 -20 64t-56 43q-36 14 -131 14h-149v-245zM427 319v812h279q143 -1 207 -23t102 -78t38 -119q1 -89 -63 -155t-169 -74q43 -18 69 -43q49 -48 120 -161l99 -159h-160l-72 128q-85 151 -137 189q-36 28 -105 28h-77v-345h-131z M758 1366q-160 0 -310 -82t-235 -232q-85 -152 -85 -316q0 -162 84 -312t233 -234q150 -84 313 -83q163 -1 313 83t233 234t83 312q-1 164 -85 316t-235 232q-151 82 -309 82zM758 1491q190 1 371 -97t282 -280t101 -378q0 -195 -100 -375q-100 -179 -278 -279 q-180 -100 -376 -100t-376 100t-279 279q-100 180 -100 375q-1 196 101 378t283 280t371 97z"/>
<glyph glyph-name="macron" horiz-adv-x="1129" unicode="¯" d="M-31 1566v129h1193v-129h-1193z"/>
<glyph glyph-name="degree" horiz-adv-x="830" unicode="°" d="M237 1214q-1 -70 49 -120t120 -49q68 -1 118 49t50 120t-50 120t-118 49q-70 1 -120 -49t-49 -120zM128 1214q0 115 82 196t195 81q116 0 197 -81t81 -196q1 -114 -81 -196t-197 -82q-113 0 -195 81t-82 197z"/>
<glyph glyph-name="plusminus" horiz-adv-x="1144" unicode="±" d="M1046 0h-968v168h968v-168zM477 260v403h-399v167h399v399h170v-399h399v-167h-399v-403h-170z"/>
<glyph glyph-name="twosuperior" horiz-adv-x="700" unicode="²" d="M25 733q6 57 47 114q63 87 207 191t171 134q37 41 37 84q0 48 -35 79t-103 31q-67 0 -99 -24t-53 -90l-151 16q28 112 100 164t206 52q152 0 222 -59t70 -144q0 -84 -59 -159q-45 -56 -205 -171q-83 -61 -118 -97h386v-121h-623z"/>
<glyph glyph-name="threesuperior" horiz-adv-x="679" unicode="³" d="M33 929l146 15q20 -60 52 -82q43 -30 102 -30q71 0 114 39t43 94q0 50 -36 80t-123 30q-12 0 -33 -2q-14 -1 -22 -1l22 110h5q77 0 113 29q38 30 38 73q0 37 -30 63t-89 26q-55 0 -87 -22t-55 -80l-143 23q42 106 104 148t182 42q144 0 210 -54t65 -133q1 -55 -35 -98 t-103 -62q89 -23 131 -73t42 -118q0 -93 -79 -162t-225 -69q-140 -1 -214 55t-95 159z"/>
<glyph glyph-name="acute" horiz-adv-x="839" unicode="´" d="M222 1194l133 280h236l-220 -280h-149z"/>
<glyph glyph-name="mu" horiz-adv-x="1242" unicode="µ" d="M1018 1062v-1062h-161v126q-52 -80 -103 -110q-70 -41 -163 -41q-83 0 -147 33q-48 25 -106 99v-514h-178v1469h178v-450q0 -246 26 -318t84 -114t135 -42q80 0 143 44t89 114t26 313v453h177z"/>
<glyph glyph-name="paragraph" horiz-adv-x="1125" unicode="¶" d="M405 -407v1045q-187 10 -295 122t-109 284q1 194 121 308t352 114h633v-173h-144v-1700h-170v1700h-223v-1700h-165z"/>
<glyph glyph-name="periodcentered" horiz-adv-x="604" unicode="·" d="M238 637v205h205v-205h-205z"/>
<glyph glyph-name="cedilla" horiz-adv-x="670" unicode="¸" d="M216 -154l52 177h134l-33 -107q85 -10 128 -52.5t43 -94.5q0 -75 -72 -132.5t-217 -57.5q-82 0 -144 12l11 117q64 -4 94 -4q94 0 132 26q29 20 29 49q0 18 -11.5 32t-42.5 24t-103 11z"/>
<glyph glyph-name="onesuperior" horiz-adv-x="607" unicode="¹" d="M331 733v554q-102 -81 -224 -113v123q62 20 138 73t123 114h108v-751h-145z"/>
<glyph glyph-name="ordmasculine" horiz-adv-x="729" unicode="º" d="M373 1358q-81 0 -131 -57t-49 -186q1 -127 51 -185t129 -58q80 0 130 58t50 190q-1 122 -51 180t-129 58zM373 1491q145 0 237 -100t91 -276q0 -175 -92 -275t-235 -100q-145 0 -237 98t-92 273q-1 180 91 280t237 100z"/>
<glyph glyph-name="guillemotright" horiz-adv-x="1176" unicode="»" d="M404 528l-264 456h151l314 -456l-314 -456h-151zM791 528l-261 456h148l319 -456l-319 -456h-147z"/>
<glyph glyph-name="onequarter" horiz-adv-x="1905" unicode="¼" d="M1430 231v263l-230 -263h230zM1430 -31v154h-383v123l405 474h122v-489h104v-108h-104v-154h-144zM331 733v554q-102 -81 -224 -113v123q62 20 138 73t123 114h108v-751h-145zM252 -57l1102 1548h156l-1101 -1548h-157z"/>
<glyph glyph-name="onehalf" horiz-adv-x="1916" unicode="½" d="M1049 -31q6 56 48 113q62 87 206 191t171 135q37 41 37 84q-1 48 -35 78t-103 31q-67 1 -99 -23t-53 -90l-151 15q29 113 101 165t205 52q152 0 222 -59t70 -144q0 -84 -59 -159q-45 -56 -204 -172q-84 -61 -119 -96h386v-121h-623zM331 733v554q-102 -81 -224 -113v123 q62 20 138 73t123 114h108v-751h-145zM228 -57l1101 1548h157l-1101 -1548h-157z"/>
<glyph glyph-name="threequarters" horiz-adv-x="1769" unicode="¾" d="M1429 231v263l-229 -263h229zM1429 -31v154h-382v123l404 474h123v-489h104v-108h-104v-154h-145zM33 929l146 15q20 -60 52 -82q43 -30 102 -30q71 0 114 39t43 94q0 50 -36 80t-120 30q-50 -3 -58 -3l22 110h5q77 0 113 29q38 30 38 73q0 37 -30 63t-89 26 q-55 0 -87 -22t-55 -80l-143 23q42 106 104 148t182 42q144 0 210 -54t65 -133q1 -55 -35 -98t-103 -62q89 -23 131 -73t42 -118q0 -93 -79 -162t-225 -69q-140 -1 -214 55t-95 159zM252 -57l1101 1548h157l-1101 -1548h-157z"/>
<glyph glyph-name="questiondown" horiz-adv-x="1275" unicode="¿" d="M721 701q1 -34 1 -51q0 -110 -30 -187q-22 -58 -71 -117q-35 -43 -129 -125t-122 -131t-27 -107q0 -106 82 -185t201 -79q114 0 192 72t101 224l184 -21q-25 -203 -149 -313t-325 -110q-215 0 -343 117t-128 283q0 97 44 177t176 196q89 79 116 116q28 37 40 85t14 156 h173zM733 1062v-205h-205v205h205z"/>
<glyph glyph-name="Agrave" horiz-adv-x="1373" unicode="À" d="M420 602h497l-153 406q-70 185 -104 304q-28 -141 -79 -280zM-3 0l563 1466h209l600 -1466h-221l-171 444h-613l-161 -444h-206zM745 1601h-145l-231 280h241z"/>
<glyph glyph-name="Aacute" horiz-adv-x="1373" unicode="Á" d="M420 602h497l-153 406q-70 185 -104 304q-28 -141 -79 -280zM-3 0l563 1466h209l600 -1466h-221l-171 444h-613l-161 -444h-206zM578 1516l133 280h236l-220 -280h-149z"/>
<glyph glyph-name="Acircumflex" horiz-adv-x="1373" unicode="Â" d="M420 602h497l-153 406q-70 185 -104 304q-28 -141 -79 -280zM-3 0l563 1466h209l600 -1466h-221l-171 444h-613l-161 -444h-206zM663 1690l-113 -170h-206l216 280h192l225 -280h-204z"/>
<glyph glyph-name="Atilde" horiz-adv-x="1373" unicode="Ã" d="M420 602h497l-153 406q-70 185 -104 304q-28 -141 -79 -280zM-3 0l563 1466h209l600 -1466h-221l-171 444h-613l-161 -444h-206zM317 1583q-1 104 57 166q57 62 146 62q62 0 169 -54q59 -30 94 -30q32 0 49 17.5t24 69.5h130q-3 -114 -57.5 -171t-138.5 -57 q-63 0 -166 56q-67 36 -98 36q-34 0 -55 -24q-22 -24 -21 -71h-133z"/>
<glyph glyph-name="Adieresis" horiz-adv-x="1373" unicode="Ä" d="M420 602h497l-153 406q-70 185 -104 304q-28 -141 -79 -280zM-3 0l563 1466h209l600 -1466h-221l-171 444h-613l-161 -444h-206zM752 1506v205h188v-205h-188zM379 1506v205h188v-205h-188z"/>
<glyph glyph-name="Aring" horiz-adv-x="1373" unicode="Å" d="M420 602h497l-153 406q-70 185 -104 304q-28 -141 -79 -280zM-3 0l563 1466h209l600 -1466h-221l-171 444h-613l-161 -444h-206zM546 1723q0 -47 32 -79t74 -32t74 32t32 77t-31 77t-75 32q-42 0 -74 -32t-32 -75zM470 1724q0 73 54 126t126 53q74 1 127 -53t53 -130 q0 -77 -53 -130t-126 -53q-75 -1 -128 53t-53 134z"/>
<glyph glyph-name="AE" horiz-adv-x="2036" unicode="Æ" d="M493 595h484v698h-145zM1 0l705 1466h1203v-173h-737v-451h685v-172h-685v-497h764v-173h-959v423h-566l-200 -423h-210z"/>
<glyph glyph-name="Ccedilla" horiz-adv-x="1557" unicode="Ç" d="M1204 514l194 -49q-61 -239 -219.5 -364.5t-387.5 -125.5q-237 0 -385.5 96.5t-226 279.5t-77.5 393q0 229 87.5 399.5t249 259t355.5 88.5q220 0 370 -112t209 -315l-191 -45q-51 160 -148 233t-244 73q-169 0 -282.5 -81t-159.5 -217.5t-46 -281.5q0 -187 54.5 -326.5 t169.5 -208.5t249 -69q163 0 276 94t153 279zM671 -154l52 177h134l-33 -107q85 -10 128 -52.5t43 -94.5q0 -75 -72 -132.5t-217 -57.5q-82 0 -144 12l11 117q64 -4 94 -4q94 0 132 26q29 20 29 49q0 18 -11.5 32t-42.5 24t-103 11z"/>
<glyph glyph-name="Egrave" horiz-adv-x="1380" unicode="È" d="M162 0v1466h1060v-173h-866v-449h811v-172h-811v-499h900v-173h-1094zM786 1549h-145l-231 280h241z"/>
<glyph glyph-name="Eacute" horiz-adv-x="1380" unicode="É" d="M162 0v1466h1060v-173h-866v-449h811v-172h-811v-499h900v-173h-1094zM515 1645l133 280h236l-220 -280h-149z"/>
<glyph glyph-name="Ecircumflex" horiz-adv-x="1380" unicode="Ê" d="M162 0v1466h1060v-173h-866v-449h811v-172h-811v-499h900v-173h-1094zM703 1819l-113 -170h-206l216 280h192l225 -280h-204z"/>
<glyph glyph-name="Edieresis" horiz-adv-x="1380" unicode="Ë" d="M162 0v1466h1060v-173h-866v-449h811v-172h-811v-499h900v-173h-1094zM759 1643v205h188v-205h-188zM386 1643v205h188v-205h-188z"/>
<glyph glyph-name="Igrave" horiz-adv-x="562" unicode="Ì" d="M191 0v1466h194v-1466h-194zM373 1652h-145l-231 280h241z"/>
<glyph glyph-name="Iacute" horiz-adv-x="562" unicode="Í" d="M191 0v1466h194v-1466h-194zM174 1535l133 280h236l-220 -280h-149z"/>
<glyph glyph-name="Icircumflex" horiz-adv-x="562" unicode="Î" d="M191 0v1466h194v-1466h-194zM294 1706l-113 -170h-206l216 280h192l225 -280h-204z"/>
<glyph glyph-name="Idieresis" horiz-adv-x="562" unicode="Ï" d="M191 0v1466h194v-1466h-194zM375 1652v205h188v-205h-188zM2 1652v205h188v-205h-188z"/>
<glyph glyph-name="Eth" horiz-adv-x="1508" unicode="Ð" d="M352 173h313q146 0 228 27t130 75q69 69 108 185t39 283q0 172 -38 275t-101 165q-62 62 -138 86t-233 24h-308v-494h404v-132h-404v-494zM158 0v667h-161v132h161v667h506q170 0 260 -21q126 -29 215 -105q115 -98 173 -250t58 -349q0 -223 -71 -385t-170 -235 t-228 -104q-71 -17 -214 -17h-529z"/>
<glyph glyph-name="Ntilde" horiz-adv-x="1541" unicode="Ñ" d="M156 0v1466h199l770 -1151v1151h186v-1466h-199l-770 1152v-1152h-186zM426 1662q-1 104 57 166q57 62 146 62q62 0 169 -54q59 -30 94 -30q32 0 49 17.5t24 69.5h130q-3 -114 -57.5 -171t-138.5 -57q-63 0 -166 56q-67 36 -98 36q-34 0 -55 -24q-22 -24 -21 -71h-133z "/>
<glyph glyph-name="Ograve" horiz-adv-x="1707" unicode="Ò" d="M299 711q0 -265 142.5 -417.5t357.5 -152.5q219 0 360.5 154t141.5 437q0 179 -60.5 312.5t-177 207t-261.5 73.5q-206 0 -354.5 -141.5t-148.5 -472.5zM99 714q0 365 196 571.5t506 206.5q203 0 366 -97t248.5 -270.5t85.5 -393.5q0 -223 -90 -399t-255 -266.5 t-356 -90.5q-207 0 -370 100t-247 273t-84 366zM875 1619h-145l-231 280h241z"/>
<glyph glyph-name="Oacute" horiz-adv-x="1707" unicode="Ó" d="M299 711q0 -265 142.5 -417.5t357.5 -152.5q219 0 360.5 154t141.5 437q0 179 -60.5 312.5t-177 207t-261.5 73.5q-206 0 -354.5 -141.5t-148.5 -472.5zM99 714q0 365 196 571.5t506 206.5q203 0 366 -97t248.5 -270.5t85.5 -393.5q0 -223 -90 -399t-255 -266.5 t-356 -90.5q-207 0 -370 100t-247 273t-84 366zM675 1531l133 280h236l-220 -280h-149z"/>
<glyph glyph-name="Ocircumflex" horiz-adv-x="1707" unicode="Ô" d="M299 711q0 -265 142.5 -417.5t357.5 -152.5q219 0 360.5 154t141.5 437q0 179 -60.5 312.5t-177 207t-261.5 73.5q-206 0 -354.5 -141.5t-148.5 -472.5zM99 714q0 365 196 571.5t506 206.5q203 0 366 -97t248.5 -270.5t85.5 -393.5q0 -223 -90 -399t-255 -266.5 t-356 -90.5q-207 0 -370 100t-247 273t-84 366zM776 1711l-113 -170h-206l216 280h192l225 -280h-204z"/>
<glyph glyph-name="Otilde" horiz-adv-x="1707" unicode="Õ" d="M299 711q0 -265 142.5 -417.5t357.5 -152.5q219 0 360.5 154t141.5 437q0 179 -60.5 312.5t-177 207t-261.5 73.5q-206 0 -354.5 -141.5t-148.5 -472.5zM99 714q0 365 196 571.5t506 206.5q203 0 366 -97t248.5 -270.5t85.5 -393.5q0 -223 -90 -399t-255 -266.5 t-356 -90.5q-207 0 -370 100t-247 273t-84 366zM477 1647q-1 104 57 166q57 62 146 62q62 0 169 -54q59 -30 94 -30q32 0 49 17.5t24 69.5h130q-3 -114 -57.5 -171t-138.5 -57q-63 0 -166 56q-67 36 -98 36q-34 0 -55 -24q-22 -24 -21 -71h-133z"/>
<glyph glyph-name="Odieresis" horiz-adv-x="1707" unicode="Ö" d="M299 711q0 -265 142.5 -417.5t357.5 -152.5q219 0 360.5 154t141.5 437q0 179 -60.5 312.5t-177 207t-261.5 73.5q-206 0 -354.5 -141.5t-148.5 -472.5zM99 714q0 365 196 571.5t506 206.5q203 0 366 -97t248.5 -270.5t85.5 -393.5q0 -223 -90 -399t-255 -266.5 t-356 -90.5q-207 0 -370 100t-247 273t-84 366zM840 1574v205h188v-205h-188zM467 1574v205h188v-205h-188z"/>
<glyph glyph-name="multiply" horiz-adv-x="1215" unicode="×" d="M161 409l315 315l-314 314l122 122l314 -314l313 313l120 -121l-312 -313l314 -314l-122 -122l-314 314l-315 -315z"/>
<glyph glyph-name="Oslash" horiz-adv-x="1707" unicode="Ø" d="M1212 1094l-743 -832q77 -63 142 -88q85 -33 184 -33q218 0 360 154t142 432q0 208 -85 367zM1130 1197q-94 74 -164 101t-166 27q-219 -1 -362 -149t-143 -443q0 -116 22 -206q16 -67 67 -165zM1250 1332l168 188l99 -84l-176 -198q86 -128 116 -224q40 -126 40 -282 q0 -225 -91 -401q-92 -176 -256 -266t-349 -90q-138 0 -250 39q-86 30 -201 115l-168 -188l-99 84l176 197q-98 148 -131 254t-33 254q0 226 90 402q91 176 253 268q162 91 361 91q135 1 235 -35t216 -124z"/>
<glyph glyph-name="Ugrave" horiz-adv-x="1522" unicode="Ù" d="M1120 1466h194v-847q0 -221 -50 -351t-180.5 -211.5t-342.5 -81.5q-206 0 -337 71t-187 205.5t-56 367.5v847h194v-846q0 -191 35.5 -281.5t122 -139.5t211.5 -49q214 0 305 97t91 373v846zM851 1644h-145l-231 280h241z"/>
<glyph glyph-name="Uacute" horiz-adv-x="1522" unicode="Ú" d="M1120 1466h194v-847q0 -221 -50 -351t-180.5 -211.5t-342.5 -81.5q-206 0 -337 71t-187 205.5t-56 367.5v847h194v-846q0 -191 35.5 -281.5t122 -139.5t211.5 -49q214 0 305 97t91 373v846zM607 1540l133 280h236l-220 -280h-149z"/>
<glyph glyph-name="Ucircumflex" horiz-adv-x="1522" unicode="Û" d="M1120 1466h194v-847q0 -221 -50 -351t-180.5 -211.5t-342.5 -81.5q-206 0 -337 71t-187 205.5t-56 367.5v847h194v-846q0 -191 35.5 -281.5t122 -139.5t211.5 -49q214 0 305 97t91 373v846zM763 1815l-113 -170h-206l216 280h192l225 -280h-204z"/>
<glyph glyph-name="Udieresis" horiz-adv-x="1522" unicode="Ü" d="M1120 1466h194v-847q0 -221 -50 -351t-180.5 -211.5t-342.5 -81.5q-206 0 -337 71t-187 205.5t-56 367.5v847h194v-846q0 -191 35.5 -281.5t122 -139.5t211.5 -49q214 0 305 97t91 373v846zM823 1525v205h188v-205h-188zM450 1525v205h188v-205h-188z"/>
<glyph glyph-name="Yacute" horiz-adv-x="1394" unicode="Ý" d="M571 0v621l-565 845h236l289 -442q80 -124 149 -248q66 115 160 259l284 431h226l-585 -845v-621h-194zM523 1536l133 280h236l-220 -280h-149z"/>
<glyph glyph-name="Thorn" horiz-adv-x="1440" unicode="Þ" d="M352 471h379q188 0 267 70t79 196q0 91 -46 157t-122 87q-49 14 -182 14h-375v-524zM158 0v1466h194v-298h359q146 0 224 -14q108 -20 181 -70t117 -141t44 -200q0 -185 -119 -315t-430 -130h-376v-298h-194z"/>
<glyph glyph-name="germandbls" horiz-adv-x="1316" unicode="ß" d="M153 0v999q1 183 45 281t148 155q104 56 234 56q173 -1 272 -87t99 -200q0 -51 -18 -105q-18 -55 -64 -135t-58 -112t-12 -55q0 -32 22 -63q21 -32 121 -97q136 -89 181 -143q64 -77 64 -182q-1 -139 -103 -238t-262 -99q-126 -1 -221 67t-142 174l155 72 q50 -93 100 -129t105 -36q76 0 130 52t54 122q0 56 -32 96q-21 26 -112 88q-166 114 -205 171q-40 57 -40 117q0 39 14 79t64 128q52 88 68 132t16 78q0 62 -54 110t-146 47q-107 0 -175 -66t-68 -286v-991h-180z"/>
<glyph glyph-name="agrave" horiz-adv-x="1205" unicode="à" d="M813 533q-98 -40 -294 -68q-111 -16 -157 -36t-71 -58.5t-25 -85.5q0 -72 54.5 -120t159.5 -48q104 0 185 45.5t119 124.5q29 61 29 180v66zM828 131q-100 -85 -192.5 -120t-198.5 -35q-175 0 -269 85.5t-94 218.5q0 78 35.5 142.5t93 103.5t129.5 59q53 14 160 27 q218 26 321 62q1 37 1 47q0 110 -51 155q-69 61 -205 61q-127 0 -187.5 -44.5t-89.5 -157.5l-176 24q24 113 79 182.5t159 107t241 37.5q136 0 221 -32t125 -80.5t56 -122.5q9 -46 9 -166v-240q0 -251 11.5 -317.5t45.5 -127.5h-188q-28 56 -36 131zM676 1200h-145l-231 280 h241z"/>
<glyph glyph-name="aacute" horiz-adv-x="1205" unicode="á" d="M813 533q-98 -40 -294 -68q-111 -16 -157 -36t-71 -58.5t-25 -85.5q0 -72 54.5 -120t159.5 -48q104 0 185 45.5t119 124.5q29 61 29 180v66zM828 131q-100 -85 -192.5 -120t-198.5 -35q-175 0 -269 85.5t-94 218.5q0 78 35.5 142.5t93 103.5t129.5 59q53 14 160 27 q218 26 321 62q1 37 1 47q0 110 -51 155q-69 61 -205 61q-127 0 -187.5 -44.5t-89.5 -157.5l-176 24q24 113 79 182.5t159 107t241 37.5q136 0 221 -32t125 -80.5t56 -122.5q9 -46 9 -166v-240q0 -251 11.5 -317.5t45.5 -127.5h-188q-28 56 -36 131zM418 1194l133 280h236 l-220 -280h-149z"/>
<glyph glyph-name="acircumflex" horiz-adv-x="1205" unicode="â" d="M813 533q-98 -40 -294 -68q-111 -16 -157 -36t-71 -58.5t-25 -85.5q0 -72 54.5 -120t159.5 -48q104 0 185 45.5t119 124.5q29 61 29 180v66zM828 131q-100 -85 -192.5 -120t-198.5 -35q-175 0 -269 85.5t-94 218.5q0 78 35.5 142.5t93 103.5t129.5 59q53 14 160 27 q218 26 321 62q1 37 1 47q0 110 -51 155q-69 61 -205 61q-127 0 -187.5 -44.5t-89.5 -157.5l-176 24q24 113 79 182.5t159 107t241 37.5q136 0 221 -32t125 -80.5t56 -122.5q9 -46 9 -166v-240q0 -251 11.5 -317.5t45.5 -127.5h-188q-28 56 -36 131zM605 1364l-113 -170 h-206l216 280h192l225 -280h-204z"/>
<glyph glyph-name="atilde" horiz-adv-x="1205" unicode="ã" d="M813 533q-98 -40 -294 -68q-111 -16 -157 -36t-71 -58.5t-25 -85.5q0 -72 54.5 -120t159.5 -48q104 0 185 45.5t119 124.5q29 61 29 180v66zM828 131q-100 -85 -192.5 -120t-198.5 -35q-175 0 -269 85.5t-94 218.5q0 78 35.5 142.5t93 103.5t129.5 59q53 14 160 27 q218 26 321 62q1 37 1 47q0 110 -51 155q-69 61 -205 61q-127 0 -187.5 -44.5t-89.5 -157.5l-176 24q24 113 79 182.5t159 107t241 37.5q136 0 221 -32t125 -80.5t56 -122.5q9 -46 9 -166v-240q0 -251 11.5 -317.5t45.5 -127.5h-188q-28 56 -36 131zM268 1219q-1 104 57 166 q57 62 146 62q62 0 169 -54q59 -30 94 -30q32 0 49 17.5t24 69.5h130q-3 -114 -57.5 -171t-138.5 -57q-63 0 -166 56q-67 36 -98 36q-34 0 -55 -24q-22 -24 -21 -71h-133z"/>
<glyph glyph-name="adieresis" horiz-adv-x="1205" unicode="ä" d="M813 533q-98 -40 -294 -68q-111 -16 -157 -36t-71 -58.5t-25 -85.5q0 -72 54.5 -120t159.5 -48q104 0 185 45.5t119 124.5q29 61 29 180v66zM828 131q-100 -85 -192.5 -120t-198.5 -35q-175 0 -269 85.5t-94 218.5q0 78 35.5 142.5t93 103.5t129.5 59q53 14 160 27 q218 26 321 62q1 37 1 47q0 110 -51 155q-69 61 -205 61q-127 0 -187.5 -44.5t-89.5 -157.5l-176 24q24 113 79 182.5t159 107t241 37.5q136 0 221 -32t125 -80.5t56 -122.5q9 -46 9 -166v-240q0 -251 11.5 -317.5t45.5 -127.5h-188q-28 56 -36 131zM695 1270v205h188v-205 h-188zM322 1270v205h188v-205h-188z"/>
<glyph glyph-name="aring" horiz-adv-x="1205" unicode="å" d="M813 533q-98 -40 -294 -68q-111 -16 -157 -36q-46 -21 -71 -59t-25 -85q0 -72 54 -120t160 -48q104 -1 185 45t119 125q29 61 29 180v66zM828 131q-100 -85 -192 -120t-199 -35q-175 0 -269 86t-94 218q0 78 36 142t92 104q58 39 130 59q53 14 160 27q218 26 321 62 q1 37 1 47q0 110 -51 155q-69 61 -205 61q-128 -1 -188 -45t-89 -157l-176 24q24 113 79 183t159 106q104 38 241 38q136 0 221 -32t125 -80t56 -123q9 -46 9 -166v-240q-1 -251 11 -317t46 -128h-188q-28 56 -36 131zM494 1348q0 -47 32 -79t74 -32t74 32t32 77t-31 77 t-75 32q-42 1 -74 -31t-32 -76zM418 1349q0 73 54 126t126 53q74 0 127 -54t53 -129q0 -77 -53 -130t-126 -53q-75 0 -128 54t-53 133z"/>
<glyph glyph-name="ae" horiz-adv-x="1861" unicode="æ" d="M793 533q-79 -34 -322 -73q-109 -17 -153 -51q-59 -47 -59 -123q0 -72 53 -120t154 -48q114 0 200 57t112 142q15 52 15 216zM969 633h584q-14 158 -90 231t-198 73q-127 0 -207 -80t-89 -224zM1734 325q-50 -167 -170 -258t-298 -91q-126 0 -222 48t-173 150 q-105 -102 -211 -150t-229 -48q-171 0 -267 88t-96 216q0 86 50 162t138 114q88 39 282 64q150 20 252 49q1 25 1 41q-1 126 -53 176t-183 51q-87 0 -147 -21q-60 -22 -88 -60t-48 -123l-175 21q29 118 81 186t150 107t229 39q167 0 269 -50q59 -29 99 -93q64 71 145 107 t196 36q162 0 268 -78t155 -208q49 -129 49 -254q0 -19 -2 -61h-767q1 -144 35 -209q34 -64 108 -108t161 -44q103 0 175 59t98 166z"/>
<glyph glyph-name="ccedilla" horiz-adv-x="1119" unicode="ç" d="M828 389l177 -23q-29 -183 -148.5 -286.5t-293.5 -103.5q-218 0 -350.5 142.5t-132.5 408.5q0 172 57 301t173.5 193.5t253.5 64.5q173 0 283 -87.5t141 -248.5l-175 -27q-25 107 -88.5 161t-153.5 54q-136 0 -221 -97.5t-85 -308.5q0 -214 82 -311t214 -97q106 0 177 65 t90 200zM452 -154l52 177h134l-33 -107q85 -10 128 -52.5t43 -94.5q0 -75 -72 -132.5t-217 -57.5q-82 0 -144 12l11 117q64 -4 94 -4q94 0 132 26q29 20 29 49q0 18 -11.5 32t-42.5 24t-103 11z"/>
<glyph glyph-name="egrave" horiz-adv-x="1194" unicode="è" d="M271 633h593q-12 134 -68 201q-86 104 -223 104q-124 0 -208.5 -83t-93.5 -222zM862 342l186 -23q-44 -163 -163 -253t-304 -90q-233 0 -369.5 143.5t-136.5 402.5q0 268 138 416t358 148q213 0 348 -145t135 -408q0 -16 -1 -48h-792q10 -175 99 -268t222 -93 q99 0 169 52t111 166zM632 1167h-145l-231 280h241z"/>
<glyph glyph-name="eacute" horiz-adv-x="1194" unicode="é" d="M271 633h593q-12 134 -68 201q-86 104 -223 104q-124 0 -208.5 -83t-93.5 -222zM862 342l186 -23q-44 -163 -163 -253t-304 -90q-233 0 -369.5 143.5t-136.5 402.5q0 268 138 416t358 148q213 0 348 -145t135 -408q0 -16 -1 -48h-792q10 -175 99 -268t222 -93 q99 0 169 52t111 166zM412 1194l133 280h236l-220 -280h-149z"/>
<glyph glyph-name="ecircumflex" horiz-adv-x="1194" unicode="ê" d="M271 633h593q-12 134 -68 201q-86 104 -223 104q-124 0 -208.5 -83t-93.5 -222zM862 342l186 -23q-44 -163 -163 -253t-304 -90q-233 0 -369.5 143.5t-136.5 402.5q0 268 138 416t358 148q213 0 348 -145t135 -408q0 -16 -1 -48h-792q10 -175 99 -268t222 -93 q99 0 169 52t111 166zM599 1364l-113 -170h-206l216 280h192l225 -280h-204z"/>
<glyph glyph-name="edieresis" horiz-adv-x="1194" unicode="ë" d="M271 633h593q-12 134 -68 201q-86 104 -223 104q-124 0 -208.5 -83t-93.5 -222zM862 342l186 -23q-44 -163 -163 -253t-304 -90q-233 0 -369.5 143.5t-136.5 402.5q0 268 138 416t358 148q213 0 348 -145t135 -408q0 -16 -1 -48h-792q10 -175 99 -268t222 -93 q99 0 169 52t111 166zM689 1270v205h188v-205h-188zM316 1270v205h188v-205h-188z"/>
<glyph glyph-name="igrave" horiz-adv-x="515" unicode="ì" d="M369 1194h-145l-231 280h241zM198 0v1062h180v-1062h-180z"/>
<glyph glyph-name="iacute" horiz-adv-x="547" unicode="í" d="M166 1185l133 280h236l-220 -280h-149zM198 0v1062h180v-1062h-180z"/>
<glyph glyph-name="icircumflex" horiz-adv-x="463" unicode="î" d="M290 1360l-113 -170h-206l216 280h192l225 -280h-204zM198 0v1062h180v-1062h-180z"/>
<glyph glyph-name="idieresis" horiz-adv-x="463" unicode="ï" d="M352 1200v205h188v-205h-188zM-21 1200v205h188v-205h-188zM198 0v1062h180v-1062h-180z"/>
<glyph glyph-name="eth" horiz-adv-x="1229" unicode="ð" d="M870 529q0 191 -90 293t-223 102q-130 0 -215 -102t-85 -310q-1 -194 87 -292t219 -98q127 0 217 104t90 303zM308 1466h217q72 -54 125 -102l214 102l45 -102l-172 -83q320 -368 320 -760q0 -253 -139 -399t-354 -147q-255 0 -398 194q-93 127 -93 348q0 261 129 403 t323 142q58 0 102 -12t110 -47q-36 73 -63 113t-79 100l-275 -127l-44 103l239 109q-97 90 -207 165z"/>
<glyph glyph-name="ntilde" horiz-adv-x="1117" unicode="ñ" d="M135 0v1062h162v-151q117 175 338 175q96 0 176.5 -34.5t120.5 -90.5t56 -133q10 -50 10 -175v-653h-180v646q0 110 -21 164.5t-74.5 87t-125.5 32.5q-115 0 -198.5 -73t-83.5 -277v-580h-180zM224 1219q-1 104 57 166q57 62 146 62q62 0 169 -54q59 -30 94 -30 q32 0 49 17.5t24 69.5h130q-3 -114 -57.5 -171t-138.5 -57q-63 0 -166 56q-67 36 -98 36q-34 0 -55 -24q-22 -24 -21 -71h-133z"/>
<glyph glyph-name="ograve" horiz-adv-x="1223" unicode="ò" d="M253 531q0 -204 89 -305.5t224 -101.5q134 0 223 102t89 311q0 197 -89.5 298.5t-222.5 101.5q-135 0 -224 -101t-89 -305zM68 531q0 295 164 437q137 118 334 118q219 0 358 -143.5t139 -396.5q0 -205 -61.5 -322.5t-179 -182.5t-256.5 -65q-223 0 -360.5 143 t-137.5 412zM799 1194h-145l-231 280h241z"/>
<glyph glyph-name="oacute" horiz-adv-x="1223" unicode="ó" d="M253 531q0 -204 89 -305.5t224 -101.5q134 0 223 102t89 311q0 197 -89.5 298.5t-222.5 101.5q-135 0 -224 -101t-89 -305zM68 531q0 295 164 437q137 118 334 118q219 0 358 -143.5t139 -396.5q0 -205 -61.5 -322.5t-179 -182.5t-256.5 -65q-223 0 -360.5 143 t-137.5 412zM483 1194l133 280h236l-220 -280h-149z"/>
<glyph glyph-name="ocircumflex" horiz-adv-x="1223" unicode="ô" d="M253 531q0 -204 89 -305.5t224 -101.5q134 0 223 102t89 311q0 197 -89.5 298.5t-222.5 101.5q-135 0 -224 -101t-89 -305zM68 531q0 295 164 437q137 118 334 118q219 0 358 -143.5t139 -396.5q0 -205 -61.5 -322.5t-179 -182.5t-256.5 -65q-223 0 -360.5 143 t-137.5 412zM614 1364l-113 -170h-206l216 280h192l225 -280h-204z"/>
<glyph glyph-name="otilde" horiz-adv-x="1223" unicode="õ" d="M253 531q0 -204 89 -305.5t224 -101.5q134 0 223 102t89 311q0 197 -89.5 298.5t-222.5 101.5q-135 0 -224 -101t-89 -305zM68 531q0 295 164 437q137 118 334 118q219 0 358 -143.5t139 -396.5q0 -205 -61.5 -322.5t-179 -182.5t-256.5 -65q-223 0 -360.5 143 t-137.5 412zM189 1197q-1 104 57 166q57 62 146 62q62 0 169 -54q59 -30 94 -30q32 0 49 17.5t24 69.5h130q-3 -114 -57.5 -171t-138.5 -57q-63 0 -166 56q-67 36 -98 36q-34 0 -55 -24q-22 -24 -21 -71h-133z"/>
<glyph glyph-name="odieresis" horiz-adv-x="1223" unicode="ö" d="M253 531q0 -204 89 -305.5t224 -101.5q134 0 223 102t89 311q0 197 -89.5 298.5t-222.5 101.5q-135 0 -224 -101t-89 -305zM68 531q0 295 164 437q137 118 334 118q219 0 358 -143.5t139 -396.5q0 -205 -61.5 -322.5t-179 -182.5t-256.5 -65q-223 0 -360.5 143 t-137.5 412zM639 1174v205h188v-205h-188zM266 1174v205h188v-205h-188z"/>
<glyph glyph-name="divide" horiz-adv-x="1150" unicode="÷" d="M459 319v205h205v-205h-205zM1046 639h-968v168h968v-168zM459 922v205h205v-205h-205z"/>
<glyph glyph-name="oslash" horiz-adv-x="1223" unicode="ø" d="M893 770l-449 -583q78 -63 176 -63q140 0 230 102t90 306q0 76 -12 133q-8 42 -35 105zM818 867q-91 70 -191 70q-133 0 -223 -102t-90 -304q0 -150 52 -251zM919 999l99 128l96 -70l-107 -138q63 -86 86 -156q31 -100 31 -233q0 -300 -169 -441q-137 -113 -330 -113 q-159 0 -281 80l-105 -135l-94 71l108 141q-59 68 -84 136q-40 109 -40 247q0 302 147 436t345 134q82 0 151 -21t147 -66z"/>
<glyph glyph-name="ugrave" horiz-adv-x="1150" unicode="ù" d="M831 0v156q-124 -180 -337 -180q-94 0 -175.5 36t-121 90.5t-55.5 133.5q-11 53 -11 168v658h180v-589q0 -141 11 -190q17 -71 72 -111.5t136 -40.5t152 41.5t100.5 113t29.5 207.5v569h180v-1062h-161zM638 1194h-145l-231 280h241z"/>
<glyph glyph-name="uacute" horiz-adv-x="1150" unicode="ú" d="M831 0v156q-124 -180 -337 -180q-94 0 -175.5 36t-121 90.5t-55.5 133.5q-11 53 -11 168v658h180v-589q0 -141 11 -190q17 -71 72 -111.5t136 -40.5t152 41.5t100.5 113t29.5 207.5v569h180v-1062h-161zM390 1194l133 280h236l-220 -280h-149z"/>
<glyph glyph-name="ucircumflex" horiz-adv-x="1150" unicode="û" d="M831 0v156q-124 -180 -337 -180q-94 0 -175.5 36t-121 90.5t-55.5 133.5q-11 53 -11 168v658h180v-589q0 -141 11 -190q17 -71 72 -111.5t136 -40.5t152 41.5t100.5 113t29.5 207.5v569h180v-1062h-161zM577 1364l-113 -170h-206l216 280h192l225 -280h-204z"/>
<glyph glyph-name="udieresis" horiz-adv-x="1150" unicode="ü" d="M831 0v156q-124 -180 -337 -180q-94 0 -175.5 36t-121 90.5t-55.5 133.5q-11 53 -11 168v658h180v-589q0 -141 11 -190q17 -71 72 -111.5t136 -40.5t152 41.5t100.5 113t29.5 207.5v569h180v-1062h-161zM667 1178v205h188v-205h-188zM294 1178v205h188v-205h-188z"/>
<glyph glyph-name="yacute" horiz-adv-x="1058" unicode="ý" d="M127 -409l-20 169q59 -16 103 -16q60 0 96 20t59 56q17 27 55 134q5 15 16 44l-403 1064h194l221 -615q43 -117 77 -246q31 124 74 242l227 619h180l-404 -1080q-65 -175 -101 -241q-48 -89 -110 -130.5t-148 -41.5q-52 0 -116 22zM381 1148l133 280h236l-220 -280h-149z "/>
<glyph glyph-name="thorn" horiz-adv-x="1177" unicode="þ" d="M298 525q0 -205 83 -303t201 -98q120 0 206 102t85 314q1 203 -83 304t-200 101q-116 1 -204 -107t-88 -313zM135 -407v1873h180v-516q73 77 128 102q72 34 164 34q136 0 240 -70t157 -198t53 -279q-1 -164 -59 -294q-58 -129 -170 -199t-233 -70q-83 0 -154 33 q-54 26 -126 101v-517h-180z"/>
<glyph glyph-name="OE" horiz-adv-x="2201" unicode="Œ" d="M720 1334q-101 0 -197 -65t-145 -197t-49 -352q-1 -303 115 -446t276 -143q162 1 276 143t114 471q0 305 -116 447t-274 142zM1983 173v-173h-862v212q-135 -237 -400 -237q-301 0 -456 232q-136 205 -136 528q0 322 142 539t450 217q264 0 400 -223v198h831v-173h-650 v-448h599v-172h-599v-500h681z"/>
<glyph glyph-name="oe" horiz-adv-x="2034" unicode="œ" d="M1080 631h587q-11 151 -91 229t-198 78q-120 0 -204 -82t-94 -225zM267 533q0 -186 71 -283q92 -126 239 -126q129 0 221 106t92 305t-90 301t-223 102q-87 0 -160 -49t-111 -145t-39 -211zM978 175q-76 -99 -175 -149t-221 -50q-224 0 -362 143t-138 399q0 168 58 302 t178 200t266 66q138 0 240 -58t154 -145q64 93 164 148t225 55q220 0 356 -151q134 -149 134 -443v-9h-784q3 -167 93 -263t223 -96q99 0 171 56t103 166l180 -26q-43 -164 -161 -254t-296 -90q-134 0 -240 52t-168 147z"/>
<glyph glyph-name="Scaron" horiz-adv-x="1394" unicode="Š" d="M92 471l183 16q13 -111 61 -181t147 -114q100 -44 225 -43q111 0 196 33q84 32 126 90t42 126t-40 120t-132 87q-59 23 -261 71t-283 92q-104 54 -156 136t-52 183q0 111 63 207t184 147q121 50 269 50q164 -1 288 -53t191 -154t72 -231l-186 -14q-15 139 -101 210 t-256 71q-176 0 -256 -64t-81 -156q0 -79 57 -130q56 -50 292 -104t325 -94q128 -60 189 -150t61 -208q0 -116 -67 -220q-66 -104 -192 -162t-283 -57q-199 0 -333 58q-134 59 -212 175q-76 116 -80 263zM668 1637l110 170h204l-225 -280h-192l-216 280h206z"/>
<glyph glyph-name="scaron" horiz-adv-x="1025" unicode="š" d="M63 317l178 28q15 -107 83 -164t192 -57t184 50t60 119q0 61 -53 96q-37 24 -184 61q-199 50 -275 86t-116 102q-40 64 -39 142q1 72 33 132t88 100q42 30 114 52t156 22q126 0 220 -36t139 -98t62 -164l-176 -24q-11 82 -69 128t-163 46q-124 0 -177 -41t-53 -96 q0 -35 22 -63q22 -29 69 -48q27 -10 159 -46q191 -52 267 -84t118 -94q43 -62 43 -154q-1 -90 -53 -170t-151 -122q-99 -44 -224 -44q-207 0 -315 86t-139 255zM519 1284l110 170h204l-225 -280h-192l-216 280h206z"/>
<glyph glyph-name="Ydieresis" horiz-adv-x="1394" unicode="Ÿ" d="M571 0v621l-565 845h236l289 -442q80 -124 149 -248q66 115 160 259l284 431h226l-585 -845v-621h-194zM752 1560v205h188v-205h-188zM379 1560v205h188v-205h-188z"/>
<glyph glyph-name="circumflex" horiz-adv-x="677" unicode="ˆ" d="M344 1364l-113 -170h-206l216 280h192l225 -280h-204z"/>
<glyph glyph-name="tilde" horiz-adv-x="700" unicode="˜" d="M7 1219q-1 104 57 166q57 62 146 62q62 0 169 -54q59 -30 94 -30q32 0 49 17.5t24 69.5h130q-3 -114 -57.5 -171t-138.5 -57q-63 0 -166 56q-67 36 -98 36q-34 0 -55 -24q-22 -24 -21 -71h-133z"/>
<glyph glyph-name="uni0600" horiz-adv-x="1597" unicode="؀" d="M1508 -189q-18 -51 -34 -94t-36 -93q-34 -8 -100 -16t-165 -13q-195 -12 -372 -12q-200 0 -386 15q-21 1 -64 5t-91 10t-94 14t-70 19v165q176 -20 390 -33t471 -13q4 179 123 277q116 89 262 162q4 -8 12 -30t17 -46q11 -28 23 -61q-54 -28 -102 -55q-42 -24 -84 -52 t-68 -52q-23 -22 -35 -42t-14 -38q-3 -24 21 -40t85 -16q35 0 69 2t67 6t77 12t98 19z"/>
<glyph glyph-name="uni0601" horiz-adv-x="4016" unicode="؁" d="M3910 -172q1 -12 1 -24q0 -32 -9 -64q-13 -44 -40 -88q-26 -44 -66 -90q-40 -44 -88 -89l-116 100q28 25 55 50t49 47t36 42q15 18 18 30q2 5 -3 8t-10 2q-9 -2 -26 -8t-33 -11q-102 -33 -224 -70t-269 -73q-294 -70 -555 -106t-482 -36q-263 0 -488 38t-417 118 q-15 6 -21 9t-14 3q-11 0 -44 -47q-21 -32 -40 -55t-30 -34q-45 -48 -101 -48q-93 0 -181 132q-25 37 -44 62q-20 24 -34 40t-26 22t-24 7q-54 -1 -104 -59t-111 -167q-31 -59 -61 -98t-58 -62t-54 -33t-51 -9q-47 0 -85 17q-38 18 -62 52t-34 86q-6 30 -6 65q0 27 3 56 q4 43 13 81t22 76t31 74q18 37 41 76l117 -60q-12 -26 -23 -48t-21 -44q-9 -22 -17 -44t-13 -48q-6 -31 -6 -55q1 -7 1 -14q2 -28 11 -45q9 -16 22 -24t27 -8q33 0 71 50q19 26 47 70t65 109q32 57 61 98q28 41 58 67t60 40q30 12 65 12q37 0 80 -30t82 -102q37 -70 71 -104 t76 -34h2q30 0 55 28q26 29 56 75q31 47 52 73t44 16q15 -6 43 -17t62 -24t70 -27t69 -23q66 -20 146 -36t177 -28q97 -11 199 -17t212 -6q256 0 565 45q155 23 345 63t419 97q55 13 98 25t76 20t58 11q25 4 43 4q20 0 40 -6q21 -6 37 -17t27 -27t13 -37z"/>
<glyph glyph-name="uni0602" horiz-adv-x="1642" unicode="؂" d="M537 -147q7 31 7 56q0 10 -1 19q-4 31 -19 51q-15 21 -40 31t-56 13q-8 1 -15 1q-25 0 -51 -8q-34 -10 -60 -29t-40 -47t-9 -61t22 -55t47 -34t75 -16q36 -4 83 -4h21q12 16 22 40t14 43zM1146 -215q111 8 224 19t230 25v-153q-26 -13 -60 -23t-72 -18q-38 -9 -78 -15 t-74 -10q-75 -12 -169 -14t-209 -5q-225 -6 -425 -6q-193 1 -291 69t-97 202v8q-1 54 25 108q28 58 73 103t103 73q54 26 111 25h8q94 0 161 -70q71 -71 71 -170q1 -38 -9 -78t-36 -85q153 0 279 4t235 11z"/>
<glyph glyph-name="uni0603" horiz-adv-x="1901" unicode="؃" d="M1499 8q-45 -10 -111 -68t-152 -173q42 -9 76 -11t77 -2q83 0 155 24t127 85q-14 45 -33 75q-20 30 -42 48t-47 22q-25 5 -50 0zM973 -455q14 27 28 51t29 48q-36 17 -61 28t-39 17q-14 -13 -32 -25q-15 -11 -35 -24t-43 -25q-32 -17 -78 -25t-97 -10q-28 -1 -57 -2 q-23 0 -46 1q-52 2 -99 8q-87 11 -155 23t-115 24q-55 13 -97 27l12 151q219 -38 335 -48q60 -6 121 -8t126 -3q34 -1 60 3t48 11t41 19t38 27q21 17 43 51t41 66q22 39 43 82q25 -9 47 -17q19 -7 39 -14t30 -12q-20 -49 -38 -85t-32 -58q11 -5 34 -14t58 -21q60 90 118 160 t115 122q112 103 191 103q98 0 169 -75q71 -74 71 -178q0 -98 -53 -177q-52 -75 -155 -127q-101 -49 -206 -49q-30 0 -56 2t-52 8t-54 14t-60 19q-16 -23 -34 -52t-37 -61z"/>
<glyph glyph-name="uni060B" horiz-adv-x="868" unicode="؋" d="M-101 98q0 42 29 70t71 28q111 0 193.5 10.5t142.5 27t99.5 37t63.5 39.5q13 11 21 20l16 18h-101q-54 0 -105 8.5t-96 25.5t-82 42.5t-63 58.5q-14 18 -28 43.5t-23 59.5q-9 32 -11 74v17q0 35 6 75q14 77 41 140.5t66 113.5q45 59 101 89t116 30q132 0 240 -117 q46 -51 81.5 -118t57.5 -143.5t30 -158.5q4 -39 4 -77q0 -43 -5 -85h-1q-6 -40 -17 -81q-3 -12 -9 -32.5t-20 -46t-37.5 -54t-59.5 -56.5q-194 -153 -606 -156h-17q-41 0 -69.5 28.5t-28.5 69.5zM356 927q-14 0 -33 -13.5t-37.5 -40.5t-34.5 -66t-24 -90q-4 -23 -4 -43 q0 -44 21 -69q20 -24 58.5 -39t92.5 -18q51 -2 95.5 -2t77.5 2q-7 97 -37.5 183.5t-81.5 142.5q-16 18 -40.5 35.5t-52.5 17.5zM342 -473l-71 22q18 67 18 139v7q-1 75 -18 141l72 22q17 -61 19 -143v-17q0 -76 -20 -171zM482 1428l-163 -163l-164 164l163 163z"/>
<glyph glyph-name="uni060C" horiz-adv-x="512" unicode="،" d="M436 149q0 -46 -39 -91q-51 -57 -132 -57q-92 0 -144 69q-48 63 -48 158q0 235 184 354q39 -29 91 -71q-135 -87 -135 -231q46 14 86 14q137 0 137 -145z"/>
<glyph glyph-name="uni060D" horiz-adv-x="723" unicode="؍" d="M548 206q-285 -281 -383 -594q-14 8 -29 22t-29 28q-16 16 -31 33l24 72q10 31 24 66t28 64q26 51 64 109t83 116q46 60 98 118t108 111z"/>
<glyph glyph-name="uni060E" horiz-adv-x="2058" unicode="؎" d="M317 353q0 -51 21 -88t73 -61q51 -24 139 -38q88 -12 220 -13q18 78 18 112v8q0 57 -14 105q-14 50 -42 87q-28 35 -68 55q-41 20 -92 20h-7q-53 0 -97 -15q-46 -16 -80 -43t-52 -61t-19 -68zM926 347q0 -26 -2 -74t-19 -120q105 1 197 5t176 12t158 21q76 12 148 28 q52 11 103 29t97 42t86 57q40 32 69 71l104 -84q-33 -63 -77 -108t-96 -77q-52 -31 -108 -53t-111 -37q-139 -38 -343 -59t-483 -21q-131 0 -229 9t-167 23q-125 26 -195 101t-69 202q0 59 16 111t42 100q23 40 60 76t85 63q48 26 108 42q59 16 127 16q35 0 71 -8t68 -22 t60 -34q27 -20 45 -44q43 -54 61 -118t18 -149z"/>
<glyph glyph-name="uni060F" horiz-adv-x="1561" unicode="؏" d="M1224 -265q6 21 6 44q0 21 -5 42q-11 45 -43 83t-84 60q-50 23 -117 23h-6q-73 -2 -135 -19q-62 -18 -120 -54t-114 -94t-118 -141q16 -29 48 -61t76 -62q44 -28 100 -47t122 -21h22q86 0 148 21q70 23 115 61t69 82t36 83zM1023 164q169 -4 259 -101t90 -284 q0 -131 -78 -240q-76 -111 -206 -172q-66 -32 -134 -48q-64 -15 -131 -15h-8q-65 0 -129 14t-123 44q-59 28 -109 70t-82 97q-18 -22 -40 -52q-22 -29 -46 -65t-51 -76q-26 -40 -51 -82l-114 94q52 94 106 180t119 154q-11 32 -19 61t-14 59t-8 60q-2 32 -2 68q0 97 20 185 t64 170q46 87 124 170q-20 7 -48 21t-57 31q-29 18 -59 40t-55 47q-31 33 -51 73q-20 41 -28 83t-10 84v8q0 39 6 73q6 38 15 68q10 30 22 49q40 66 90 110t99 69q48 25 92 37t73 14q13 1 25 1q36 -1 70 -9q46 -12 91 -32q43 -21 85 -50t81 -61l-85 -148q-19 11 -44 27 t-52 30q-28 14 -56 24t-55 13h-18q-63 0 -121 -18q-66 -21 -137 -76q-6 -34 -6 -62v-8q1 -31 11 -58t27 -51q18 -24 45 -49q27 -24 54 -43q27 -18 58 -32t68 -22t85 -12q45 28 97 55t107 52t111 47t111 37l72 -175q-48 -20 -91 -38q-37 -15 -74 -31t-58 -24 q-96 -38 -175 -86t-147 -101q-72 -57 -118 -129q-50 -81 -68 -179q-8 -46 -8 -95q0 -57 11 -120q67 93 140 157t147 102t148 52q69 14 134 14h9z"/>
<glyph glyph-name="uni0610" d="M224 1229q-27 -26 -45.5 -53t-29.5 -47q23 -9 55 -13q26 -4 54 -3h12q34 1 67.5 8.5t58.5 23.5q40 25 45 73q1 16 -6 28t-13 18q-20 20 -45 24t-44 -1q-29 -5 -57 -20t-52 -38zM-15 1052q2 30 -3 62.5t-12.5 61.5t-15.5 51t-11 32q-2 2 -2 3.5t-1 3.5l65 27l3 -8 q12 -26 26 -50t27 -44q8 -13 26 -28q13 23 34.5 55t53.5 62t69.5 49.5t75.5 27.5q19 3 37 3q69 0 115 -47q39 -41 39 -90v-9q-6 -82 -76 -128q-39 -26 -83 -34t-79 -10h-20q-31 0 -61 4q-40 6 -71 18q-38 14 -66 34q1 -26 0 -51z" unicode="ؐ"/>
<glyph glyph-name="uni0611" d="M133 1117q-25 0 -43.5 1.5t-35.5 4.5q3 -27 3 -60q-1 -5 -1 -11q0 -40 -8 -83l-32 -4q-14 -2 -28 -3t-24 -2q4 35 6.5 66t2.5 60q0 46 -14 98.5t-40 112.5q10 24 23 50t31 55l25 -59q35 -83 62 -110q24 -24 66 -24h5q-34 37 -34 84q0 64 48 126q46 61 104 61 q15 0 29.5 -3.5t29.5 -11.5t33 -21.5t41 -33.5l-36 -49q-27 15 -43.5 25t-38.5 10q-16 0 -36 -6t-43 -35q0 -26 4.5 -45t16 -33.5t31 -25t50.5 -17.5q47 13 80.5 27.5t58.5 27.5q2 -5 7 -17t10 -25q6 -15 13 -32q-11 -9 -25 -18q-12 -8 -30 -17.5t-40 -18.5 q-42 -17 -109 -31q-64 -13 -119 -13z" unicode="ؑ"/>
<glyph glyph-name="uni0612" d="M424 1434q10 -33 19 -66q8 -28 14.5 -59t9.5 -55q1 -5 1 -9.5v-10.5q0 -47 -20 -89.5t-53 -79t-75.5 -67t-87.5 -52.5l-31 63q37 18 72.5 42.5t63.5 53.5t44.5 61.5t16.5 67.5v6q0 3 -1 7q-2 23 -9 51t-14 54l-18 60zM153 1386q39 -20 83 -40.5t96 -37.5l-13 -68h-32 q-3 0 -7 1q-28 0 -70 -4q-46 -4 -100.5 -14t-101.5 -32q-13 -6 -32.5 -18t-38 -30.5t-33 -44.5t-17.5 -59l-71 6q4 36 17 68.5t39 61.5q21 24 47.5 44.5t58.5 34.5q44 21 91 32.5t92 16.5q-11 5 -20.5 9.5t-18.5 9.5q-38 19 -68.5 32.5t-51.5 16.5q-7 1 -14 1q-41 0 -76 -36 q-16 -19 -23 -32q-3 -5 -4.5 -8.5t-3.5 -6.5l-65 27q1 3 11.5 23.5t33.5 44.5q55 59 125 59q12 0 25 -2q30 -4 64 -19t78 -36z" unicode="ؒ"/>
<glyph glyph-name="uni0613" d="M531 1405q10 -33 19 -66q8 -28 14.5 -59t9.5 -55q1 -5 1 -9.5v-10.5q0 -47 -20 -89.5t-53 -79t-75.5 -67t-87.5 -52.5l-31 63q37 18 72.5 42.5t63.5 53.5t44.5 61.5t16.5 67.5v5q0 3 -1 8q-2 23 -9 51t-14 54l-18 60zM216 1476l-58 -58l-58 59l58 58zM109 1229 q-27 -26 -45.5 -53t-29.5 -47q23 -9 55 -13q26 -4 54 -3h13q34 1 67 8.5t58 23.5q40 25 45 73q1 16 -6 28t-13 18q-20 20 -45 24t-44 -1q-29 -5 -57 -20t-52 -38zM-130 1052q2 30 -3 62.5t-12.5 61.5t-15.5 51t-11 32q-2 2 -2 3.5t-1 3.5l65 27l3 -8q12 -26 26 -50t27 -44 q8 -13 26 -28q13 23 34.5 55t53.5 62t69.5 49.5t75.5 27.5q19 3 37 3q69 0 115 -47q39 -41 39 -90v-9q-6 -82 -76 -128q-39 -26 -83 -34t-79 -10h-20q-30 0 -60 4q-40 6 -72 18q-38 14 -66 34q1 -26 0 -51z" unicode="ؓ"/>
<glyph glyph-name="uni0614" d="M532 1314q-79 -217 -200 -217q-76 0 -123 92q-53 -38 -130.5 -54t-164.5 -18q-15 0 -31.5 -0.5t-34.5 0.5q-36 1 -72.5 4t-69.5 8.5t-56 14.5l-1 72q21 -2 40 -4q16 -2 32.5 -3.5t25.5 -1.5q50 -2 94 -2q52 0 95 3q78 6 135 19q34 7 59.5 21t44 30.5t31 34t22.5 32.5 l61 -21q0 -17 2 -33q2 -14 5.5 -28.5t11.5 -24.5q13 -17 26 -23t28 -6q16 0 28 9.5t24 27.5t25.5 44t32.5 59z" unicode="ؔ"/>
<glyph glyph-name="uni0615" d="M63 859q21 -3 40 -3h2q31 -1 67 -1t74 7t76.5 24t75.5 50q27 24 33.5 52.5t-3.5 51t-34.5 36t-60.5 7.5q-44 -7 -96 -43t-109 -100q-11 -12 -20 -23l-18 -22zM156 769q-15 0 -28.5 0.5t-25.5 1.5h-3q-67 3 -133.5 17.5t-138.5 42.5l32 79q29 -11 56 -19.5t54 -15.5 q9 13 22.5 31t30.5 41l3 4q6 37 8.5 66t3 57.5t-1.5 60.5t-5 75q-4 46 -7.5 85.5t-7.5 68.5q-4 34 -8 62l84 16l3 -24q3 -24 6.5 -57.5t7.5 -71t6 -64.5q3 -36 4 -52t2 -28.5t1 -31t1 -58.5q103 97 197 112q13 2 28 2q19 1 38 -3q35 -6 64 -23.5t48.5 -45.5t21.5 -65 q1 -7 1 -13q0 -16 -4 -33q-5 -23 -14 -43t-20.5 -37t-23.5 -29l-1 -2q-38 -35 -77.5 -55.5t-78.5 -32t-75.5 -15t-69.5 -3.5z" unicode="ؕ"/>
<glyph glyph-name="uni061B" horiz-adv-x="512" unicode="؛" d="M427 570q0 -46 -39 -91q-51 -57 -132 -57q-92 0 -144 69q-48 63 -48 158q0 235 184 354q39 -29 91 -71q-135 -87 -135 -231q46 14 86 14q137 0 137 -145zM374 125q0 -51 -38 -87t-87 -36t-87 36t-38 87t38 88t87 37t87 -37t38 -88z"/>
<glyph glyph-name="uni061E" horiz-adv-x="666" unicode="؞" d="M199 580l148 148l149 -149l-148 -148zM3 320l162 163l164 -164l-162 -163zM357 319l162 162l164 -164l-162 -162z"/>
<glyph glyph-name="uni061F" horiz-adv-x="1024" unicode="؟" d="M727 155l-163 -163l-155 155l162 164zM555 913q100 -110 100 -315v-143h-186v143q0 137 -106 231q-49 41 -97 81t-99 81q-104 112 -104 279t143 284q69 56 145 84t162 29q199 0 317 -130q114 -131 114 -339h-186q0 282 -245 282q-45 0 -87 -14t-80 -44q-81 -64 -81 -151 q0 -133 102 -214q47 -37 93 -73t95 -71z"/>
<glyph glyph-name="uni0640" horiz-adv-x="907" unicode="ـ" d="M-111 98q0 20 8.5 38t22.5 31.5t32.5 21t39.5 7.5h8h908h6q20 0 38 -7.5t31.5 -21t21.5 -31.5t8 -38q0 -42 -29 -70t-70 -28h-6h-917q-20 0 -38.5 7.5t-32.5 21t-22.5 31t-8.5 38.5z"/>
<glyph glyph-name="uni064B" d="M426 1472l-422 -174v111l422 167v-104zM426 1213l-422 -174v111l422 167v-104z" unicode="ً"/>
<glyph glyph-name="uni064C" d="M344 1491q-21 0 -46 -17t-38 -41l-2 -8q-2 -8 0.5 -20t13.5 -26t37 -27q14 -8 28 -14t26 -13l24 -11q3 12 6.5 29t5 35.5t0.5 37t-6 34.5q-10 25 -32 38l-8 2t-9 1zM71 1052l-46 65q6 10 12 28.5t9.5 40t2.5 42t-8 33.5q-3 6 -8.5 10.5t-19.5 6.5q-11 0 -23 -4.5 t-22 -10.5t-18 -12.5t-11 -9.5l-61 61q3 3 14.5 13t30 21.5t43 19.5t52.5 7q33 -2 58.5 -17.5t40.5 -43.5q19 -33 19 -76q0 -37 -8 -70q50 15 106 37t97 51l-5 4q-13 5 -26.5 12t-28.5 14q-41 20 -63 46.5t-30.5 53.5t-6 52.5t11.5 43.5q14 29 38.5 52.5t54 38t61.5 16.5h8 q28 0 53 -12q59 -28 79 -97q7 -23 8.5 -48t-1 -49t-7 -46t-9.5 -39q8 -2 15 -4.5t13 -3.5l-25 -83q-8 2 -20.5 6t-26.5 8q-26 -25 -60 -46t-71 -38t-73.5 -30t-67.5 -22t-52.5 -14.5t-28.5 -6.5z" unicode="ٌ"/>
<glyph glyph-name="uni064D" d="M428 -255l-422 -174v111l422 167v-104zM428 -514l-422 -174v111l422 167v-104z" unicode="ٍ"/>
<glyph glyph-name="uni064E" d="M407 1424l-422 -174v111l422 167v-104z" unicode="َ"/>
<glyph glyph-name="uni064F" d="M234 1477q-11 0 -23 -4.5t-23.5 -13t-20.5 -19t-15 -22.5q-1 0 -3.5 -8t0 -20t13.5 -26t37 -27q14 -8 28 -14t27 -13l24 -11q3 13 6 30t4.5 35t0.5 36.5t-6 34.5q-5 14 -12.5 23.5t-19.5 14.5q-5 4 -17 4zM-23 1023l-24 84q21 6 55 17.5t72.5 27t76.5 35t68 42.5l-9 4 q-13 7 -26.5 13t-27.5 13q-41 20 -63 46.5t-30.5 53.5t-6 53t10.5 44q14 28 38.5 52t54.5 38t62 16h8q28 0 53 -12q59 -28 78 -95q10 -34 10 -70q1 -15 -1 -29q-6 -50 -17 -85q8 -2 15 -4t13 -4l-25 -83q-8 2 -21 6.5t-27 9.5q-25 -26 -57.5 -48.5t-68 -41t-70.5 -33 t-64 -25t-50 -17t-27 -8.5z" unicode="ُ"/>
<glyph glyph-name="uni0650" d="M431 -357l-422 -174v111l422 167v-104z" unicode="ِ"/>
<glyph glyph-name="uni0651" d="M144 1137h-6q-30 1 -52 7.5t-38 16t-27 20.5t-17 22q-18 31 -20 65v16q0 24 4 48q6 30 15 54t14 32l77 -36q-6 -13 -12 -31t-9.5 -37t-3 -36.5t7.5 -29.5q6 -10 20.5 -16.5t31.5 -8t34 2.5t26 16q13 15 20 37t9.5 46t2 46t-0.5 36q21 3 38 5q14 2 26.5 3t12.5 -1 q7 -63 17.5 -99t22.5 -53.5t24 -21.5t21 -4q41 4 54 32q9 21 9 45q0 11 -1 21q-5 38 -23 76t-39 63l71 49q6 -9 23 -36t32 -62.5t23 -74.5q3 -16 3 -32q0 -21 -6 -41q-11 -34 -28 -57.5t-37.5 -38.5t-42.5 -21.5t-42 -6.5q-23 0 -53.5 10t-55.5 42q-23 -32 -54 -49.5 t-71 -17.5z" unicode="ّ"/>
<glyph glyph-name="uni0652" d="M246 1549q40 0 78 -19t67 -53q27 -32 41.5 -70t14.5 -77q0 -38 -14.5 -76.5t-41.5 -70.5q-29 -35 -67 -54t-78 -19q-41 0 -79 19t-67 54q-27 32 -41.5 70.5t-14.5 76.5q0 39 14.5 77t41.5 70q29 34 67 53t79 19zM246 1217q19 0 36.5 10.5t30.5 27t20.5 36.5t7.5 39 t-7.5 38.5t-20.5 36t-30.5 27t-36.5 10.5q-20 0 -37 -10.5t-30.5 -27t-21 -36t-7.5 -38.5t7.5 -39t21 -36.5t30.5 -27t37 -10.5z" unicode="ْ"/>
<glyph glyph-name="uni0653" d="M-199 1302q1 2 5 13.5t10.5 27t14 33t15.5 31.5q32 51 74 81.5t87 38.5q10 2 22 2.5t21 0.5q44 0 79.5 -11t66.5 -24q27 -11 53.5 -19t57.5 -9q24 -1 47 11t42 28t33 32t20 24l114 -74q-1 -2 -10 -15t-25.5 -31.5t-39.5 -39t-51.5 -37.5t-62.5 -28q-31 -10 -66 -10h-6 q-40 1 -75 11t-65 21l-16 6q-32 12 -59 20t-58 3q-18 -2 -34 -17.5t-28.5 -36t-21 -41t-12.5 -32.5z" unicode="ٓ"/>
<glyph glyph-name="uni0654" d="M374 1800q-12 3 -27 6q-13 2 -29.5 4.5t-35.5 2.5q-15 0 -30.5 -2.5t-31.5 -9.5v2q-32 -14 -51.5 -42.5t-19.5 -61.5q0 -17 8 -36l-1 1q14 -35 49.5 -58.5t78.5 -23.5q11 0 21 1t21 6q26 8 51 21t45 25q23 14 43 29l59 -78q-39 -29 -98 -62t-144 -80l-227 -126l-48 87 l179 100q-41 17 -72.5 49t-48.5 71q-14 34 -14 74q0 31 9.5 60.5t27 55t42 45.5t54.5 32q47 19 98 19q23 0 44 -3t38 -7q19 -4 38 -9z" unicode="ٔ"/>
<glyph glyph-name="uni0655" d="M456 24q-12 3 -27 6q-13 2 -29.5 4.5t-35.5 2.5q-15 0 -30.5 -2.5t-31.5 -9.5v2q-32 -14 -51.5 -42.5t-19.5 -61.5q0 -17 8 -36l-1 1q14 -35 49.5 -58.5t78.5 -23.5q11 0 21 1t21 6q26 8 51 21t45 25q23 14 43 29l59 -78q-39 -29 -98 -62t-144 -80l-227 -126l-48 87 l179 100q-41 17 -72.5 49t-48.5 71q-14 34 -14 74q0 31 9.5 60.5t27 55t42 45.5t54.5 32q47 19 98 19q23 0 44 -3t38 -7q19 -4 38 -9z" unicode="ٕ"/>
<glyph glyph-name="uni0656" d="M62 -664l-71 22q18 67 18 139v7q-1 75 -18 141l72 22q17 -61 19 -143v-17q0 -76 -20 -171z" unicode="ٖ"/>
<glyph glyph-name="uni0657" d="M222 1125q0 35 -26 61.5t-83 46.5q-8 -12 -11 -26.5t-4 -26.5q-1 -9 -1 -18q1 -36 17 -58q20 -28 49 -29q11 0 21.5 4.5t19 12t13.5 16t5 17.5zM470 1431q-81 -17 -150 -47.5t-131 -74.5q113 -52 113 -144v-7q0 -30 -14 -60q-16 -34 -42 -60q-27 -28 -59 -44 q-30 -16 -57 -15h-3q-45 0 -74.5 51t-29.5 144q0 41 14 75q-43 8 -96 8q4 20 8.5 44.5t7.5 47.5l141 -14q24 33 59.5 61t83.5 54q29 16 64 28t65 21q35 10 71 18z" unicode="ٗ"/>
<glyph glyph-name="uni0658" d="M402 1407q-18 -147 -74 -227t-141 -80t-140.5 60t-67.5 171l-6 69q12 3 24 7q11 3 23 5.5t23 2.5q11 -103 45 -157q33 -53 103 -52h3q62 0 92.5 52t46.5 157z" unicode="٘"/>
<glyph glyph-name="uni0659" d="M2 1081l25 103q148 0 577 33q0 -36 -16 -67.5t-35 -33.5q-119 -13 -296.5 -24t-254.5 -11z" unicode="ٙ"/>
<glyph glyph-name="uni065A" d="M355 696l-105 6q-18 56 -40.5 114t-48 108.5t-52 89.5t-52.5 57l64 92q74 -51 146 -197q11 -22 20.5 -43.5t17.5 -42.5q5 12 8.5 24.5t7.5 23.5q15 45 29.5 86.5t31.5 78t37 68t47 56.5l77 -82q-19 -18 -34.5 -43.5t-29 -56.5t-26 -67t-25.5 -75q-15 -46 -32.5 -96 t-40.5 -101z" unicode="ٚ"/>
<glyph glyph-name="uni065B" d="M307 1235q18 -56 40.5 -114t48 -108.5t52 -89.5t52.5 -57l-64 -92q-74 51 -146 197q-11 22 -20.5 43.5t-17.5 42.5q-5 -12 -8.5 -24.5t-7.5 -23.5q-15 -45 -29.5 -86.5t-31.5 -78t-37 -68t-47 -56.5l-77 82q37 36 63 100t52 142q15 46 32.5 96t40.5 101z" unicode="ٛ"/>
<glyph glyph-name="uni065C" d="M222 327l-163 -163l-164 164l163 163z" unicode="ٜ"/>
<glyph glyph-name="uni065D" d="M167 1547q-12 0 -17 -4q-12 -5 -19.5 -14.5t-12.5 -23.5q-5 -16 -6 -34.5t0.5 -36.5t4.5 -35t6 -30l24 11q13 7 27 13t28 14q26 13 37 27t13.5 26t0 20t-3.5 8q-6 12 -15 22.5t-20.5 19t-23.5 13t-23 4.5zM424 1093q-6 2 -27 8.5t-50 17t-64 25t-70.5 33t-68 41 t-57.5 48.5q-14 -5 -27 -9.5t-21 -6.5l-25 83q6 2 13 4t15 4q-11 35 -16 85q-2 14 -2 29q0 36 10 70q19 67 78 95q25 12 53 12h9q32 -2 61.5 -16t54 -38t38.5 -52q8 -18 10.5 -44t-6 -53t-30.5 -53.5t-63 -46.5q-14 -7 -27.5 -13t-26.5 -13l-9 -4q30 -23 68 -42.5t76.5 -35 t72.5 -27t55 -17.5z" unicode="ٝ"/>
<glyph glyph-name="uni065E" d="M569 1133l-58 -58l-58 58l58 58zM116 1375l-58 -58l-59 58l58 58zM-2 1121l570 323v-46l-570 -325v48z" unicode="ٞ"/>
<glyph glyph-name="uni0660" horiz-adv-x="758" unicode="٠" d="M697 522l-324 -324l-319 321l321 322z"/>
<glyph glyph-name="uni0661" horiz-adv-x="762" unicode="١" d="M503 -16h-199q0 215 -8 427t-34 406.5t-75 364t-131 299.5l167 106q88 -140 146 -326.5t90 -430.5q14 -107 23 -216t13.5 -216.5t6 -212t1.5 -201.5z"/>
<glyph glyph-name="uni0662" horiz-adv-x="1173" unicode="٢" d="M1072 1612q0 -2 3 -19.5t6 -47t5 -67.5q1 -26 1 -54v-28q-3 -126 -32.5 -222.5t-86.5 -163.5q-54 -66 -130 -99t-169 -33q-108 0 -195 38q3 -20 5.5 -40t5.5 -40q14 -107 23 -216t13.5 -216.5t6 -212t1.5 -201.5h-199q0 174 -5 346.5t-20.5 336t-43.5 314t-74 280.5 q-8 17 -15 32.5t-13 27.5l3 3q-36 85 -80 157l167 106q33 -54 62.5 -114t54.5 -129q2 -2 2.5 -5t1.5 -5q26 -60 52 -109t59.5 -83.5t78.5 -53.5t109 -19q96 0 148 61q23 28 38 66t23 80q8 40 10 84q2 27 2 53v31q-2 40 -5.5 72.5t-7.5 54.5z"/>
<glyph glyph-name="uni0663" horiz-adv-x="1557" unicode="٣" d="M1459 1624q34 -179 34 -312q0 -39 -3 -74q-13 -154 -85 -241q-40 -48 -96 -73.5t-125 -25.5q-28 0 -59.5 6t-63 22.5t-62.5 44t-58 71.5q-8 -11 -16 -22.5t-17 -22.5q-51 -59 -119.5 -89t-151.5 -30q-93 0 -164 28l10 -70q14 -107 22.5 -215.5t13 -216t6 -212t1.5 -201.5 h-199q4 92 3.5 183.5t-3.5 181.5q-7 180 -28.5 347.5t-58 319.5t-87.5 282q-2 3 -3 7.5t-3 8.5t-4 9q-17 42 -37 82t-42 75l182 107q7 -12 16.5 -29.5t20 -38t21 -43.5t21.5 -45q25 -52 51 -110q31 -71 56.5 -119t53 -77.5t63 -42.5t88.5 -13q40 0 69 12t51 38 q33 38 51.5 106t21.5 159q0 12 -1 41.5t-3 61t-3.5 58t-2.5 32.5l196 25q0 -2 4 -33t7 -80q7 -71 18 -144.5t31 -134.5q15 -45 31.5 -69.5t31 -35.5t26.5 -13t19 -2q32 0 46.5 8.5t22.5 17.5q9 11 21 39t18 81q3 30 3 71q1 30 -1 66q-4 84 -29 208z"/>
<glyph glyph-name="uni0664" horiz-adv-x="1321" unicode="٤" d="M1021 125q-63 -29 -137 -55t-151 -44t-152 -22l-34 -2q-55 0 -103 12q-54 12 -92 44t-63 72t-37 85t-11 85q0 54 22 124q23 70 63 146t98 157q58 80 130 158q-61 35 -112 71t-88 76t-58 86t-21 104q0 68 38 128t106 115t163 105t208 96l84 -199q-92 -39 -162 -71 t-118 -62t-72 -56q-24 -28 -25 -56q0 -12 11 -27t29 -32q17 -17 41 -35t49 -35q58 -40 132 -83l59 -177q-82 -99 -150 -184q-29 -35 -58 -73q-30 -38 -54 -72t-42 -60q-18 -27 -24 -43q-19 -42 -19 -73q0 -35 17 -59q15 -21 40 -33t54 -13h15q55 1 129 19q86 22 193 74z"/>
<glyph glyph-name="uni0665" horiz-adv-x="1418" unicode="٥" d="M887 328q40 45 68 103q28 59 45 123q18 64 24 132q5 52 4 101v31q-2 66 -12 124t-27 104q-29 79 -73 136t-107 82q-28 11 -56 11q-25 0 -51 -9q-52 -18 -99 -66t-87 -117t-70 -147t-46 -158t-16 -151q0 -47 8 -95t23 -92q16 -44 41 -84q25 -38 60 -66q34 -28 80 -42 q36 -11 80 -12q12 0 24 1q60 5 106 29t81 62zM1137 1247q25 -70 43 -160q18 -89 25 -189q4 -58 4 -118q0 -42 -2 -86q-5 -104 -27 -202q-22 -100 -62 -188t-102 -156q-26 -30 -62 -54t-80 -42q-42 -18 -88 -30t-92 -15q-30 -3 -57 -3q-64 0 -118 15q-77 21 -133 63t-94 104 q-38 60 -62 129t-34 143t-11 146q0 108 27 232t75 242q49 120 113 226t140 178t157 102q39 14 77 13l87 -17q95 -38 163 -125t113 -208z"/>
<glyph glyph-name="uni0666" horiz-adv-x="1164" unicode="٦" d="M956 -5q-50 75 -89 173t-65 210t-40 232q-14 122 -14 244q0 4 -1 9q1 118 15 233q14 119 43 226q-34 -30 -88 -50t-119 -26q-42 -5 -88 -5q-24 0 -48 1q-72 4 -142 22t-133 52q-63 32 -110 80v267q83 -59 161 -93t152 -48q59 -11 114 -11q12 0 25 1q67 2 127 16t114 36 q53 22 99 44q3 2 13 -6t22 -21q14 -13 30 -31t33 -35q39 -43 86 -98q-53 -209 -66 -430q-4 -63 -4 -131q0 -34 1 -69q4 -106 20 -217t49 -223t89 -219z"/>
<glyph glyph-name="uni0667" horiz-adv-x="1292" unicode="٧" d="M740 -13h-198q0 247 -44.5 465t-117 411t-164.5 363.5t-187 321.5l166 106q67 -105 123.5 -204t104.5 -194.5t87.5 -187.5t72.5 -184q23 -66 42.5 -130t35.5 -130q30 102 65.5 205t73.5 202t76.5 190.5t76.5 172t72.5 147t64.5 113.5l166 -106q-33 -54 -73 -133 t-82.5 -175t-85.5 -204t-82 -218q-45 -127 -80.5 -245t-60 -222t-38 -193t-14.5 -157v-14z"/>
<glyph glyph-name="uni0668" horiz-adv-x="1353" unicode="٨" d="M1132 -11q-30 47 -64.5 113t-72.5 146t-76.5 172t-76.5 190.5t-73.5 201.5t-65.5 205q-31 -129 -78 -259q-65 -183 -160 -371t-228 -398l-166 105q95 151 187 321.5t164.5 363.5t117 411t44.5 465h198q0 -68 13 -157.5t37.5 -196t60.5 -227.5t82 -251q39 -110 82 -217.5 t85.5 -203.5t82.5 -175t73 -133z"/>
<glyph glyph-name="uni0669" horiz-adv-x="1141" unicode="٩" d="M429 1468q-37 0 -78 -50q-29 -34 -51 -82.5t-33 -106.5q-7 -31 -7 -57q0 -47 22 -79q15 -20 37.5 -33.5t47.5 -22t49.5 -13t42.5 -5.5q21 -2 40 -2q35 0 65 8q46 13 75 27q-11 77 -28 143t-38 118q-11 26 -25.5 53t-32 49.5t-39 37t-45.5 15.5h-2zM985 -13 q-103 63 -176 248q-28 66 -52 149t-45 181q-17 79 -29 152t-20 131q-55 -18 -111 -25q-33 -4 -66 -4q-24 0 -47 2q-109 11 -188.5 50.5t-127.5 105.5q-61 82 -61 191q0 49 12 103q17 82 48.5 151.5t77.5 122.5q51 61 112 91q57 29 118 29h8q36 -2 77 -14t83 -42.5t83 -83.5 t76 -137q24 -57 40.5 -119t27.5 -123.5t18 -120t10 -109.5q8 -58 21 -139t33 -171q38 -184 85 -297q17 -43 32 -71t28 -45t22.5 -25.5t14.5 -11.5z"/>
<glyph glyph-name="uni066A" horiz-adv-x="1217" unicode="٪" d="M487 1327l-202 -201l-203 203l202 201zM1118 207l-202 -201l-203 203l202 201zM183 -1l593 1570h222l-595 -1570h-220z"/>
<glyph glyph-name="uni066B" horiz-adv-x="440" unicode="٫" d="M42 147q0 47 44 99t124 53h3q91 0 143 -66q49 -63 50 -158v-16q0 -271 -333 -438q-55 112 -63 112q259 116 259 271q0 9 -1 17q-47 -15 -86 -16h-4q-133 0 -136 142z"/>
<glyph glyph-name="uni066C" horiz-adv-x="456" unicode="٬" d="M389 -228q1 -46 -43 -98t-125 -54h-3q-91 0 -143 66q-49 63 -50 158v16q0 271 333 438q55 -112 63 -112q-259 -116 -259 -271q0 -9 1 -17q47 15 86 16h4q133 0 136 -142z"/>
<glyph glyph-name="uni066D" horiz-adv-x="965" unicode="٭" d="M487 1098l93 -324l335 12l5 -10l-281 -188l113 -316l-9 -6l-264 207l-262 -207l-8 6l113 316l-277 186l4 12l334 -12l92 324h12z"/>
<glyph glyph-name="uni066E" horiz-adv-x="1915" unicode="ٮ" d="M939 0q-359 3 -575 83q-206 80 -280 229q-42 81 -42 176t39 198q14 36 29 66t27.5 52t21.5 35.5l11 16.5l159 -118q-6 -8 -12 -17t-11 -19q-10 -17 -21 -39.5t-21 -50.5q-24 -66 -24 -121q0 -50 20 -89q49 -98 224 -150.5t455 -53.5q80 0 175 6.5t193.5 23.5t196 46.5 t181.5 76.5q-4 45 -19 94.5t-36 97.5t-44 91.5t-43 77t-33 54t-14 21.5l166 108q1 -2 13 -20t29 -48t38.5 -70t42.5 -86.5t39 -97.5t30 -102t16 -91q1 -11 0 -21q0 -29 -6 -53q-10 -34 -35.5 -63t-72.5 -59q-45 -28 -105 -52.5t-129.5 -45.5t-144.5 -37t-151 -27.5 t-149 -17.5q-62 -5 -118 -4h-20z"/>
<glyph glyph-name="uni066F" horiz-adv-x="1466" unicode="ٯ" d="M974 645q-36 0 -78 -52q-29 -35 -47.5 -83.5t-29.5 -108.5q-4 -26 -4 -49q0 -54 25 -86q15 -20 38 -32t48.5 -19.5t50 -11t42.5 -5.5q56 -4 104 -4h11q52 0 91 4q-3 64 -15 121t-30.5 106t-42 88.5t-48.5 68.5q-21 22 -50.5 42.5t-64.5 20.5zM1116 -3q-26 0 -53.5 1 t-55.5 3q-109 8 -191 43t-131 100q-69 88 -69 207q0 40 8 84q14 85 43.5 154.5t73.5 125.5q49 63 109 96t124 33q72 0 136.5 -32.5t124.5 -96.5q50 -56 88 -129t62 -156.5t33 -173.5q4 -45 4 -89.5t-4 -89.5h2q0 -2 -2.5 -33.5t-12.5 -81t-29.5 -111.5t-53.5 -126 q-41 -79 -95.5 -141.5t-120.5 -107.5q-84 -59 -182 -87t-214 -28h-2q-197 0 -345 76q-78 39 -139 94.5t-102 127.5q-52 85 -74 186q-16 72 -17 151q0 32 3 64q8 117 47 238t107 249l175 -94q-55 -102 -87 -199q-32 -98 -42 -186q-4 -36 -4 -70q0 -50 8 -96q14 -78 52 -142 q59 -98 167 -149.5t251 -51.5h2q19 -2 38 -2q81 1 149 29q84 34 148 95.5t106 144t60 172.5q-22 0 -45.5 -0.5t-49.5 -0.5z"/>
<glyph glyph-name="uni0670" d="M68 1098l-71 22q18 67 18 139v7q-1 75 -18 141l72 22q17 -61 19 -143v-17q0 -76 -20 -171z" unicode="ٰ"/>
<glyph glyph-name="uni0672" horiz-adv-x="573" unicode="ٲ" d="M403 -7l-197 11q14 228 18 430q2 94 2 182q0 100 -2 192q-4 172 -12.5 280t-17.5 204t-15.5 148.5t-6.5 53.5l196 30q2 -6 15 -120.5t22 -238t13.5 -247t4.5 -268t-3.5 -310.5t-16.5 -347zM494 1917q-17 17 -37 31q-18 12 -42.5 22t-56.5 10q-27 0 -47 -9t-33.5 -24 t-20.5 -35t-7 -41q0 -29 13 -52.5t34.5 -40t49.5 -25.5t59 -7q27 2 52 5.5t45 6.5q23 4 42 8l12 -87q-26 -7 -59 -17.5t-76 -17.5q-42 -8 -98 -8h-5q-54 0 -123 13q-9 1 -21.5 5t-26 7.5t-26 6t-21.5 1.5q-28 -2 -46 -8.5t-31 -15.5t-23.5 -19.5t-23.5 -21.5l-48 65 q12 11 27.5 26t34.5 29t43 25t53 14q12 2 34 -3t44 -12q26 -8 55 -18q-33 31 -46.5 65t-13.5 76q0 40 15 76.5t41.5 63.5t62.5 43t79 16t78 -13t61 -29q30 -18 53 -42z"/>
<glyph glyph-name="uni0673" horiz-adv-x="627" unicode="ٳ" d="M402 -10l-197 11q15 227 19 429q2 94 1 183q0 99 -2 191q-4 172 -12.5 309t-17.5 233t-15.5 148.5t-6.5 53.5l196 30q2 -6 15 -120.5t22 -266.5t13.5 -275.5t4.5 -268t-3.5 -310.5t-16.5 -347zM504 -271q-17 17 -37 31q-18 12 -42.5 22t-56.5 10q-27 0 -47 -9t-33.5 -24 t-20.5 -35t-7 -41q0 -29 13 -52.5t34.5 -40t49.5 -25.5t59 -7q27 2 52 5.5t45 6.5q23 4 42 8l12 -87q-26 -7 -59 -17.5t-76 -17.5q-42 -8 -98 -8h-5q-54 0 -123 13q-9 1 -21.5 5t-26 7.5t-26 6t-21.5 1.5q-28 -2 -46 -8.5t-31 -15.5t-23.5 -19.5t-23.5 -21.5l-48 65 q12 11 27.5 26t34.5 29t43 25t53 14q12 2 34 -3t44 -12q26 -8 55 -18q-33 31 -46.5 65t-13.5 76q0 40 15 76.5t41.5 63.5t62.5 43t79 16t78 -13t61 -29q30 -18 53 -42z"/>
<glyph glyph-name="uni0675" horiz-adv-x="573" unicode="ٵ" d="M385 -7l-197 11q14 228 18 430q2 94 2 182q0 100 -2 192q-4 172 -12.5 280t-17.5 204t-15.5 148.5t-6.5 53.5l196 30q2 -6 15 -120.5t22 -238t13.5 -247t4.5 -268t-3.5 -310.5t-16.5 -347zM374 2017q-12 3 -27 6q-13 2 -29.5 4.5t-35.5 2.5q-15 0 -30.5 -2.5t-31.5 -9.5 v2q-32 -14 -51.5 -42.5t-19.5 -61.5q0 -17 8 -36l-1 1q14 -35 49.5 -58.5t78.5 -23.5q11 0 21 1t21 6q26 8 51 21t45 25q23 14 43 29l59 -78q-39 -29 -98 -62t-144 -80l-227 -126l-48 87l179 100q-41 17 -72.5 49t-48.5 71q-14 34 -14 74q0 31 9.5 60.5t27 55t42 45.5 t54.5 32q47 19 98 19q23 0 44 -3t38 -7q19 -4 38 -9z"/>
<glyph glyph-name="uni0676" horiz-adv-x="1064" unicode="ٶ" d="M450 650q-36 0 -78 -53q-29 -35 -47.5 -84t-29.5 -108q-5 -27 -5 -50q0 -54 26 -86q15 -20 38 -32.5t48 -20t49.5 -11t42.5 -4.5q50 -3 94 -3h22q52 1 91 4q-3 63 -15 120.5t-30.5 106.5t-42.5 88.5t-49 68.5q-10 10 -22.5 21.5t-27 21t-31 15.5t-33.5 6zM221 -688 l-97 172q101 56 189.5 120.5t159.5 131.5t122.5 134.5t77.5 129.5q-28 -1 -58 -1q-15 1 -31 1q-48 0 -103 5q-217 14 -321 142q-68 86 -68 206q0 41 8 86q14 85 43 154t73 126q50 63 110 95.5t124 32.5q142 0 261 -128q51 -56 89 -129.5t62 -157.5t33 -175q4 -46 4.5 -91.5 t-4.5 -90.5q-9 -97 -63 -199.5t-151 -208.5q-92 -100 -207 -189t-253 -166zM540 1341q-12 3 -27 6q-13 2 -29.5 4.5t-35.5 2.5q-15 0 -30.5 -2.5t-31.5 -9.5v2q-32 -14 -51.5 -42.5t-19.5 -61.5q0 -17 8 -36l-1 1q14 -35 49.5 -58.5t78.5 -23.5q11 0 21 1t21 6q26 8 51 21 t45 25q23 14 43 29l59 -78q-39 -29 -98 -62t-144 -80l-227 -126l-48 87l179 100q-41 17 -72.5 49t-48.5 71q-14 34 -14 74q0 31 9.5 60.5t27 55t42 45.5t54.5 32q47 19 98 19q23 0 44 -3t38 -7q19 -4 38 -9z"/>
<glyph glyph-name="uni0677" horiz-adv-x="1105" unicode="ٷ" d="M481 650q-36 0 -78 -53q-29 -35 -47.5 -84t-29.5 -108q-5 -27 -5 -50q0 -54 26 -86q15 -20 38 -32.5t48 -20t49.5 -11t42.5 -4.5q50 -3 94 -3h22q52 1 91 4q-3 63 -15 120.5t-30.5 106.5t-42.5 88.5t-49 68.5q-10 10 -22.5 21.5t-27 21t-31 15.5t-33.5 6zM252 -688 l-97 172q101 56 189.5 120.5t159.5 131.5t122.5 134.5t77.5 129.5q-28 -1 -58 -1q-15 1 -31 1q-48 0 -103 5q-217 14 -321 142q-68 86 -68 206q0 41 8 86q14 85 43 154t73 126q50 63 110 95.5t124 32.5q142 0 261 -128q51 -56 89 -129.5t62 -157.5t33 -175q4 -46 4.5 -91.5 t-4.5 -90.5q-9 -97 -63 -199.5t-151 -208.5q-92 -100 -207 -189t-253 -166zM436 1928q-11 0 -23 -4.5t-23.5 -13t-20.5 -19t-15 -22.5q-1 0 -3.5 -8t0 -20t13.5 -26t37 -27q14 -8 28 -14t27 -13l24 -11q3 13 6 30t4.5 35t0.5 36.5t-6 34.5q-5 14 -12.5 23.5t-19.5 14.5 q-5 4 -17 4zM179 1474l-24 84q21 6 55 17.5t72.5 27t76.5 35t68 42.5l-9 4q-13 7 -26.5 13t-27.5 13q-41 20 -63 46.5t-30.5 53.5t-6 53t10.5 44q14 28 38.5 52t54.5 38t62 16h8q28 0 53 -12q59 -28 78 -95q10 -34 10 -70q1 -15 -1 -29q-6 -50 -17 -85q8 -2 15 -4t13 -4 l-25 -83q-8 2 -21 6.5t-27 9.5q-25 -26 -57.5 -48.5t-68 -41t-70.5 -33t-64 -25t-50 -17t-27 -8.5zM559 1335q-12 3 -27 6q-13 2 -29.5 4.5t-35.5 2.5q-15 0 -30.5 -2.5t-31.5 -9.5v2q-32 -14 -51.5 -42.5t-19.5 -61.5q0 -17 8 -36l-1 1q14 -35 49.5 -58.5t78.5 -23.5 q11 0 21 1t21 6q26 8 51 21t45 25q23 14 43 29l59 -78q-39 -29 -98 -62t-144 -80l-227 -126l-48 87l179 100q-41 17 -72.5 49t-48.5 71q-14 34 -14 74q0 31 9.5 60.5t27 55t42 45.5t54.5 32q47 19 98 19q23 0 44 -3t38 -7q19 -4 38 -9z"/>
<glyph glyph-name="uni0678" horiz-adv-x="1776" unicode="ٸ" d="M1371 832q54 11 104 11q14 0 28 -1q63 -4 111 -15t77.5 -23t32.5 -13l-87 -183l-19 8q-19 8 -49.5 14t-70.5 8q-9 1 -18 1q-32 0 -67 -7q-91 -18 -166 -75.5t-125 -144.5q-36 -61 -48 -122q-6 -29 -5 -53q0 -27 7 -49q7 -20 23 -33t41.5 -22.5t59.5 -17t76 -15.5 q63 -12 123.5 -27t111.5 -50q23 -17 45 -41q23 -24 39 -60q15 -36 21 -83q2 -17 2 -35q0 -34 -6 -73q-18 -98 -88 -180t-186 -140q-110 -56 -249.5 -85t-303.5 -29q-189 0 -334.5 54.5t-238.5 158.5q-82 94 -116 218q-22 81 -21 171q0 49 6 100q8 65 22 134.5t30.5 135.5 t34 125.5t32 105.5t24.5 74t11 32l191 -67q-45 -140 -84 -279t-58 -285q-6 -40 -6 -83q0 -40 8 -80q8 -44 27 -86.5t52 -79.5q63 -72 169.5 -108t250.5 -36q142 0 254.5 23t192 60.5t125 85t54.5 97.5q4 25 3.5 41t-3.5 25.5t-7.5 14t-8.5 7.5q-12 8 -29 14t-37.5 11 t-43 9.5t-45.5 8.5q-49 9 -98 20t-94 31q-125 54 -165 172q-14 42 -17 90q-1 13 -1 26q0 36 6 72q8 50 26.5 101.5t46.5 101.5q36 62 82.5 114.5t101 93.5t116 69t127.5 42zM795 1042q-12 3 -27 6q-13 2 -29.5 4.5t-35.5 2.5q-15 0 -30.5 -2.5t-31.5 -9.5v2 q-32 -14 -51.5 -42.5t-19.5 -61.5q0 -17 8 -36l-1 1q14 -35 49.5 -58.5t78.5 -23.5q11 0 21 1t21 6q26 8 51 21t45 25q23 14 43 29l59 -78q-39 -29 -98 -62t-144 -80l-227 -126l-48 87l179 100q-41 17 -72.5 49t-48.5 71q-14 34 -14 74q0 31 9.5 60.5t27 55t42 45.5t54.5 32 q47 19 98 19q23 0 44 -3t38 -7q19 -4 38 -9z"/>
<glyph glyph-name="uni067A" horiz-adv-x="1904" unicode="ٺ" d="M1106 817l-163 -163l-164 164l163 163zM1107 1206l-163 -163l-164 164l163 163zM936 0q-359 3 -575 83q-206 80 -280 229q-42 81 -42 176t39 198q14 36 29 66t27.5 52t21.5 35.5l11 16.5l159 -118q-6 -8 -12 -17t-11 -19q-10 -17 -21 -39.5t-21 -50.5q-24 -66 -24 -121 q0 -50 20 -89q49 -98 224 -150.5t455 -53.5q80 0 175 6.5t193.5 23.5t196 46.5t181.5 76.5q-4 45 -19 94.5t-36 97.5t-44 91.5t-43 77t-33 54t-14 21.5l166 108q1 -2 13 -20t29 -48t38.5 -70t42.5 -86.5t39 -97.5t30 -102t16 -91q1 -11 0 -21q0 -29 -6 -53 q-10 -34 -35.5 -63t-72.5 -59q-45 -28 -105 -52.5t-129.5 -45.5t-144.5 -37t-151 -27.5t-149 -17.5q-62 -5 -118 -4h-20z"/>
<glyph glyph-name="uni067B" horiz-adv-x="1915" unicode="ٻ" d="M1119 -725l-163 -163l-164 164l163 163zM1110 -326l-163 -163l-164 164l163 163zM942 0q-359 3 -575 83q-206 80 -280 229q-42 81 -42 176t39 198q14 36 29 66t27.5 52t21.5 35.5l11 16.5l159 -118q-6 -8 -12 -17t-11 -19q-10 -17 -21 -39.5t-21 -50.5q-24 -66 -24 -121 q0 -50 20 -89q49 -98 224 -150.5t455 -53.5q80 0 175 6.5t193.5 23.5t196 46.5t181.5 76.5q-4 45 -19 94.5t-36 97.5t-44 91.5t-43 77t-33 54t-14 21.5l166 108q1 -2 13 -20t29 -48t38.5 -70t42.5 -86.5t39 -97.5t30 -102t16 -91q1 -11 0 -21q0 -29 -6 -53 q-10 -34 -35.5 -63t-72.5 -59q-45 -28 -105 -52.5t-129.5 -45.5t-144.5 -37t-151 -27.5t-149 -17.5q-62 -5 -118 -4h-20z"/>
<glyph glyph-name="uni067C" horiz-adv-x="1860" unicode="ټ" d="M859 0q-359 3 -575 83q-206 80 -280 229q-42 81 -42 176t39 198q14 36 29 66t27.5 52t21.5 35.5l11 16.5l159 -118q-6 -8 -12 -17t-11 -19q-10 -17 -21 -39.5t-21 -50.5q-24 -66 -24 -121q0 -50 20 -89q49 -98 224 -150.5t455 -53.5q80 0 175 6.5t193.5 23.5t196 46.5 t181.5 76.5q-4 45 -19 94.5t-36 97.5t-44 91.5t-43 77t-33 54t-14 21.5l166 108q1 -2 13 -20t29 -48t38.5 -70t42.5 -86.5t39 -97.5t30 -102t16 -91q1 -11 0 -21q0 -29 -6 -53q-10 -34 -35.5 -63t-72.5 -59q-45 -28 -105 -52.5t-129.5 -45.5t-144.5 -37t-151 -27.5 t-149 -17.5q-62 -5 -118 -4h-20zM1181 973l-162 -163l-164 164l162 162zM841 974l-162 -162l-164 163l162 163zM715 1769q40 0 78 -19t67 -53q27 -32 41.5 -70t14.5 -77q0 -38 -14.5 -76.5t-41.5 -70.5q-29 -35 -67 -54t-78 -19q-41 0 -79 19t-67 54q-27 32 -41.5 70.5 t-14.5 76.5q0 39 14.5 77t41.5 70q29 34 67 53t79 19zM715 1437q19 0 36.5 10.5t30.5 27t20.5 36.5t7.5 39t-7.5 38.5t-20.5 36t-30.5 27t-36.5 10.5q-20 0 -37 -10.5t-30.5 -27t-21 -36t-7.5 -38.5t7.5 -39t21 -36.5t30.5 -27t37 -10.5z"/>
<glyph glyph-name="uni067D" horiz-adv-x="1860" unicode="ٽ" d="M859 0q-359 3 -575 83q-206 80 -280 229q-42 81 -42 176t39 198q14 36 29 66t27.5 52t21.5 35.5l11 16.5l159 -118q-6 -8 -12 -17t-11 -19q-10 -17 -21 -39.5t-21 -50.5q-24 -66 -24 -121q0 -50 20 -89q49 -98 224 -150.5t455 -53.5q80 0 175 6.5t193.5 23.5t196 46.5 t181.5 76.5q-4 45 -19 94.5t-36 97.5t-44 91.5t-43 77t-33 54t-14 21.5l166 108q1 -2 13 -20t29 -48t38.5 -70t42.5 -86.5t39 -97.5t30 -102t16 -91q1 -11 0 -21q0 -29 -6 -53q-10 -34 -35.5 -63t-72.5 -59q-45 -28 -105 -52.5t-129.5 -45.5t-144.5 -37t-151 -27.5 t-149 -17.5q-62 -5 -118 -4h-20zM1042 818l-162 -162l-164 164l162 162zM1210 1093l-162 -163l-164 164l162 163zM856 1094l-162 -162l-164 164l162 162z"/>
<glyph glyph-name="uni067F" horiz-adv-x="1860" unicode="ٿ" d="M859 0q-359 3 -575 83q-206 80 -280 229q-42 81 -42 176t39 198q14 36 29 66t27.5 52t21.5 35.5l11 16.5l159 -118q-6 -8 -12 -17t-11 -19q-10 -17 -21 -39.5t-21 -50.5q-24 -66 -24 -121q0 -50 20 -89q49 -98 224 -150.5t455 -53.5q80 0 175 6.5t193.5 23.5t196 46.5 t181.5 76.5q-4 45 -19 94.5t-36 97.5t-44 91.5t-43 77t-33 54t-14 21.5l166 108q1 -2 13 -20t29 -48t38.5 -70t42.5 -86.5t39 -97.5t30 -102t16 -91q1 -11 0 -21q0 -29 -6 -53q-10 -34 -35.5 -63t-72.5 -59q-45 -28 -105 -52.5t-129.5 -45.5t-144.5 -37t-151 -27.5 t-149 -17.5q-62 -5 -118 -4h-20zM872 1238l-162 -162l-164 163l162 163zM1232 1244l-162 -163l-164 164l162 162zM875 837l-162 -162l-164 163l162 163zM1235 843l-162 -163l-164 164l162 162z"/>
<glyph glyph-name="uni0680" horiz-adv-x="1798" unicode="ڀ" d="M866 -301l-162 -162l-164 163l162 163zM1226 -295l-162 -163l-164 164l162 162zM869 -702l-162 -162l-164 163l162 163zM1229 -696l-162 -163l-164 164l162 162zM859 0q-359 3 -575 83q-206 80 -280 229q-42 81 -42 176t39 198q14 36 29 66t27.5 52t21.5 35.5l11 16.5 l159 -118q-6 -8 -12 -17t-11 -19q-10 -17 -21 -39.5t-21 -50.5q-24 -66 -24 -121q0 -50 20 -89q49 -98 224 -150.5t455 -53.5q80 0 175 6.5t193.5 23.5t196 46.5t181.5 76.5q-4 45 -19 94.5t-36 97.5t-44 91.5t-43 77t-33 54t-14 21.5l166 108q1 -2 13 -20t29 -48t38.5 -70 t42.5 -86.5t39 -97.5t30 -102t16 -91q1 -11 0 -21q0 -29 -6 -53q-10 -34 -35.5 -63t-72.5 -59q-45 -28 -105 -52.5t-129.5 -45.5t-144.5 -37t-151 -27.5t-149 -17.5q-62 -5 -118 -4h-20z"/>
<glyph glyph-name="uni0681" horiz-adv-x="1532" unicode="ځ" d="M841 -775q-109 0 -193.5 12.5t-130.5 28.5q-227 73 -348 217q-78 89 -112 197q-25 79 -25 172q0 32 3 66q10 102 48 192.5t107 171.5q60 69 134 125t164 98q123 57 255 89.5t256 47.5q-28 14 -54.5 26.5t-54.5 26.5q-106 52 -191 90.5t-145 46.5q-19 3 -38 3 q-116 0 -212 -102q-23 -24 -38.5 -47t-27.5 -43q-7 -11 -12.5 -21.5t-10.5 -20.5l-182 76q3 4 11 22t23 44t38 58.5t55 65.5q88 97 195 137q76 29 159 29q33 0 67 -5q84 -11 180 -53.5t218 -101.5q109 -55 231.5 -112t267.5 -105l-36 -192q-2 0 -43 1h-37q-32 -1 -72 -1 q-68 -2 -155 -8t-183 -21t-194 -41t-186 -67q-24 -11 -56.5 -29.5t-68.5 -45t-72 -61.5t-66 -78.5t-51 -96.5t-26 -115q-2 -22 -2 -44q0 -288 348 -404q18 -7 53.5 -13.5t82.5 -10.5t103 -5h23q45 0 92 3q50 4 107.5 13.5t116.5 28.5t117 48t108 72l131 -150 q-72 -63 -156 -104t-172 -65.5t-176 -34.5t-167 -10zM567 1516q-12 3 -27 6q-13 2 -29.5 4.5t-35.5 2.5q-15 0 -30.5 -2.5t-31.5 -9.5v2q-32 -14 -51.5 -42.5t-19.5 -61.5q0 -17 8 -36l-1 1q14 -35 49.5 -58.5t78.5 -23.5q11 0 21 1t21 6q26 8 51 21t45 25q23 14 43 29 l59 -78q-39 -29 -98 -62t-144 -80l-227 -126l-48 87l179 100q-41 17 -72.5 49t-48.5 71q-14 34 -14 74q0 31 9.5 60.5t27 55t42 45.5t54.5 32q47 19 98 19q23 0 44 -3t38 -7q19 -4 38 -9z"/>
<glyph glyph-name="uni0682" horiz-adv-x="1532" unicode="ڂ" d="M841 -775q-109 0 -193.5 12.5t-130.5 28.5q-227 73 -348 217q-78 89 -112 197q-25 79 -25 172q0 32 3 66q10 102 48 192.5t107 171.5q60 69 134 125t164 98q123 57 255 89.5t256 47.5q-28 14 -54.5 26.5t-54.5 26.5q-106 52 -191 90.5t-145 46.5q-19 3 -38 3 q-116 0 -212 -102q-23 -24 -38.5 -47t-27.5 -43q-7 -11 -12.5 -21.5t-10.5 -20.5l-182 76q3 4 11 22t23 44t38 58.5t55 65.5q88 97 195 137q76 29 159 29q33 0 67 -5q84 -11 180 -53.5t218 -101.5q109 -55 231.5 -112t267.5 -105l-36 -192q-2 0 -43 1h-37q-32 -1 -72 -1 q-68 -2 -155 -8t-183 -21t-194 -41t-186 -67q-24 -11 -56.5 -29.5t-68.5 -45t-72 -61.5t-66 -78.5t-51 -96.5t-26 -115q-2 -22 -2 -44q0 -288 348 -404q18 -7 53.5 -13.5t82.5 -10.5t103 -5h23q45 0 92 3q50 4 107.5 13.5t116.5 28.5t117 48t108 72l131 -150 q-72 -63 -156 -104t-172 -65.5t-176 -34.5t-167 -10zM680 1331l-163 -163l-164 164l163 163zM681 1720l-163 -163l-164 164l163 163z"/>
<glyph glyph-name="uni0683" horiz-adv-x="1532" unicode="ڃ" d="M841 -775q-109 0 -193.5 12.5t-130.5 28.5q-227 73 -348 217q-78 89 -112 197q-25 79 -25 172q0 32 3 66q10 102 48 192.5t107 171.5q60 69 134 125t164 98q123 57 255 89.5t256 47.5q-28 14 -54.5 26.5t-54.5 26.5q-106 52 -191 90.5t-145 46.5q-19 3 -38 3 q-116 0 -212 -102q-23 -24 -38.5 -47t-27.5 -43q-7 -11 -12.5 -21.5t-10.5 -20.5l-182 76q3 4 11 22t23 44t38 58.5t55 65.5q88 97 195 137q76 29 159 29q33 0 67 -5q84 -11 180 -53.5t218 -101.5q109 -55 231.5 -112t267.5 -105l-36 -192q-2 0 -43 1h-37q-32 -1 -72 -1 q-68 -2 -155 -8t-183 -21t-194 -41t-186 -67q-24 -11 -56.5 -29.5t-68.5 -45t-72 -61.5t-66 -78.5t-51 -96.5t-26 -115q-2 -22 -2 -44q0 -288 348 -404q18 -7 53.5 -13.5t82.5 -10.5t103 -5h23q45 0 92 3q50 4 107.5 13.5t116.5 28.5t117 48t108 72l131 -150 q-72 -63 -156 -104t-172 -65.5t-176 -34.5t-167 -10zM1186 -90l-162 -163l-164 164l162 162zM846 -89l-162 -162l-164 163l162 163z"/>
<glyph glyph-name="uni0684" horiz-adv-x="1657" unicode="ڄ" d="M1061 710q109 -54 232 -111.5t267 -105.5l-36 -191q-2 0 -42 1h-37q-31 -1 -71 -1q-68 -2 -155.5 -8t-183.5 -21.5t-194 -41.5t-186 -67q-36 -17 -90.5 -50t-107.5 -85.5t-93.5 -124.5t-49.5 -165q-2 -23 -2 -44q0 -289 348 -404l-61 -188q-226 73 -349 217 q-76 90 -110 198q-25 81 -26 175q0 31 3 63q10 101 47.5 192t107.5 172q60 69 134.5 125t164.5 97q61 29 125 51t129.5 38.5t130 28t126.5 19.5q-29 14 -56.5 27t-53.5 27q-106 51 -191 90t-145 47q-19 2 -37 2q-49 0 -95 -18q-62 -24 -118 -84q-23 -24 -39 -46.5t-27 -42.5 q-14 -22 -22 -42l-182 75q1 5 9.5 22.5t24 44t38.5 58.5t54 66q88 97 195 137q77 29 160 29q33 0 66 -5q84 -12 180 -54.5t218 -101.5zM1097 -514l-163 -163l-164 164l163 163zM1088 -115l-163 -163l-164 164l163 163z"/>
<glyph glyph-name="uni0685" horiz-adv-x="1532" unicode="څ" d="M841 -775q-109 0 -193.5 12.5t-130.5 28.5q-227 73 -348 217q-78 89 -112 197q-25 79 -25 172q0 32 3 66q10 102 48 192.5t107 171.5q60 69 134 125t164 98q123 57 255 89.5t256 47.5q-28 14 -54.5 26.5t-54.5 26.5q-106 52 -191 90.5t-145 46.5q-19 3 -38 3 q-116 0 -212 -102q-23 -24 -38.5 -47t-27.5 -43q-7 -11 -12.5 -21.5t-10.5 -20.5l-182 76q3 4 11 22t23 44t38 58.5t55 65.5q88 97 195 137q76 29 159 29q33 0 67 -5q84 -11 180 -53.5t218 -101.5q109 -55 231.5 -112t267.5 -105l-36 -192q-2 0 -43 1h-37q-32 -1 -72 -1 q-68 -2 -155 -8t-183 -21t-194 -41t-186 -67q-24 -11 -56.5 -29.5t-68.5 -45t-72 -61.5t-66 -78.5t-51 -96.5t-26 -115q-2 -22 -2 -44q0 -288 348 -404q18 -7 53.5 -13.5t82.5 -10.5t103 -5h23q45 0 92 3q50 4 107.5 13.5t116.5 28.5t117 48t108 72l131 -150 q-72 -63 -156 -104t-172 -65.5t-176 -34.5t-167 -10zM317 1539l148 148l149 -149l-148 -148zM121 1279l162 163l164 -164l-162 -163zM475 1278l162 162l164 -164l-162 -162z"/>
<glyph glyph-name="uni0687" horiz-adv-x="1657" unicode="ڇ" d="M1061 710q109 -54 232 -111.5t267 -105.5l-36 -191q-2 0 -42 1h-37q-31 -1 -71 -1q-68 -2 -155.5 -8t-183.5 -21.5t-194 -41.5t-186 -67q-36 -17 -90.5 -50t-107.5 -85.5t-93.5 -124.5t-49.5 -165q-2 -23 -2 -44q0 -289 348 -404l-61 -188q-226 73 -349 217 q-76 90 -110 198q-25 81 -26 175q0 31 3 63q10 101 47.5 192t107.5 172q60 69 134.5 125t164.5 97q61 29 125 51t129.5 38.5t130 28t126.5 19.5q-29 14 -56.5 27t-53.5 27q-106 51 -191 90t-145 47q-19 2 -37 2q-49 0 -95 -18q-62 -24 -118 -84q-23 -24 -39 -46.5t-27 -42.5 q-14 -22 -22 -42l-182 75q1 5 9.5 22.5t24 44t38.5 58.5t54 66q88 97 195 137q77 29 160 29q33 0 66 -5q84 -12 180 -54.5t218 -101.5zM960 -63l-162 -162l-164 163l162 163zM1320 -57l-162 -163l-164 164l162 162zM963 -464l-162 -162l-164 163l162 163zM1323 -458 l-162 -163l-164 164l162 162z"/>
<glyph glyph-name="uni0689" horiz-adv-x="997" unicode="ډ" d="M455 1q-26 0 -51 1t-54 4q-63 6 -119 17t-98.5 22t-68 19t-26.5 8l66 188l22 -7q22 -7 59 -16.5t86 -19.5t103 -15q39 -4 83 -4h11q50 0 98 9.5t90.5 29.5t72.5 55q16 18 16 53q0 26 -9 63q-11 49 -35.5 102.5t-59 107t-76.5 104.5t-87.5 94.5t-92.5 78t-92 53.5l81 182 q59 -27 119 -70t116.5 -97t108 -116.5t93.5 -129t73 -133.5t46 -131q12 -56 12 -101t-8.5 -80t-22.5 -61t-30 -45q-92 -111 -257 -147q-38 -10 -80 -14t-89 -4zM228 1847q40 0 78 -19t67 -53q27 -32 41.5 -70t14.5 -77q0 -38 -14.5 -76.5t-41.5 -70.5q-29 -35 -67 -54 t-78 -19q-41 0 -79 19t-67 54q-27 32 -41.5 70.5t-14.5 76.5q0 39 14.5 77t41.5 70q29 34 67 53t79 19zM228 1515q19 0 36.5 10.5t30.5 27t20.5 36.5t7.5 39t-7.5 38.5t-20.5 36t-30.5 27t-36.5 10.5q-20 0 -37 -10.5t-30.5 -27t-21 -36t-7.5 -38.5t7.5 -39t21 -36.5 t30.5 -27t37 -10.5z"/>
<glyph glyph-name="uni068A" horiz-adv-x="997" unicode="ڊ" d="M455 1q-26 0 -51 1t-54 4q-63 6 -119 17t-98.5 22t-68 19t-26.5 8l66 188l22 -7q22 -7 59 -16.5t86 -19.5t103 -15q39 -4 83 -4h11q50 0 98 9.5t90.5 29.5t72.5 55q16 18 16 53q0 26 -9 63q-11 49 -35.5 102.5t-59 107t-76.5 104.5t-87.5 94.5t-92.5 78t-92 53.5l81 182 q59 -27 119 -70t116.5 -97t108 -116.5t93.5 -129t73 -133.5t46 -131q12 -56 12 -101t-8.5 -80t-22.5 -61t-30 -45q-92 -111 -257 -147q-38 -10 -80 -14t-89 -4zM662 -358l-163 -163l-164 164l163 163z"/>
<glyph glyph-name="uni068B" horiz-adv-x="1006" unicode="ڋ" d="M463 1q-26 0 -51 1t-54 4q-63 6 -119 17t-98.5 22t-68 19t-26.5 8l66 188l22 -7q22 -7 59 -16.5t86 -19.5t103 -15q39 -4 83 -4h11q50 0 98 9.5t90.5 29.5t72.5 55q16 18 16 53q0 26 -9 63q-11 49 -35.5 102.5t-59 107t-76.5 104.5t-87.5 94.5t-92.5 78t-92 53.5l81 182 q59 -27 119 -70t116.5 -97t108 -116.5t93.5 -129t73 -133.5t46 -131q12 -56 12 -101t-8.5 -80t-22.5 -61t-30 -45q-92 -111 -257 -147q-38 -10 -80 -14t-89 -4zM673 -358l-163 -163l-164 164l163 163zM358 1354q21 -3 40 -3h2q31 -1 67 -1t74 7t76.5 24t75.5 50 q27 24 33.5 52.5t-3.5 51t-34.5 36t-60.5 7.5q-44 -7 -96 -43t-109 -100q-11 -12 -20 -23l-18 -22zM451 1264q-15 0 -28.5 0.5t-25.5 1.5h-3q-67 3 -133.5 17.5t-138.5 42.5l32 79q29 -11 56 -19.5t54 -15.5q9 13 22.5 31t30.5 41l3 4q6 37 8.5 66t3 57.5t-1.5 60.5t-5 75 q-4 46 -7.5 85.5t-7.5 68.5q-4 34 -8 62l84 16l3 -24q3 -24 6.5 -57.5t7.5 -71t6 -64.5q3 -36 4 -52t2 -28.5t1 -31t1 -58.5q103 97 197 112q13 2 28 2q19 1 38 -3q35 -6 64 -23.5t48.5 -45.5t21.5 -65q1 -7 1 -13q0 -16 -4 -33q-5 -23 -14 -43t-20.5 -37t-23.5 -29l-1 -2 q-38 -35 -77.5 -55.5t-78.5 -32t-75.5 -15t-69.5 -3.5z"/>
<glyph glyph-name="uni068C" horiz-adv-x="997" unicode="ڌ" d="M455 1q-26 0 -51 1t-54 4q-63 6 -119 17t-98.5 22t-68 19t-26.5 8l66 188l22 -7q22 -7 59 -16.5t86 -19.5t103 -15q39 -4 83 -4h11q50 0 98 9.5t90.5 29.5t72.5 55q16 18 16 53q0 26 -9 63q-11 49 -35.5 102.5t-59 107t-76.5 104.5t-87.5 94.5t-92.5 78t-92 53.5l81 182 q59 -27 119 -70t116.5 -97t108 -116.5t93.5 -129t73 -133.5t46 -131q12 -56 12 -101t-8.5 -80t-22.5 -61t-30 -45q-92 -111 -257 -147q-38 -10 -80 -14t-89 -4zM697 1349l-162 -163l-164 164l162 162zM357 1350l-162 -162l-164 163l162 163z"/>
<glyph glyph-name="uni068D" horiz-adv-x="997" unicode="ڍ" d="M455 1q-26 0 -51 1t-54 4q-63 6 -119 17t-98.5 22t-68 19t-26.5 8l66 188l22 -7q22 -7 59 -16.5t86 -19.5t103 -15q39 -4 83 -4h11q50 0 98 9.5t90.5 29.5t72.5 55q16 18 16 53q0 26 -9 63q-11 49 -35.5 102.5t-59 107t-76.5 104.5t-87.5 94.5t-92.5 78t-92 53.5l81 182 q59 -27 119 -70t116.5 -97t108 -116.5t93.5 -129t73 -133.5t46 -131q12 -56 12 -101t-8.5 -80t-22.5 -61t-30 -45q-92 -111 -257 -147q-38 -10 -80 -14t-89 -4zM866 -373l-162 -163l-164 164l162 162zM526 -372l-162 -162l-164 163l162 163z"/>
<glyph glyph-name="uni068E" horiz-adv-x="997" unicode="ڎ" d="M455 1q-26 0 -51 1t-54 4q-63 6 -119 17t-98.5 22t-68 19t-26.5 8l66 188l22 -7q22 -7 59 -16.5t86 -19.5t103 -15q39 -4 83 -4h11q50 0 98 9.5t90.5 29.5t72.5 55q16 18 16 53q0 26 -9 63q-11 49 -35.5 102.5t-59 107t-76.5 104.5t-87.5 94.5t-92.5 78t-92 53.5l81 182 q59 -27 119 -70t116.5 -97t108 -116.5t93.5 -129t73 -133.5t46 -131q12 -56 12 -101t-8.5 -80t-22.5 -61t-30 -45q-92 -111 -257 -147q-38 -10 -80 -14t-89 -4zM207 1702l148 148l149 -149l-148 -148zM11 1442l162 163l164 -164l-162 -163zM365 1441l162 162l164 -164 l-162 -162z"/>
<glyph glyph-name="uni068F" horiz-adv-x="997" unicode="ڏ" d="M455 1q-26 0 -51 1t-54 4q-63 6 -119 17t-98.5 22t-68 19t-26.5 8l66 188l22 -7q22 -7 59 -16.5t86 -19.5t103 -15q39 -4 83 -4h11q50 0 98 9.5t90.5 29.5t72.5 55q16 18 16 53q0 26 -9 63q-11 49 -35.5 102.5t-59 107t-76.5 104.5t-87.5 94.5t-92.5 78t-92 53.5l81 182 q59 -27 119 -70t116.5 -97t108 -116.5t93.5 -129t73 -133.5t46 -131q12 -56 12 -101t-8.5 -80t-22.5 -61t-30 -45q-92 -111 -257 -147q-38 -10 -80 -14t-89 -4zM547 1468l-162 -162l-164 164l162 162zM715 1743l-162 -163l-164 164l162 163zM361 1744l-162 -162l-164 164 l162 162z"/>
<glyph glyph-name="uni0690" horiz-adv-x="997" unicode="ڐ" d="M455 1q-26 0 -51 1t-54 4q-63 6 -119 17t-98.5 22t-68 19t-26.5 8l66 188l22 -7q22 -7 59 -16.5t86 -19.5t103 -15q39 -4 83 -4h11q50 0 98 9.5t90.5 29.5t72.5 55q16 18 16 53q0 26 -9 63q-11 49 -35.5 102.5t-59 107t-76.5 104.5t-87.5 94.5t-92.5 78t-92 53.5l81 182 q59 -27 119 -70t116.5 -97t108 -116.5t93.5 -129t73 -133.5t46 -131q12 -56 12 -101t-8.5 -80t-22.5 -61t-30 -45q-92 -111 -257 -147q-38 -10 -80 -14t-89 -4zM362 1823l-162 -162l-164 163l162 163zM722 1829l-162 -163l-164 164l162 162zM365 1422l-162 -162l-164 163 l162 163zM725 1428l-162 -163l-164 164l162 162z"/>
<glyph glyph-name="uni0692" horiz-adv-x="897" unicode="ڒ" d="M654 650q28 -93 53 -184q10 -39 21 -81t20.5 -84t16.5 -81.5t11 -73.5q1 -11 2 -25t1 -31q0 -87 -25.5 -169t-71 -157.5t-108 -144.5t-136 -129.5t-155 -112.5t-165.5 -93l-87 176q105 52 204 120.5t176.5 149.5t124.5 172t47 188q0 4 -1 16l-2 22q-3 31 -10 67.5t-16 75 t-19 77t-20 74.5q-24 84 -51 168zM587 859l-105 6q-18 56 -40.5 114t-48 108.5t-52 89.5t-52.5 57l64 92q74 -51 146 -197q11 -22 20.5 -43.5t17.5 -42.5q5 12 8.5 24.5t7.5 23.5q15 45 29.5 86.5t31.5 78t37 68t47 56.5l77 -82q-19 -18 -34.5 -43.5t-29 -56.5t-26 -67 t-25.5 -75q-15 -46 -32.5 -96t-40.5 -101z"/>
<glyph glyph-name="uni0693" horiz-adv-x="928" unicode="ړ" d="M654 650q28 -93 53 -184q10 -39 21 -81t20.5 -84t16.5 -81.5t11 -73.5q1 -11 2 -25t1 -31q0 -87 -25.5 -169t-71 -157.5t-108 -144.5t-136 -129.5t-155 -112.5t-165.5 -93l-87 176q105 52 204 120.5t176.5 149.5t124.5 172t47 188q0 4 -1 16l-2 22q-3 31 -10 67.5t-16 75 t-19 77t-20 74.5q-24 84 -51 168zM315 1467q40 0 78 -19t67 -53q27 -32 41.5 -70t14.5 -77q0 -38 -14.5 -76.5t-41.5 -70.5q-29 -35 -67 -54t-78 -19q-41 0 -79 19t-67 54q-27 32 -41.5 70.5t-14.5 76.5q0 39 14.5 77t41.5 70q29 34 67 53t79 19zM315 1135q19 0 36.5 10.5 t30.5 27t20.5 36.5t7.5 39t-7.5 38.5t-20.5 36t-30.5 27t-36.5 10.5q-20 0 -37 -10.5t-30.5 -27t-21 -36t-7.5 -38.5t7.5 -39t21 -36.5t30.5 -27t37 -10.5z"/>
<glyph glyph-name="uni0694" horiz-adv-x="969" unicode="ڔ" d="M654 650q28 -93 53 -184q10 -39 21 -81t20.5 -84t16.5 -81.5t11 -73.5q1 -11 2 -25t1 -31q0 -87 -25.5 -169t-71 -157.5t-108 -144.5t-136 -129.5t-155 -112.5t-165.5 -93l-87 176q105 52 204 120.5t176.5 149.5t124.5 172t47 188q0 4 -1 16l-2 22q-3 31 -10 67.5t-16 75 t-19 77t-20 74.5q-24 84 -51 168zM862 -530l-163 -163l-164 164l163 163z"/>
<glyph glyph-name="uni0695" horiz-adv-x="897" unicode="ڕ" d="M654 650q28 -93 53 -184q10 -39 21 -81t20.5 -84t16.5 -81.5t11 -73.5q1 -11 2 -25t1 -31q0 -87 -25.5 -169t-71 -157.5t-108 -144.5t-136 -129.5t-155 -112.5t-165.5 -93l-87 176q105 52 204 120.5t176.5 149.5t124.5 172t47 188q0 4 -1 16l-2 22q-3 31 -10 67.5t-16 75 t-19 77t-20 74.5q-24 84 -51 168zM699 -963l-105 6q-18 56 -40.5 114t-48 108.5t-52 89.5t-52.5 57l64 92q74 -51 146 -197q11 -22 20.5 -43.5t17.5 -42.5q5 12 8.5 24.5t7.5 23.5q15 45 29.5 86.5t31.5 78t37 68t47 56.5l77 -82q-19 -18 -34.5 -43.5t-29 -56.5t-26 -67 t-25.5 -75q-15 -46 -32.5 -96t-40.5 -101z"/>
<glyph glyph-name="uni0696" horiz-adv-x="1040" unicode="ږ" d="M654 650q28 -93 53 -184q10 -39 21 -81t20.5 -84t16.5 -81.5t11 -73.5q1 -11 2 -25t1 -31q0 -87 -25.5 -169t-71 -157.5t-108 -144.5t-136 -129.5t-155 -112.5t-165.5 -93l-87 176q105 52 204 120.5t176.5 149.5t124.5 172t47 188q0 4 -1 16l-2 22q-3 31 -10 67.5t-16 75 t-19 77t-20 74.5q-24 84 -51 168zM346 182l-163 -163l-164 164l163 163zM922 -530l-163 -163l-164 164l163 163z"/>
<glyph glyph-name="uni0697" horiz-adv-x="920" unicode="ڗ" d="M654 650q28 -93 53 -184q10 -39 21 -81t20.5 -84t16.5 -81.5t11 -73.5q1 -11 2 -25t1 -31q0 -87 -25.5 -169t-71 -157.5t-108 -144.5t-136 -129.5t-155 -112.5t-165.5 -93l-87 176q105 52 204 120.5t176.5 149.5t124.5 172t47 188q0 4 -1 16l-2 22q-3 31 -10 67.5t-16 75 t-19 77t-20 74.5q-24 84 -51 168zM832 1029l-162 -163l-164 164l162 162zM492 1030l-162 -162l-164 163l162 163z"/>
<glyph glyph-name="uni0699" horiz-adv-x="899" unicode="ڙ" d="M654 650q28 -93 53 -184q10 -39 21 -81t20.5 -84t16.5 -81.5t11 -73.5q1 -11 2 -25t1 -31q0 -87 -25.5 -169t-71 -157.5t-108 -144.5t-136 -129.5t-155 -112.5t-165.5 -93l-87 176q105 52 204 120.5t176.5 149.5t124.5 172t47 188q0 4 -1 16l-2 22q-3 31 -10 67.5t-16 75 t-19 77t-20 74.5q-24 84 -51 168zM431 1416l-162 -162l-164 163l162 163zM791 1422l-162 -163l-164 164l162 162zM434 1015l-162 -162l-164 163l162 163zM794 1021l-162 -163l-164 164l162 162z"/>
<glyph glyph-name="uni069A" horiz-adv-x="2566" unicode="ښ" d="M2369 736q5 -10 18.5 -36t31 -64t36 -86t34 -101t25.5 -110t10 -112q-1 -86 -20.5 -161t-60 -131t-104.5 -88t-155 -32q-28 0 -60 8.5t-64 25t-61 41.5t-50 57q-60 -71 -135 -100t-159 -33h-17q-38 0 -68 7q-37 9 -63 21q-31 14 -53 33q1 -17 1 -34q-1 -71 -11 -137 q-12 -84 -43 -159t-82.5 -140t-127.5 -115q-92 -63 -208.5 -96t-261.5 -40q-10 0 -20 -0.5t-19 -0.5q-132 0 -240.5 37.5t-193.5 112.5q-76 67 -125.5 161t-65.5 205q-9 55 -9 111v12q1 62 8 118.5t19 107t24 90.5q31 102 66.5 174.5t61.5 107.5l159 -117q-20 -26 -47.5 -87 t-51 -141t-35.5 -171q-6 -45 -5 -88q0 -45 6 -89q4 -26 13.5 -62t29 -74t50 -75.5t76.5 -67t109.5 -48t147.5 -18.5h33q213 9 342.5 84t174.5 214q27 82 29 165v28q0 69 -10 134q-12 79 -36 150.5t-49 129.5q-24 54 -41.5 83t-17.5 31l167 108q6 -16 16 -38 q8 -19 19.5 -45.5t27.5 -61.5q27 -63 56.5 -121.5t66 -103.5t82.5 -71q43 -24 98 -24h9q52 1 84.5 21t52 53t27.5 77q8 43 10 93q2 31 1 64q-1 18 -1 38q-1 32 0 63v40l203 20l2 -30q1 -13 1 -28t1 -28q1 -25 3.5 -63.5t8.5 -82t17 -87.5t28.5 -79.5t43.5 -57.5t63 -22 q34 0 60.5 19.5t44.5 52.5t26 75q6 34 6 71v18q-3 64 -18.5 122.5t-35.5 110.5t-42 95t-38 75zM2104 1023l-163 -163l-164 164l163 163zM2117 -517l-163 -163l-164 164l163 163z"/>
<glyph glyph-name="uni069B" horiz-adv-x="2572" unicode="ڛ" d="M2369 736q5 -10 18.5 -36t31 -64t36 -86t34 -101t25.5 -110t10 -112q-1 -86 -20.5 -161t-60 -131t-104.5 -88t-155 -32q-28 0 -60 8.5t-64 25t-61 41.5t-50 57q-60 -71 -135 -100t-159 -33h-17q-38 0 -68 7q-37 9 -63 21q-31 14 -53 33q1 -17 1 -34q-1 -71 -11 -137 q-12 -84 -43 -159t-82.5 -140t-127.5 -115q-92 -63 -208.5 -96t-261.5 -40q-10 0 -20 -0.5t-19 -0.5q-132 0 -240.5 37.5t-193.5 112.5q-76 67 -125.5 161t-65.5 205q-9 55 -9 111v12q1 62 8 118.5t19 107t24 90.5q31 102 66.5 174.5t61.5 107.5l159 -117q-20 -26 -47.5 -87 t-51 -141t-35.5 -171q-6 -45 -5 -88q0 -45 6 -89q4 -26 13.5 -62t29 -74t50 -75.5t76.5 -67t109.5 -48t147.5 -18.5h33q213 9 342.5 84t174.5 214q27 82 29 165v28q0 69 -10 134q-12 79 -36 150.5t-49 129.5q-24 54 -41.5 83t-17.5 31l167 108q6 -16 16 -38 q8 -19 19.5 -45.5t27.5 -61.5q27 -63 56.5 -121.5t66 -103.5t82.5 -71q43 -24 98 -24h9q52 1 84.5 21t52 53t27.5 77q8 43 10 93q2 31 1 64q-1 18 -1 38q-1 32 0 63v40l203 20l2 -30q1 -13 1 -28t1 -28q1 -25 3.5 -63.5t8.5 -82t17 -87.5t28.5 -79.5t43.5 -57.5t63 -22 q34 0 60.5 19.5t44.5 52.5t26 75q6 34 6 71v18q-3 64 -18.5 122.5t-35.5 110.5t-42 95t-38 75zM1799 -727l148 148l149 -149l-148 -148zM2278 -480l-162 -163l-164 164l162 163zM1924 -479l-162 -162l-164 164l162 162z"/>
<glyph glyph-name="uni069C" horiz-adv-x="2589" unicode="ڜ" d="M2369 736q5 -10 18.5 -36t31 -64t36 -86t34 -101t25.5 -110t10 -112q-1 -86 -20.5 -161t-60 -131t-104.5 -88t-155 -32q-28 0 -60 8.5t-64 25t-61 41.5t-50 57q-60 -71 -135 -100t-159 -33h-17q-38 0 -68 7q-37 9 -63 21q-31 14 -53 33q1 -17 1 -34q-1 -71 -11 -137 q-12 -84 -43 -159t-82.5 -140t-127.5 -115q-92 -63 -208.5 -96t-261.5 -40q-10 0 -20 -0.5t-19 -0.5q-132 0 -240.5 37.5t-193.5 112.5q-76 67 -125.5 161t-65.5 205q-9 55 -9 111v12q1 62 8 118.5t19 107t24 90.5q31 102 66.5 174.5t61.5 107.5l159 -117q-20 -26 -47.5 -87 t-51 -141t-35.5 -171q-6 -45 -5 -88q0 -45 6 -89q4 -26 13.5 -62t29 -74t50 -75.5t76.5 -67t109.5 -48t147.5 -18.5h33q213 9 342.5 84t174.5 214q27 82 29 165v28q0 69 -10 134q-12 79 -36 150.5t-49 129.5q-24 54 -41.5 83t-17.5 31l167 108q6 -16 16 -38 q8 -19 19.5 -45.5t27.5 -61.5q27 -63 56.5 -121.5t66 -103.5t82.5 -71q43 -24 98 -24h9q52 1 84.5 21t52 53t27.5 77q8 43 10 93q2 31 1 64q-1 18 -1 38q-1 32 0 63v40l203 20l2 -30q1 -13 1 -28t1 -28q1 -25 3.5 -63.5t8.5 -82t17 -87.5t28.5 -79.5t43.5 -57.5t63 -22 q34 0 60.5 19.5t44.5 52.5t26 75q6 34 6 71v18q-3 64 -18.5 122.5t-35.5 110.5t-42 95t-38 75zM1757 1194l148 148l149 -149l-148 -148zM1561 934l162 163l164 -164l-162 -163zM1915 933l162 162l164 -164l-162 -162zM1763 -697l148 148l149 -149l-148 -148zM2242 -450 l-162 -163l-164 164l162 163zM1888 -449l-162 -162l-164 164l162 162z"/>
<glyph glyph-name="uni069D" horiz-adv-x="2795" unicode="ڝ" d="M1734 209q43 -15 98 -26t116 -16q44 -4 89 -4q18 0 36 1q64 2 126.5 12t120 29.5t104.5 49.5q115 72 127 205q1 21 -4 40.5t-13.5 36t-18.5 29.5t-18 21q-29 28 -61.5 44t-65.5 23q-29 6 -57 6h-7q-32 -1 -58 -7q-81 -14 -159.5 -56t-146.5 -106q-38 -36 -69.5 -74 t-57.5 -75t-46 -71t-35 -62zM772 -649q-24 0 -49.5 1t-51.5 5q-98 7 -179.5 31t-147.5 64q-63 37 -108.5 87.5t-78.5 113.5q-57 121 -57 275v5q0 63 10 128.5t28 137.5q15 60 34 114t38 97.5t34.5 74t24.5 43.5l166 -106q-8 -11 -26.5 -49t-39 -94.5t-39.5 -126.5 q-20 -70 -28 -141q-5 -42 -4 -84q0 -29 2 -59q6 -70 35 -128q79 -164 353 -187q44 -4 85 -4q219 0 345 109q43 36 71.5 78.5t46.5 87.5t26 89t11 82q2 26 2 52q0 61 -10 124q-14 91 -35 171.5t-42.5 143t-31.5 89.5q-4 4 -5 8.5t-4 9.5l184 77l8 -23q32 -75 72 -142t75 -122 q13 -20 31.5 -39.5t42.5 -39.5q18 33 42 73t55 83t67.5 87t80.5 86q89 85 194 140t214 75q53 9 103 9q70 0 134 -18q108 -31 188 -115q60 -60 87 -130q23 -59 23 -123q0 -12 -1 -24q-8 -114 -62.5 -204.5t-151.5 -153.5q-54 -35 -114 -58t-119 -36.5t-115 -20t-104 -7.5 q-27 -1 -53 -1q-86 0 -172 12q-112 16 -201 49q-51 20 -97 44t-87 53q2 -37 1.5 -73t-1.5 -71q-10 -139 -63 -255q-29 -66 -69.5 -120.5t-91.5 -98.5q-184 -155 -475 -155zM2342 -366l-162 -163l-164 164l162 162zM2002 -365l-162 -162l-164 163l162 163z"/>
<glyph glyph-name="uni069E" horiz-adv-x="2806" unicode="ڞ" d="M1734 209q43 -15 98 -26t116 -16q44 -4 89 -4q18 0 36 1q64 2 126.5 12t120 29.5t104.5 49.5q115 72 127 205q1 21 -4 40.5t-13.5 36t-18.5 29.5t-18 21q-29 28 -61.5 44t-65.5 23q-29 6 -57 6h-7q-32 -1 -58 -7q-81 -14 -159.5 -56t-146.5 -106q-38 -36 -69.5 -74 t-57.5 -75t-46 -71t-35 -62zM772 -649q-24 0 -49.5 1t-51.5 5q-98 7 -179.5 31t-147.5 64q-63 37 -108.5 87.5t-78.5 113.5q-57 121 -57 275v5q0 63 10 128.5t28 137.5q15 60 34 114t38 97.5t34.5 74t24.5 43.5l166 -106q-8 -11 -26.5 -49t-39 -94.5t-39.5 -126.5 q-20 -70 -28 -141q-5 -42 -4 -84q0 -29 2 -59q6 -70 35 -128q79 -164 353 -187q44 -4 85 -4q219 0 345 109q43 36 71.5 78.5t46.5 87.5t26 89t11 82q2 26 2 52q0 61 -10 124q-14 91 -35 171.5t-42.5 143t-31.5 89.5q-4 4 -5 8.5t-4 9.5l184 77l8 -23q32 -75 72 -142t75 -122 q13 -20 31.5 -39.5t42.5 -39.5q18 33 42 73t55 83t67.5 87t80.5 86q89 85 194 140t214 75q53 9 103 9q70 0 134 -18q108 -31 188 -115q60 -60 87 -130q23 -59 23 -123q0 -12 -1 -24q-8 -114 -62.5 -204.5t-151.5 -153.5q-54 -35 -114 -58t-119 -36.5t-115 -20t-104 -7.5 q-27 -1 -53 -1q-86 0 -172 12q-112 16 -201 49q-51 20 -97 44t-87 53q2 -37 1.5 -73t-1.5 -71q-10 -139 -63 -255q-29 -66 -69.5 -120.5t-91.5 -98.5q-184 -155 -475 -155zM2048 1401l148 148l149 -149l-148 -148zM1852 1141l162 163l164 -164l-162 -163zM2206 1140l162 162 l164 -164l-162 -162z"/>
<glyph glyph-name="uni069F" horiz-adv-x="1853" unicode="ڟ" d="M641 208q24 -3 46 -4t48 -3h2q63 -3 134 -3h23q84 0 173 17t179 57t176 117q18 19 34.5 44.5t28.5 53.5t18.5 57.5t5.5 57.5q-3 32 -13.5 49t-21.5 25q-73 60 -160 60q-22 0 -45 -4q-101 -16 -222 -100t-255 -233q-24 -29 -46.5 -54.5t-43.5 -50.5zM856 0q-33 0 -64.5 1 t-61.5 3h-5q-156 8 -311.5 42t-322.5 98l72 185q133 -52 258 -83q21 31 52.5 74t72.5 94l7 10q12 86 18 154t7 134v27q0 55 -3 115q-4 74 -11 173q-8 108 -17 200.5t-17 160t-13.5 106t-5.5 39.5l196 36l3 -26q3 -26 8 -68t11 -96t11.5 -110t11 -110t8.5 -97 q4 -56 6.5 -89.5t4 -56.5t2.5 -41.5t1.5 -43.5t1 -63.5t2.5 -101.5q241 229 461 262q39 6 76 6q153 0 283 -105q101 -82 107 -216q1 -14 1 -28q0 -40 -8 -80q-12 -53 -33.5 -100t-48.5 -87t-54 -68l-1 -2l-2 -2q-89 -80 -181.5 -128.5t-183 -74.5t-176.5 -34.5t-162 -8.5z M1110 1464l148 148l149 -149l-148 -148zM914 1204l162 163l164 -164l-162 -163zM1268 1203l162 162l164 -164l-162 -162z"/>
<glyph glyph-name="uni06A0" horiz-adv-x="1438" unicode="ڠ" d="M803 -753q-93 0 -165 9t-113 22q-115 34 -203 85.5t-153 121.5q-81 89 -117 195q-29 87 -29 190q0 23 1 47q5 101 41.5 192.5t102.5 176.5q112 141 291 231q21 12 42.5 21.5t44.5 19.5l-6 4q-136 94 -152 265q-3 26 -3 51q0 62 18 120q25 82 84 149q63 72 147 113t178 45 h20q145 0 295 -96q56 -37 88.5 -67.5t37.5 -33.5l-144 -137q-41 40 -88 71q-40 26 -92 47q-47 19 -97 19h-10q-54 -3 -102.5 -25.5t-82.5 -64.5q-21 -25 -39 -67q-15 -33 -15 -79q0 -12 1 -26q8 -80 68 -122q50 -33 136 -50q44 -9 95 -9q48 0 102 8q46 6 87.5 12.5 t73.5 11.5q37 6 69 12l42 -192q-2 0 -21.5 -3.5t-54 -9t-81 -13.5t-101.5 -17q-87 -14 -151.5 -28.5t-116 -30t-94.5 -34t-88 -40.5q-24 -11 -56 -30.5t-67.5 -47t-70.5 -63.5t-63.5 -80.5t-47.5 -98t-23 -116.5q-1 -16 -1 -32q0 -301 359 -404q19 -6 55 -12q36 -5 82 -9 q41 -3 89 -4h14q56 0 116 8q49 6 107 17t116.5 31.5t115.5 51t105 75.5l134 -144q-74 -70 -163 -115.5t-182.5 -72.5t-187.5 -37.5t-177 -10.5zM623 1837l148 148l149 -149l-148 -148zM427 1577l162 163l164 -164l-162 -163zM781 1576l162 162l164 -164l-162 -162z"/>
<glyph glyph-name="uni06A1" horiz-adv-x="1904" unicode="ڡ" d="M1453 555q52 -3 95.5 -3t77.5 3q-9 50 -22.5 111t-37 116.5t-60.5 98t-93 54.5q-16 3 -36.5 -12t-39.5 -42.5t-35 -63t-23 -72.5q-4 -24 -4 -46q0 -13 1 -27q4 -36 25 -61q18 -24 58 -38.5t94 -17.5zM1653 1013q46 -50 84 -124t60.5 -161.5t26.5 -183.5v-25 q0 -83 -20 -167q-3 -14 -11 -37t-26.5 -51.5t-49.5 -60.5t-80 -62q-55 -35 -135.5 -61.5t-177.5 -44t-206.5 -26t-223.5 -8.5q-606 0 -784 304q-40 67 -54 137q-12 59 -13 115q1 9 1 19q2 66 15.5 125t29 103.5t29 72t14.5 31.5l174 -95q0 -1 -9 -19.5t-20 -50t-21.5 -72.5 t-13.5 -87q-1 -12 -1 -24q0 -34 6 -68q8 -46 34 -88q30 -50 79.5 -88.5t121 -65t166.5 -41.5t217 -18q48 -1 92 -1q87 0 157 5q104 8 179 23t125.5 34.5t85.5 38.5q33 17 53.5 33.5t32.5 30.5h-51h-48.5t-50.5 3q-199 12 -294 131q-15 18 -29 43.5t-23 59.5q-8 32 -10 74v17 q0 35 6 75q11 64 37 130.5t66.5 120.5t95.5 88.5t124 34.5q133 0 240 -119z"/>
<glyph glyph-name="uni06A2" horiz-adv-x="1915" unicode="ڢ" d="M1453 555q52 -3 95.5 -3t77.5 3q-9 50 -22.5 111t-37 116.5t-60.5 98t-93 54.5q-16 3 -36.5 -12t-39.5 -42.5t-35 -63t-23 -72.5q-4 -24 -4 -46q0 -13 1 -27q4 -36 25 -61q18 -24 58 -38.5t94 -17.5zM1653 1013q46 -50 84 -124t60.5 -161.5t26.5 -183.5v-25 q0 -83 -20 -167q-3 -14 -11 -37t-26.5 -51.5t-49.5 -60.5t-80 -62q-55 -35 -135.5 -61.5t-177.5 -44t-206.5 -26t-223.5 -8.5q-606 0 -784 304q-40 67 -54 137q-12 59 -13 115q1 9 1 19q2 66 15.5 125t29 103.5t29 72t14.5 31.5l174 -95q0 -1 -9 -19.5t-20 -50t-21.5 -72.5 t-13.5 -87q-1 -12 -1 -24q0 -34 6 -68q8 -46 34 -88q30 -50 79.5 -88.5t121 -65t166.5 -41.5t217 -18q48 -1 92 -1q87 0 157 5q104 8 179 23t125.5 34.5t85.5 38.5q33 17 53.5 33.5t32.5 30.5h-51h-48.5t-50.5 3q-199 12 -294 131q-15 18 -29 43.5t-23 59.5q-8 32 -10 74v17 q0 35 6 75q11 64 37 130.5t66.5 120.5t95.5 88.5t124 34.5q133 0 240 -119zM1594 -302l-163 -163l-164 164l163 163z"/>
<glyph glyph-name="uni06A3" horiz-adv-x="1898" unicode="ڣ" d="M1453 555q52 -3 95.5 -3t77.5 3q-9 50 -22.5 111t-37 116.5t-60.5 98t-93 54.5q-16 3 -36.5 -12t-39.5 -42.5t-35 -63t-23 -72.5q-4 -24 -4 -46q0 -13 1 -27q4 -36 25 -61q18 -24 58 -38.5t94 -17.5zM1653 1013q46 -50 84 -124t60.5 -161.5t26.5 -183.5v-25 q0 -83 -20 -167q-3 -14 -11 -37t-26.5 -51.5t-49.5 -60.5t-80 -62q-55 -35 -135.5 -61.5t-177.5 -44t-206.5 -26t-223.5 -8.5q-606 0 -784 304q-40 67 -54 137q-12 59 -13 115q1 9 1 19q2 66 15.5 125t29 103.5t29 72t14.5 31.5l174 -95q0 -1 -9 -19.5t-20 -50t-21.5 -72.5 t-13.5 -87q-1 -12 -1 -24q0 -34 6 -68q8 -46 34 -88q30 -50 79.5 -88.5t121 -65t166.5 -41.5t217 -18q48 -1 92 -1q87 0 157 5q104 8 179 23t125.5 34.5t85.5 38.5q33 17 53.5 33.5t32.5 30.5h-51h-48.5t-50.5 3q-199 12 -294 131q-15 18 -29 43.5t-23 59.5q-8 32 -10 74v17 q0 35 6 75q11 64 37 130.5t66.5 120.5t95.5 88.5t124 34.5q133 0 240 -119zM1581 1495l-163 -163l-164 164l163 163zM1583 -312l-163 -163l-164 164l163 163z"/>
<glyph glyph-name="uni06A4" horiz-adv-x="1918" unicode="ڤ" d="M1453 555q52 -3 95.5 -3t77.5 3q-9 50 -22.5 111t-37 116.5t-60.5 98t-93 54.5q-16 3 -36.5 -12t-39.5 -42.5t-35 -63t-23 -72.5q-4 -24 -4 -46q0 -13 1 -27q4 -36 25 -61q18 -24 58 -38.5t94 -17.5zM1653 1013q46 -50 84 -124t60.5 -161.5t26.5 -183.5v-25 q0 -83 -20 -167q-3 -14 -11 -37t-26.5 -51.5t-49.5 -60.5t-80 -62q-55 -35 -135.5 -61.5t-177.5 -44t-206.5 -26t-223.5 -8.5q-606 0 -784 304q-40 67 -54 137q-12 59 -13 115q1 9 1 19q2 66 15.5 125t29 103.5t29 72t14.5 31.5l174 -95q0 -1 -9 -19.5t-20 -50t-21.5 -72.5 t-13.5 -87q-1 -12 -1 -24q0 -34 6 -68q8 -46 34 -88q30 -50 79.5 -88.5t121 -65t166.5 -41.5t217 -18q48 -1 92 -1q87 0 157 5q104 8 179 23t125.5 34.5t85.5 38.5q33 17 53.5 33.5t32.5 30.5h-51h-48.5t-50.5 3q-199 12 -294 131q-15 18 -29 43.5t-23 59.5q-8 32 -10 74v17 q0 35 6 75q11 64 37 130.5t66.5 120.5t95.5 88.5t124 34.5q133 0 240 -119zM1288 1700l148 148l149 -149l-148 -148zM1092 1440l162 163l164 -164l-162 -163zM1446 1439l162 162l164 -164l-162 -162z"/>
<glyph glyph-name="uni06A5" horiz-adv-x="1904" unicode="ڥ" d="M1453 555q52 -3 95.5 -3t77.5 3q-9 50 -22.5 111t-37 116.5t-60.5 98t-93 54.5q-16 3 -36.5 -12t-39.5 -42.5t-35 -63t-23 -72.5q-4 -24 -4 -46q0 -13 1 -27q4 -36 25 -61q18 -24 58 -38.5t94 -17.5zM1653 1013q46 -50 84 -124t60.5 -161.5t26.5 -183.5v-25 q0 -83 -20 -167q-3 -14 -11 -37t-26.5 -51.5t-49.5 -60.5t-80 -62q-55 -35 -135.5 -61.5t-177.5 -44t-206.5 -26t-223.5 -8.5q-606 0 -784 304q-40 67 -54 137q-12 59 -13 115q1 9 1 19q2 66 15.5 125t29 103.5t29 72t14.5 31.5l174 -95q0 -1 -9 -19.5t-20 -50t-21.5 -72.5 t-13.5 -87q-1 -12 -1 -24q0 -34 6 -68q8 -46 34 -88q30 -50 79.5 -88.5t121 -65t166.5 -41.5t217 -18q48 -1 92 -1q87 0 157 5q104 8 179 23t125.5 34.5t85.5 38.5q33 17 53.5 33.5t32.5 30.5h-51h-48.5t-50.5 3q-199 12 -294 131q-15 18 -29 43.5t-23 59.5q-8 32 -10 74v17 q0 35 6 75q11 64 37 130.5t66.5 120.5t95.5 88.5t124 34.5q133 0 240 -119zM1288 -549l148 148l149 -149l-148 -148zM1767 -302l-162 -163l-164 164l162 163zM1413 -301l-162 -162l-164 164l162 162z"/>
<glyph glyph-name="uni06A6" horiz-adv-x="1937" unicode="ڦ" d="M1453 555q52 -3 95.5 -3t77.5 3q-9 50 -22.5 111t-37 116.5t-60.5 98t-93 54.5q-16 3 -36.5 -12t-39.5 -42.5t-35 -63t-23 -72.5q-4 -24 -4 -46q0 -13 1 -27q4 -36 25 -61q18 -24 58 -38.5t94 -17.5zM1653 1013q46 -50 84 -124t60.5 -161.5t26.5 -183.5v-25 q0 -83 -20 -167q-3 -14 -11 -37t-26.5 -51.5t-49.5 -60.5t-80 -62q-55 -35 -135.5 -61.5t-177.5 -44t-206.5 -26t-223.5 -8.5q-606 0 -784 304q-40 67 -54 137q-12 59 -13 115q1 9 1 19q2 66 15.5 125t29 103.5t29 72t14.5 31.5l174 -95q0 -1 -9 -19.5t-20 -50t-21.5 -72.5 t-13.5 -87q-1 -12 -1 -24q0 -34 6 -68q8 -46 34 -88q30 -50 79.5 -88.5t121 -65t166.5 -41.5t217 -18q48 -1 92 -1q87 0 157 5q104 8 179 23t125.5 34.5t85.5 38.5q33 17 53.5 33.5t32.5 30.5h-51h-48.5t-50.5 3q-199 12 -294 131q-15 18 -29 43.5t-23 59.5q-8 32 -10 74v17 q0 35 6 75q11 64 37 130.5t66.5 120.5t95.5 88.5t124 34.5q133 0 240 -119zM1383 1847l-162 -162l-164 163l162 163zM1743 1853l-162 -163l-164 164l162 162zM1386 1446l-162 -162l-164 163l162 163zM1746 1452l-162 -163l-164 164l162 162z"/>
<glyph glyph-name="uni06A7" horiz-adv-x="1559" unicode="ڧ" d="M974 645q-36 0 -78 -52q-29 -35 -47.5 -83.5t-29.5 -108.5q-4 -26 -4 -49q0 -54 25 -86q15 -20 38 -32t48.5 -19.5t50 -11t42.5 -5.5q56 -4 104 -4h11q52 0 91 4q-3 64 -15 121t-30.5 106t-42 88.5t-48.5 68.5q-21 22 -50.5 42.5t-64.5 20.5zM1116 -3q-26 0 -53.5 1 t-55.5 3q-109 8 -191 43t-131 100q-69 88 -69 207q0 40 8 84q14 85 43.5 154.5t73.5 125.5q49 63 109 96t124 33q72 0 136.5 -32.5t124.5 -96.5q50 -56 88 -129t62 -156.5t33 -173.5q4 -45 4 -89.5t-4 -89.5h2q0 -2 -2.5 -33.5t-12.5 -81t-29.5 -111.5t-53.5 -126 q-41 -79 -95.5 -141.5t-120.5 -107.5q-84 -59 -182 -87t-214 -28h-2q-197 0 -345 76q-78 39 -139 94.5t-102 127.5q-52 85 -74 186q-16 72 -17 151q0 32 3 64q8 117 47 238t107 249l175 -94q-55 -102 -87 -199q-32 -98 -42 -186q-4 -36 -4 -70q0 -50 8 -96q14 -78 52 -142 q59 -98 167 -149.5t251 -51.5h2q19 -2 38 -2q81 1 149 29q84 34 148 95.5t106 144t60 172.5q-22 0 -45.5 -0.5t-49.5 -0.5zM1147 1205l-163 -163l-164 164l163 163z"/>
<glyph glyph-name="uni06A8" horiz-adv-x="1559" unicode="ڨ" d="M1011 645q-36 0 -78 -52q-29 -35 -47.5 -83.5t-29.5 -108.5q-4 -26 -4 -49q0 -54 25 -86q15 -20 38 -32t48.5 -19.5t50 -11t42.5 -5.5q56 -4 104 -4h11q52 0 91 4q-3 64 -15 121t-30.5 106t-42 88.5t-48.5 68.5q-21 22 -50.5 42.5t-64.5 20.5zM1153 -3q-26 0 -53.5 1 t-55.5 3q-109 8 -191 43t-131 100q-69 88 -69 207q0 40 8 84q14 85 43.5 154.5t73.5 125.5q49 63 109 96t124 33q72 0 136.5 -32.5t124.5 -96.5q50 -56 88 -129t62 -156.5t33 -173.5q4 -45 4 -89.5t-4 -89.5h2q0 -2 -2.5 -33.5t-12.5 -81t-29.5 -111.5t-53.5 -126 q-41 -79 -95.5 -141.5t-120.5 -107.5q-84 -59 -182 -87t-214 -28h-2q-197 0 -345 76q-78 39 -139 94.5t-102 127.5q-52 85 -74 186q-16 72 -17 151q0 32 3 64q8 117 47 238t107 249l175 -94q-55 -102 -87 -199q-32 -98 -42 -186q-4 -36 -4 -70q0 -50 8 -96q14 -78 52 -142 q59 -98 167 -149.5t251 -51.5h2q19 -2 38 -2q81 1 149 29q84 34 148 95.5t106 144t60 172.5q-22 0 -45.5 -0.5t-49.5 -0.5zM876 1411l148 148l149 -149l-148 -148zM680 1151l162 163l164 -164l-162 -163zM1034 1150l162 162l164 -164l-162 -162z"/>
<glyph glyph-name="uni06AA" horiz-adv-x="2461" unicode="ڪ" d="M772 -22q-233 0 -417.5 11.5t-322.5 34.5l31 192q108 -18 250.5 -28.5t317.5 -13.5q70 -1 145 -1q112 1 236 3q206 4 438 16q113 6 219 12.5t199 13.5t171.5 13.5t136.5 11.5q-1 1 -1 2t-1 2q-33 57 -68 89t-63 48q-2 1 -15 8t-46 14q-32 6 -90 10q-21 1 -47 2 q-44 0 -102 -4q-50 -3 -95.5 -8t-80.5 -9t-56 -7t-22 -3l-5 -1q-3 0 -39.5 -3t-95 -6t-132.5 -5q-41 -1 -83 -2q-34 0 -69 1q-188 3 -304 29q-78 18 -126 48t-66 65t-20 62v2q-1 14 -1 29q0 148 142 282q54 51 128 99.5t170 94.5q78 38 152.5 67.5t134 50t97.5 31.5t41 12 l50 -188l-35 -11q-34 -10 -89.5 -29t-125.5 -46.5t-142 -62.5q-155 -75 -239.5 -152t-89.5 -144q9 -5 31.5 -12.5t66 -15t111.5 -12.5t168 -5h1q62 0 120.5 2t105.5 4.5t78 5t39 3.5t32 4.5t60 7.5t81 8.5t94 7.5q66 4 118 4q30 0 56 -1q71 -4 117.5 -14t74 -22t44.5 -22 q52 -30 104 -79t100 -132q16 -29 29.5 -55t23 -46t14.5 -32t6 -13l-81 -134q-2 0 -71.5 -6.5t-188.5 -16.5t-277.5 -21t-337.5 -20q-193 -10 -364 -15t-325 -5z"/>
<glyph glyph-name="uni06AB" horiz-adv-x="2199" unicode="ګ" d="M2193 1521l-794 -333q31 -25 65 -53t71 -62q303 -277 343 -520q7 -40 7 -78q0 -132 -86 -242q-6 -8 -18.5 -22.5t-34 -32.5t-53 -38.5t-74.5 -41.5q-76 -35 -155 -55q-79 -19 -160 -29q-82 -10 -164 -12q-33 -1 -65 -1q-49 0 -99 2q-180 2 -323 21.5t-252 59.5 q-206 81 -280 230q-42 80 -42 174.5t39 199.5q29 72 57 116.5t33 52.5l158 -117l-23 -37q-9 -17 -20.5 -39t-21.5 -50q-24 -68 -24 -122q0 -50 20 -88q50 -99 225 -150.5t457 -52.5q52 -2 99.5 -2.5t89.5 2.5q84 5 150 15.5t114.5 24.5t81.5 28q62 26 88.5 47t31.5 26l3 3 l4 7q45 59 45 129q0 19 -3 39q-32 176 -278 404q-50 45 -96.5 82.5t-83 64.5t-58.5 42t-21 16l15 173l955 401zM1143 2136q40 0 78 -19t67 -53q27 -32 41.5 -70t14.5 -77q0 -38 -14.5 -76.5t-41.5 -70.5q-29 -35 -67 -54t-78 -19q-41 0 -79 19t-67 54q-27 32 -41.5 70.5 t-14.5 76.5q0 39 14.5 77t41.5 70q29 34 67 53t79 19zM1143 1804q19 0 36.5 10.5t30.5 27t20.5 36.5t7.5 39t-7.5 38.5t-20.5 36t-30.5 27t-36.5 10.5q-20 0 -37 -10.5t-30.5 -27t-21 -36t-7.5 -38.5t7.5 -39t21 -36.5t30.5 -27t37 -10.5z"/>
<glyph glyph-name="uni06AC" horiz-adv-x="1876" unicode="ڬ" d="M1821 955q6 -181 10 -291t4 -156q-1 -50 -11.5 -100t-36.5 -99q-82 -153 -284 -233q-111 -43 -253.5 -65t-319.5 -22q-361 5 -575 84q-206 78 -280 229q-42 81 -42 176t39 198q14 36 29 66t27.5 52t21.5 35.5l11 16.5l159 -118q-6 -8 -12 -17t-11 -19q-10 -17 -21 -39.5 t-21 -50.5q-24 -66 -24 -121q0 -50 20 -89q49 -98 224 -150.5t455 -53.5q321 0 500 71q135 55 182 143q15 27 20.5 56.5t6.5 58.5q-2 59 -6 169.5t-11 261.5q-4 110 -9.5 205.5t-10.5 167.5t-9.5 116.5t-5.5 53.5l196 21q1 -16 5.5 -63.5t10.5 -120.5t11.5 -168t10.5 -205z M1103 868q-12 3 -27 6q-13 2 -29.5 4.5t-35.5 2.5q-15 0 -30.5 -2.5t-31.5 -9.5v2q-32 -14 -51.5 -42.5t-19.5 -61.5q0 -17 8 -36l-1 1q14 -35 49.5 -58.5t78.5 -23.5q11 0 21 1t21 6q26 8 51 21t45 25q23 14 43 29l59 -78q-39 -29 -98 -62t-144 -80l-227 -126l-48 87 l179 100q-41 17 -72.5 49t-48.5 71q-14 34 -14 74q0 31 9.5 60.5t27 55t42 45.5t54.5 32q47 19 98 19q23 0 44 -3t38 -7q19 -4 38 -9zM1123 1208l-163 -163l-164 164l163 163z"/>
<glyph glyph-name="uni06AD" horiz-adv-x="1915" unicode="ڭ" d="M1831 955q6 -181 10 -291t4 -156q-1 -50 -11.5 -100t-36.5 -99q-82 -153 -284 -233q-111 -43 -253.5 -65t-319.5 -22q-361 5 -575 84q-206 78 -280 229q-42 81 -42 176t39 198q14 36 29 66t27.5 52t21.5 35.5l11 16.5l159 -118q-6 -8 -12 -17t-11 -19q-10 -17 -21 -39.5 t-21 -50.5q-24 -66 -24 -121q0 -50 20 -89q49 -98 224 -150.5t455 -53.5q321 0 500 71q135 55 182 143q15 27 20.5 56.5t6.5 58.5q-2 59 -6 169.5t-11 261.5q-4 110 -9.5 205.5t-10.5 167.5t-9.5 116.5t-5.5 53.5l196 21q1 -16 5.5 -63.5t10.5 -120.5t11.5 -168t10.5 -205z M1113 868q-12 3 -27 6q-13 2 -29.5 4.5t-35.5 2.5q-15 0 -30.5 -2.5t-31.5 -9.5v2q-32 -14 -51.5 -42.5t-19.5 -61.5q0 -17 8 -36l-1 1q14 -35 49.5 -58.5t78.5 -23.5q11 0 21 1t21 6q26 8 51 21t45 25q23 14 43 29l59 -78q-39 -29 -98 -62t-144 -80l-227 -126l-48 87 l179 100q-41 17 -72.5 49t-48.5 71q-14 34 -14 74q0 31 9.5 60.5t27 55t42 45.5t54.5 32q47 19 98 19q23 0 44 -3t38 -7q19 -4 38 -9zM846 1476l148 148l149 -149l-148 -148zM650 1216l162 163l164 -164l-162 -163zM1004 1215l162 162l164 -164l-162 -162z"/>
<glyph glyph-name="uni06AE" horiz-adv-x="1887" unicode="ڮ" d="M836 -531l148 148l149 -149l-148 -148zM1315 -284l-162 -163l-164 164l162 163zM961 -283l-162 -162l-164 164l162 162zM1826 955q6 -181 10 -291t4 -156q-1 -50 -11.5 -100t-36.5 -99q-82 -153 -284 -233q-111 -43 -253.5 -65t-319.5 -22q-361 5 -575 84 q-206 78 -280 229q-42 81 -42 176t39 198q14 36 29 66t27.5 52t21.5 35.5l11 16.5l159 -118q-6 -8 -12 -17t-11 -19q-10 -17 -21 -39.5t-21 -50.5q-24 -66 -24 -121q0 -50 20 -89q49 -98 224 -150.5t455 -53.5q321 0 500 71q135 55 182 143q15 27 20.5 56.5t6.5 58.5 q-2 59 -6 169.5t-11 261.5q-4 110 -9.5 205.5t-10.5 167.5t-9.5 116.5t-5.5 53.5l196 21q1 -16 5.5 -63.5t10.5 -120.5t11.5 -168t10.5 -205zM1108 868q-12 3 -27 6q-13 2 -29.5 4.5t-35.5 2.5q-15 0 -30.5 -2.5t-31.5 -9.5v2q-32 -14 -51.5 -42.5t-19.5 -61.5q0 -17 8 -36 l-1 1q14 -35 49.5 -58.5t78.5 -23.5q11 0 21 1t21 6q26 8 51 21t45 25q23 14 43 29l59 -78q-39 -29 -98 -62t-144 -80l-227 -126l-48 87l179 100q-41 17 -72.5 49t-48.5 71q-14 34 -14 74q0 31 9.5 60.5t27 55t42 45.5t54.5 32q47 19 98 19q23 0 44 -3t38 -7q19 -4 38 -9z "/>
<glyph glyph-name="uni06B0" horiz-adv-x="2166" unicode="ڰ" d="M2193 1521l-794 -333q31 -25 65 -53t71 -62q303 -277 343 -520q7 -40 7 -78q0 -132 -86 -242q-6 -8 -18.5 -22.5t-34 -32.5t-53 -38.5t-74.5 -41.5q-76 -35 -155 -55q-79 -19 -160 -29q-82 -10 -164 -12q-33 -1 -65 -1q-49 0 -99 2q-180 2 -323 21.5t-252 59.5 q-206 81 -280 230q-42 80 -42 174.5t39 199.5q29 72 57 116.5t33 52.5l158 -117l-23 -37q-9 -17 -20.5 -39t-21.5 -50q-24 -68 -24 -122q0 -50 20 -88q50 -99 225 -150.5t457 -52.5q52 -2 99.5 -2.5t89.5 2.5q84 5 150 15.5t114.5 24.5t81.5 28q62 26 88.5 47t31.5 26l3 3 l4 7q45 59 45 129q0 19 -3 39q-32 176 -278 404q-50 45 -96.5 82.5t-83 64.5t-58.5 42t-21 16l15 173l955 401zM1315 2378q40 0 78 -19t67 -53q27 -32 41.5 -70t14.5 -77q0 -38 -14.5 -76.5t-41.5 -70.5q-29 -35 -67 -54t-78 -19q-41 0 -79 19t-67 54q-27 32 -41.5 70.5 t-14.5 76.5q0 39 14.5 77t41.5 70q29 34 67 53t79 19zM1315 2046q19 0 36.5 10.5t30.5 27t20.5 36.5t7.5 39t-7.5 38.5t-20.5 36t-30.5 27t-36.5 10.5q-20 0 -37 -10.5t-30.5 -27t-21 -36t-7.5 -38.5t7.5 -39t21 -36.5t30.5 -27t37 -10.5zM2079 1787l-925 -394l7 128 l871 367z"/>
<glyph glyph-name="uni06B1" horiz-adv-x="2154" unicode="ڱ" d="M2193 1521l-794 -333q31 -25 65 -53t71 -62q303 -277 343 -520q7 -40 7 -78q0 -132 -86 -242q-6 -8 -18.5 -22.5t-34 -32.5t-53 -38.5t-74.5 -41.5q-76 -35 -155 -55q-79 -19 -160 -29q-82 -10 -164 -12q-33 -1 -65 -1q-49 0 -99 2q-180 2 -323 21.5t-252 59.5 q-206 81 -280 230q-42 80 -42 174.5t39 199.5q29 72 57 116.5t33 52.5l158 -117l-23 -37q-9 -17 -20.5 -39t-21.5 -50q-24 -68 -24 -122q0 -50 20 -88q50 -99 225 -150.5t457 -52.5q52 -2 99.5 -2.5t89.5 2.5q84 5 150 15.5t114.5 24.5t81.5 28q62 26 88.5 47t31.5 26l3 3 l4 7q45 59 45 129q0 19 -3 39q-32 176 -278 404q-50 45 -96.5 82.5t-83 64.5t-58.5 42t-21 16l15 173l955 401zM1739 1923l-116 -116l-117 117l116 116zM1504 1924l-116 -116l-117 117l116 116zM2080 1802l-925 -394l7 128l871 367z"/>
<glyph glyph-name="uni06B2" horiz-adv-x="2177" unicode="ڲ" d="M2193 1521l-794 -333q31 -25 65 -53t71 -62q303 -277 343 -520q7 -40 7 -78q0 -132 -86 -242q-6 -8 -18.5 -22.5t-34 -32.5t-53 -38.5t-74.5 -41.5q-76 -35 -155 -55q-79 -19 -160 -29q-82 -10 -164 -12q-33 -1 -65 -1q-49 0 -99 2q-180 2 -323 21.5t-252 59.5 q-206 81 -280 230q-42 80 -42 174.5t39 199.5q29 72 57 116.5t33 52.5l158 -117l-23 -37q-9 -17 -20.5 -39t-21.5 -50q-24 -68 -24 -122q0 -50 20 -88q50 -99 225 -150.5t457 -52.5q52 -2 99.5 -2.5t89.5 2.5q84 5 150 15.5t114.5 24.5t81.5 28q62 26 88.5 47t31.5 26l3 3 l4 7q45 59 45 129q0 19 -3 39q-32 176 -278 404q-50 45 -96.5 82.5t-83 64.5t-58.5 42t-21 16l15 173l955 401zM2075 1821l-925 -394l7 128l871 367zM1300 -366l-162 -163l-164 164l162 162zM960 -365l-162 -162l-164 163l162 163z"/>
<glyph glyph-name="uni06B3" horiz-adv-x="2177" unicode="ڳ" d="M2193 1521l-794 -333q31 -25 65 -53t71 -62q303 -277 343 -520q7 -40 7 -78q0 -132 -86 -242q-6 -8 -18.5 -22.5t-34 -32.5t-53 -38.5t-74.5 -41.5q-76 -35 -155 -55q-79 -19 -160 -29q-82 -10 -164 -12q-33 -1 -65 -1q-49 0 -99 2q-180 2 -323 21.5t-252 59.5 q-206 81 -280 230q-42 80 -42 174.5t39 199.5q29 72 57 116.5t33 52.5l158 -117l-23 -37q-9 -17 -20.5 -39t-21.5 -50q-24 -68 -24 -122q0 -50 20 -88q50 -99 225 -150.5t457 -52.5q52 -2 99.5 -2.5t89.5 2.5q84 5 150 15.5t114.5 24.5t81.5 28q62 26 88.5 47t31.5 26l3 3 l4 7q45 59 45 129q0 19 -3 39q-32 176 -278 404q-50 45 -96.5 82.5t-83 64.5t-58.5 42t-21 16l15 173l955 401zM2091 1815l-925 -394l7 128l871 367zM1089 -692l-163 -163l-164 164l163 163zM1080 -293l-163 -163l-164 164l163 163z"/>
<glyph glyph-name="uni06B4" horiz-adv-x="2132" unicode="ڴ" d="M2193 1521l-794 -333q31 -25 65 -53t71 -62q303 -277 343 -520q7 -40 7 -78q0 -132 -86 -242q-6 -8 -18.5 -22.5t-34 -32.5t-53 -38.5t-74.5 -41.5q-76 -35 -155 -55q-79 -19 -160 -29q-82 -10 -164 -12q-33 -1 -65 -1q-49 0 -99 2q-180 2 -323 21.5t-252 59.5 q-206 81 -280 230q-42 80 -42 174.5t39 199.5q29 72 57 116.5t33 52.5l158 -117l-23 -37q-9 -17 -20.5 -39t-21.5 -50q-24 -68 -24 -122q0 -50 20 -88q50 -99 225 -150.5t457 -52.5q52 -2 99.5 -2.5t89.5 2.5q84 5 150 15.5t114.5 24.5t81.5 28q62 26 88.5 47t31.5 26l3 3 l4 7q45 59 45 129q0 19 -3 39q-32 176 -278 404q-50 45 -96.5 82.5t-83 64.5t-58.5 42t-21 16l15 173l955 401zM2064 1798l-925 -394l7 128l871 367zM1343 2115l116 116l117 -117l-116 -116zM1223 1919l116 116l117 -117l-116 -116zM1476 1918l116 116l117 -117l-116 -116z "/>
<glyph glyph-name="uni06B5" horiz-adv-x="1434" unicode="ڵ" d="M367 339q-29 -44 -52 -106q-20 -54 -36.5 -132t-16.5 -183q0 -99 38 -169.5t94.5 -115.5t120.5 -67t116 -25q14 -1 28 -1q37 0 77 6q56 8 110 29t103 56.5t86.5 86t60 117t22.5 151.5q0 79 -2.5 187t-6 231t-8.5 253.5t-10 254.5q-11 291 -26 609l196 8q15 -320 26 -613 q5 -125 10 -256t8.5 -254.5t6 -232t2.5 -187.5q0 -126 -32 -223.5t-85.5 -170t-123 -121.5t-145.5 -78.5t-153 -40.5q-56 -8 -108 -8q-19 0 -36 1q-61 3 -126.5 19t-128.5 46.5t-119.5 75.5t-99 107.5t-67.5 143.5q-24 78 -24 173v8q1 129 20 222.5t42 156.5q26 72 60 122z M719 876l-105 6q-18 56 -40.5 114t-48 108.5t-52 89.5t-52.5 57l64 92q74 -51 146 -197q11 -22 20.5 -43.5t17.5 -42.5q5 12 8.5 24.5t7.5 23.5q15 45 29.5 86.5t31.5 78t37 68t47 56.5l77 -82q-19 -18 -34.5 -43.5t-29 -56.5t-26 -67t-25.5 -75q-15 -46 -32.5 -96 t-40.5 -101z"/>
<glyph glyph-name="uni06B6" horiz-adv-x="1434" unicode="ڶ" d="M367 339q-29 -44 -52 -106q-20 -54 -36.5 -132t-16.5 -183q0 -99 38 -169.5t94.5 -115.5t120.5 -67t116 -25q14 -1 28 -1q37 0 77 6q56 8 110 29t103 56.5t86.5 86t60 117t22.5 151.5q0 79 -2.5 187t-6 231t-8.5 253.5t-10 254.5q-11 291 -26 609l196 8q15 -320 26 -613 q5 -125 10 -256t8.5 -254.5t6 -232t2.5 -187.5q0 -126 -32 -223.5t-85.5 -170t-123 -121.5t-145.5 -78.5t-153 -40.5q-56 -8 -108 -8q-19 0 -36 1q-61 3 -126.5 19t-128.5 46.5t-119.5 75.5t-99 107.5t-67.5 143.5q-24 78 -24 173v8q1 129 20 222.5t42 156.5q26 72 60 122z M1316 1809l-163 -163l-164 164l163 163z"/>
<glyph glyph-name="uni06B7" horiz-adv-x="1434" unicode="ڷ" d="M367 339q-29 -44 -52 -106q-20 -54 -36.5 -132t-16.5 -183q0 -99 38 -169.5t94.5 -115.5t120.5 -67t116 -25q14 -1 28 -1q37 0 77 6q56 8 110 29t103 56.5t86.5 86t60 117t22.5 151.5q0 79 -2.5 187t-6 231t-8.5 253.5t-10 254.5q-11 291 -26 609l196 8q15 -320 26 -613 q5 -125 10 -256t8.5 -254.5t6 -232t2.5 -187.5q0 -126 -32 -223.5t-85.5 -170t-123 -121.5t-145.5 -78.5t-153 -40.5q-56 -8 -108 -8q-19 0 -36 1q-61 3 -126.5 19t-128.5 46.5t-119.5 75.5t-99 107.5t-67.5 143.5q-24 78 -24 173v8q1 129 20 222.5t42 156.5q26 72 60 122z M1022 1973l116 116l117 -117l-116 -116zM902 1777l116 116l117 -117l-116 -116zM1155 1776l116 116l117 -117l-116 -116z"/>
<glyph glyph-name="uni06B8" horiz-adv-x="1434" unicode="ڸ" d="M367 339q-29 -44 -52 -106q-20 -54 -36.5 -132t-16.5 -183q0 -99 38 -169.5t94.5 -115.5t120.5 -67t116 -25q14 -1 28 -1q37 0 77 6q56 8 110 29t103 56.5t86.5 86t60 117t22.5 151.5q0 79 -2.5 187t-6 231t-8.5 253.5t-10 254.5q-11 291 -26 609l196 8q15 -320 26 -613 q5 -125 10 -256t8.5 -254.5t6 -232t2.5 -187.5q0 -126 -32 -223.5t-85.5 -170t-123 -121.5t-145.5 -78.5t-153 -40.5q-56 -8 -108 -8q-19 0 -36 1q-61 3 -126.5 19t-128.5 46.5t-119.5 75.5t-99 107.5t-67.5 143.5q-24 78 -24 173v8q1 129 20 222.5t42 156.5q26 72 60 122z M1000 -1197l-116 -116l-117 117l116 116zM1120 -1001l-116 -116l-117 117l116 116zM867 -1000l-116 -116l-117 117l116 116z"/>
<glyph glyph-name="uni06B9" horiz-adv-x="1520" unicode="ڹ" d="M677 -688q-265 0 -433 150q-79 69 -127.5 162t-64.5 204q-9 55 -9 111v11q1 62 8 119t19 107.5t24 90.5q31 102 67.5 174.5t60.5 107.5l159 -117q-13 -18 -30 -51.5t-34.5 -78t-33.5 -98.5t-26.5 -112.5t-13.5 -118.5q-1 -16 -1 -33q0 -43 6 -84q4 -26 16 -61t34.5 -72 t57 -73.5t84 -66t115 -49t151.5 -23.5h1h1q212 9 342 84t176 214q26 86 28 173v17q0 78 -12 150q-14 80 -37.5 149.5t-46.5 121t-40 81t-18 29.5l166 106q3 -5 25 -42t50 -99.5t56 -146t43 -180.5q12 -79 12 -164v-40q-4 -107 -39 -215q-29 -94 -86 -169.5t-141 -130.5 q-91 -63 -208 -96t-262 -40q-10 0 -20 -0.5t-19 -0.5zM1119 -964l-163 -163l-164 164l163 163zM925 634l-163 -163l-164 164l163 163z"/>
<glyph glyph-name="uni06BB" horiz-adv-x="1503" unicode="ڻ" d="M677 -688q-265 0 -433 150q-79 69 -127.5 162t-64.5 204q-9 55 -9 111v11q1 62 8 119t19 107.5t24 90.5q31 102 67.5 174.5t60.5 107.5l159 -117q-13 -18 -30 -51.5t-34.5 -78t-33.5 -98.5t-26.5 -112.5t-13.5 -118.5q-1 -16 -1 -33q0 -43 6 -84q4 -26 16 -61t34.5 -72 t57 -73.5t84 -66t115 -49t151.5 -23.5h1h1q212 9 342 84t176 214q26 86 28 173v17q0 78 -12 150q-14 80 -37.5 149.5t-46.5 121t-40 81t-18 29.5l166 106q3 -5 25 -42t50 -99.5t56 -146t43 -180.5q12 -79 12 -164v-40q-4 -107 -39 -215q-29 -94 -86 -169.5t-141 -130.5 q-91 -63 -208 -96t-262 -40q-10 0 -20 -0.5t-19 -0.5zM649 627q21 -3 40 -3h2q31 -1 67 -1t74 7t76.5 24t75.5 50q27 24 33.5 52.5t-3.5 51t-34.5 36t-60.5 7.5q-44 -7 -96 -43t-109 -100q-11 -12 -20 -23l-18 -22zM742 537q-15 0 -28.5 0.5t-25.5 1.5h-3q-67 3 -133.5 17.5 t-138.5 42.5l32 79q29 -11 56 -19.5t54 -15.5q9 13 22.5 31t30.5 41l3 4q6 37 8.5 66t3 57.5t-1.5 60.5t-5 75q-4 46 -7.5 85.5t-7.5 68.5q-4 34 -8 62l84 16l3 -24q3 -24 6.5 -57.5t7.5 -71t6 -64.5q3 -36 4 -52t2 -28.5t1 -31t1 -58.5q103 97 197 112q13 2 28 2 q19 1 38 -3q35 -6 64 -23.5t48.5 -45.5t21.5 -65q1 -7 1 -13q0 -16 -4 -33q-5 -23 -14 -43t-20.5 -37t-23.5 -29l-1 -2q-38 -35 -77.5 -55.5t-78.5 -32t-75.5 -15t-69.5 -3.5z"/>
<glyph glyph-name="uni06BC" horiz-adv-x="1514" unicode="ڼ" d="M677 -688q-265 0 -433 150q-79 69 -127.5 162t-64.5 204q-9 55 -9 111v11q1 62 8 119t19 107.5t24 90.5q31 102 67.5 174.5t60.5 107.5l159 -117q-13 -18 -30 -51.5t-34.5 -78t-33.5 -98.5t-26.5 -112.5t-13.5 -118.5q-1 -16 -1 -33q0 -43 6 -84q4 -26 16 -61t34.5 -72 t57 -73.5t84 -66t115 -49t151.5 -23.5h1h1q212 9 342 84t176 214q26 86 28 173v17q0 78 -12 150q-14 80 -37.5 149.5t-46.5 121t-40 81t-18 29.5l166 106q3 -5 25 -42t50 -99.5t56 -146t43 -180.5q12 -79 12 -164v-40q-4 -107 -39 -215q-29 -94 -86 -169.5t-141 -130.5 q-91 -63 -208 -96t-262 -40q-10 0 -20 -0.5t-19 -0.5zM625 1454q40 0 78 -19t67 -53q27 -32 41.5 -70t14.5 -77q0 -38 -14.5 -76.5t-41.5 -70.5q-29 -35 -67 -54t-78 -19q-41 0 -79 19t-67 54q-27 32 -41.5 70.5t-14.5 76.5q0 39 14.5 77t41.5 70q29 34 67 53t79 19z M625 1122q19 0 36.5 10.5t30.5 27t20.5 36.5t7.5 39t-7.5 38.5t-20.5 36t-30.5 27t-36.5 10.5q-20 0 -37 -10.5t-30.5 -27t-21 -36t-7.5 -38.5t7.5 -39t21 -36.5t30.5 -27t37 -10.5zM927 597l-163 -163l-164 164l163 163z"/>
<glyph glyph-name="uni06BD" horiz-adv-x="1498" unicode="ڽ" d="M677 -688q-265 0 -433 150q-79 69 -127.5 162t-64.5 204q-9 55 -9 111v11q1 62 8 119t19 107.5t24 90.5q31 102 67.5 174.5t60.5 107.5l159 -117q-13 -18 -30 -51.5t-34.5 -78t-33.5 -98.5t-26.5 -112.5t-13.5 -118.5q-1 -16 -1 -33q0 -43 6 -84q4 -26 16 -61t34.5 -72 t57 -73.5t84 -66t115 -49t151.5 -23.5h1h1q212 9 342 84t176 214q26 86 28 173v17q0 78 -12 150q-14 80 -37.5 149.5t-46.5 121t-40 81t-18 29.5l166 106q3 -5 25 -42t50 -99.5t56 -146t43 -180.5q12 -79 12 -164v-40q-4 -107 -39 -215q-29 -94 -86 -169.5t-141 -130.5 q-91 -63 -208 -96t-262 -40q-10 0 -20 -0.5t-19 -0.5zM597 965l148 148l149 -149l-148 -148zM401 705l162 163l164 -164l-162 -163zM755 704l162 162l164 -164l-162 -162z"/>
<glyph glyph-name="uni06BF" horiz-adv-x="1626" unicode="ڿ" d="M1061 710q109 -54 232 -111.5t267 -105.5l-36 -191q-2 0 -42 1h-37q-31 -1 -71 -1q-68 -2 -155.5 -8t-183.5 -21.5t-194 -41.5t-186 -67q-36 -17 -90.5 -50t-107.5 -85.5t-93.5 -124.5t-49.5 -165q-2 -23 -2 -44q0 -289 348 -404l-61 -188q-226 73 -349 217 q-76 90 -110 198q-25 81 -26 175q0 31 3 63q10 101 47.5 192t107.5 172q60 69 134.5 125t164.5 97q61 29 125 51t129.5 38.5t130 28t126.5 19.5q-29 14 -56.5 27t-53.5 27q-106 51 -191 90t-145 47q-19 2 -37 2q-49 0 -95 -18q-62 -24 -118 -84q-23 -24 -39 -46.5t-27 -42.5 q-14 -22 -22 -42l-182 75q1 5 9.5 22.5t24 44t38.5 58.5t54 66q88 97 195 137q77 29 160 29q33 0 66 -5q84 -12 180 -54.5t218 -101.5zM1071 1104l-163 -163l-164 164l163 163zM761 -410l148 148l149 -149l-148 -148zM1240 -163l-162 -163l-164 164l162 163zM886 -162 l-162 -162l-164 164l162 162z"/>
<glyph glyph-name="uni06C2.fina" horiz-adv-x="1160" unicode="ۂ" d="M857 61q-68 24 -131.5 52t-124.5 57q-46 22 -90.5 42.5t-86 36t-79 25t-68.5 9.5q-42 0 -78.5 -18t-68 -45t-56.5 -59t-42.5 -59t-27 -45.5t-9.5 -19.5l-181 81q1 1 8.5 17t22 40.5t35 55t47.5 62.5q78 93 166 140.5t184 47.5q48 0 98 -11t101 -29.5t103.5 -42.5 t106.5 -49q94 -45 189.5 -84.5t192.5 -56.5q26 -5 52 -7.5t52 -2.5l-1 -195q-19 -6 -41 -8q-8 0 -15 -1q-17 0 -33 2q-26 3 -52 9t-51 13q-59 17 -122 43zM338 988q-12 3 -27 6q-13 2 -29.5 4.5t-35.5 2.5q-15 0 -30.5 -2.5t-31.5 -9.5v2q-32 -14 -51.5 -42.5t-19.5 -61.5 q0 -17 8 -36l-1 1q14 -35 49.5 -58.5t78.5 -23.5q11 0 21 1t21 6q26 8 51 21t45 25q23 14 43 29l59 -78q-39 -29 -98 -62t-144 -80l-227 -126l-48 87l179 100q-41 17 -72.5 49t-48.5 71q-14 34 -14 74q0 31 9.5 60.5t27 55t42 45.5t54.5 32q47 19 98 19q23 0 44 -3t38 -7 q19 -4 38 -9z"/>
<glyph glyph-name="uni06C3.fina" horiz-adv-x="1433" unicode="ۃ" d="M1133 62q-68 24 -131.5 52t-124.5 57q-46 22 -90.5 42.5t-86 36t-79 25t-68.5 9.5q-42 0 -78.5 -18t-68 -45t-56.5 -59t-42.5 -59t-27 -45.5t-9.5 -19.5l-181 81q1 1 8.5 17t22 40.5t35 55t47.5 62.5q78 93 166 140.5t184 47.5q48 0 98 -11t101 -29.5t103.5 -42.5 t106.5 -49q94 -45 189.5 -84.5t192.5 -56.5q26 -5 52 -7.5t52 -2.5l-1 -195q-19 -6 -41 -8q-8 0 -15 -1q-17 0 -33 2q-26 3 -52 9t-51 13q-59 17 -122 43zM838 770l-162 -163l-164 164l162 162zM498 771l-162 -162l-164 163l162 163z"/>
<glyph glyph-name="uni06C4" horiz-adv-x="974" unicode="ۄ" d="M450 650q-36 0 -78 -53q-29 -35 -47.5 -84t-29.5 -108q-5 -27 -5 -50q0 -54 26 -86q15 -20 38 -32.5t48 -20t49.5 -11t42.5 -4.5q50 -3 94 -3h22q52 1 91 4q-3 63 -15 120.5t-30.5 106.5t-42.5 88.5t-49 68.5q-10 10 -22.5 21.5t-27 21t-31 15.5t-33.5 6zM221 -688 l-97 172q101 56 189.5 120.5t159.5 131.5t122.5 134.5t77.5 129.5q-28 -1 -58 -1q-15 1 -31 1q-48 0 -103 5q-217 14 -321 142q-68 86 -68 206q0 41 8 86q14 85 43 154t73 126q50 63 110 95.5t124 32.5q142 0 261 -128q51 -56 89 -129.5t62 -157.5t33 -175q4 -46 4.5 -91.5 t-4.5 -90.5q-9 -97 -63 -199.5t-151 -208.5q-92 -100 -207 -189t-253 -166zM309 1537q40 0 78 -19t67 -53q27 -32 41.5 -70t14.5 -77q0 -38 -14.5 -76.5t-41.5 -70.5q-29 -35 -67 -54t-78 -19q-41 0 -79 19t-67 54q-27 32 -41.5 70.5t-14.5 76.5q0 39 14.5 77t41.5 70 q29 34 67 53t79 19zM309 1205q19 0 36.5 10.5t30.5 27t20.5 36.5t7.5 39t-7.5 38.5t-20.5 36t-30.5 27t-36.5 10.5q-20 0 -37 -10.5t-30.5 -27t-21 -36t-7.5 -38.5t7.5 -39t21 -36.5t30.5 -27t37 -10.5z"/>
<glyph glyph-name="uni06C5" horiz-adv-x="1128" unicode="ۅ" d="M575 203q50 -3 94 -3h21q52 1 92 4q-3 63 -15 120.5t-30.5 106.5t-42.5 88.5t-49 68.5q-10 10 -22.5 21.5t-27 21t-31 15.5t-33.5 6q-36 0 -78 -53q-29 -35 -47.5 -84t-29.5 -108q-5 -27 -5 -50q0 -54 26 -86q15 -20 38 -32.5t48 -20t49.5 -11t42.5 -4.5zM792 721 q51 -56 89 -129.5t62 -157.5t33 -175q4 -46 4 -91.5t-4 -90.5q-9 -97 -63 -199.5t-151 -208.5q-92 -100 -207 -189t-253 -166l-97 172q86 48 162 100.5t141 109.5l20 18q-44 20 -95 24q-21 1 -41 1q-29 0 -55 -3q-53 -5 -105 -18l-12 78q9 8 24 15q13 6 33.5 12.5t49.5 11.5 q40 7 74 7h19q42 -2 75.5 -11.5t59 -23t43.5 -26.5q55 57 94.5 112.5t61.5 108.5q-28 -1 -58 -1q-16 1 -32 1q-48 0 -102 5q-217 14 -321 142q-68 86 -68 206q0 41 8 86q14 85 43 154t73 126q50 63 110 95.5t124 32.5q142 0 261 -128z"/>
<glyph glyph-name="uni06C6" horiz-adv-x="1024" unicode="ۆ" d="M450 650q-36 0 -78 -53q-29 -35 -47.5 -84t-29.5 -108q-5 -27 -5 -50q0 -54 26 -86q15 -20 38 -32.5t48 -20t49.5 -11t42.5 -4.5q50 -3 94 -3h22q52 1 91 4q-3 63 -15 120.5t-30.5 106.5t-42.5 88.5t-49 68.5q-10 10 -22.5 21.5t-27 21t-31 15.5t-33.5 6zM221 -688 l-97 172q101 56 189.5 120.5t159.5 131.5t122.5 134.5t77.5 129.5q-28 -1 -58 -1q-15 1 -31 1q-48 0 -103 5q-217 14 -321 142q-68 86 -68 206q0 41 8 86q14 85 43 154t73 126q50 63 110 95.5t124 32.5q142 0 261 -128q51 -56 89 -129.5t62 -157.5t33 -175q4 -46 4.5 -91.5 t-4.5 -90.5q-9 -97 -63 -199.5t-151 -208.5q-92 -100 -207 -189t-253 -166zM495 977l-105 6q-18 56 -40.5 114t-48 108.5t-52 89.5t-52.5 57l64 92q74 -51 146 -197q11 -22 20.5 -43.5t17.5 -42.5q5 12 8.5 24.5t7.5 23.5q15 45 29.5 86.5t31.5 78t37 68t47 56.5l77 -82 q-19 -18 -34.5 -43.5t-29 -56.5t-26 -67t-25.5 -75q-15 -46 -32.5 -96t-40.5 -101z"/>
<glyph glyph-name="uni06C7" horiz-adv-x="1030" unicode="ۇ" d="M450 650q-36 0 -78 -53q-29 -35 -47.5 -84t-29.5 -108q-5 -27 -5 -50q0 -54 26 -86q15 -20 38 -32.5t48 -20t49.5 -11t42.5 -4.5q50 -3 94 -3h22q52 1 91 4q-3 63 -15 120.5t-30.5 106.5t-42.5 88.5t-49 68.5q-10 10 -22.5 21.5t-27 21t-31 15.5t-33.5 6zM221 -688 l-97 172q101 56 189.5 120.5t159.5 131.5t122.5 134.5t77.5 129.5q-28 -1 -58 -1q-15 1 -31 1q-48 0 -103 5q-217 14 -321 142q-68 86 -68 206q0 41 8 86q14 85 43 154t73 126q50 63 110 95.5t124 32.5q142 0 261 -128q51 -56 89 -129.5t62 -157.5t33 -175q4 -46 4.5 -91.5 t-4.5 -90.5q-9 -97 -63 -199.5t-151 -208.5q-92 -100 -207 -189t-253 -166zM482 1352q-11 0 -23 -4.5t-23.5 -13t-20.5 -19t-15 -22.5q-1 0 -3.5 -8t0 -20t13.5 -26t37 -27q14 -8 28 -14t27 -13l24 -11q3 13 6 30t4.5 35t0.5 36.5t-6 34.5q-5 14 -12.5 23.5t-19.5 14.5 q-5 4 -17 4zM225 898l-24 84q21 6 55 17.5t72.5 27t76.5 35t68 42.5l-9 4q-13 7 -26.5 13t-27.5 13q-41 20 -63 46.5t-30.5 53.5t-6 53t10.5 44q14 28 38.5 52t54.5 38t62 16h8q28 0 53 -12q59 -28 78 -95q10 -34 10 -70q1 -15 -1 -29q-6 -50 -17 -85q8 -2 15 -4t13 -4 l-25 -83q-8 2 -21 6.5t-27 9.5q-25 -26 -57.5 -48.5t-68 -41t-70.5 -33t-64 -25t-50 -17t-27 -8.5z"/>
<glyph glyph-name="uni06C8" horiz-adv-x="1008" unicode="ۈ" d="M450 650q-36 0 -78 -53q-29 -35 -47.5 -84t-29.5 -108q-5 -27 -5 -50q0 -54 26 -86q15 -20 38 -32.5t48 -20t49.5 -11t42.5 -4.5q50 -3 94 -3h22q52 1 91 4q-3 63 -15 120.5t-30.5 106.5t-42.5 88.5t-49 68.5q-10 10 -22.5 21.5t-27 21t-31 15.5t-33.5 6zM221 -688 l-97 172q101 56 189.5 120.5t159.5 131.5t122.5 134.5t77.5 129.5q-28 -1 -58 -1q-15 1 -31 1q-48 0 -103 5q-217 14 -321 142q-68 86 -68 206q0 41 8 86q14 85 43 154t73 126q50 63 110 95.5t124 32.5q142 0 261 -128q51 -56 89 -129.5t62 -157.5t33 -175q4 -46 4.5 -91.5 t-4.5 -90.5q-9 -97 -63 -199.5t-151 -208.5q-92 -100 -207 -189t-253 -166zM482 963l-71 22q18 67 18 139v7q-1 75 -18 141l72 22q17 -61 19 -143v-17q0 -76 -20 -171z"/>
<glyph glyph-name="uni06C9" horiz-adv-x="1024" unicode="ۉ" d="M450 650q-36 0 -78 -53q-29 -35 -47.5 -84t-29.5 -108q-5 -27 -5 -50q0 -54 26 -86q15 -20 38 -32.5t48 -20t49.5 -11t42.5 -4.5q50 -3 94 -3h22q52 1 91 4q-3 63 -15 120.5t-30.5 106.5t-42.5 88.5t-49 68.5q-10 10 -22.5 21.5t-27 21t-31 15.5t-33.5 6zM221 -688 l-97 172q101 56 189.5 120.5t159.5 131.5t122.5 134.5t77.5 129.5q-28 -1 -58 -1q-15 1 -31 1q-48 0 -103 5q-217 14 -321 142q-68 86 -68 206q0 41 8 86q14 85 43 154t73 126q50 63 110 95.5t124 32.5q142 0 261 -128q51 -56 89 -129.5t62 -157.5t33 -175q4 -46 4.5 -91.5 t-4.5 -90.5q-9 -97 -63 -199.5t-151 -208.5q-92 -100 -207 -189t-253 -166zM506 1458q18 -56 40.5 -114t48 -108.5t52 -89.5t52.5 -57l-64 -92q-74 51 -146 197q-11 22 -20.5 43.5t-17.5 42.5q-5 -12 -8.5 -24.5t-7.5 -23.5q-15 -45 -29.5 -86.5t-31.5 -78t-37 -68 t-47 -56.5l-77 82q37 36 63 100t52 142q15 46 32.5 96t40.5 101z"/>
<glyph glyph-name="uni06CA" horiz-adv-x="996" unicode="ۊ" d="M450 650q-36 0 -78 -53q-29 -35 -47.5 -84t-29.5 -108q-5 -27 -5 -50q0 -54 26 -86q15 -20 38 -32.5t48 -20t49.5 -11t42.5 -4.5q50 -3 94 -3h22q52 1 91 4q-3 63 -15 120.5t-30.5 106.5t-42.5 88.5t-49 68.5q-10 10 -22.5 21.5t-27 21t-31 15.5t-33.5 6zM221 -688 l-97 172q101 56 189.5 120.5t159.5 131.5t122.5 134.5t77.5 129.5q-28 -1 -58 -1q-15 1 -31 1q-48 0 -103 5q-217 14 -321 142q-68 86 -68 206q0 41 8 86q14 85 43 154t73 126q50 63 110 95.5t124 32.5q142 0 261 -128q51 -56 89 -129.5t62 -157.5t33 -175q4 -46 4.5 -91.5 t-4.5 -90.5q-9 -97 -63 -199.5t-151 -208.5q-92 -100 -207 -189t-253 -166zM821 1172l-162 -163l-164 164l162 162zM481 1173l-162 -162l-164 163l162 163z"/>
<glyph glyph-name="uni06CB" horiz-adv-x="985" unicode="ۋ" d="M450 650q-36 0 -78 -53q-29 -35 -47.5 -84t-29.5 -108q-5 -27 -5 -50q0 -54 26 -86q15 -20 38 -32.5t48 -20t49.5 -11t42.5 -4.5q50 -3 94 -3h22q52 1 91 4q-3 63 -15 120.5t-30.5 106.5t-42.5 88.5t-49 68.5q-10 10 -22.5 21.5t-27 21t-31 15.5t-33.5 6zM221 -688 l-97 172q101 56 189.5 120.5t159.5 131.5t122.5 134.5t77.5 129.5q-28 -1 -58 -1q-15 1 -31 1q-48 0 -103 5q-217 14 -321 142q-68 86 -68 206q0 41 8 86q14 85 43 154t73 126q50 63 110 95.5t124 32.5q142 0 261 -128q51 -56 89 -129.5t62 -157.5t33 -175q4 -46 4.5 -91.5 t-4.5 -90.5q-9 -97 -63 -199.5t-151 -208.5q-92 -100 -207 -189t-253 -166zM317 1439l148 148l149 -149l-148 -148zM121 1179l162 163l164 -164l-162 -163zM475 1178l162 162l164 -164l-162 -162z"/>
<glyph glyph-name="uni06CD" horiz-adv-x="1898" unicode="ۍ" d="M1603 688q-91 -18 -166 -75.5t-125 -144.5q-36 -61 -48 -122q-6 -29 -5 -53q0 -27 7 -49q7 -20 23 -33t41.5 -22.5t59.5 -17t76 -15.5q63 -12 123.5 -27t111.5 -50q23 -17 45.5 -41.5t38.5 -59.5q15 -36 21 -83q2 -17 2 -35q0 -34 -6 -73q-18 -98 -88 -180t-186 -140 q-110 -56 -249.5 -85t-303.5 -29q-189 0 -334.5 54.5t-238.5 158.5q-120 138 -135 335q-26 -32 -51.5 -64.5t-49 -63t-45 -58.5t-37.5 -49l-191 67q2 2 16.5 22t37.5 50.5t52.5 68.5t61.5 76t63.5 72.5t59 59t48.5 34.5t32 -1l194 -33q11 0 15.5 -12t0.5 -39q-6 -40 -6 -83 q0 -40 8 -80q8 -44 27 -86.5t52 -79.5q63 -72 169.5 -108t250.5 -36q142 0 254.5 23t192 60.5t125 85t54.5 97.5q4 25 3.5 41t-3.5 25.5t-7.5 14t-8.5 7.5q-12 8 -29 14t-37.5 11t-43 9.5t-45.5 8.5q-49 9 -98 20t-94 31q-125 54 -165 172q-14 42 -17 90q-1 13 -1 26 q0 36 6 72q8 50 26.5 101.5t46.5 101.5q36 62 82.5 114.5t101 93.5t116 69t127.5 42q54 11 104 11q14 0 28 -1q63 -4 111 -15t77.5 -23t32.5 -13l-87 -183l-19 8q-19 8 -49.5 14t-70.5 8q-9 1 -18 1q-33 0 -67 -7zM267 -99q2 2 4.5 5t4.5 5h-10q1 -3 1 -10z"/>
<glyph glyph-name="uni06CE" horiz-adv-x="1759" unicode="ێ" d="M1371 832q54 11 104 11q14 0 28 -1q63 -4 111 -15t77.5 -23t32.5 -13l-87 -183l-19 8q-19 8 -49.5 14t-70.5 8q-9 1 -18 1q-32 0 -67 -7q-91 -18 -166 -75.5t-125 -144.5q-36 -61 -48 -122q-6 -29 -5 -53q0 -27 7 -49q7 -20 23 -33t41.5 -22.5t59.5 -17t76 -15.5 q63 -12 123.5 -27t111.5 -50q23 -17 45 -41q23 -24 39 -60q15 -36 21 -83q2 -17 2 -35q0 -34 -6 -73q-18 -98 -88 -180t-186 -140q-110 -56 -249.5 -85t-303.5 -29q-189 0 -334.5 54.5t-238.5 158.5q-82 94 -116 218q-22 81 -21 171q0 49 6 100q8 65 22 134.5t30.5 135.5 t34 125.5t32 105.5t24.5 74t11 32l191 -67q-45 -140 -84 -279t-58 -285q-6 -40 -6 -83q0 -40 8 -80q8 -44 27 -86.5t52 -79.5q63 -72 169.5 -108t250.5 -36q142 0 254.5 23t192 60.5t125 85t54.5 97.5q4 25 3.5 41t-3.5 25.5t-7.5 14t-8.5 7.5q-12 8 -29 14t-37.5 11 t-43 9.5t-45.5 8.5q-49 9 -98 20t-94 31q-125 54 -165 172q-14 42 -17 90q-1 13 -1 26q0 36 6 72q8 50 26.5 101.5t46.5 101.5q36 62 82.5 114.5t101 93.5t116 69t127.5 42zM795 792l-105 6q-18 56 -40.5 114t-48 108.5t-52 89.5t-52.5 57l64 92q74 -51 146 -197 q11 -22 20.5 -43.5t17.5 -42.5q5 12 8.5 24.5t7.5 23.5q15 45 29.5 86.5t31.5 78t37 68t47 56.5l77 -82q-19 -18 -34.5 -43.5t-29 -56.5t-26 -67t-25.5 -75q-15 -46 -32.5 -96t-40.5 -101z"/>
<glyph glyph-name="uni06CF" horiz-adv-x="1002" unicode="ۏ" d="M450 650q-36 0 -78 -53q-29 -35 -47.5 -84t-29.5 -108q-5 -27 -5 -50q0 -54 26 -86q15 -20 38 -32.5t48 -20t49.5 -11t42.5 -4.5q50 -3 94 -3h22q52 1 91 4q-3 63 -15 120.5t-30.5 106.5t-42.5 88.5t-49 68.5q-10 10 -22.5 21.5t-27 21t-31 15.5t-33.5 6zM221 -688 l-97 172q101 56 189.5 120.5t159.5 131.5t122.5 134.5t77.5 129.5q-28 -1 -58 -1q-15 1 -31 1q-48 0 -103 5q-217 14 -321 142q-68 86 -68 206q0 41 8 86q14 85 43 154t73 126q50 63 110 95.5t124 32.5q142 0 261 -128q51 -56 89 -129.5t62 -157.5t33 -175q4 -46 4.5 -91.5 t-4.5 -90.5q-9 -97 -63 -199.5t-151 -208.5q-92 -100 -207 -189t-253 -166zM657 1187l-163 -163l-164 164l163 163z"/>
<glyph glyph-name="uni06D0" horiz-adv-x="1748" unicode="ې" d="M1371 832q54 11 104 11q14 0 28 -1q63 -4 111 -15t77.5 -23t32.5 -13l-87 -183l-19 8q-19 8 -49.5 14t-70.5 8q-9 1 -18 1q-32 0 -67 -7q-91 -18 -166 -75.5t-125 -144.5q-36 -61 -48 -122q-6 -29 -5 -53q0 -27 7 -49q7 -20 23 -33t41.5 -22.5t59.5 -17t76 -15.5 q63 -12 123.5 -27t111.5 -50q23 -17 45 -41q23 -24 39 -60q15 -36 21 -83q2 -17 2 -35q0 -34 -6 -73q-18 -98 -88 -180t-186 -140q-110 -56 -249.5 -85t-303.5 -29q-189 0 -334.5 54.5t-238.5 158.5q-82 94 -116 218q-22 81 -21 171q0 49 6 100q8 65 22 134.5t30.5 135.5 t34 125.5t32 105.5t24.5 74t11 32l191 -67q-45 -140 -84 -279t-58 -285q-6 -40 -6 -83q0 -40 8 -80q8 -44 27 -86.5t52 -79.5q63 -72 169.5 -108t250.5 -36q142 0 254.5 23t192 60.5t125 85t54.5 97.5q4 25 3.5 41t-3.5 25.5t-7.5 14t-8.5 7.5q-12 8 -29 14t-37.5 11 t-43 9.5t-45.5 8.5q-49 9 -98 20t-94 31q-125 54 -165 172q-14 42 -17 90q-1 13 -1 26q0 36 6 72q8 50 26.5 101.5t46.5 101.5q36 62 82.5 114.5t101 93.5t116 69t127.5 42zM892 -1199l-116 -116l-117 117l116 116zM892 -932l-116 -116l-117 117l116 116z"/>
<glyph glyph-name="uni06D1" horiz-adv-x="1698" unicode="ۑ" d="M1371 832q54 11 104 11q14 0 28 -1q63 -4 111 -15t77.5 -23t32.5 -13l-87 -183l-19 8q-19 8 -49.5 14t-70.5 8q-9 1 -18 1q-32 0 -67 -7q-91 -18 -166 -75.5t-125 -144.5q-36 -61 -48 -122q-6 -29 -5 -53q0 -27 7 -49q7 -20 23 -33t41.5 -22.5t59.5 -17t76 -15.5 q63 -12 123.5 -27t111.5 -50q23 -17 45 -41q23 -24 39 -60q15 -36 21 -83q2 -17 2 -35q0 -34 -6 -73q-18 -98 -88 -180t-186 -140q-110 -56 -249.5 -85t-303.5 -29q-189 0 -334.5 54.5t-238.5 158.5q-82 94 -116 218q-22 81 -21 171q0 49 6 100q8 65 22 134.5t30.5 135.5 t34 125.5t32 105.5t24.5 74t11 32l191 -67q-45 -140 -84 -279t-58 -285q-6 -40 -6 -83q0 -40 8 -80q8 -44 27 -86.5t52 -79.5q63 -72 169.5 -108t250.5 -36q142 0 254.5 23t192 60.5t125 85t54.5 97.5q4 25 3.5 41t-3.5 25.5t-7.5 14t-8.5 7.5q-12 8 -29 14t-37.5 11 t-43 9.5t-45.5 8.5q-49 9 -98 20t-94 31q-125 54 -165 172q-14 42 -17 90q-1 13 -1 26q0 36 6 72q8 50 26.5 101.5t46.5 101.5q36 62 82.5 114.5t101 93.5t116 69t127.5 42zM911 -1174l-116 -116l-117 117l116 116zM1031 -978l-116 -116l-117 117l116 116zM778 -977 l-116 -116l-117 117l116 116z"/>
<glyph glyph-name="uni06D4" horiz-adv-x="657" unicode="۔" d="M680 196q11 0 11 -8v-180q0 -10 -11 -10h-690q-10 0 -10 10v180q0 8 10 8h690z"/>
<glyph glyph-name="uni06D5" horiz-adv-x="983" unicode="ە" d="M497 704q-29 -26 -67.5 -66t-72.5 -88t-57.5 -100.5t-23.5 -102.5q0 -15 2.5 -31t11 -31.5t24.5 -30.5t43 -27q19 -9 39 -14.5t37 -8.5t31 -4t21 -1q9 0 25.5 0.5t36 3t40 8t39.5 14.5q37 20 53.5 48.5t16.5 73.5q0 65 -50 156t-145 197q-1 1 -1.5 2t-2.5 2zM485 0 q-5 0 -24.5 1t-48.5 5.5t-65.5 14t-73.5 27.5q-95 44 -144.5 120t-49.5 179q0 180 163 377q33 39 63.5 70t53.5 52q-30 27 -48 42t-18 16l126 153q1 -2 21.5 -19t52.5 -47t73 -70.5t84 -88.5q122 -139 182.5 -260.5t60.5 -224.5t-45.5 -179t-133.5 -119q-32 -16 -65 -25.5 t-63 -15t-56.5 -7t-44.5 -1.5z"/>
<glyph glyph-name="uni06D6" d="M520 1315q31 25 34 64q0 16 -7 28.5t-14 18.5q-21 23 -46.5 25.5t-45.5 -0.5q-29 -6 -58.5 -21.5t-55.5 -39.5q-17 -16 -30.5 -33.5t-24 -34t-18.5 -30.5t-12 -23q30 -3 68 -3q4 0 8 -1q34 1 69 5q39 4 74 14.5t59 30.5zM587 1477q41 -41 41 -92q0 -6 -1 -11 q-4 -71 -60 -116q-25 -21 -56 -33.5t-64.5 -20t-67 -10t-63.5 -2.5q-35 0 -60.5 2t-36.5 4q-29 1 -56 14q-16 7 -29.5 18t-30.5 33q-45 -64 -148 -64h-3q-5 0 -11 2q-32 2 -54 13t-36 25q-4 -4 -7 -7.5t-7 -6.5q-21 -17 -43.5 -21t-41.5 -4h-5q-18 -1 -46 -2.5t-58.5 -4.5 t-61 -6.5t-53.5 -7.5q-40 -7 -73.5 -25.5t-57.5 -36.5q31 -8 71.5 -13.5t91.5 -8.5q14 -2 27.5 -2h26.5q21 0 56.5 1t76 3t82 4t74.5 4t55 3l21 1l9 -70q-1 0 -22.5 -1.5t-55.5 -3.5t-76 -4.5t-83 -4.5t-77 -3.5t-59 -1.5q-15 0 -29.5 0.5t-29.5 1.5q-71 5 -117.5 13 t-75 16.5t-41.5 16t-17 11.5l-2 50l17.5 17.5t45 37t67 40.5t84.5 28q17 3 54.5 6.5t75.5 7.5q45 4 96 8q23 1 32.5 2.5t15.5 6.5q11 8 14.5 26t5.5 38q0 1 0.5 25.5t1 63t0.5 86t-0.5 94t-1.5 86.5t-4 65l73 9q3 -26 5 -66q3 -40 3 -86v-47v-47q0 -48 -1 -87t-1.5 -66 t-0.5 -32q0 -8 1.5 -20.5t9.5 -24.5q8 -11 20.5 -18.5t37.5 -7.5q5 0 9 -2q39 2 56.5 13.5t25.5 22.5q13 17 19.5 41t12.5 53q3 16 6 31t8 30l71 -22q-3 -8 -4.5 -15t-3.5 -15t-3.5 -22t-0.5 -30.5t5.5 -34t15.5 -30.5q5 11 14 28t22 37t30 41.5t39 42.5q33 32 72.5 52.5 t79.5 27.5q21 4 40 4q26 0 48 -7q40 -12 71 -43z" unicode="ۖ"/>
<glyph glyph-name="uni06D7" d="M328 1418q22 -1 39.5 -1t31.5 1q-3 39 -15.5 74.5t-33.5 58.5q-6 7 -16 14t-21 7q-12 0 -29 -21.5t-24 -63.5q-6 -30 7 -46q17 -20 61 -23zM410 1605q19 -21 33 -48t23 -58q8 -31 12 -65q2 -16 2 -31q0 -18 -2 -35q-2 -8 -3.5 -16.5t-3.5 -16.5q-2 -10 -12 -31.5 t-39 -44.5q-79 -63 -247 -64h-6h-2h-2h-6q-37 0 -63 12q-28 13 -44 30q-4 -5 -7.5 -8t-7.5 -7q-17 -14 -35.5 -19t-35.5 -7l-14 -1q-14 -1 -36.5 -2.5t-50.5 -3.5t-57 -5t-57 -6t-49 -7q-44 -8 -80.5 -28t-62.5 -40q66 -16 178 -24q14 -2 29.5 -1.5t29.5 -0.5q22 -1 44 -1 t45 1q46 2 90 6t85.5 9t75.5 10l13 -78q-11 -1 -36 -4t-57 -6.5t-68.5 -7t-72 -6t-67.5 -3.5h-19q-19 0 -33 1q-16 1 -31.5 1t-32.5 1q-78 5 -128.5 13.5t-81.5 17.5t-45.5 17.5t-18.5 12.5l-2 56l19 19t49 40.5t73 43.5t92 30q19 3 59.5 7.5t82.5 8.5q48 4 104 9 q24 1 35 3.5t17 7.5q12 9 16 28.5t6 40.5q0 1 0.5 28t0.5 69q2 42 2 94v51v51q0 50 -2.5 94t-5.5 71l80 10q4 -28 6 -72q2 -45 2 -95v-50.5v-51.5q0 -52 -1 -94.5t-1.5 -72t-0.5 -34.5q0 -9 2.5 -22.5t10.5 -26.5t22 -21t41 -8h3h1q45 0 78.5 4t58 11t40.5 15t26 16l8.5 8.5 t6.5 7.5h-41q-44 0 -82 13.5t-59 41.5q-11 14 -20 40q-5 15 -5 35q0 15 3 34q10 61 43 103q38 49 89 49q52 0 97 -48zM218 1685q-38 29 -64 60q10 8 25 24t37 39l59 -57q-23 -35 -57 -66zM363 1700q-16 11 -32 25.5t-32 31.5q14 13 29.5 29.5t32.5 36.5l59 -58 q-15 -20 -29 -36t-28 -29z" unicode="ۗ"/>
<glyph glyph-name="uni06D8" d="M-24 1087q33 -24 60 -35t44 -6q12 3 20.5 26t4.5 55q-1 4 -3.5 15t-8.5 22.5t-16 20.5t-26 9q-15 0 -26.5 -16.5t-28.5 -51.5zM-238 1006q0 14 10 24.5t24 10.5h1q30 0 50.5 10t36 26t27 37t22.5 43q9 19 18.5 36.5t21.5 32.5q31 39 78 39q54 0 89 -43q29 -35 35 -86 q2 -14 2 -28q0 -36 -12 -65q-20 -52 -67 -65q-15 -4 -30 -4q-28 0 -60 13q-36 15 -73 42q-2 -3 -3 -3q-54 -55 -135 -55h-1q-14 0 -24 10t-10 25z" unicode="ۘ"/>
<glyph glyph-name="uni06D9" d="M124 1156q1 -7 1 -15q0 -74 -57 -125q-47 -43 -125 -61q-20 -4 -39.5 -6t-39.5 -2q-14 0 -27 1t-26 3l12 70q20 -4 42 -4q30 0 63 7q-8 42 -25 88t-38 89.5t-43.5 83t-41 69t-31 47t-12.5 18.5l58 41q0 -1 8 -12t20.5 -30t28.5 -45.5t33 -57.5q86 -154 110 -266 q7 5 13.5 9.5t12.5 9.5q33 30 33 75v8l-31 362l70 7q0 -1 3.5 -35.5t8.5 -87.5t10.5 -117t8.5 -124z" unicode="ۙ"/>
<glyph glyph-name="uni06DA" d="M59 1014l-58 -58l-58 58l58 58zM5 778q-38 0 -68.5 4.5t-46.5 9.5q-81 27 -125 78q-27 32 -39 70q-9 29 -9 62q0 11 1 23q3 36 16.5 68.5t38.5 61.5q21 25 48 45t59 35q43 20 90.5 31.5t91.5 17.5q-10 5 -19.5 9.5t-19.5 9.5q-37 18 -68 32t-52 17q-7 1 -14 1 q-41 0 -75 -37q-8 -8 -14 -16.5t-10 -15.5q-5 -8 -8 -15l-65 27q1 2 4 8.5t8.5 15.5t13.5 20.5t19 23.5q32 34 70 48q28 11 59 11q11 0 22 -1q30 -4 64 -19.5t78 -36.5q39 -19 83 -39.5t95 -37.5l-13 -69h-14h-39t-56 -2.5t-65.5 -7.5t-69.5 -14.5t-66 -24.5 q-13 -6 -32.5 -18t-38.5 -30.5t-33.5 -44t-17.5 -59.5q-1 -8 -1 -16q0 -103 125 -144q6 -2 19 -4.5t29.5 -4t36.5 -2t41 1.5q18 1 38.5 4.5t42 10t42 17t38.5 26.5l46 -54q-25 -22 -55 -37t-61.5 -23.5t-63 -12t-60.5 -3.5z" unicode="ۚ"/>
<glyph glyph-name="uni06DB" d="M-115 958l116 116l117 -117l-116 -116zM-235 762l116 116l117 -117l-116 -116zM18 761l116 116l117 -117l-116 -116z" unicode="ۛ"/>
<glyph glyph-name="uni06DC" d="M365 1307q3 -5 12 -23t19 -43.5t17.5 -55.5t7.5 -60t-7 -57t-21.5 -47t-37.5 -31.5t-56 -11.5q-20 0 -44 12t-40 35q-21 -25 -48 -35t-57 -12q-17 -1 -30 2t-22 8q-11 5 -19 12v-11q0 -57 -19 -107q-21 -55 -75 -91q-65 -44 -168 -49h-14q-94 0 -155 53q-27 24 -45 58 t-23 73q-4 24 -4 47q0 19 3 39q7 42 16 71q11 36 23.5 62t21.5 39l57 -42q-7 -9 -17 -31t-18 -50.5t-12.5 -61t0.5 -63.5q2 -14 9 -35t23.5 -40.5t45.5 -33.5t74 -14h12q152 6 184 106q9 29 10 59t-3.5 58t-12.5 53.5t-17 46.5q-9 20 -15 30t-6 11l59 38q2 -5 6 -13 q3 -7 7 -16.5t10 -21.5q10 -23 20.5 -44t23 -37t29 -25.5t38.5 -8.5q28 1 41 16t17.5 38t4 51.5t-0.5 55.5l73 7v-11q0 -5 0.5 -10t0.5 -10q1 -13 3 -36.5t8 -46.5t17 -40t31 -17q24 0 37 26t12 58q-1 23 -6.5 44t-13 39.5t-15 34t-13.5 26.5z" unicode="ۜ"/>
<glyph glyph-name="uni06DD" horiz-adv-x="2300" unicode="۝" d="M933 -248q0 14 -13 30t-37 25q-73 22 -164 67t-156 89q-21 21 -43 21q-24 0 -42 -18t-19 -47q0 -34 28 -48q157 -111 365 -182q38 -1 60 17t21 46zM1251 -279q0 45 -31 75t-79 30q-45 0 -74 -29t-29 -76q0 -46 29 -75t74 -29q48 0 79 29t31 75zM1770 -11q-22 0 -44 -22 q-173 -108 -321 -153q-23 -10 -37 -26t-13 -31q1 -29 23 -47t58 -17q204 70 364 184q28 14 28 52q0 27 -18 43t-40 17zM1829 1397q-29 -17 -60 -17q-69 69 -155 124t-176 85t-145 30q-35 0 -77 -12t-75 -42q-27 30 -65 42t-72 12q-56 -1 -152 -31t-183 -85t-151 -123 q-34 0 -63 17q-275 -277 -275 -652q0 -188 69 -352t206 -289q30 0 63 11q62 -71 140 -123t183 -89t141 -37q30 0 74 16t85 52q48 -37 92 -54t76 -17q23 0 45 8q166 57 256 113t159 131q29 -11 60 -11q130 119 202 285t72 346q0 199 -68 361t-206 301zM854 1800 q-208 -71 -362 -184q-30 -15 -30 -51q0 -23 18 -41t41 -20q22 0 44 22q62 40 151 84t169 69q47 19 47 61q0 60 -78 60zM1251 1763q0 45 -31 74t-79 29q-45 0 -74 -29t-29 -74q0 -48 29 -78t74 -30q48 0 79 30t31 78zM1831 1563q0 36 -27 49q-162 111 -366 182q-79 0 -79 -51 q-1 -21 13 -41t35 -27q161 -49 322 -155q21 -21 42 -21q24 0 42 19t18 45zM2238 745q0 -301 -135 -555q20 14 41 14t37 -14q-258 -462 -827 -593q-113 -27 -213 -152q-93 132 -197 152q-553 101 -821 593q18 14 36 14t38 -14q-152 295 -152 555q0 147 43 283t109 264 q-21 -7 -38 -7q-18 0 -36 7q128 234 350 396t471 196q46 6 100 53t97 111q40 -61 98 -106t115 -58q269 -57 484 -211t343 -381q-16 -7 -37 -7q-20 0 -41 7q135 -250 135 -547z"/>
<glyph glyph-name="uni06DE" horiz-adv-x="2220" unicode="۞" d="M1253 750q0 59 -42 101t-101 42t-100 -42t-41 -101q0 -60 41 -102t100 -42t101 42t42 102zM1327 750q1 -90 -63 -154t-154 -64q-88 0 -152 64t-65 154q1 90 65 154t152 63q90 1 154 -63t63 -154zM2064 750l-202 204v-409zM1786 1030l-395 395h-560l-395 -395v-561 l395 -393h560l395 393v561zM1315 1499l-205 207l-205 -207h410zM360 954l-204 -204l204 -205v409zM905 0l205 -205l205 205h-410zM1786 76v289l-291 -289h291zM1786 1137v288h-291zM725 1425h-289v-288zM436 365v-289h289zM2171 750l-309 -312v-438h-441l-311 -311l-309 311 h-441v438l-311 312l311 311v438h441l309 311l311 -311h441v-438z"/>
<glyph glyph-name="uni06DF" d="M0 997q-53 0 -84 32t-31 91t30.5 91t84.5 32q55 0 85 -33.5t30 -89.5t-30 -89.5t-85 -33.5z" unicode="۟"/>
<glyph glyph-name="uni06E0" d="M98 1120h-196v197h196v-197z" unicode="۠"/>
<glyph glyph-name="uni06E1" d="M-294 1008q0 15 10.5 25t25.5 10h62q48 0 92 9t85.5 24t81 33.5t77.5 37.5l7 3q-24 9 -47 19t-45 20q-33 16 -62.5 28.5t-52.5 12.5t-41.5 -13.5t-31.5 -30t-21 -30.5l-7 -14l-65 29q1 1 11 20t30 42q55 67 125 67q35 0 71 -14.5t75 -32.5q42 -20 85.5 -37t87.5 -17 l14 -68q-25 -10 -50 -22t-51 -25q-39 -20 -81 -39.5t-88 -35.5t-95.5 -26t-103.5 -10h-59h-3q-15 0 -25.5 10.5t-10.5 24.5z" unicode="ۡ"/>
<glyph glyph-name="uni06E2" d="M-6 1163l23 -9q17 -8 32 -13.5t29 -10.5t21 -7t10 -2q2 2 6 9t9 22q4 17 4.5 33.5t-3.5 33.5q-5 18 -12 28.5t-15 15t-15 5.5t-11 1q-12 1 -27.5 -15t-30.5 -45q-6 -12 -10.5 -24t-9.5 -22zM-156 778l-14 331q0 2 0.5 10t3 18t8.5 21t17 20q10 8 26.5 12.5t42.5 -3.5 q5 12 10 26t13 28q22 41 45 64q35 35 77 35h2q59 -3 93 -47q27 -38 30 -90q1 -9 1 -17q-1 -14 -3 -30q-4 -24 -11 -44q-22 -55 -64 -61q-20 -3 -50 6.5t-81 30.5q-20 9 -40 17t-38 13q-6 3 -10 3q-1 -4 -1 -9l13 -334h-70z" unicode="ۢ"/>
<glyph glyph-name="uni06E3" d="M405 92q3 -5 12 -23t19 -43.5t17.5 -55.5t7.5 -60t-7 -57t-21.5 -47t-37.5 -31.5t-56 -11.5q-20 0 -44 12t-40 35q-21 -25 -48 -35t-57 -12q-17 -1 -30 2t-22 8q-11 5 -19 12v-11q0 -57 -19 -107q-21 -55 -75 -91q-65 -44 -168 -49h-14q-94 0 -155 53q-27 24 -45 58 t-23 73q-4 24 -4 47q0 20 3 40q7 42 16 70q11 36 23.5 62t21.5 39l57 -42q-7 -9 -17 -31t-18 -50.5t-12.5 -61t0.5 -63.5q2 -14 9 -35t23.5 -40.5t45.5 -33.5t74 -14h12q152 6 184 106q9 29 10 59t-3.5 58t-12.5 53.5t-17 46.5q-9 20 -15 30t-6 11l59 38q2 -5 6 -13 q3 -7 7 -16.5t10 -21.5q10 -23 20.5 -44t23 -37t29 -25.5t38.5 -8.5q28 1 41 16t17.5 38t4 51.5t-0.5 55.5l73 7v-11q0 -5 0.5 -10t0.5 -10q1 -13 3 -36.5t8 -46.5t17 -40t31 -17q24 0 37 26t12 58q-1 23 -6.5 44t-13 39.5t-15 34t-13.5 26.5z" unicode="ۣ"/>
<glyph glyph-name="uni06E4" d="M-142 1059q0 2 5 15t11 23q23 36 57 43q4 1 8 1h8q15 0 28 -4t24 -9q10 -4 19 -6.5t20 -3.5q9 0 17 4t15 10t12 11.5t7 8.5l41 -26q0 -1 -7 -10.5t-19.5 -20t-29.5 -19t-37 -8.5q-14 1 -26.5 4.5t-23.5 7.5l-6 2q-11 5 -21 7.5t-21 0.5q-6 -1 -11.5 -6.5t-10 -12.5 t-8 -14.5t-4.5 -11.5z" unicode="ۤ"/>
<glyph glyph-name="uni06E5" d="M36 1281q-13 0 -28 -19q-10 -12 -16 -30t-11 -38q-6 -33 7 -49q10 -15 30 -19t34 -5q24 -1 42 -1t32 1q-2 45 -16 81t-33 56q-8 8 -18 16t-23 7zM-46 803l-34 62q72 39 124 89t72 95h-32t-37 2q-77 5 -114 51q-25 30 -25 74q0 14 3 30q10 59 42 100q17 22 39 34t44 12 q50 0 93 -46q37 -40 55 -102q13 -46 13 -95q0 -17 -2 -33q-6 -70 -76 -146q-33 -35 -74 -67t-91 -60z" unicode="ۥ"/>
<glyph glyph-name="uni06E6" horiz-adv-x="705" unicode="ۦ" d="M347 1273q-1 -3 -4 -15t-10 -26q-7 -15 -18 -31t-27 -27q-10 -8 -26 -14t-37 -13q-21 -8 -46 -17t-46 -21q-28 -15 -42 -32q5 -5 17 -9t32 -10q32 -7 80 -10t120 -3q66 1 128 9t108 18q48 10 77 20q29 8 30 8l25 -76q-2 -1 -32 -10t-81 -20q-47 -10 -114 -20t-141 -9 q-78 0 -129 3t-87 11q-23 5 -40 11t-31 16q-32 21 -47 53v29q10 28 32 50t50 38t57 27t54 20q11 5 24 9t18 7q11 8 18 25t9 26z"/>
<glyph glyph-name="uni06E7" d="M19 1273q-1 -3 -4 -14.5t-10 -26.5t-18 -31t-27 -27q-11 -8 -26.5 -14t-36.5 -13q-21 -8 -46 -17t-46 -21q-28 -15 -42 -32q6 -5 17.5 -9.5t31.5 -9.5q32 -7 80 -10t120 -3q66 0 127.5 8.5t109 19t76.5 19t30 8.5l25 -76q-2 -1 -32 -10t-81 -20q-47 -10 -114 -19.5 t-141 -9.5q-78 0 -129 3t-87 11q-23 5 -40 11.5t-31 15.5q-32 21 -47 53v29q10 29 32.5 50.5t50 37.5t56.5 27t54 20q11 4 24 8.5t18 7.5q11 8 18 25t9 26z" unicode="ۧ"/>
<glyph glyph-name="uni06E8" d="M58 1428l-58 -58l-58 59l58 58zM-34 851q-93 0 -154 53q-29 25 -46 58.5t-23 72.5q-4 23 -4 46q-1 21 3 41q6 42 16 70q11 36 24 62t22 39l57 -42q-7 -9 -17 -31t-18.5 -50.5t-13 -61t0.5 -63.5q2 -14 9 -35t23.5 -41t45.5 -34t74 -14q8 0 12 1q153 6 185 106 q10 34 10 68q0 12 -1 24q-5 46 -16.5 83t-24 60t-13.5 23l60 38q1 -3 16.5 -31t29.5 -72q13 -44 19 -100q1 -13 2 -25q0 -44 -15 -89q-11 -33 -31 -60t-50 -47q-64 -44 -168 -49h-14z" unicode="ۨ"/>
<glyph glyph-name="uni06E9" horiz-adv-x="1229" unicode="۩" d="M780 1108l-166 170l-165 -170l73 -82v-717h183v717zM834 1108l-89 -96v-746h-262v746l-88 96l219 223zM922 1108l-308 307l-307 -307l125 -139v-783h365v783zM995 1108l-149 -170v-807h-463v807l-150 170l381 381zM1102 1108l-488 489l-487 -489l211 -238v-630l-160 -185 h873l-160 185v630zM1180 0h-1131l230 260v590l-230 258l565 567l566 -567l-230 -258v-590z"/>
<glyph glyph-name="uni06EA" d="M164 -487l-163 -163l-164 164l163 163zM1 -371l-116 -116l117 -117l116 116z" unicode="۪"/>
<glyph glyph-name="uni06EB" d="M161 1150l-163 -163l-164 164l163 163zM-2 1266l-116 -116l117 -117l116 116z" unicode="۫"/>
<glyph glyph-name="uni06ED" d="M-11 -296l23 -9q17 -8 32 -13.5t29 -10.5t21 -7t10 -2q2 2 6 9t9 22q4 17 4.5 33.5t-3.5 33.5q-5 18 -12 28.5t-15 15t-15 5.5t-11 1q-12 1 -27.5 -15t-30.5 -45q-6 -12 -10.5 -24t-9.5 -22zM-161 -681l-14 331q0 2 0.5 10t3 18t8.5 21t17 20q10 8 26.5 12.5t42.5 -3.5 q5 12 10 26t13 28q22 41 45 64q35 35 77 35h2q59 -3 93 -47q27 -38 30 -90q1 -9 1 -17q0 -15 -2 -31q-4 -24 -12 -43q-22 -55 -64 -61q-20 -3 -50 6.5t-81 30.5q-20 9 -40 17t-38 13q-6 3 -10 3q-1 -4 -1 -9l13 -334h-70z" unicode="ۭ"/>
<glyph glyph-name="uni06EE" horiz-adv-x="997" unicode="ۮ" d="M455 1q-26 0 -51 1t-54 4q-63 6 -119 17t-98.5 22t-68 19t-26.5 8l66 188l22 -7q22 -7 59 -16.5t86 -19.5t103 -15q39 -4 83 -4h11q50 0 98 9.5t90.5 29.5t72.5 55q16 18 16 53q0 26 -9 63q-11 49 -35.5 102.5t-59 107t-76.5 104.5t-87.5 94.5t-92.5 78t-92 53.5l81 182 q59 -27 119 -70t116.5 -97t108 -116.5t93.5 -129t73 -133.5t46 -131q12 -56 12 -101t-8.5 -80t-22.5 -61t-30 -45q-92 -111 -257 -147q-38 -10 -80 -14t-89 -4zM444 1721q18 -56 40.5 -114t48 -108.5t52 -89.5t52.5 -57l-64 -92q-74 51 -146 197q-11 22 -20.5 43.5 t-17.5 42.5q-5 -12 -8.5 -24.5t-7.5 -23.5q-15 -45 -29.5 -86.5t-31.5 -78t-37 -68t-47 -56.5l-77 82q37 36 63 100t52 142q15 46 32.5 96t40.5 101z"/>
<glyph glyph-name="uni06EF" horiz-adv-x="897" unicode="ۯ" d="M654 650q28 -93 53 -184q10 -39 21 -81t20.5 -84t16.5 -81.5t11 -73.5q1 -11 2 -25t1 -31q0 -87 -25.5 -169t-71 -157.5t-108 -144.5t-136 -129.5t-155 -112.5t-165.5 -93l-87 176q105 52 204 120.5t176.5 149.5t124.5 172t47 188q0 4 -1 16l-2 22q-3 31 -10 67.5t-16 75 t-19 77t-20 74.5q-24 84 -51 168zM557 1312q18 -56 40.5 -114t48 -108.5t52 -89.5t52.5 -57l-64 -92q-74 51 -146 197q-11 22 -20.5 43.5t-17.5 42.5q-5 -12 -8.5 -24.5t-7.5 -23.5q-15 -45 -29.5 -86.5t-31.5 -78t-37 -68t-47 -56.5l-77 82q37 36 63 100t52 142 q15 46 32.5 96t40.5 101z"/>
<glyph glyph-name="uni06F0" horiz-adv-x="758" unicode="۰" d="M697 542l-324 -324l-319 321l321 322z"/>
<glyph glyph-name="uni06F1" horiz-adv-x="762" unicode="۱" d="M503 -16h-199q0 215 -8 427t-34 406.5t-75 364t-131 299.5l167 106q88 -140 146 -326.5t90 -430.5q14 -107 23 -216t13.5 -216.5t6 -212t1.5 -201.5z"/>
<glyph glyph-name="uni06F2" horiz-adv-x="1141" unicode="۲" d="M1072 1612q0 -2 3 -19.5t6 -47t5 -67.5q1 -26 1 -54v-28q-3 -126 -32.5 -222.5t-86.5 -163.5q-54 -66 -130 -99t-169 -33q-108 0 -195 38q3 -20 5.5 -40t5.5 -40q14 -107 23 -216t13.5 -216.5t6 -212t1.5 -201.5h-199q0 174 -5 346.5t-20.5 336t-43.5 314t-74 280.5 q-8 17 -15 32.5t-13 27.5l3 3q-36 85 -80 157l167 106q33 -54 62.5 -114t54.5 -129q2 -2 2.5 -5t1.5 -5q26 -60 52 -109t59.5 -83.5t78.5 -53.5t109 -19q96 0 148 61q23 28 38 66t23 80q8 40 10 84q2 27 2 53v31q-2 40 -5.5 72.5t-7.5 54.5z"/>
<glyph glyph-name="uni06F3" horiz-adv-x="1587" unicode="۳" d="M1459 1624q34 -179 34 -312q0 -39 -3 -74q-13 -154 -85 -241q-40 -48 -96 -73.5t-125 -25.5q-28 0 -59.5 6t-63 22.5t-62.5 44t-58 71.5q-8 -11 -16 -22.5t-17 -22.5q-51 -59 -119.5 -89t-151.5 -30q-93 0 -164 28l10 -70q14 -107 22.5 -215.5t13 -216t6 -212t1.5 -201.5 h-199q4 92 3.5 183.5t-3.5 181.5q-7 180 -28.5 347.5t-58 319.5t-87.5 282q-2 3 -3 7.5t-3 8.5t-4 9q-17 42 -37 82t-42 75l182 107q7 -12 16.5 -29.5t20 -38t21 -43.5t21.5 -45q25 -52 51 -110q31 -71 56.5 -119t53 -77.5t63 -42.5t88.5 -13q40 0 69 12t51 38 q33 38 51.5 106t21.5 159q0 12 -1 41.5t-3 61t-3.5 58t-2.5 32.5l196 25q0 -2 4 -33t7 -80q7 -71 18 -144.5t31 -134.5q15 -45 31.5 -69.5t31 -35.5t26.5 -13t19 -2q32 0 46.5 8.5t22.5 17.5q9 11 21 39t18 81q3 30 3 71q1 30 -1 66q-4 84 -29 208z"/>
<glyph glyph-name="uni06F4" horiz-adv-x="1297" unicode="۴" d="M832 807q-66 1 -128 11t-114 32q-46 19 -84 46t-68 60l16 -110q14 -107 23 -216t13 -217t6 -212t2 -201h-199q0 215 -8 427q-8 213 -34 407t-75 364t-131 299l167 105q42 -66 76 -140t62 -161q11 48 32 92t55 83q30 36 68 66q39 30 81 50q42 22 89 34t95 14h17 q68 0 139 -21q80 -24 158 -75q28 -18 50 -36t40 -32q16 -14 26 -24t11 -10l-144 -136v-1l-11 11q-10 10 -30 26t-47 34t-59 34q-32 14 -68 24q-29 8 -60 8h-13q-55 -4 -105 -28t-86 -66q-10 -12 -20 -28t-17 -36t-11 -46q-4 -24 1 -53q9 -57 37 -94t82 -59q51 -21 121 -26 q22 -2 45 -2q50 0 103 8q75 10 131 32t81 41l86 -161q-51 -38 -113 -66t-156 -42q-34 -5 -67 -7t-65 -2z"/>
<glyph glyph-name="uni06F5" horiz-adv-x="1414" unicode="۵" d="M620 595l197 -2q-1 -32 1 -75t8 -89t15 -91q10 -45 27 -81q18 -37 42 -59t58 -22q38 0 68 16t54 47q24 32 38 78t20 98q2 26 2 53t-2 54q-5 55 -21 106q-41 129 -99 239q-58 109 -124 203t-136 170t-134 139q-72 -117 -128 -217t-96 -190t-68 -170q-28 -82 -46 -161 q-23 -112 -23 -201q0 -26 2 -48q8 -106 55 -163q24 -28 50 -39t44 -11q52 0 92 46t67 140q13 43 20 85t11 73q4 38 6 72zM968 -21h-1q-79 0 -145 39t-111 113q-3 3 -5 7t-4 9q-8 -15 -17 -27t-20 -24q-48 -56 -109 -86t-132 -30q-68 0 -134 34t-114 92q-36 46 -60 102 t-32 125q-8 53 -8 112q0 25 1 50q5 87 26 187q19 91 51 184t78 194q46 102 109 214t146 242q-11 10 -21 20t-18 19l140 140q14 -16 34 -34t43 -40q69 -63 158 -150t179 -201q109 -136 187 -282t127 -301q21 -69 29 -143q4 -37 4 -74t-4 -74q-8 -80 -32 -150t-65 -124 q-51 -71 -122 -107t-158 -36z"/>
<glyph glyph-name="uni06F6" horiz-adv-x="1069" unicode="۶" d="M198 -2l-189 61q1 3 15 41t40 101q28 62 70 142t99 168q123 188 269 325q-70 4 -132 24t-112 54q-50 32 -84 76q-35 44 -50 96q-17 59 -17 118q1 6 1 10q2 64 22 122q21 60 60 114t95 95q63 49 137 77t157 33q17 1 33 1q71 0 142 -18q87 -22 168 -69l-101 -171 q-63 38 -123 50q-44 9 -86 10q-15 0 -29 -2q-53 -4 -99 -23t-79 -44q-63 -49 -87 -114q-13 -35 -13 -72q0 -31 9 -62q6 -19 24 -38t48 -35q28 -16 66 -25q38 -10 82 -10h14q44 -1 92 5q54 6 106 17q52 10 96 22t77 22q19 7 37 13t36 11l61 -189q-2 -2 -21 -8t-52 -16 q-103 -39 -191 -98t-162 -130q-75 -71 -135 -149q-60 -77 -108 -153t-82 -144q-35 -68 -58 -122q-23 -52 -34 -84t-12 -32z"/>
<glyph glyph-name="uni06F7" horiz-adv-x="1314" unicode="۷" d="M740 -13h-198q0 247 -44.5 465t-117 411t-164.5 363.5t-187 321.5l166 106q67 -105 123.5 -204t104.5 -194.5t87.5 -187.5t72.5 -184q23 -66 42.5 -130t35.5 -130q30 102 65.5 205t73.5 202t76.5 190.5t76.5 172t72.5 147t64.5 113.5l166 -106q-33 -54 -73 -133 t-82.5 -175t-85.5 -204t-82 -218q-45 -127 -80.5 -245t-60 -222t-38 -193t-14.5 -157v-14z"/>
<glyph glyph-name="uni06F8" horiz-adv-x="1347" unicode="۸" d="M1132 -11q-30 47 -64.5 113t-72.5 146t-76.5 172t-76.5 190.5t-73.5 201.5t-65.5 205q-31 -129 -78 -259q-65 -183 -160 -371t-228 -398l-166 105q95 151 187 321.5t164.5 363.5t117 411t44.5 465h198q0 -68 13 -157.5t37.5 -196t60.5 -227.5t82 -251q39 -110 82 -217.5 t85.5 -203.5t82.5 -175t73 -133z"/>
<glyph glyph-name="uni06F9" horiz-adv-x="1130" unicode="۹" d="M433 1468q-37 0 -78 -50q-29 -34 -51 -82.5t-33 -106.5q-7 -31 -7 -57q0 -47 22 -79q15 -20 37.5 -33.5t47.5 -22t49.5 -13t42.5 -5.5q21 -2 40 -2q35 0 65 8q46 13 75 27q-11 77 -28 143t-38 118q-11 26 -25.5 53t-32 49.5t-39 37t-45.5 15.5h-2zM989 -13 q-103 63 -176 248q-28 66 -52 149t-45 181q-17 79 -29 152t-20 131q-55 -18 -111 -25q-33 -4 -66 -4q-24 0 -47 2q-109 11 -188.5 50.5t-127.5 105.5q-61 82 -61 191q0 49 12 103q17 82 48.5 151.5t77.5 122.5q51 61 112 91q57 29 118 29h8q36 -2 77 -14t83 -42.5t83 -83.5 t76 -137q24 -57 40.5 -119t27.5 -123.5t18 -120t10 -109.5q8 -58 21 -139t33 -171q38 -184 85 -297q17 -43 32 -71t28 -45t22.5 -25.5t14.5 -11.5z"/>
<glyph glyph-name="uni06FA" horiz-adv-x="2694" unicode="ۺ" d="M2369 736q5 -10 18.5 -36t31 -64t36 -86t34 -101t25.5 -110t10 -112q-1 -86 -20.5 -161t-60 -131t-104.5 -88t-155 -32q-28 0 -60 8.5t-64 25t-61 41.5t-50 57q-60 -71 -135 -100t-159 -33h-17q-38 0 -68 7q-37 9 -63 21q-31 14 -53 33q1 -17 1 -34q-1 -71 -11 -137 q-12 -84 -43 -159t-82.5 -140t-127.5 -115q-92 -63 -208.5 -96t-261.5 -40q-10 0 -20 -0.5t-19 -0.5q-132 0 -240.5 37.5t-193.5 112.5q-76 67 -125.5 161t-65.5 205q-9 55 -9 111v12q1 62 8 118.5t19 107t24 90.5q31 102 66.5 174.5t61.5 107.5l159 -117q-20 -26 -47.5 -87 t-51 -141t-35.5 -171q-6 -45 -5 -88q0 -45 6 -89q4 -26 13.5 -62t29 -74t50 -75.5t76.5 -67t109.5 -48t147.5 -18.5h33q213 9 342.5 84t174.5 214q27 82 29 165v28q0 69 -10 134q-12 79 -36 150.5t-49 129.5q-24 54 -41.5 83t-17.5 31l167 108q6 -16 16 -38 q8 -19 19.5 -45.5t27.5 -61.5q27 -63 56.5 -121.5t66 -103.5t82.5 -71q43 -24 98 -24h9q52 1 84.5 21t52 53t27.5 77q8 43 10 93q2 31 1 64q-1 18 -1 38q-1 32 0 63v40l203 20l2 -30q1 -13 1 -28t1 -28q1 -25 3.5 -63.5t8.5 -82t17 -87.5t28.5 -79.5t43.5 -57.5t63 -22 q34 0 60.5 19.5t44.5 52.5t26 75q6 34 6 71v18q-3 64 -18.5 122.5t-35.5 110.5t-42 95t-38 75zM1769 1236l148 148l149 -149l-148 -148zM1573 976l162 163l164 -164l-162 -163zM1927 975l162 162l164 -164l-162 -162zM2077 -481l-163 -163l-164 164l163 163z"/>
<glyph glyph-name="uni06FB" horiz-adv-x="2795" unicode="ۻ" d="M1734 209q43 -15 98 -26t116 -16q44 -4 89 -4q18 0 36 1q64 2 126.5 12t120 29.5t104.5 49.5q115 72 127 205q1 21 -4 40.5t-13.5 36t-18.5 29.5t-18 21q-29 28 -61.5 44t-65.5 23q-29 6 -57 6h-7q-32 -1 -58 -7q-81 -14 -159.5 -56t-146.5 -106q-38 -36 -69.5 -74 t-57.5 -75t-46 -71t-35 -62zM772 -649q-24 0 -49.5 1t-51.5 5q-98 7 -179.5 31t-147.5 64q-63 37 -108.5 87.5t-78.5 113.5q-57 121 -57 275v5q0 63 10 128.5t28 137.5q15 60 34 114t38 97.5t34.5 74t24.5 43.5l166 -106q-8 -11 -26.5 -49t-39 -94.5t-39.5 -126.5 q-20 -70 -28 -141q-5 -42 -4 -84q0 -29 2 -59q6 -70 35 -128q79 -164 353 -187q44 -4 85 -4q219 0 345 109q43 36 71.5 78.5t46.5 87.5t26 89t11 82q2 26 2 52q0 61 -10 124q-14 91 -35 171.5t-42.5 143t-31.5 89.5q-4 4 -5 8.5t-4 9.5l184 77l8 -23q32 -75 72 -142t75 -122 q13 -20 31.5 -39.5t42.5 -39.5q18 33 42 73t55 83t67.5 87t80.5 86q89 85 194 140t214 75q53 9 103 9q70 0 134 -18q108 -31 188 -115q60 -60 87 -130q23 -59 23 -123q0 -12 -1 -24q-8 -114 -62.5 -204.5t-151.5 -153.5q-54 -35 -114 -58t-119 -36.5t-115 -20t-104 -7.5 q-27 -1 -53 -1q-86 0 -172 12q-112 16 -201 49q-51 20 -97 44t-87 53q2 -37 1.5 -73t-1.5 -71q-10 -139 -63 -255q-29 -66 -69.5 -120.5t-91.5 -98.5q-184 -155 -475 -155zM2380 -372l-163 -163l-164 164l163 163zM2375 1131l-163 -163l-164 164l163 163z"/>
<glyph glyph-name="uni06FC" horiz-adv-x="1438" unicode="ۼ" d="M803 -753q-93 0 -165 9t-113 22q-115 34 -203 85.5t-153 121.5q-81 89 -117 195q-29 87 -29 190q0 23 1 47q5 101 41.5 192.5t102.5 176.5q112 141 291 231q21 12 42.5 21.5t44.5 19.5l-6 4q-136 94 -152 265q-3 26 -3 51q0 62 18 120q25 82 84 149q63 72 147 113t178 45 h20q145 0 295 -96q56 -37 88.5 -67.5t37.5 -33.5l-144 -137q-41 40 -88 71q-40 26 -92 47q-47 19 -97 19h-10q-54 -3 -102.5 -25.5t-82.5 -64.5q-21 -25 -39 -67q-15 -33 -15 -79q0 -12 1 -26q8 -80 68 -122q50 -33 136 -50q44 -9 95 -9q48 0 102 8q46 6 87.5 12.5 t73.5 11.5q37 6 69 12l42 -192q-2 0 -21.5 -3.5t-54 -9t-81 -13.5t-101.5 -17q-87 -14 -151.5 -28.5t-116 -30t-94.5 -34t-88 -40.5q-24 -11 -56 -30.5t-67.5 -47t-70.5 -63.5t-63.5 -80.5t-47.5 -98t-23 -116.5q-1 -16 -1 -32q0 -301 359 -404q19 -6 55 -12q36 -5 82 -9 q41 -3 89 -4h14q56 0 116 8q49 6 107 17t116.5 31.5t115.5 51t105 75.5l134 -144q-74 -70 -163 -115.5t-182.5 -72.5t-187.5 -37.5t-177 -10.5zM937 -132l-163 -163l-164 164l163 163zM937 1602l-163 -163l-164 164l163 163z"/>
<glyph glyph-name="uni06FD" horiz-adv-x="974" unicode="۽" d="M711 517q-17 8 -36 15q-17 6 -39.5 12t-48.5 11q-20 3 -40 3q-24 0 -48 -4q-48 -12 -80.5 -47.5t-40.5 -80.5q-3 -21 3 -50q6 -26 21 -49.5t36 -42.5t47 -32t55 -17q15 -2 30 -3t30 4q38 6 75.5 18.5t67.5 24.5q34 14 66 31l64 -120q-59 -32 -148 -65.5t-216 -80.5 l-341 -126l-48 130l268 101q-52 32 -89.5 83t-51.5 109q-8 30 -8 61q0 22 4 44q6 43 25.5 82t49 70.5t68 54t82.5 32.5q43 10 85 10q27 0 55 -4q31 -5 60 -14t52 -17q26 -10 50 -21zM644 -560l-71 22q18 67 18 139v7q-1 75 -18 141l72 22q17 -61 19 -143v-17q0 -76 -20 -171 zM439 -560l-71 22q18 67 18 139v7q-1 75 -18 141l72 22q17 -61 19 -143v-17q0 -76 -20 -171z"/>
<glyph glyph-name="uni06FE" horiz-adv-x="1178" unicode="۾" d="M556 346l63 -26q46 -20 89.5 -36.5t81.5 -30.5t58.5 -19t27.5 -6q8 5 19.5 25.5t22.5 62.5q12 45 14 93v11q0 42 -11 82q-12 52 -32.5 80.5t-42 42t-41.5 16.5t-31 3h-2q-34 0 -76 -44q-43 -45 -84 -126q-18 -33 -31.5 -66.5t-24.5 -61.5zM134 -731l-37 927q0 6 0.5 28 t7.5 50.5t24 59t49 54.5q13 10 31.5 19.5t42.5 14t53.5 3.5t65.5 -11q11 34 27 72t37 79q31 58 62.5 102.5t63.5 77.5q98 96 211 96h9q81 -3 147 -35.5t114 -95.5q75 -103 85 -251q2 -23 2 -47q-1 -44 -7 -86q-10 -65 -33 -123q-29 -73 -75 -117t-104 -54q-28 -4 -62 1 t-78 18.5t-99.5 35t-127.5 50.5q-56 24 -111.5 46t-105.5 38q-9 3 -16.5 5t-12.5 2q-3 -15 -3 -24l36 -935h-196zM787 -511l-71 22q18 67 18 139v7q-1 75 -18 141l72 22q17 -61 19 -143v-17q0 -76 -20 -171zM576 -506l-71 22q18 67 18 139v7q-1 75 -18 141l72 22 q17 -61 19 -143v-17q0 -76 -20 -171z"/>
<glyph glyph-name="uni0750" horiz-adv-x="1938" unicode="ݐ" d="M937 0q-359 3 -575 83q-206 80 -280 229q-42 81 -42 176t39 198q14 36 29 66t27.5 52t21.5 35.5l11 16.5l159 -118q-6 -8 -12 -17t-11 -19q-10 -17 -21 -39.5t-21 -50.5q-24 -66 -24 -121q0 -50 20 -89q49 -98 224 -150.5t455 -53.5q80 0 175 6.5t193.5 23.5t196 46.5 t181.5 76.5q-4 45 -19 94.5t-36 97.5t-44 91.5t-43 77t-33 54t-14 21.5l166 108q1 -2 13 -20t29 -48t38.5 -70t42.5 -86.5t39 -97.5t30 -102t16 -91q1 -11 0 -21q0 -29 -6 -53q-10 -34 -35.5 -63t-72.5 -59q-45 -28 -105 -52.5t-129.5 -45.5t-144.5 -37t-151 -27.5 t-149 -17.5q-62 -5 -118 -4h-20zM1512 -342l-163 -163l-164 164l163 163zM796 -333l-163 -163l-164 164l163 163zM1156 -336l-163 -163l-164 164l163 163z"/>
<glyph glyph-name="zeronojoin" unicode="‌"/>
<glyph glyph-name="endash" horiz-adv-x="1135" unicode="–" d="M-4 458v145h1139v-145h-1139z"/>
<glyph glyph-name="emdash" horiz-adv-x="2048" unicode="—" d="M0 458v145h2048v-145h-2048z"/>
<glyph glyph-name="quoteleft" horiz-adv-x="515" unicode="‘" d="M321 1220v-209h-193v165q0 134 32 194q42 80 133 121l44 -70q-55 -23 -81 -69t-29 -132h94z"/>
<glyph glyph-name="quotesinglbase" horiz-adv-x="488" unicode="‚" d="M124 0v209h193v-165q0 -134 -31 -193q-43 -81 -134 -122l-44 71q54 22 80 70t30 130h-94z"/>
<glyph glyph-name="quotedblleft" horiz-adv-x="687" unicode="“" d="M586 1220v-209h-193v165q0 134 32 194q42 80 133 121l44 -70q-55 -23 -81 -69t-29 -132h94zM276 1220v-209h-193v165q0 134 32 194q42 80 133 121l44 -70q-55 -23 -81 -69t-29 -132h94z"/>
<glyph glyph-name="quotedblright" horiz-adv-x="692" unicode="”" d="M397 1272v209h193v-165q0 -134 -31 -193q-43 -81 -134 -122l-44 71q55 22 81 70t29 130h-94zM87 1272v209h193v-165q0 -134 -31 -193q-43 -81 -134 -122l-44 71q55 22 81 70t29 130h-94z"/>
<glyph glyph-name="dagger" horiz-adv-x="1151" unicode="†" d="M472 -346v1212h-399v160h399v406h180v-406h402v-160h-402v-1212h-180z"/>
<glyph glyph-name="daggerdbl" horiz-adv-x="1201" unicode="‡" d="M475 -346v370h-402v161h402v725h-402v161h402v375h180v-375h403v-161h-403v-725h403v-161h-403v-370h-180z"/>
<glyph glyph-name="ellipsis" horiz-adv-x="2059" unicode="…" d="M1604 0v205h206v-205h-206zM922 0v205h205v-205h-205zM239 0v205h205v-205h-205z"/>
<glyph glyph-name="perthousand" horiz-adv-x="2092" unicode="‰" d="M1585 328q-1 -150 39 -204t105 -54q59 0 91 45q43 61 43 215q0 153 -44 215q-34 47 -94 47q-62 0 -95 -46q-45 -62 -45 -218zM1437 336q1 200 79 290t207 90q128 0 208 -91t80 -285q1 -196 -69 -295t-217 -99q-128 0 -208 92t-80 298zM911 328q-1 -150 39 -204t105 -54 q59 0 91 45q43 61 43 215q0 153 -45 215q-34 47 -93 47q-62 0 -95 -46q-45 -62 -45 -218zM763 336q1 200 79 290t206 90t208 -91t81 -285q0 -196 -70 -295t-216 -99q-128 0 -208 92t-80 298zM185 1091q-1 -152 39 -205t105 -53q59 0 91 45q43 60 43 215q0 152 -44 215 q-34 47 -94 47q-62 0 -95 -46q-45 -63 -45 -218zM37 1099q1 199 79 289t207 91q128 0 208 -91t80 -285q0 -195 -70 -295t-216 -100q-128 0 -208 93t-80 298zM320 -54l601 1545h131l-600 -1545h-132z"/>
<glyph glyph-name="guilsinglleft" horiz-adv-x="718" unicode="‹" d="M291 527l265 -455h-149l-315 455l315 457h149z"/>
<glyph glyph-name="guilsinglright" horiz-adv-x="647" unicode="›" d="M357 530l-265 454h149l304 -448l-304 -464h-149z"/>
<glyph glyph-name="Euro" horiz-adv-x="1144" unicode="€" d="M790 1325q-168 0 -282 -81q-68 -48 -123 -136q-56 -91 -66 -173h682l-27 -134h-671q-1 -21 -1 -40q0 -77 1 -92h644l-28 -134h-595q42 -229 202 -325q115 -69 249 -69q187 0 292 98v-206q-125 -58 -276 -58q-452 0 -611 376q-32 76 -55 184h-153l28 134h105q-3 42 -3 91 q0 20 1 41h-131l28 134h116q62 326 323 468q161 88 355 88q186 0 313 -81l-40 -186q-122 101 -277 101z"/>
<glyph glyph-name="trademark" horiz-adv-x="2195" unicode="™" d="M982 651v815h200l206 -651l199 651h196v-815h-124v684l-210 -684h-123l-219 694v-694h-125zM489 651v694h-264v121h666v-121h-266v-694h-136z"/>
<glyph glyph-name="feh_dotless.isol" d="M1453 555q52 -3 95.5 -3t77.5 3q-9 50 -22.5 111t-37 116.5t-60.5 98t-93 54.5q-16 3 -36.5 -12t-39.5 -42.5t-35 -63t-23 -72.5q-4 -24 -4 -46q0 -13 1 -27q4 -36 25 -61q18 -24 58 -38.5t94 -17.5zM1653 1013q46 -50 84 -124t60.5 -161.5t26.5 -183.5v-25 q0 -83 -20 -167q-3 -14 -11 -37t-26.5 -51.5t-49.5 -60.5t-80 -62q-55 -35 -135.5 -61.5t-177.5 -44t-206.5 -26t-223.5 -8.5q-606 0 -784 304q-40 67 -54 137q-12 59 -13 115q1 9 1 19q2 66 15.5 125t29 103.5t29 72t14.5 31.5l174 -95q0 -1 -9 -19.5t-20 -50t-21.5 -72.5 t-13.5 -87q-1 -12 -1 -24q0 -34 6 -68q8 -46 34 -88q30 -50 79.5 -88.5t121 -65t166.5 -41.5t217 -18q48 -1 92 -1q87 0 157 5q104 8 179 23t125.5 34.5t85.5 38.5q33 17 53.5 33.5t32.5 30.5h-51h-48.5t-50.5 3q-199 12 -294 131q-15 18 -29 43.5t-23 59.5q-8 32 -10 74v17 q0 35 6 75q11 64 37 130.5t66.5 120.5t95.5 88.5t124 34.5q133 0 240 -119z" horiz-adv-x="1866"/>
<glyph glyph-name="onedot.above" d="M687 1224l-163 -163l-164 164l163 163z" horiz-adv-x="1024"/>
<glyph glyph-name="twodots.above" d="M859 1021l-162 -163l-164 164l162 162zM519 1022l-162 -162l-164 163l162 163z" horiz-adv-x="1024"/>
<glyph glyph-name="threedots.above" d="M421 1413l148 148l149 -149l-148 -148zM225 1153l162 163l164 -164l-162 -163zM579 1152l162 162l164 -164l-162 -162z" horiz-adv-x="1151"/>
<glyph glyph-name="threedots.below" d="M400 -480l148 148l149 -149l-148 -148zM879 -233l-162 -163l-164 164l162 163zM525 -232l-162 -162l-164 164l162 162z" horiz-adv-x="1057"/>
<glyph glyph-name="wasla" d="M-219 1304l-18 68q26 13 52 22q22 8 45.5 13t40.5 1t30.5 -10.5t23.5 -14.5q11 -9 19 -19q10 19 33 57t61 75q29 28 64 46.5t71 23.5q19 4 38 4q21 0 41 -6q36 -10 62 -38q18 -20 28 -43q7 -17 8 -37q0 -6 -1 -12q-2 -62 -53 -104q-22 -18 -49.5 -29t-57 -17.5t-60 -9 t-57.5 -2.5q-29 0 -52 2t-33 3q-25 3 -49 14q-14 6 -26.5 15.5t-26.5 28.5q-16 12 -39 9t-44 -12q-25 -11 -51 -28zM37 1341q27 -3 61 -3q4 0 8 -1q30 0 60 4q34 4 66.5 13.5t53.5 27.5q26 23 29 57q0 14 -6.5 25t-11.5 16q-20 22 -42 24q-10 1 -19 1q-11 0 -21 -2 q-27 -5 -53.5 -18.5t-49.5 -36.5q-29 -29 -48 -59.5t-27 -47.5z"/>
<glyph glyph-name="onedot.below" d="M603 -358l-163 -163l-164 164l163 163z" horiz-adv-x="1024"/>
<glyph glyph-name="twodots.below" d="M857 -364l-162 -163l-164 164l162 162zM517 -363l-162 -162l-164 163l162 163z" horiz-adv-x="1024"/>
<glyph glyph-name="alef_alt.isol" d="M387 -7l-197 11q14 228 18 430q2 94 2 182q0 100 -2 192q-4 172 -12.5 280t-17.5 204t-15.5 148.5t-6.5 53.5l196 30q2 -6 15 -120.5t22 -238t13.5 -247t4.5 -268t-3.5 -310.5t-16.5 -347z" horiz-adv-x="582"/>
<glyph glyph-name="twodots.small.above" d="M747 982l-116 -116l-117 117l116 116zM512 983l-116 -116l-117 117l116 116z" horiz-adv-x="1024"/>
<glyph glyph-name="twodots.vert.above" orientation="v" horiz-adv-x="647" d="M477 1024l-163 -163l-164 164l163 163zM478 1413l-163 -163l-164 164l163 163z"/>
<glyph glyph-name="twodots.vert.below" orientation="v" horiz-adv-x="676" d="M491 -692l-163 -163l-164 164l163 163zM482 -293l-163 -163l-164 164l163 163z"/>
<glyph glyph-name="twodots.vert.small.below" orientation="v" horiz-adv-x="676" d="M459 -573l-116 -116l-117 117l116 116zM459 -306l-116 -116l-117 117l116 116z"/>
<glyph glyph-name="threedots.small.above" d="M451 1234l116 116l117 -117l-116 -116zM331 1038l116 116l117 -117l-116 -116zM584 1037l116 116l117 -117l-116 -116z" horiz-adv-x="1151"/>
<glyph glyph-name="threedots.small.below" d="M652 -564l-116 -116l-117 117l116 116zM772 -368l-116 -116l-117 117l116 116zM519 -367l-116 -116l-117 117l116 116z" horiz-adv-x="1057"/>
<glyph glyph-name="fourdots.above" d="M490 1396l-162 -162l-164 163l162 163zM850 1402l-162 -163l-164 164l162 162zM493 995l-162 -162l-164 163l162 163zM853 1001l-162 -163l-164 164l162 162z" horiz-adv-x="1024"/>
<glyph glyph-name="fourdots.below" d="M491 -291l-162 -162l-164 163l162 163zM851 -285l-162 -163l-164 164l162 162zM494 -692l-162 -162l-164 163l162 163zM854 -686l-162 -163l-164 164l162 162z" horiz-adv-x="1024"/>
<glyph glyph-name="threedots.horz.below" d="M1105 -342l-163 -163l-164 164l163 163zM389 -333l-163 -163l-164 164l163 163zM749 -336l-163 -163l-164 164l163 163z" horiz-adv-x="1161"/>
<glyph glyph-name="smallv.arabic" d="M355 966l-105 6q-18 56 -40.5 114t-48 108.5t-52 89.5t-52.5 57l64 92q74 -51 146 -197q11 -22 20.5 -43.5t17.5 -42.5q5 12 8.5 24.5t7.5 23.5q15 45 29.5 86.5t31.5 78t37 68t47 56.5l77 -82q-19 -18 -34.5 -43.5t-29 -56.5t-26 -67t-25.5 -75q-15 -46 -32.5 -96 t-40.5 -101z" horiz-adv-x="563"/>
<glyph glyph-name="circumflex.arabic" d="M307 1452q18 -56 40.5 -114t48 -108.5t52 -89.5t52.5 -57l-64 -92q-74 51 -146 197q-11 22 -20.5 43.5t-17.5 42.5q-5 -12 -8.5 -24.5t-7.5 -23.5q-15 -45 -29.5 -86.5t-31.5 -78t-37 -68t-47 -56.5l-77 82q37 36 63 100t52 142q15 46 32.5 96t40.5 101z" horiz-adv-x="585"/>
<glyph glyph-name="hamza_medial" d="M377 1294q-12 3 -27 6q-13 2 -29.5 4.5t-35.5 2.5q-15 0 -30.5 -2.5t-31.5 -9.5v2q-32 -14 -51.5 -42.5t-19.5 -61.5q0 -17 8 -36l-1 1q14 -35 49.5 -58.5t78.5 -23.5q11 0 21 1t21 6q26 8 51 21t45 25q23 14 43 29l59 -78q-39 -29 -98 -62t-144 -80l-227 -126l-48 87 l179 100q-41 17 -72.5 49t-48.5 71q-14 34 -14 74q0 31 9.5 60.5t27 55t42 45.5t54.5 32q47 19 98 19q23 0 44 -3t38 -7q19 -4 38 -9z"/>
<glyph glyph-name="wavyhamza_above" d="M330 1501q-17 17 -37 31q-18 12 -42.5 22t-56.5 10q-27 0 -47 -9t-33.5 -24t-20.5 -35t-7 -41q0 -29 13 -52.5t34.5 -40t49.5 -25.5t59 -7q27 2 52 5.5t45 6.5q23 4 42 8l12 -87q-26 -7 -59 -17.5t-76 -17.5q-42 -8 -98 -8h-5q-54 0 -123 13q-9 1 -21.5 5t-26 7.5t-26 6 t-21.5 1.5q-28 -2 -46 -8.5t-31 -15.5t-23.5 -19.5t-23.5 -21.5l-48 65q12 11 27.5 26t34.5 29t43 25t53 14q12 2 34 -3t44 -12q26 -8 55 -18q-33 31 -46.5 65t-13.5 76q0 40 15 76.5t41.5 63.5t62.5 43t79 16t78 -13t61 -29q30 -18 53 -42z"/>
</font>
</defs>
</svg>
