<?xml version="1.0" encoding="UTF-8" standalone="no"?>
<!DOCTYPE svg  PUBLIC '-//W3C//DTD SVG 1.1//EN'  'http://www.w3.org/Graphics/SVG/1.1/DTD/svg11.dtd'>
<svg xmlns="http://www.w3.org/2000/svg">
<defs>
<font id="IRANSans-Bold" horiz-adv-x="0">
<font-face underline-position="-103" font-weight="700" descent="-410" panose-1="2 11 8 6 3 8 4 2 2 4" units-per-em="2048" unicode-range="U+0020-2122" bbox="-755 -1287 3949 2065" x-height="1062" underline-thickness="102" font-family="IRANSans" ascent="1638" cap-height="1466"/>
<missing-glyph horiz-adv-x="2048"/>
<glyph arabic-form="isolated" glyph-name="uni0621" horiz-adv-x="1300" unicode="ء" d="M860 473q-13 7 -30 13q-14 5 -35 10.5t-47 10.5q-10 1 -35.5 1t-52.5 -8.5t-50 -28.5t-29 -59q-3 -23 4.5 -47t24 -44.5t40.5 -34.5t54 -15h10q30 -1 68 9q44 12 81 26q45 17 91 38l85 -159q-59 -32 -148 -65.5t-216 -80.5l-341 -126l-69 179l241 89q-30 29 -55.5 66.5 t-37.5 88.5q-6 25 -7.5 50.5t3.5 54.5q6 43 25.5 82t49 70.5t68 54t82.5 32.5q43 10 85 10q27 0 55 -4q31 -5 60 -14t52 -17q26 -10 50 -21z"/>
<glyph arabic-form="isolated" glyph-name="uni0627" horiz-adv-x="540" unicode="ا" d="M354 1416q2 -8 8.5 -36.5t13 -90t11.5 -161.5q5 -91 5 -224v-26q0 -150 -8 -357t-26 -482l-245 -37q13 205 21 373t10 301q2 111 2 198v34q0 100 -4 169q-3 76 -7.5 128.5t-8.5 84.5q-4 34 -6 48l-3 13z"/>
<glyph arabic-form="isolated" glyph-name="uni062D" horiz-adv-x="1579" unicode="ح" d="M964 382q-63 -15 -128.5 -36.5t-128.5 -49t-122 -63t-110 -79.5q-28 -25 -52.5 -62.5t-40.5 -81.5q-16 -46 -19 -94q-1 -11 -1 -22q0 -37 10 -74q16 -58 53 -100t85.5 -70.5t102.5 -46t105 -26.5q58 -11 121 -11q76 0 161 16q156 28 353 110l94 -227q-347 -144 -610 -144 q-44 0 -84.5 3.5t-80.5 10.5q-222 42 -362 156q-66 53 -110 119.5t-64 144.5q-19 68 -19 139q1 11 1 23q4 83 30 166q25 75 67.5 141t97.5 115q60 52 140 93.5t166 73.5t171.5 56t157.5 42q-43 23 -90 50.5t-98 59.5q-82 53 -157 53q-25 0 -50 -6q-43 -11 -80.5 -36.5 t-67.5 -54.5t-51 -57.5t-30 -44.5v1l-213 120q2 5 27 43t70 87q64 69 136 114.5t148 65.5q48 11 96 13h19l77 -6q53 -9 106 -29t102 -55q130 -93 231 -142.5t170 -71t105 -24.5t37 -3l-76 -234q-2 0 -41.5 -6t-111.5 -15z"/>
<glyph arabic-form="isolated" glyph-name="uni062F" horiz-adv-x="1047" unicode="د" d="M750 775q90 -107 134 -199q44 -90 54 -166q5 -33 5 -64q0 -38 -8 -72q-14 -60 -39 -105q-12 -20 -30.5 -42.5t-45.5 -44t-64.5 -39.5t-87.5 -29q-70 -14 -150 -14q-24 0 -48.5 1t-50.5 4q-57 5 -109.5 12.5t-93 14t-65.5 11.5t-27 5l56 227q1 0 23.5 -4.5t59.5 -10.5 t83.5 -11.5t94.5 -6.5h26q96 0 146 13q56 15 68 35q15 28 15 60q0 10 -2 21q-6 44 -27 88.5t-50 85.5t-54 71q-41 48 -82.5 88.5t-75.5 70.5t-56 47l-22 17l145 198q2 -2 28 -22t66 -55t88.5 -82t95.5 -103z"/>
<glyph arabic-form="isolated" glyph-name="uni0631" horiz-adv-x="909" unicode="ر" d="M706 423q46 -121 54 -226q2 -23 2 -46q0 -79 -23 -150q-23 -70 -63.5 -137.5t-97.5 -131.5q-88 -100 -211 -187q-103 -75 -161.5 -107.5t-62.5 -34.5l-116 206q1 1 30.5 16.5t75 44t100.5 70t108 93t97.5 114t67.5 132.5q11 33 11 73q0 76 -39 179q-12 33 -25.5 60.5 t-24.5 48t-18.5 32.5t-8.5 12l206 136q1 -2 10.5 -17t23.5 -41t31.5 -61.5t33.5 -77.5z"/>
<glyph arabic-form="isolated" glyph-name="uni0633" horiz-adv-x="2556" unicode="س" d="M2390 722q78 -147 78 -291q0 -95 -24.5 -171.5t-70.5 -130.5t-112 -84t-148 -32h-9q-66 0 -126 28q-64 30 -116 90q-5 6 -10 12.5t-10 13.5q-8 -11 -15.5 -20.5t-15.5 -18.5q-45 -51 -104 -77.5t-128 -27.5h-8q-72 0 -140 33q-1 -20 -2.5 -39t-5.5 -36 q-21 -104 -78.5 -195.5t-144.5 -160.5q-45 -35 -94.5 -62t-103.5 -46q-114 -41 -237 -41q-267 0 -426 120q-32 24 -65.5 60.5t-60.5 87t-44.5 117t-17.5 151.5q0 233 85 420q16 35 31.5 62t28.5 46.5t22.5 30.5t12.5 15l180 -168q-8 -11 -17 -24q-8 -13 -18 -31t-21 -43 q-29 -67 -43.5 -144.5t-14.5 -163.5q0 -152 90 -220q46 -35 116.5 -52.5t161.5 -17.5q87 0 159 26.5t125.5 70t87 99t45.5 112.5q5 25 5 56q-1 36 -7 80q-12 84 -45 190q-9 27 -18 51.5t-17 47.5q-24 52 -37 75t-14 25l226 102q2 -3 16.5 -28t34.5 -78q13 -25 27.5 -53 t32.5 -56q50 -82 100 -127.5t88 -45.5q34 0 54 23q23 26 39.5 77t23.5 119q3 28 3.5 56t0 51t-1 38.5t-0.5 17.5v1l245 1v-2q0 -2 2.5 -22.5t7.5 -52t14 -70.5t23 -78q6 -18 17 -45t26.5 -52.5t35 -43.5t42.5 -18h1q14 0 34 3t38 19.5t30.5 51.5t12.5 98q0 41 -12 82 t-28 75.5t-33 61t-26 38.5l188 156q4 -4 27.5 -36t51.5 -86z"/>
<glyph arabic-form="isolated" glyph-name="uni0635" horiz-adv-x="2605" unicode="ص" d="M1784 459q-48 -45 -83.5 -94t-61.5 -92q44 -11 96 -16.5t109 -5.5q83 0 163 16t140 56q85 51 89 144v9q0 34 -20 58q-24 28 -58 42q-32 14 -70 18q-10 1 -20 1q-25 0 -44 -6q-63 -11 -124.5 -44.5t-115.5 -85.5zM2487 451q-6 -85 -47.5 -166t-121.5 -144.5t-200 -102 t-283 -38.5q-68 0 -123.5 4t-106.5 15.5t-101.5 31t-108.5 50.5q0 -72 -14.5 -142.5t-44.5 -139.5q-53 -121 -150 -203q-167 -143 -432 -143q-20 0 -43.5 1t-46.5 3q-88 9 -162.5 29.5t-136.5 58.5h2q-120 70 -178 190h1q-29 57 -42 121q-12 60 -12 127v10q1 57 9.5 115 t24.5 123q13 54 32.5 106.5t39.5 97t38 78t28 49.5l211 -136q-5 -8 -16.5 -31.5t-26.5 -57.5t-30.5 -76t-28.5 -88t-21.5 -93.5t-8.5 -92.5q0 -39 6 -75.5t22 -66.5q29 -60 98 -93.5t173 -44.5q17 -1 33 -1.5t32 -0.5q86 0 154.5 21t118.5 61q30 28 51 61.5t35.5 68t22 68.5 t9.5 63q1 11 1 21v21q0 66 -12.5 135t-28.5 128.5t-31.5 104t-22.5 63.5l-11 33l-10 28l226 94q19 -50 37.5 -97t38 -87t41.5 -70.5t48 -46.5q33 55 81.5 120.5t112.5 127.5q79 74 176.5 125t192.5 69q54 9 94 9q91 0 168.5 -31.5t137.5 -94.5q55 -58 83 -128 q23 -60 24 -119q0 -11 -1 -22z"/>
<glyph arabic-form="isolated" glyph-name="uni0637" horiz-adv-x="1520" unicode="ط" d="M564 1449q0 -4 4 -48t9.5 -117.5t11.5 -172t12 -212.5q2 -75 4 -140.5t3 -128.5q76 88 152.5 137.5t154.5 70.5q46 12 95 12q125 0 236 -84q49 -38 85.5 -96t51.5 -124q7 -30 9 -66q1 -11 1 -21q0 -27 -4 -57q-6 -42 -22.5 -87.5t-49.5 -93.5q-56 -81 -149.5 -132.5 t-235.5 -79.5q-20 -4 -51.5 -8t-72 -7t-88 -5t-98.5 -2q-34 0 -87 0.5t-121.5 5t-150 13.5t-171.5 27l34 222q42 -8 79.5 -13t66.5 -8q34 -4 64 -6q1 0 6.5 34t9.5 105.5t5 182.5v28q0 102 -6 236q-5 112 -12 216t-14 184t-11.5 128.5t-4.5 49.5zM626 220q193 13 318.5 44.5 t169.5 94.5q28 40 32 76q1 11 1 21q0 23 -6 43q-8 28 -22 46.5t-21 24.5q-26 20 -56 30q-15 5 -32 4q-16 0 -32 -4q-55 -15 -107 -58t-97.5 -98.5t-83 -115.5t-64.5 -108z"/>
<glyph arabic-form="isolated" glyph-name="uni0639" horiz-adv-x="1456" unicode="ع" d="M1193 -304l99 -226q-91 -40 -173 -64t-154.5 -36.5t-135.5 -17t-116 -4.5h-7q-299 0 -461 145q-41 36 -67 75t-42 75.5t-23 68t-9 54.5q-3 32 -3 64q1 88 25 167q34 108 111 197q33 38 69.5 67.5t70.5 51.5q-27 21 -48 42q-59 59 -88 133q-24 61 -24 125q0 13 1 26 q6 94 52 173t126 137q67 49 150 75t167 26q57 -1 115.5 -10t107.5 -19.5t81 -19t35 -9.5l-35 -118l-36 -117l-26 7q-26 8 -66 16.5t-87.5 15.5t-90.5 8q-45 0 -90.5 -14.5t-81.5 -39.5q-12 -9 -25 -21.5t-23.5 -28t-18 -35t-8.5 -43.5q-1 -4 -0.5 -13t4 -22t12 -28t23.5 -31 q42 -41 114 -60q57 -15 128 -15q19 0 39 1l301 15l-93 -220q-62 -8 -121 -18t-111 -21.5t-96 -23.5t-76 -23q-16 -6 -41.5 -19t-54.5 -34t-57 -50.5t-49.5 -69t-32.5 -89.5q-7 -32 -7 -69q0 -20 2 -42q1 -8 3.5 -20.5t9 -27.5t18 -32t29.5 -33q45 -41 121 -62t177 -21h6 q47 0 100 3.5t112.5 14.5t126.5 31t142 53z"/>
<glyph arabic-form="isolated" glyph-name="uni0643" horiz-adv-x="1921" unicode="ك" d="M1827 435q-6 -78 -34.5 -133.5t-78 -96t-119 -71.5t-159.5 -61q-89 -26 -190 -43.5t-209 -25.5q-81 -6 -165 -5q-28 1 -56 1q-113 2 -225 15q-244 30 -379 153q-121 109 -138 282q-3 27 -3 55q0 61 12 125q17 94 62 206l229 -91q-57 -137 -57 -237q0 -18 2 -34 q3 -40 17.5 -70.5t40.5 -54.5q38 -34 100 -56.5t145 -33.5q39 -5 100 -7q60 -4 128 -4h23q56 0 113 2q68 2 121 9q29 4 57 7t54 8q31 3 77.5 13.5t93 25.5t85.5 32t56 33q14 14 23 38t14.5 52.5t8 58t2.5 53.5v38v16v785h246v-774q0 -75 3 -125q2 -25 2 -46t-2 -39z M1237 674q-20 -7 -39.5 -11.5t-38.5 -9.5q-38 -11 -87.5 -25.5t-103.5 -32t-108.5 -37t-101.5 -39.5l-57 137q27 11 56 21.5t58 21.5q-52 51 -63 132q-2 14 -2 28q0 68 45 124q19 24 44 41.5t51.5 29.5t52.5 19t48 9q15 1 29 1q28 1 54 -5q38 -8 66 -22t44.5 -27t20.5 -17 l-100 -108q-2 2 -7 6q-8 6 -21.5 12t-31.5 10.5t-40 2.5q-28 -2 -54.5 -14.5t-40.5 -30.5q-13 -18 -12 -41q4 -23 11.5 -33.5t17.5 -15.5q6 -5 20 -10t37 -7.5t56 -0.5t79 13q33 10 53.5 15t23.5 7z"/>
<glyph arabic-form="isolated" glyph-name="uni0644" horiz-adv-x="1417" unicode="ل" d="M1292 39v-18.5v-27.5q-1 -32 -10 -75q-12 -72 -43.5 -134.5t-77.5 -114.5q-87 -95 -218.5 -142.5t-308.5 -47.5q-65 0 -128 11t-120 34q-68 26 -121.5 65t-93.5 90q-24 31 -47 73q-22 42 -36 98q-14 57 -15 126q0 67 20 147q9 39 21.5 82.5t26.5 85.5t27 80t24 68 t18 48.5t8 20.5l229 -89l-7 -17q-6 -16 -16 -43.5t-22.5 -63.5t-25 -75t-24.5 -78.5t-20 -74.5q-12 -52 -12 -96q0 -84 44 -140q19 -25 48 -44.5t64 -33t75 -21t83 -7.5q242 0 344 108q27 30 41 60t20 55.5t6 43v21.5l1 18q0 48 -0.5 109.5t-2 144t-2.5 188.5t-2.5 243.5 t-2 309.5t-0.5 385h246q0 -218 1 -391.5t2.5 -310.5t2.5 -241.5t2 -184t1.5 -139t0.5 -105.5z"/>
<glyph arabic-form="isolated" glyph-name="uni0645" horiz-adv-x="1315" unicode="م" d="M939 336q12 24 14.5 54t-4 60.5t-21.5 59t-36.5 48.5t-49.5 30t-61 3q-29 -5 -62 -47.5t-75 -127.5q14 -5 28 -12t29 -13q86 -41 206 -94q5 4 14.5 13t17.5 26zM1140 632q36 -72 50 -142q9 -45 9 -89q0 -25 -3 -50q-6 -61 -30.5 -114.5t-64.5 -95.5q-55 -56 -123 -79 q-36 -12 -71 -12h-10q-40 2 -75 17q-67 28 -123.5 54t-101.5 47q-66 31 -116.5 53t-82.5 30q-13 2 -17 2h-6q-1 0 -2 -1t-2 -1.5t-3 -2.5q-3 -2 -6 -5.5t-6.5 -11t-6.5 -20.5t-5 -34q-4 -25 -4 -63v-40.5v-44.5q0 -47 2.5 -101t4.5 -108l2.5 -105t3 -134.5t3 -146 t1.5 -139.5h-244q-1 64 -2.5 137.5t-3.5 143.5t-3.5 131.5t-2.5 103.5q-2 60 -4 117q-3 57 -3 108v33q0 32 1 61q1 43 4 74q3 27 9.5 57t19 60.5t33 60.5t52.5 56q74 61 167 61q15 0 30 -1q34 72 68.5 129t73.5 99t83.5 69t98.5 38q42 8 80 8q33 0 63 -6q65 -13 116 -43.5 t88 -73t59 -86.5z"/>
<glyph arabic-form="isolated" glyph-name="uni0647" horiz-adv-x="1024" unicode="ه" d="M715 327q2 14 2 27q0 107 -146 218q-35 25 -68.5 45.5t-62.5 34.5q-38 -51 -59.5 -89t-33.5 -67t-16.5 -53.5t-8.5 -48.5q-3 -32 2 -58t21 -45q18 -23 45 -36t48 -15q14 -1 27 -1.5t25 -0.5q58 0 100 10.5t69 25t40.5 29.5t15.5 24zM897 580q66 -108 66 -223 q0 -38 -7 -76q-12 -63 -53.5 -117.5t-107.5 -94.5q-63 -38 -140 -57.5t-165 -19.5q-19 0 -37.5 1t-37.5 3q-29 3 -63.5 12t-69.5 26.5t-68.5 42.5t-61.5 60q-16 21 -32 49t-27.5 64.5t-15.5 80.5q-1 16 -1 33q0 30 4 64q5 35 13.5 79t33.5 101q26 59 69.5 125.5t109.5 147.5 l55 70l84 -31q2 -1 26.5 -11t62 -28.5t85 -45.5t95.5 -63q120 -89 183 -192z"/>
<glyph arabic-form="isolated" glyph-name="uni0648" horiz-adv-x="978" unicode="و" d="M609 250h33t30 1q-2 87 -17 153.5t-40 117.5q-15 31 -31.5 49.5t-33 28.5t-32 13t-28.5 3q-31 0 -57 -14t-45.5 -37.5t-33 -53.5t-19.5 -62q-7 -33 -6 -57.5t8.5 -42.5t20 -31.5t29.5 -25.5q5 -4 18.5 -10.5t39.5 -13.5t66 -12t98 -6zM833 630q26 -52 42.5 -109 t25.5 -113.5t12.5 -110t3.5 -98.5q0 -199 -98 -359t-290 -274q-68 -40 -127.5 -66.5t-104.5 -42.5t-71.5 -22.5t-29.5 -6.5l-79 234l26 6q26 6 67.5 20t94 36t106.5 54q150 92 214 219h-19q-124 1 -212.5 22.5t-148.5 63.5q-34 24 -67.5 60t-57.5 85q-24 48 -32 112 q-3 23 -3 48q0 45 10 97q14 72 45 136t76 112q114 125 274 125q111 0 199 -58t144 -170z"/>
<glyph arabic-form="isolated" glyph-name="uni0649" horiz-adv-x="1598" unicode="ى" d="M1525 593q-77 17 -138 17h-21q-69 -4 -120 -22.5t-86.5 -48.5t-58.5 -64t-36 -67t-19 -58q-6 -26 -6 -39.5t1 -18.5q2 -3 3 -5t5 -5q16 -14 53 -26t74 -22q51 -14 103.5 -31t100.5 -49q64 -46 96 -110q31 -61 31 -137v-9q-3 -146 -102 -256q-38 -42 -89 -75.5t-115 -60.5 q-59 -24 -118.5 -39.5t-113 -24.5t-96 -12.5t-67.5 -4.5h-44q-219 0 -372 79q-107 57 -178 150q-75 102 -102 243q-12 66 -12 145v28q2 96 23 200q7 38 19 84.5t29.5 97.5t41.5 105t56 107l210 -129q-42 -69 -70.5 -150.5t-44 -162t-18.5 -154.5q-1 -17 -1 -32q0 -53 8 -94 q6 -31 17 -63.5t31.5 -63.5t52 -58.5t79.5 -47.5q47 -21 113 -31q51 -8 116 -8q18 0 38 1q15 0 48 2.5t75.5 9.5t90.5 18.5t94 30.5q57 24 88.5 49.5t46 49t17.5 43t3 30.5q0 14 -2 25t-16 21t-44 20.5t-86 25.5q-28 8 -57.5 16.5t-58.5 20t-57 26.5t-52 36q-22 19 -43 47 t-35 66t-16 88v14q0 44 13 98q7 30 21.5 71t40 86.5t63 92t91.5 86.5q52 39 111.5 64t126.5 37q58 11 122 11q92 0 195 -23z"/>
<glyph glyph-name="uni066F.init" horiz-adv-x="946" unicode="ٯ" d="M427 550q49 0 96 8t80 17q-11 49 -33 93t-56 74q-32 27 -58.5 38t-49.5 11q-37 0 -64.5 -20.5t-41.5 -43.5q-17 -26 -17 -67q0 -28 12 -54.5t42 -41.5q15 -8 39 -11t51 -3zM271 251q64 0 112.5 5t85 14.5t62 23t42.5 29.5q-68 -13 -146 -13q-53 0 -104.5 9t-97.5 34l1 -1 q-50 25 -85 60t-56.5 75.5t-31.5 84.5t-10 88q0 54 14.5 104.5t38.5 89.5q19 31 50 62.5t70.5 57t87.5 41.5t102 16q63 0 129.5 -24.5t134.5 -82.5q51 -44 86.5 -102.5t58 -122t33 -127.5t10.5 -121q0 -60 -10.5 -110.5t-27.5 -83.5q-23 -44 -62.5 -90t-104 -83t-158 -60.5 t-224.5 -23.5h-276q-26 0 -48.5 10t-39.5 27.5t-27 40t-10 48.5q0 25 10 48t27 40t39.5 27t48.5 10h276z"/>
<glyph arabic-form="isolated" glyph-name="uni06A9" horiz-adv-x="2115" unicode="ک" d="M1512 893q52 -62 93 -119t70 -111q67 -130 67 -242q0 -21 -2 -42q-2 -8 -7 -33.5t-18.5 -60t-36.5 -74t-60 -74.5q-43 -42 -100.5 -70t-135.5 -45q-73 -17 -170.5 -25t-224.5 -8h-14q-11 0 -35 1t-55.5 2.5t-68 3.5t-71.5 5t-66.5 6t-52.5 6q-81 13 -154.5 39.5 t-135.5 64t-112 84t-84 98.5q-70 107 -70 241q0 133 74 289l222 -105q-32 -70 -42 -120q-7 -38 -8 -68q0 -10 1 -18q3 -34 13 -54.5t16 -30.5q38 -60 130 -104t226 -68q56 -11 107 -16t90 -7.5t62 -2.5h23h4q193 0 307 19.5t156 58.5q14 14 23 30.5t14 30.5q6 17 9 34l1 3 q3 25 -7 60t-32 76t-55 87.5t-76 96.5q-38 44 -75.5 81.5t-67 65t-47.5 43.5l-19 16l26 207l813 377l103 -224l-646 -298q23 -25 48 -51t51 -55z"/>
<glyph arabic-form="isolated" glyph-name="uni06BA" horiz-adv-x="1502" unicode="ں" d="M729 -548q-51 0 -122.5 8t-147.5 34q-180 61 -275 204q-85 130 -85 309q0 17 1 35q9 211 130 491l226 -97q-92 -209 -108 -362q-4 -34 -3 -65q0 -108 45 -177q30 -45 76 -72t95 -40.5t94.5 -17.5t73.5 -4q288 0 381 148q26 43 38 95q12 53 12 107q0 3 1 6q1 51 -7 102 q-8 54 -18 101q-13 58 -29 108.5t-30.5 88t-24.5 59.5q-7 16 -9 21h1l218 113l12 -25q12 -26 28.5 -69.5t35.5 -103t36 -127.5q18 -80 26 -153q6 -58 6 -113v-27q-4 -91 -24.5 -167.5t-60.5 -141.5q-79 -130 -225 -198q-151 -70 -367 -70zM1043 534l-1 2q0 -2 1 -2v0z"/>
<glyph arabic-form="final" glyph-name="uni06C1.fina" horiz-adv-x="1276" unicode="ہ" d="M726 174q-36 23 -69 45.5t-66.5 38t-69.5 19.5q-8 1 -16 1q-29 0 -62 -11q-29 -10 -48.5 -30.5t-32.5 -41.5q-15 -25 -25 -53l-236 70q1 5 7.5 23t19 43t31.5 55t46 59.5t62.5 56t80.5 45.5q69 29 148 29q23 0 48 -3q59 -6 114.5 -27t111.5 -50t113.5 -61t119.5 -60 t130 -48t145 -23l1 -251q-89 0 -163.5 12.5t-140.5 35.5t-127 55t-122 71z"/>
<glyph arabic-form="isolated" glyph-name="uni06D2" horiz-adv-x="1946" unicode="ے" d="M802 780l244 -52q-2 -19 -15 -55t-34 -76t-48.5 -76.5t-60.5 -55.5q-69 -41 -130.5 -65t-116.5 -42.5t-105 -38t-96 -50.5q8 -6 54.5 -11.5t121 -10.5t172.5 -8t209 -3q105 0 206 9.5t191.5 23.5t166 30.5t131 31t87 24t32.5 9.5l77 -243q-1 0 -19 -5t-47.5 -13.5 t-67.5 -18l-80 -20t-84.5 -19.5t-80.5 -15q-50 -8 -103.5 -16t-115.5 -14.5t-135 -11.5t-162 -8q-57 -2 -112 -2q-49 0 -98 2q-104 4 -197 15t-170 31.5t-128 50.5q-41 24 -69.5 61t-45.5 77v73q16 49 46 89t68.5 72.5t84 58.5t92.5 46.5t92.5 37.5t84.5 32q41 15 67 27.5 t43.5 28t28.5 39t22 61.5z"/>
<glyph glyph-name=".notdef" horiz-adv-x="2048"/>
<glyph glyph-name=".null"/>
<glyph glyph-name="nonmarkingreturn" horiz-adv-x="2048"/>
<glyph glyph-name="space" horiz-adv-x="532" unicode=" "/>
<glyph glyph-name="space" horiz-adv-x="532" unicode=" "/>
<glyph glyph-name="exclam" horiz-adv-x="518" unicode="!" d="M160 0v281h230v-281h-230zM210 378l-60 744v344h249v-344l-59 -744h-130z"/>
<glyph glyph-name="quotedbl" horiz-adv-x="887" unicode='&quot;' d="M506 945l-44 273v248h251v-248l-38 -273h-169zM135 945l-43 273v248h251v-248l-38 -273h-170z"/>
<glyph glyph-name="numbersign" horiz-adv-x="945" unicode="#" d="M396 880l-48 -295h182l48 295h-182zM126 365h-111v220h148l49 295h-197v221h234l64 390h184l-64 -390h180l64 390h190l-66 -390h114v-221h-150l-50 -295h200v-220h-236l-66 -390h-183l64 390h-182l-65 -390h-185z"/>
<glyph glyph-name="dollar" horiz-adv-x="939" unicode="$" d="M520 203q60 13 100 67t39 132q0 142 -139 191v-390zM402 1267q-46 -19 -76 -66t-30 -104q0 -120 106 -176v346zM402 217v419q-311 108 -311 445q-1 172 87 280t224 124v99h118v-99q127 -19 206 -107t100 -241l-207 -33q-19 119 -99 160v-391q191 -63 259 -155 q81 -110 81 -279q0 -188 -92 -309t-248 -148v-187h-118v182q-295 43 -344 434l214 28q13 -79 49 -137t81 -85z"/>
<glyph glyph-name="percent" horiz-adv-x="1483" unicode="%" d="M1064 330q0 -140 22 -184t61 -44q38 0 61 44t23 184t-23 184t-60 44q-40 0 -62 -44t-22 -184zM884 329q0 201 72 294t193 93t193 -93t72 -294t-72 -295t-191 -93q-123 0 -195 93t-72 295zM512 -56h-171l641 1547h165zM253 1106q0 -140 23 -184t60 -44q38 0 61 44t23 184 t-23 184t-60 44q-38 0 -61 -44t-23 -184zM73 1104q0 201 72 294t191 93q123 0 195 -93t72 -294t-72 -294t-191 -93q-122 1 -194 93t-73 294z"/>
<glyph glyph-name="ampersand" horiz-adv-x="1248" unicode="&amp;" d="M468 671q-78 -49 -118 -117t-40 -143q0 -93 50 -149t130 -56q103 0 213 112zM559 976l62 58q69 65 69 128q0 58 -35 94t-88 37q-53 0 -85 -32t-32 -78q0 -53 52 -127zM1186 179l-140 -217q-102 60 -197 168q-75 -84 -157 -120t-192 -36q-218 0 -322 132t-104 296 q0 283 274 449q-123 176 -123 322q0 141 92 229t244 89q147 -1 239 -93t93 -240q-1 -94 -47 -174t-172 -177l167 -269q28 62 51 167l208 -58q-48 -214 -104 -302q38 -43 100 -96t90 -70z"/>
<glyph glyph-name="quotesingle" horiz-adv-x="412" unicode="&apos;" d="M118 945l-43 273v248h251v-248l-38 -273h-170z"/>
<glyph glyph-name="parenleft" horiz-adv-x="650" unicode="(" d="M502 -431h-158q-124 225 -190 477t-67 487q0 255 67 497t193 461h157q-116 -312 -156 -522t-40 -444q0 -242 57 -512q40 -190 137 -444z"/>
<glyph glyph-name="parenright" horiz-adv-x="610" unicode=")" d="M57 -431q97 252 136 439q58 272 58 517q-1 234 -41 444t-155 522h157q128 -226 194 -466t66 -479q0 -240 -65 -494t-192 -483h-158z"/>
<glyph glyph-name="asterisk" horiz-adv-x="673" unicode="*" d="M201 792l-124 117q39 54 76 99l79 94q-20 4 -118 33q-68 21 -91 31l48 176q104 -52 192 -117q-19 153 -19 256v10h145q0 -71 -22 -268l71 39q75 41 136 70l44 -181q-92 -25 -211 -49l145 -202l-125 -101l-112 223q-46 -103 -114 -230z"/>
<glyph glyph-name="plus" horiz-adv-x="987" unicode="+" d="M384 211v381h-315v263h315v381h210v-381h316v-263h-316v-381h-210z"/>
<glyph glyph-name="comma" horiz-adv-x="496" unicode="," d="M115 281h230v-201q0 -171 -40 -254q-49 -103 -164 -153l-45 116q68 27 98 75t32 136h-111v281z"/>
<glyph glyph-name="hyphen" horiz-adv-x="555" unicode="-" d="M53 391v281h453v-281h-453z"/>
<glyph glyph-name="period" horiz-adv-x="401" unicode="." d="M199 292q33 0 62 -12t51 -35q22 -22 34 -51t13 -62q-1 -33 -13 -62t-34 -51q-22 -23 -51 -35t-62 -12t-62 12t-51 35q-22 22 -34 51t-13 62q1 33 13 62t34 51q22 23 51 35t62 12z"/>
<glyph glyph-name="slash" horiz-adv-x="707" unicode="/" d="M459 1201l191 -50l-383 -1439l-191 50z"/>
<glyph glyph-name="zero" horiz-adv-x="921" unicode="0" d="M461 1239q-69 0 -109 -90t-40 -426q0 -335 40 -425t109 -90t109 90t40 425q0 336 -40 426t-109 90zM461 1472q175 0 283 -166t108 -583q0 -415 -108 -581t-282 -167q-175 0 -283 165t-108 586q0 414 108 580t282 166z"/>
<glyph glyph-name="one" horiz-adv-x="904" unicode="1" d="M661 0h-230v1059q-129 -145 -298 -213v255q96 39 199 139t143 232h186v-1472z"/>
<glyph glyph-name="two" horiz-adv-x="976" unicode="2" d="M850 261v-261h-808q14 148 80 282t258 350q152 173 187 234q52 89 52 179q0 96 -43 145t-113 49q-153 0 -165 -229l-229 28q21 224 125 329t275 105q189 0 285 -123t96 -282q0 -91 -24 -175t-76 -170q-51 -86 -170 -218q-110 -125 -140 -165t-48 -78h458z"/>
<glyph glyph-name="three" horiz-adv-x="966" unicode="3" d="M63 389l223 33q9 -104 57 -159t113 -55q71 0 120 65t49 180q0 107 -47 168t-114 61q-44 0 -105 -21l25 229h7q84 0 134 48q51 50 51 141q0 76 -37 119t-95 43q-58 1 -100 -49t-51 -147l-213 44q33 201 129 292t242 91q165 0 261 -117t96 -259q0 -96 -44 -173t-130 -135 q100 -27 164 -119t64 -230q0 -201 -120 -333t-284 -131q-158 0 -268 111t-127 303z"/>
<glyph glyph-name="four" horiz-adv-x="942" unicode="4" d="M523 542v501l-276 -501h276zM523 0v295h-492v246l521 931h194v-930h149v-247h-149v-295h-223z"/>
<glyph glyph-name="five" horiz-adv-x="979" unicode="5" d="M75 377l230 29q9 -96 59 -151t110 -55q71 0 122 70t51 217q-1 138 -51 204t-128 66q-99 0 -178 -107l-187 33l118 763h609v-263h-434l-37 -249q78 47 158 47q142 0 241 -112q125 -143 125 -377q-1 -193 -107 -355t-304 -162q-160 1 -268 105t-129 297z"/>
<glyph glyph-name="six" horiz-adv-x="976" unicode="6" d="M331 494q-1 -138 51 -212t118 -74q64 0 106 61t43 200q0 144 -46 210t-114 66q-66 0 -112 -63t-46 -188zM852 1107l-223 -30q-16 164 -131 164q-74 0 -124 -82t-63 -331q43 62 96 93t117 31q141 0 246 -132t105 -349q0 -232 -111 -364t-275 -132q-181 -1 -299 171 t-118 569q0 403 123 580t316 177q133 0 225 -90t116 -275z"/>
<glyph glyph-name="seven" horiz-adv-x="907" unicode="7" d="M71 1185v261h788v-204q-97 -116 -197 -332t-154 -462t-54 -448h-222q8 312 104 623t259 562h-524z"/>
<glyph glyph-name="eight" horiz-adv-x="941" unicode="8" d="M296 446q0 -118 50 -182t120 -64t118 61t47 183q-1 105 -49 166t-119 61q-71 1 -119 -61t-48 -164zM317 1074q1 -86 41 -132t102 -46q63 0 104 46t41 132q-1 83 -41 129t-101 46q-64 -1 -105 -47t-41 -128zM270 791q-85 44 -128 120t-43 183q0 174 98 276t264 102 q176 0 268 -110t92 -266q-1 -108 -45 -186t-121 -119q103 -51 154 -141t51 -222q0 -136 -50 -240t-140 -159q-89 -55 -200 -55q-174 0 -288 120t-113 325q0 132 52 227t149 145z"/>
<glyph glyph-name="nine" horiz-adv-x="947" unicode="9" d="M598 953q0 138 -52 212t-118 74q-64 0 -106 -61t-43 -203q1 -142 47 -208t114 -66q66 0 112 63t46 189zM76 339l223 30q16 -163 130 -163q77 0 126 82t63 330q-43 -61 -97 -92t-120 -31q-137 0 -243 131t-105 348q0 232 111 365t274 133q182 0 300 -172t118 -568 q0 -404 -123 -581t-319 -177q-136 0 -224 90t-114 275z"/>
<glyph glyph-name="colon" horiz-adv-x="507" unicode=":" d="M164 0v281h231v-281h-231zM164 781v281h231v-281h-231z"/>
<glyph glyph-name="semicolon" horiz-adv-x="549" unicode=";" d="M158 281h230v-201q0 -171 -40 -254q-49 -103 -164 -153l-45 116q68 29 98 77t32 134h-111v281zM158 781v281h230v-281h-230z"/>
<glyph glyph-name="less" horiz-adv-x="982" unicode="&lt;" d="M902 167l-824 437v242l824 435v-285l-574 -268l574 -278v-283z"/>
<glyph glyph-name="equal" horiz-adv-x="1030" unicode="=" d="M69 372v259h841v-259h-841zM69 816v258h841v-258h-841z"/>
<glyph glyph-name="greater" horiz-adv-x="983" unicode="&gt;" d="M77 166v283l576 276l-576 273v281l825 -435v-240z"/>
<glyph glyph-name="question" horiz-adv-x="1080" unicode="?" d="M407 0v281h231v-281h-231zM616 378h-209l-1 64q0 129 34 209t132 176q109 108 131 148t22 93q-1 87 -57 143t-142 56q-185 0 -228 -247l-211 32q9 188 129 308t303 121q185 0 308 -121t123 -302q0 -92 -43 -174t-185 -226q-72 -74 -90 -119q-16 -40 -16 -138v-23z"/>
<glyph glyph-name="at" horiz-adv-x="1707" unicode="@" d="M571 430q0 -129 43 -188t107 -59q56 0 103 42q62 54 106 184t44 262q0 113 -44 173t-107 60q-101 0 -164 -114q-88 -160 -88 -360zM1457 19h174q-87 -215 -271 -333t-451 -117q-273 0 -461 107q-188 108 -293 314t-105 496q0 297 115 534q115 236 301 354t424 118 q202 0 360 -94t248 -272t91 -405q0 -261 -137 -474q-159 -247 -406 -247q-66 0 -101 27t-48 87q-96 -114 -223 -114q-132 0 -224 112t-92 305q0 190 71 355q71 164 167 238t207 74q73 0 127 -34t89 -102l20 111h216l-123 -717q-12 -69 -12 -90q0 -24 10 -36t22 -12 q38 0 100 56q83 74 136 203t53 267q-1 168 -73 304t-192 206q-120 68 -289 68q-203 0 -353 -96t-242 -292q-92 -197 -93 -451q0 -217 87 -383t238 -250t369 -83q196 1 337 67t227 199z"/>
<glyph glyph-name="A" horiz-adv-x="1242" unicode="A" d="M759 580l-165 544l-163 -544h328zM1206 0h-264l-105 333h-480l-99 -333h-258l468 1466h257z"/>
<glyph glyph-name="B" horiz-adv-x="1239" unicode="B" d="M364 639v-392h225q148 -1 190 15q43 16 71 62t28 115q0 73 -30 119t-82 64q-50 18 -206 17h-196zM364 1222v-339h160q144 0 178 5q62 10 97 52t35 116q0 66 -28 106t-70 50q-40 10 -232 10h-140zM122 1466h481q197 0 277 -36t135 -127t55 -206q0 -105 -47 -191t-122 -127 q107 -38 167 -130t61 -224q0 -161 -77 -271t-182 -136q-73 -18 -339 -18h-409v1466z"/>
<glyph glyph-name="C" horiz-adv-x="1228" unicode="C" d="M892 539l235 -91q-55 -246 -183 -359.5t-315 -113.5q-235 0 -381 181q-168 209 -168 564q0 375 169 587q147 184 395 184q202 0 338 -138q97 -98 142 -291l-240 -70q-23 119 -91.5 182.5t-161.5 63.5q-133 0 -217 -116t-84 -383q0 -277 82 -394t213 -117q96 0 166 74.5 t101 236.5z"/>
<glyph glyph-name="D" horiz-adv-x="1237" unicode="D" d="M363 1218v-971h182q117 0 169 22q52 23 86 67t56 140t22 253q0 163 -22 257t-70 148t-116 71q-51 13 -197 13h-110zM121 1466h443q168 0 254 -38t157 -126q72 -89 113 -231t41 -353q0 -190 -43 -330t-109 -223q-65 -81 -159 -123t-241 -42h-456v1466z"/>
<glyph glyph-name="E" horiz-adv-x="1127" unicode="E" d="M123 0v1466h892v-248h-650v-325h604v-247h-604v-399h672v-247h-914z"/>
<glyph glyph-name="F" horiz-adv-x="1150" unicode="F" d="M124 0v1466h824v-248h-582v-347h503v-248h-503v-623h-242z"/>
<glyph glyph-name="G" horiz-adv-x="1373" unicode="G" d="M682 539v247h523v-584q-79 -93 -224 -160t-291 -67q-178 -1 -314 87t-216 262t-79 411q1 242 81 414t208 257t308 85q214 1 344 -109t167 -322l-240 -55q-27 113 -99 173t-172 60q-155 0 -251 -120t-96 -368q0 -265 104 -403q89 -119 241 -119q72 0 148 34t136 91v186 h-278z"/>
<glyph glyph-name="H" horiz-adv-x="1265" unicode="H" d="M123 0v1466h242v-577h476v577h243v-1466h-243v641h-476v-641h-242z"/>
<glyph glyph-name="I" horiz-adv-x="515" unicode="I" d="M115 0v1466h242v-1466h-242z"/>
<glyph glyph-name="J" horiz-adv-x="961" unicode="J" d="M556 1466h243v-928q0 -225 -45 -335q-44 -110 -134 -169t-221 -59q-173 0 -271 119t-99 359l229 32q4 -129 33 -183q39 -74 117 -74q76 0 112 54t36 237v947z"/>
<glyph glyph-name="K" horiz-adv-x="1307" unicode="K" d="M125 0v1466h242v-651l491 651h327l-453 -571l477 -895h-314l-331 688l-197 -245v-443h-242z"/>
<glyph glyph-name="L" horiz-adv-x="1115" unicode="L" d="M129 0v1454h242v-1207h604v-247h-846z"/>
<glyph glyph-name="M" horiz-adv-x="1431" unicode="M" d="M119 0v1466h363l218 -1000l216 1000h364v-1466h-225v1154l-239 -1154h-234l-237 1154v-1154h-226z"/>
<glyph glyph-name="N" horiz-adv-x="1265" unicode="N" d="M125 0v1466h236l492 -979v979h226v-1466h-244l-484 956v-956h-226z"/>
<glyph glyph-name="O" horiz-adv-x="1396" unicode="O" d="M324 734q0 -253 96 -379.5t238 -126.5q143 0 237 125.5t94 385.5q0 255 -91.5 377t-239.5 122t-241 -123t-93 -381zM74 724q0 262 77.5 431.5t202.5 252.5t303 83q258 0 420.5 -197t162.5 -561q0 -368 -172 -575q-151 -183 -410 -183q-261 0 -412 181q-172 207 -172 568z "/>
<glyph glyph-name="P" horiz-adv-x="1144" unicode="P" d="M364 1218v-416h134q136 0 184 19t79 69t31 121q0 73 -32 123t-79 67t-199 17h-118zM122 0v1466h390q218 0 285 -21q107 -34 177 -145t69 -286q0 -158 -60 -266t-150 -152t-310 -43h-159v-553h-242z"/>
<glyph glyph-name="Q" horiz-adv-x="1379" unicode="Q" d="M895 353q93 130 93 379q0 258 -93 382t-239 124t-240 -124t-93 -381q-1 -261 93 -387t233 -125q52 0 99 21q-76 60 -150 92l68 169q120 -50 229 -150zM1090 186q89 -77 194 -124l-89 -209q-54 20 -106 54q-12 7 -163 131q-119 -63 -272 -63q-260 1 -420 195t-161 563 q-1 370 161 564t424 194q260 -1 420 -195t160 -563q0 -179 -36 -308t-112 -239z"/>
<glyph glyph-name="R" horiz-adv-x="1252" unicode="R" d="M365 846h180q165 0 210 14t73 59q28 44 28 117q0 70 -28 112t-76 59q-34 11 -197 11h-190v-372zM123 0v1466h511q196 0 280 -40t138 -136q54 -98 54 -234q0 -172 -82 -277t-235 -132q78 -57 129 -123t139 -238l146 -286h-289l-176 319q-95 173 -129 217t-72 60t-122 16 h-50v-612h-242z"/>
<glyph glyph-name="S" horiz-adv-x="1137" unicode="S" d="M61 477l237 28q40 -281 262 -281q110 0 173 58t63 142q0 50 -22 85t-67 57t-218 76q-155 47 -227 102q-72 54 -114 144t-43 193q1 120 55 216t150 145t237 49q212 0 331 -115t126 -329l-243 -13q-16 118 -69 165t-151 47t-151 -41t-53 -102q0 -60 48 -101t221 -90 q182 -54 264 -112t125 -150t43 -225q0 -191 -118 -321t-367 -130q-442 0 -492 503z"/>
<glyph glyph-name="T" horiz-adv-x="1052" unicode="T" d="M393 0v1218h-357v248h955v-248h-356v-1218h-242z"/>
<glyph glyph-name="U" horiz-adv-x="1209" unicode="U" d="M120 1466h242v-794q0 -185 9 -241q16 -97 76.5 -150t159.5 -53q84 0 137 37.5t72.5 104t19.5 285.5v811h243v-770q0 -295 -31.5 -426.5t-142 -213t-291.5 -81.5q-188 0 -293.5 67.5t-153 190t-47.5 451.5v782z"/>
<glyph glyph-name="V" horiz-adv-x="1135" unicode="V" d="M429 0l-429 1466h263l304 -1085l294 1085h258l-430 -1466h-260z"/>
<glyph glyph-name="W" horiz-adv-x="1597" unicode="W" d="M292 0l-287 1466h249l180 -1007l220 1007h289l211 -1024l185 1024h244l-292 -1466h-258l-240 1096l-238 -1096h-263z"/>
<glyph glyph-name="X" horiz-adv-x="1123" unicode="X" d="M1 0l411 765l-373 701h284l241 -471l236 471h281l-373 -712l411 -754h-293l-267 507l-267 -507h-291z"/>
<glyph glyph-name="Y" horiz-adv-x="1145" unicode="Y" d="M438 0v617l-440 849h284l283 -580l278 580h279l-442 -851v-615h-242z"/>
<glyph glyph-name="Z" horiz-adv-x="1048" unicode="Z" d="M18 0v267l632 951h-561v248h880v-230l-658 -989h684v-247h-977z"/>
<glyph glyph-name="bracketleft" horiz-adv-x="636" unicode="[" d="M119 -413v1879h408v-221h-189v-1437h189v-221h-408z"/>
<glyph glyph-name="backslash" horiz-adv-x="498" unicode="\" d="M-2 1491h170l301 -1516h-173z"/>
<glyph glyph-name="bracketright" horiz-adv-x="601" unicode="]" d="M439 1466v-1879h-408v221h189v1439h-189v219h408z"/>
<glyph glyph-name="asciicircum" horiz-adv-x="1067" unicode="^" d="M95 692l308 799h183l301 -799h-234l-162 489l-161 -489h-235z"/>
<glyph glyph-name="underscore" horiz-adv-x="939" unicode="_" d="M-12 -154h959v-102h-959v102z"/>
<glyph glyph-name="grave" horiz-adv-x="438" unicode="`" d="M407 1192h-146l-226 299h258z"/>
<glyph glyph-name="a" horiz-adv-x="983" unicode="a" d="M601 510q-44 -18 -137 -42q-107 -28 -140 -62t-33 -88q0 -61 36.5 -102.5t91.5 -41.5q49 0 97 33.5t66.5 79.5t18.5 167v56zM293 738l-209 46q38 161 125.5 231.5t251.5 70.5q146 0 223 -41t110 -111.5t33 -256.5l-2 -328q0 -138 11 -205.5t41 -143.5h-228l-30 116 q-59 -70 -126.5 -105t-143.5 -35q-127 0 -208 85.5t-81 227.5q0 90 33 157t93 107t192 71q160 37 223 69q0 88 -12.5 115.5t-46 45t-94.5 17.5q-62 0 -97.5 -28t-57.5 -105z"/>
<glyph glyph-name="b" horiz-adv-x="1063" unicode="b" d="M339 554q0 -137 26 -209q26 -71 74 -109t101 -38q76 0 130 80t54 251q0 181 -54 261t-139 81q-80 0 -136 -78t-56 -239zM110 0v1466h231v-528q53 74 117 111t136 37q154 0 260 -139t107 -410q0 -269 -109 -415t-256 -146q-75 0 -148 46t-124 134v-156h-214z"/>
<glyph glyph-name="c" horiz-adv-x="984" unicode="c" d="M880 748l-227 -50q-25 167 -157 167q-85 0 -137 -72t-52 -243q0 -189 52 -267t139 -78q65 0 107 44.5t60 157.5l227 -47q-70 -384 -403 -384q-213 0 -316 162t-103 390q0 273 116.5 415.5t305.5 142.5q153 0 249.5 -81t138.5 -257z"/>
<glyph glyph-name="d" horiz-adv-x="1078" unicode="d" d="M305 554q1 -144 25 -214t70 -106t102 -36q76 0 132 82t56 247q0 183 -54 263t-139 81q-80 0 -136 -79t-56 -238zM920 0h-215v156q-53 -90 -125 -135t-148 -45q-146 0 -254 146t-109 415q0 273 106 411t261 138q72 0 136 -37t117 -111v528h231v-1466z"/>
<glyph glyph-name="e" horiz-adv-x="960" unicode="e" d="M639 622q-3 124 -53 186.5t-119 62.5q-73 0 -123 -65q-51 -66 -50 -184h345zM626 338l229 -47q-46 -160 -143 -237.5t-236 -77.5q-193 0 -298 129q-124 150 -124 420q0 266 125 426q106 135 274 135q187 0 293 -138q122 -158 122 -466l-1 -32h-577q2 -126 56.5 -195 t131.5 -69q111 0 148 152z"/>
<glyph glyph-name="f" horiz-adv-x="592" unicode="f" d="M20 1062h128v80q0 145 28 210t88 102q62 37 152 37q98 0 192 -36l-30 -196q-56 16 -107 16q-49 0 -71 -28t-22 -110v-75h172v-221h-172v-841h-230v841h-128v221z"/>
<glyph glyph-name="g" horiz-adv-x="1058" unicode="g" d="M305 553q1 -170 55 -248t131 -78q83 0 142 79t59 240q0 166 -56 246t-140 79q-82 0 -136 -78t-55 -240zM99 -70l264 -39q7 -59 37 -83t96 -24q76 0 123 25q33 18 51 60t18 148v155q-52 -86 -117 -129t-144 -43q-145 0 -244 131q-114 150 -114 406q-1 273 107 411t261 138 q81 0 147 -43t119 -130v149h216v-953q0 -229 -42 -332q-41 -103 -129 -155t-243 -53q-143 0 -229 38q-86 37 -132 113t-45 175v35z"/>
<glyph glyph-name="h" horiz-adv-x="1022" unicode="h" d="M351 1466v-539q55 79 121 119t145 40q104 0 174 -55t100 -156q22 -74 22 -252v-623h-230v561q0 195 -25 244q-35 66 -119 66q-89 1 -139 -71t-49 -268v-532h-231v1466h231z"/>
<glyph glyph-name="i" horiz-adv-x="507" unicode="i" d="M121 0v1062h231v-1062h-231zM121 1206v260h231v-260h-231z"/>
<glyph glyph-name="j" horiz-adv-x="458" unicode="j" d="M347 1062v-1029q0 -217 -24 -297t-86 -124t-153 -43q-69 0 -160 30l40 240q33 -9 57 -9q60 0 83 48q12 26 12 171v1013h231zM116 1206v260h231v-260h-231z"/>
<glyph glyph-name="k" horiz-adv-x="983" unicode="k" d="M113 0v1466h231v-778l269 374h284l-298 -388l319 -674h-248l-220 477l-106 -137v-340h-231z"/>
<glyph glyph-name="l" horiz-adv-x="512" unicode="l" d="M121 0v1466h231v-1466h-231z"/>
<glyph glyph-name="m" horiz-adv-x="1488" unicode="m" d="M103 1062h212v-145q57 85 125 127t147 42q83 0 145 -42t101 -127q59 85 125 127t141 42q89 0 153 -42t98 -122q34 -79 34 -243v-679h-231v607q0 159 -28 211t-94 53q-77 1 -124 -73t-47 -288v-510h-231v582q0 173 -19 223q-25 66 -101 66q-51 0 -94 -34q-43 -33 -62 -99 t-19 -222v-516h-231v1062z"/>
<glyph glyph-name="n" horiz-adv-x="1036" unicode="n" d="M913 0h-231v542q0 163 -13 217t-48.5 83t-80.5 29q-58 0 -105 -37.5t-66 -103.5t-19 -249v-481h-231v1062h214v-156q57 90 128.5 135t158.5 45q101 0 170.5 -52.5t96 -135t26.5 -238.5v-660z"/>
<glyph glyph-name="o" horiz-adv-x="1074" unicode="o" d="M303 531q0 -161 63 -243.5t152 -82.5q87 0 149 83t62 245q0 158 -63 241t-151 83q-87 0 -149.5 -83t-62.5 -243zM67 546q0 156 62 284t162 192t225 64q210 0 330 -164.5t120 -384.5q0 -164 -62.5 -296t-164 -198.5t-222.5 -66.5q-194 0 -322 148t-128 422z"/>
<glyph glyph-name="p" horiz-adv-x="1043" unicode="p" d="M342 549q0 -180 58 -265t142 -85q79 1 133 79t54 256q1 170 -55 250t-136 80q-84 0 -140 -78t-56 -237zM114 1062h215v-156q44 84 116 132t155 48q148 0 256 -142t108 -403q0 -273 -108 -419t-257 -146q-69 0 -129 34t-125 121v-535h-231v1466z"/>
<glyph glyph-name="q" horiz-adv-x="1022" unicode="q" d="M698 544q0 166 -55 244t-137 78q-83 0 -139 -80t-56 -259q1 -175 55 -252t132 -77q80 0 140 86t60 260zM690 -404v534q-47 -74 -115 -114t-143 -40q-146 0 -252 146t-105 421q-1 259 107 401t263 142q83 0 149 -45t114 -136v157h212v-1466h-230z"/>
<glyph glyph-name="r" horiz-adv-x="762" unicode="r" d="M342 0h-231v1062h214v-151q55 107 99 141t100 34q79 0 151 -53l-72 -245q-57 46 -108 46q-49 0 -85 -36t-52 -128q-16 -93 -16 -342v-328z"/>
<glyph glyph-name="s" horiz-adv-x="939" unicode="s" d="M40 303l231 43q30 -167 186 -167q83 0 124 32t41 83q0 35 -18 55q-19 20 -75 35q-284 75 -361 143q-96 85 -96 233t94 237t273 89q171 0 260 -66t125 -215l-217 -49q-29 128 -164 128q-85 0 -121 -24t-36 -64q0 -35 33 -58q33 -24 205 -72q193 -54 262 -131 q68 -77 68 -205q0 -154 -106 -254t-291 -100q-169 0 -276 84t-141 243z"/>
<glyph glyph-name="t" horiz-adv-x="572" unicode="t" d="M519 1062v-224h-157v-428q0 -139 7 -161q14 -40 57 -40q32 0 92 27l20 -218q-80 -42 -181 -42q-88 0 -141 42t-71 121q-14 58 -14 236v463h-106v224h106v211l231 164v-375h157z"/>
<glyph glyph-name="u" horiz-adv-x="1015" unicode="u" d="M693 0v159q-48 -86 -126 -134.5t-163 -48.5q-86 0 -154 45t-101.5 128t-33.5 241v672h231v-488q0 -209 10.5 -265.5t46.5 -87.5t87 -31q58 0 107 40.5t64.5 104t15.5 279.5v448h230v-1062h-214z"/>
<glyph glyph-name="v" horiz-adv-x="927" unicode="v" d="M360 0l-351 1062h242l164 -542l47 -181l49 181l166 542h236l-346 -1062h-207z"/>
<glyph glyph-name="w" horiz-adv-x="1322" unicode="w" d="M284 0l-276 1062h224l163 -696l150 696h222l145 -696l167 696h227l-280 -1062h-221l-150 683l-148 -683h-223z"/>
<glyph glyph-name="x" horiz-adv-x="946" unicode="x" d="M10 0l314 547l-301 515h282l154 -292l162 292h270l-295 -503l323 -559h-283l-177 329l-180 -329h-269z"/>
<glyph glyph-name="y" horiz-adv-x="922" unicode="y" d="M11 1062h246l207 -754l204 754h238l-307 -1022l-59 -199q-39 -112 -77.5 -164t-98 -80t-146.5 -28q-67 0 -131 17l-20 220q54 -13 97 -13q66 0 108.5 44t69.5 160z"/>
<glyph glyph-name="z" horiz-adv-x="855" unicode="z" d="M28 0v219l327 457q80 112 118 159q-40 -3 -106 -4l-307 -2v233h720v-199l-333 -468l-117 -155q96 7 119 7h357v-247h-778z"/>
<glyph glyph-name="braceleft" horiz-adv-x="672" unicode="{" d="M49 410v240q69 4 105 33t56 97t19 226q0 198 15 272q16 74 50 118q34 43 95 69t177 26h44v-239q-87 0 -114 -11q-26 -11 -40 -37t-14 -97q0 -121 -9 -278q-6 -107 -46 -187q-29 -58 -99 -112q62 -43 100 -115t44 -181q10 -148 10 -279q0 -69 14 -95t42 -39 q27 -12 112 -12v-240h-44q-116 1 -172 23t-94 67t-55 117t-17 244q0 188 -18 256t-53 99q-36 31 -108 35z"/>
<glyph glyph-name="bar" horiz-adv-x="496" unicode="|" d="M145 -431v1922h183v-1922h-183z"/>
<glyph glyph-name="braceright" horiz-adv-x="670" unicode="}" d="M598 410q-70 -4 -106 -33t-54 -97q-20 -68 -20 -225q0 -199 -15 -273t-49 -118t-96 -69q-61 -26 -177 -26h-44v240q83 0 111 12q28 13 42 39t15 93q0 114 9 274q7 113 45 187t100 116q-70 54 -99 112q-39 78 -46 188q-10 144 -10 277q0 71 -13 97t-40 36q-27 12 -114 12 v239h44q116 0 172 -22t94 -67q39 -45 55 -117t16 -244q0 -189 18 -257t54 -99t108 -35v-240z"/>
<glyph glyph-name="asciitilde" horiz-adv-x="971" unicode="~" d="M55 519v259q104 138 242 138q51 0 95 -12t144 -62q126 -62 166 -62q47 0 108 36t116 108v-270q-46 -58 -127 -103q-52 -29 -118 -29q-41 0 -80 12t-124 57q-126 67 -198 67q-115 0 -224 -139z"/>
<glyph glyph-name="exclamdown" horiz-adv-x="518" unicode="¡" d="M350 678l59 -741v-344h-249v344l59 741h131zM400 1062v-281h-231v281h231z"/>
<glyph glyph-name="cent" horiz-adv-x="984" unicode="¢" d="M514 864l-19 1q-85 0 -137 -72t-52 -244q0 -194 61 -280zM610 811l-149 -602q18 -4 37 -4q64 1 106 45t60 157l226 -47q-69 -384 -402 -384q-41 0 -83 7l-96 -386l-99 34l95 385q-107 56 -171 188t-65 330q0 268 125 420q108 132 297 132q37 0 77 -6l93 376l100 -35 l-92 -371q156 -73 210 -302l-227 -50q-9 71 -42 113z"/>
<glyph glyph-name="sterling" horiz-adv-x="1115" unicode="£" d="M820 285l88 -238q-103 -70 -226 -70q-74 0 -194 42q-126 43 -185 43q-100 0 -204 -87l-88 242q85 75 129 165t44 179q0 29 -2 60h-171v221h129q-34 119 -34 241q0 178 109 293t273 115q154 0 252 -95t123 -290l-222 -40q-29 201 -159 201q-63 0 -108 -52t-45 -135 q0 -101 41 -238h256v-221h-218q2 -22 2 -45q0 -76 -24 -144t-102 -177q46 28 114 28q30 0 56 -5q13 -3 108 -32q54 -17 90 -17q63 0 168 56z"/>
<glyph glyph-name="currency" horiz-adv-x="1010" unicode="¤" d="M298 728q0 -86 50 -144t116 -58t116 58t50 144t-50 144t-116 58t-116 -58t-50 -144zM145 941l-108 131l136 178l112 -136q43 29 88 43t91 14q48 0 92 -14t87 -43l110 134l137 -169l-109 -133q23 -54 35 -108t12 -110t-12 -110t-35 -108l110 -133l-136 -171l-112 136 q-41 -28 -85 -42t-94 -15q-46 0 -90 14t-87 42l-106 -131l-140 168l107 132q-23 52 -35 106t-12 112t11 111t33 102z"/>
<glyph glyph-name="yen" horiz-adv-x="979" unicode="¥" d="M346 284h-304v186h304v144h-304v186h228l-269 666h253l164 -426q31 -81 44 -141q16 67 44 141l167 426h253l-272 -666h231v-186h-308v-144h308v-186h-308v-284h-231v284z"/>
<glyph glyph-name="brokenbar" horiz-adv-x="496" unicode="¦" d="M145 -431v791h183v-791h-183zM145 701v790h183v-790h-183z"/>
<glyph glyph-name="section" horiz-adv-x="956" unicode="§" d="M603 293q72 79 72 145q0 38 -21 73t-102 107l-223 198q-30 -21 -54 -64q-17 -32 -17 -72q0 -101 111 -192zM809 1154l-225 -29q-7 152 -126 152q-50 0 -80 -27t-29 -67q0 -43 28 -80q27 -37 185 -161q154 -120 208 -182t80 -129t26 -146q0 -186 -149 -314q51 -55 75 -119 t24 -134q0 -158 -95 -254t-257 -95q-156 1 -258 95t-121 268l225 33q28 -181 160 -181q52 0 86 33t33 85q1 24 -7 44t-23 39q-30 38 -213 178q-188 145 -248 243t-59 217q0 216 152 322q-41 54 -62 110t-21 113q0 144 90 234t240 89q152 0 248 -89t113 -248z"/>
<glyph glyph-name="dieresis" horiz-adv-x="557" unicode="¨" d="M357 1250v241h198v-241h-198zM4 1250v241h198v-241h-198z"/>
<glyph glyph-name="copyright" horiz-adv-x="1249" unicode="©" d="M773 616l132 -54q-32 -130 -105 -195t-171 -65q-135 0 -226 110t-91 312q0 210 90 320t229 110q201 0 274 -243l-133 -38q-42 139 -146 139q-74 0 -122 -68t-48 -213q0 -147 47 -217t109 -69q121 0 161 171zM620 1345q-128 0 -244 -76t-188 -221t-72 -318t72 -318 t188 -221t244 -76t244 76t188 221q73 145 73 318t-73 318q-72 145 -188 221t-244 76zM620 1496q160 0 304 -95t234 -275t90 -396t-90 -396t-235 -275q-144 -95 -303 -95t-303 95q-145 95 -235 275t-90 396t90 396t235 275q144 95 303 95z"/>
<glyph glyph-name="ordfeminine" horiz-adv-x="616" unicode="ª" d="M390 1095q-18 -13 -77 -28q-71 -18 -88 -35q-24 -25 -24 -58t23 -57t56 -24q46 0 78 41t32 121v40zM209 1252l-155 38q19 104 78 152t173 49q111 0 171 -34q46 -26 66 -86q15 -43 15 -162v-239q0 -104 5 -139t19 -70h-155q-12 26 -19 71q-37 -44 -81 -66t-96 -23 q-89 0 -144 58t-55 157q0 67 23 112t65 70t168 55q65 16 103 33q-3 66 -11 79q-18 27 -72 27q-43 0 -64 -16q-16 -12 -34 -66z"/>
<glyph glyph-name="guillemotleft" horiz-adv-x="1007" unicode="«" d="M841 983l-213 -451l213 -462h-181l-259 462l259 451h181zM519 983l-212 -451l212 -462h-181l-259 462l259 451h181z"/>
<glyph glyph-name="logicalnot" horiz-adv-x="988" unicode="¬" d="M699 376v441h-630v257h841v-698h-211z"/>
<glyph glyph-name="uni00AD" horiz-adv-x="553" unicode="­" d="M53 391v281h453v-281h-453z"/>
<glyph glyph-name="registered" horiz-adv-x="1265" unicode="®" d="M472 782h54q111 0 136 8q33 9 52 37t19 67q1 40 -19 66t-53 36q-26 8 -135 8h-54v-222zM336 320v813h136q203 0 240 -5q73 -12 119 -70t46 -153q0 -93 -49 -154t-131 -75q41 -20 67 -56t75 -136l78 -164h-167l-56 132q-56 134 -93 168t-94 34h-35v-334h-136zM621 1346 q-127 0 -243 -76t-188 -222t-73 -318q1 -172 73 -318t188 -222t243 -77q127 1 243 77t189 222t73 318t-73 318t-189 222t-243 76zM620 1496q160 0 304 -95t234 -275t90 -396t-90 -396t-235 -275q-144 -95 -303 -95t-303 95q-145 95 -235 275t-90 396t90 396t235 275 q144 95 303 95z"/>
<glyph glyph-name="macron" horiz-adv-x="1022" unicode="¯" d="M-12 1722h1048v-103h-1048v103z"/>
<glyph glyph-name="degree" horiz-adv-x="831" unicode="°" d="M252 1172q0 -63 45 -108t108 -45t108 45t45 108t-45 108t-108 45t-108 -45t-45 -108zM86 1172q0 133 94 226t225 93q131 1 225 -93t94 -226t-94 -226t-225 -93q-131 -1 -225 93t-94 226z"/>
<glyph glyph-name="plusminus" horiz-adv-x="1144" unicode="±" d="M50 0v263h1025v-263h-1025zM434 356v381h-384v263h384v381h256v-381h385v-263h-385v-381h-256z"/>
<glyph glyph-name="twosuperior" horiz-adv-x="548" unicode="²" d="M518 885v-158h-498q10 89 48 157t156 181q98 91 118 125t20 69q0 40 -22 61t-61 21q-41 0 -62 -24t-25 -91l-156 16q10 92 38 139t82 75t127 28q107 0 171 -61t64 -155q0 -47 -16 -92t-52 -95q-24 -34 -122 -127q-47 -45 -67 -69h257z"/>
<glyph glyph-name="threesuperior" horiz-adv-x="557" unicode="³" d="M32 946l151 20q12 -108 93 -108q39 0 64 30t25 78q0 45 -24 72t-61 27q-24 0 -74 -15l19 146h5q52 0 79 21t27 58q0 31 -18 49t-50 17q-70 0 -81 -98l-146 26q22 107 66 152q62 63 165 63q96 0 158 -60t63 -144q0 -42 -20 -78t-60 -66q55 -24 83 -68t28 -110 q0 -102 -72 -172t-177 -71q-99 1 -165 61t-78 170z"/>
<glyph glyph-name="acute" horiz-adv-x="654" unicode="´" d="M153 1192l113 299h259l-226 -299h-146z"/>
<glyph glyph-name="mu" horiz-adv-x="1185" unicode="µ" d="M111 1062h279v-481q0 -208 42 -283q53 -97 157 -97q56 0 106 36t74 100t24 241v484h284v-1062h-262v128q-30 -56 -57 -84q-26 -28 -72 -49t-84 -21q-71 0 -126 39q-39 29 -86 115v-535h-279v1469z"/>
<glyph glyph-name="paragraph" horiz-adv-x="1018" unicode="¶" d="M520 -403h-199v1047q-149 13 -236 118t-87 290q0 116 38 205t96 133q57 44 125 64q46 12 179 12h490v-261h-93v-1608h-195v1608h-118v-1608z"/>
<glyph glyph-name="periodcentered" horiz-adv-x="515" unicode="·" d="M164 573v281h231v-281h-231z"/>
<glyph glyph-name="cedilla" horiz-adv-x="532" unicode="¸" d="M31 -403v118q84 -11 155 -11q68 0 102 26.5t34 67.5q0 37 -27.5 60.5t-77.5 23.5q-52 0 -107 -20l21 99q64 27 140 27q94 0 150.5 -52.5t56.5 -136.5q0 -96 -75 -157t-212 -61q-106 0 -160 16z"/>
<glyph glyph-name="onesuperior" horiz-adv-x="529" unicode="¹" d="M406 727h-155v513q-77 -64 -176 -98v155q71 25 127 75t78 112h126v-757z"/>
<glyph glyph-name="ordmasculine" horiz-adv-x="633" unicode="º" d="M194 1113q0 -111 30 -157t81 -46q47 0 77 47t31 156q0 111 -31 157t-80 46q-48 0 -78 -46t-30 -157zM21 1115q-1 183 79 279t206 97q124 0 204 -97t80 -279q0 -183 -80 -279t-204 -96q-125 0 -205 96t-80 279z"/>
<glyph glyph-name="guillemotright" horiz-adv-x="1063" unicode="»" d="M87 70l213 452l-213 461h181l259 -461l-259 -452h-181zM409 70l212 452l-212 461h181l259 -461l-259 -452h-181z"/>
<glyph glyph-name="onequarter" horiz-adv-x="1473" unicode="¼" d="M406 727h-155v513q-77 -64 -176 -98v155q71 25 127 75t78 112h126v-757zM409 -54h-131l713 1538h130zM1149 249v225l-149 -225h149zM1149 -42v146h-295v141l313 470h128v-466h89v-145h-89v-146h-146z"/>
<glyph glyph-name="onehalf" horiz-adv-x="1499" unicode="½" d="M406 727h-155v513q-77 -64 -176 -98v155q71 25 127 75t78 112h126v-757zM409 -54h-131l713 1538h130zM1358 116v-158h-498q10 89 48 157t156 181q98 92 118 126t20 68q0 40 -22 61t-61 21q-41 0 -62 -24t-25 -91l-156 16q10 92 38 139t82 75t127 28q107 0 171 -61 t64 -155q0 -47 -16 -92t-52 -95q-24 -34 -122 -127q-47 -45 -67 -69h257z"/>
<glyph glyph-name="threequarters" horiz-adv-x="1450" unicode="¾" d="M33 946l151 20q12 -108 93 -108q39 0 64 30t25 78q0 45 -24 72t-61 27q-24 0 -74 -15l19 146h5q52 0 79 21t27 58q0 31 -18 49t-50 17q-70 0 -81 -98l-146 26q22 107 66 152q62 63 165 63q97 0 159 -60t62 -144q0 -42 -20 -78t-60 -66q56 -24 84 -68t27 -110 q1 -102 -71 -172t-178 -71q-100 1 -166 61t-77 170zM429 -54h-131l713 1538h130zM1150 249v225l-149 -225h149zM1150 -42v146h-295v141l313 470h128v-466h89v-145h-89v-146h-146z"/>
<glyph glyph-name="questiondown" horiz-adv-x="1080" unicode="¿" d="M417 684h209l1 -72q1 -118 -35 -200t-132 -178q-107 -107 -130 -148t-23 -98q-1 -81 57 -137t142 -56q184 0 229 247l212 -33q-22 -203 -139 -316t-294 -113q-185 0 -308 121t-123 299q0 100 49 186t180 218q71 72 89 118q16 42 16 139v23zM626 1062v-281h-231v281h231z "/>
<glyph glyph-name="Agrave" horiz-adv-x="1242" unicode="À" d="M759 580l-165 544l-163 -544h328zM1206 0h-264l-105 333h-480l-99 -333h-258l468 1466h257zM686 1586h-146l-226 299h258z"/>
<glyph glyph-name="Aacute" horiz-adv-x="1242" unicode="Á" d="M759 580l-165 544l-163 -544h328zM1206 0h-264l-105 333h-480l-99 -333h-258l468 1466h257zM524 1598l113 299h259l-226 -299h-146z"/>
<glyph glyph-name="Acircumflex" horiz-adv-x="1242" unicode="Â" d="M759 580l-165 544l-163 -544h328zM1206 0h-264l-105 333h-480l-99 -333h-258l468 1466h257zM336 1575l172 295h213l170 -295h-185l-95 149l-88 -149h-187z"/>
<glyph glyph-name="Atilde" horiz-adv-x="1242" unicode="Ã" d="M759 580l-165 544l-163 -544h328zM1206 0h-264l-105 333h-480l-99 -333h-258l468 1466h257zM421 1576h-104l-1 33q0 110 42.5 165.5t107.5 55.5q28 0 53 -8t81 -38q74 -40 110 -40q57 0 67 87h106q-1 -136 -41.5 -193.5t-104.5 -57.5q-27 0 -53 7q-19 5 -88 37 q-83 39 -118 39q-25 0 -40.5 -19.5t-16.5 -67.5z"/>
<glyph glyph-name="Adieresis" horiz-adv-x="1242" unicode="Ä" d="M759 580l-165 544l-163 -544h328zM1206 0h-264l-105 333h-480l-99 -333h-258l468 1466h257zM683 1612v241h198v-241h-198zM330 1612v241h198v-241h-198z"/>
<glyph glyph-name="Aring" horiz-adv-x="1242" unicode="Å" d="M759 580l-165 544l-163 -544h328zM1206 0h-264l-105 333h-480l-99 -333h-258l468 1466h257zM677 1714q0 39 -22 64t-51 25t-51 -25t-22 -64q0 -38 22 -64t51 -25q29 -1 51 25t22 64zM765 1714q-1 -84 -49 -140t-112 -56t-112 56t-49 140q0 84 48 140t113 56q64 0 112 -56 t49 -140z"/>
<glyph glyph-name="AE" horiz-adv-x="1679" unicode="Æ" d="M411 601h330v643h-94zM-70 0l561 1466h1085v-248h-595v-326h549v-248h-549v-397h617v-247h-859v345h-417l-123 -345h-269z"/>
<glyph glyph-name="Ccedilla" horiz-adv-x="1228" unicode="Ç" d="M892 539l235 -91q-55 -246 -183 -359.5t-315 -113.5q-235 0 -381 181q-168 209 -168 564q0 375 169 587q147 184 395 184q202 0 338 -138q97 -98 142 -291l-240 -70q-23 119 -91.5 182.5t-161.5 63.5q-133 0 -217 -116t-84 -383q0 -277 82 -394t213 -117q96 0 166 74.5 t101 236.5zM390 -403v118q84 -11 155 -11q68 0 102 26.5t34 67.5q0 37 -27.5 60.5t-77.5 23.5q-52 0 -107 -20l21 99q64 27 140 27q94 0 150.5 -52.5t56.5 -136.5q0 -96 -75 -157t-212 -61q-106 0 -160 16z"/>
<glyph glyph-name="Egrave" horiz-adv-x="1127" unicode="È" d="M123 0v1466h892v-248h-650v-325h604v-247h-604v-399h672v-247h-914zM688 1579h-146l-226 299h258z"/>
<glyph glyph-name="Eacute" horiz-adv-x="1127" unicode="É" d="M123 0v1466h892v-248h-650v-325h604v-247h-604v-399h672v-247h-914zM447 1586l113 299h259l-226 -299h-146z"/>
<glyph glyph-name="Ecircumflex" horiz-adv-x="1127" unicode="Ê" d="M123 0v1466h892v-248h-650v-325h604v-247h-604v-399h672v-247h-914zM306 1582l172 295h213l170 -295h-185l-95 149l-88 -149h-187z"/>
<glyph glyph-name="Edieresis" horiz-adv-x="1127" unicode="Ë" d="M123 0v1466h892v-248h-650v-325h604v-247h-604v-399h672v-247h-914zM655 1621v241h198v-241h-198zM302 1621v241h198v-241h-198z"/>
<glyph glyph-name="Igrave" horiz-adv-x="515" unicode="Ì" d="M115 0v1466h242v-1466h-242zM391 1562h-146l-226 299h258z"/>
<glyph glyph-name="Iacute" horiz-adv-x="515" unicode="Í" d="M115 0v1466h242v-1466h-242zM146 1576l113 299h259l-226 -299h-146z"/>
<glyph glyph-name="Icircumflex" horiz-adv-x="515" unicode="Î" d="M115 0v1466h242v-1466h-242zM-19 1581l172 295h213l170 -295h-185l-95 149l-88 -149h-187z"/>
<glyph glyph-name="Idieresis" horiz-adv-x="515" unicode="Ï" d="M115 0v1466h242v-1466h-242zM326 1619v241h198v-241h-198zM-27 1619v241h198v-241h-198z"/>
<glyph glyph-name="Eth" horiz-adv-x="1237" unicode="Ð" d="M364 1218v-392h257v-186h-257v-393h182q116 0 169 22q53 21 86 65t55 141t23 248q-1 175 -25 269t-72 146t-116 68q-50 12 -193 12h-109zM122 1466h443q167 0 253 -38t158 -126t112 -232q41 -144 41 -354q0 -188 -43 -329t-109 -223q-65 -82 -159 -122q-94 -42 -240 -42 h-456v640h-125v186h125v640z"/>
<glyph glyph-name="Ntilde" horiz-adv-x="1265" unicode="Ñ" d="M125 0v1466h236l492 -979v979h226v-1466h-244l-484 956v-956h-226zM436 1593h-104l-1 33q0 110 42.5 165.5t107.5 55.5q28 0 53 -8t81 -38q74 -40 110 -40q57 0 67 87h106q-1 -136 -41.5 -193.5t-104.5 -57.5q-27 0 -53 7q-19 5 -88 37q-83 39 -118 39q-25 0 -40.5 -19.5 t-16.5 -67.5z"/>
<glyph glyph-name="Ograve" horiz-adv-x="1396" unicode="Ò" d="M324 734q0 -253 96 -379.5t238 -126.5q143 0 237 125.5t94 385.5q0 255 -91.5 377t-239.5 122t-241 -123t-93 -381zM74 724q0 262 77.5 431.5t202.5 252.5t303 83q258 0 420.5 -197t162.5 -561q0 -368 -172 -575q-151 -183 -410 -183q-261 0 -412 181q-172 207 -172 568z M820 1636h-146l-226 299h258z"/>
<glyph glyph-name="Oacute" horiz-adv-x="1396" unicode="Ó" d="M324 734q0 -253 96 -379.5t238 -126.5q143 0 237 125.5t94 385.5q0 255 -91.5 377t-239.5 122t-241 -123t-93 -381zM74 724q0 262 77.5 431.5t202.5 252.5t303 83q258 0 420.5 -197t162.5 -561q0 -368 -172 -575q-151 -183 -410 -183q-261 0 -412 181q-172 207 -172 568z M499 1611l113 299h259l-226 -299h-146z"/>
<glyph glyph-name="Ocircumflex" horiz-adv-x="1396" unicode="Ô" d="M324 734q0 -253 96 -379.5t238 -126.5q143 0 237 125.5t94 385.5q0 255 -91.5 377t-239.5 122t-241 -123t-93 -381zM74 724q0 262 77.5 431.5t202.5 252.5t303 83q258 0 420.5 -197t162.5 -561q0 -368 -172 -575q-151 -183 -410 -183q-261 0 -412 181q-172 207 -172 568z M427 1576l172 295h213l170 -295h-185l-95 149l-88 -149h-187z"/>
<glyph glyph-name="Otilde" horiz-adv-x="1396" unicode="Õ" d="M324 734q0 -253 96 -379.5t238 -126.5q143 0 237 125.5t94 385.5q0 255 -91.5 377t-239.5 122t-241 -123t-93 -381zM74 724q0 262 77.5 431.5t202.5 252.5t303 83q258 0 420.5 -197t162.5 -561q0 -368 -172 -575q-151 -183 -410 -183q-261 0 -412 181q-172 207 -172 568z M506 1598h-104l-1 33q0 110 42.5 165.5t107.5 55.5q28 0 53 -8t81 -38q74 -40 110 -40q57 0 67 87h106q-1 -136 -41.5 -193.5t-104.5 -57.5q-27 0 -53 7q-19 5 -88 37q-83 39 -118 39q-25 0 -40.5 -19.5t-16.5 -67.5z"/>
<glyph glyph-name="Odieresis" horiz-adv-x="1396" unicode="Ö" d="M324 734q0 -253 96 -379.5t238 -126.5q143 0 237 125.5t94 385.5q0 255 -91.5 377t-239.5 122t-241 -123t-93 -381zM74 724q0 262 77.5 431.5t202.5 252.5t303 83q258 0 420.5 -197t162.5 -561q0 -368 -172 -575q-151 -183 -410 -183q-261 0 -412 181q-172 207 -172 568z M741 1589v241h198v-241h-198zM388 1589v241h198v-241h-198z"/>
<glyph glyph-name="multiply" horiz-adv-x="984" unicode="×" d="M90 420l248 302l-249 303l152 186l249 -303l248 302l149 -182l-248 -302l250 -305l-152 -186l-250 305l-248 -302z"/>
<glyph glyph-name="Oslash" horiz-adv-x="1396" unicode="Ø" d="M955 996l-504 -691q83 -90 203 -90q146 -1 240 127t94 391q0 152 -33 263zM865 1153q-82 86 -209 86q-147 1 -240 -123t-93 -381q0 -162 37 -272zM1016 1359l129 177l115 -122l-137 -188q115 -192 115 -504q0 -308 -136 -516q-151 -231 -440 -231q-223 0 -361 125 l-132 -182l-117 124l140 192q-61 102 -86 208q-34 140 -34 302q0 356 175 566q150 181 408 181q216 0 361 -132z"/>
<glyph glyph-name="Ugrave" horiz-adv-x="1209" unicode="Ù" d="M120 1466h242v-794q0 -185 9 -241q16 -97 76.5 -150t159.5 -53q84 0 137 37.5t72.5 104t19.5 285.5v811h243v-770q0 -295 -31.5 -426.5t-142 -213t-291.5 -81.5q-188 0 -293.5 67.5t-153 190t-47.5 451.5v782zM715 1602h-146l-226 299h258z"/>
<glyph glyph-name="Uacute" horiz-adv-x="1209" unicode="Ú" d="M120 1466h242v-794q0 -185 9 -241q16 -97 76.5 -150t159.5 -53q84 0 137 37.5t72.5 104t19.5 285.5v811h243v-770q0 -295 -31.5 -426.5t-142 -213t-291.5 -81.5q-188 0 -293.5 67.5t-153 190t-47.5 451.5v782zM455 1592l113 299h259l-226 -299h-146z"/>
<glyph glyph-name="Ucircumflex" horiz-adv-x="1209" unicode="Û" d="M120 1466h242v-794q0 -185 9 -241q16 -97 76.5 -150t159.5 -53q84 0 137 37.5t72.5 104t19.5 285.5v811h243v-770q0 -295 -31.5 -426.5t-142 -213t-291.5 -81.5q-188 0 -293.5 67.5t-153 190t-47.5 451.5v782zM322 1601l172 295h213l170 -295h-185l-95 149l-88 -149h-187 z"/>
<glyph glyph-name="Udieresis" horiz-adv-x="1209" unicode="Ü" d="M120 1466h242v-794q0 -185 9 -241q16 -97 76.5 -150t159.5 -53q84 0 137 37.5t72.5 104t19.5 285.5v811h243v-770q0 -295 -31.5 -426.5t-142 -213t-291.5 -81.5q-188 0 -293.5 67.5t-153 190t-47.5 451.5v782zM677 1613v241h198v-241h-198zM324 1613v241h198v-241h-198z "/>
<glyph glyph-name="Yacute" horiz-adv-x="1145" unicode="Ý" d="M438 0v617l-440 849h284l283 -580l278 580h279l-442 -851v-615h-242zM391 1586l113 299h259l-226 -299h-146z"/>
<glyph glyph-name="Thorn" horiz-adv-x="1128" unicode="Þ" d="M364 942v-417h134q147 0 190 17q44 17 74 68t30 124q0 78 -31 128t-73 65t-206 15h-118zM122 0v1466h242v-276h148q219 0 286 -22q106 -34 176 -144t69 -286q0 -158 -60 -266t-150 -152t-310 -44h-159v-276h-242z"/>
<glyph glyph-name="germandbls" horiz-adv-x="1076" unicode="ß" d="M114 0v952q0 195 24 283q35 129 121 193t214 63q159 -1 246 -83t87 -221q0 -86 -50 -198q-53 -118 -53 -148q-1 -29 15 -59t105 -138q83 -100 113 -174t31 -153q0 -153 -85 -247t-206 -94q-83 0 -155 52t-111 137l161 115q33 -79 85 -79q32 0 56 29t24 74q0 38 -18 71 t-119 151q-139 162 -139 254q0 60 54 195q40 104 48 132t8 58q0 46 -28 76t-71 30q-41 0 -73 -27t-42 -79q-11 -52 -11 -213v-952h-231z"/>
<glyph glyph-name="agrave" horiz-adv-x="983" unicode="à" d="M601 510q-44 -18 -137 -42q-107 -28 -140 -62t-33 -88q0 -61 36.5 -102.5t91.5 -41.5q49 0 97 33.5t66.5 79.5t18.5 167v56zM293 738l-209 46q38 161 125.5 231.5t251.5 70.5q146 0 223 -41t110 -111.5t33 -256.5l-2 -328q0 -138 11 -205.5t41 -143.5h-228l-30 116 q-59 -70 -126.5 -105t-143.5 -35q-127 0 -208 85.5t-81 227.5q0 90 33 157t93 107t192 71q160 37 223 69q0 88 -12.5 115.5t-46 45t-94.5 17.5q-62 0 -97.5 -28t-57.5 -105zM653 1192h-146l-226 299h258z"/>
<glyph glyph-name="aacute" horiz-adv-x="983" unicode="á" d="M601 510q-44 -18 -137 -42q-107 -28 -140 -62t-33 -88q0 -61 36.5 -102.5t91.5 -41.5q49 0 97 33.5t66.5 79.5t18.5 167v56zM293 738l-209 46q38 161 125.5 231.5t251.5 70.5q146 0 223 -41t110 -111.5t33 -256.5l-2 -328q0 -138 11 -205.5t41 -143.5h-228l-30 116 q-59 -70 -126.5 -105t-143.5 -35q-127 0 -208 85.5t-81 227.5q0 90 33 157t93 107t192 71q160 37 223 69q0 88 -12.5 115.5t-46 45t-94.5 17.5q-62 0 -97.5 -28t-57.5 -105zM305 1192l113 299h259l-226 -299h-146z"/>
<glyph glyph-name="acircumflex" horiz-adv-x="983" unicode="â" d="M601 510q-44 -18 -137 -42q-107 -28 -140 -62t-33 -88q0 -61 36.5 -102.5t91.5 -41.5q49 0 97 33.5t66.5 79.5t18.5 167v56zM293 738l-209 46q38 161 125.5 231.5t251.5 70.5q146 0 223 -41t110 -111.5t33 -256.5l-2 -328q0 -138 11 -205.5t41 -143.5h-228l-30 116 q-59 -70 -126.5 -105t-143.5 -35q-127 0 -208 85.5t-81 227.5q0 90 33 157t93 107t192 71q160 37 223 69q0 88 -12.5 115.5t-46 45t-94.5 17.5q-62 0 -97.5 -28t-57.5 -105zM214 1196l172 295h213l170 -295h-185l-95 149l-88 -149h-187z"/>
<glyph glyph-name="atilde" horiz-adv-x="983" unicode="ã" d="M601 510q-44 -18 -137 -42q-107 -28 -140 -62t-33 -88q0 -61 36.5 -102.5t91.5 -41.5q49 0 97 33.5t66.5 79.5t18.5 167v56zM293 738l-209 46q38 161 125.5 231.5t251.5 70.5q146 0 223 -41t110 -111.5t33 -256.5l-2 -328q0 -138 11 -205.5t41 -143.5h-228l-30 116 q-59 -70 -126.5 -105t-143.5 -35q-127 0 -208 85.5t-81 227.5q0 90 33 157t93 107t192 71q160 37 223 69q0 88 -12.5 115.5t-46 45t-94.5 17.5q-62 0 -97.5 -28t-57.5 -105zM313 1205h-104l-1 33q0 110 42.5 165.5t107.5 55.5q28 0 53 -8t81 -38q74 -40 110 -40q57 0 67 87 h106q-1 -136 -41.5 -193.5t-104.5 -57.5q-27 0 -53 7q-19 5 -88 37q-83 39 -118 39q-25 0 -40.5 -19.5t-16.5 -67.5z"/>
<glyph glyph-name="adieresis" horiz-adv-x="983" unicode="ä" d="M601 510q-44 -18 -137 -42q-107 -28 -140 -62t-33 -88q0 -61 36.5 -102.5t91.5 -41.5q49 0 97 33.5t66.5 79.5t18.5 167v56zM293 738l-209 46q38 161 125.5 231.5t251.5 70.5q146 0 223 -41t110 -111.5t33 -256.5l-2 -328q0 -138 11 -205.5t41 -143.5h-228l-30 116 q-59 -70 -126.5 -105t-143.5 -35q-127 0 -208 85.5t-81 227.5q0 90 33 157t93 107t192 71q160 37 223 69q0 88 -12.5 115.5t-46 45t-94.5 17.5q-62 0 -97.5 -28t-57.5 -105zM569 1250v241h198v-241h-198zM216 1250v241h198v-241h-198z"/>
<glyph glyph-name="aring" horiz-adv-x="983" unicode="å" d="M601 510q-44 -18 -137 -42q-107 -28 -140 -62t-33 -88q1 -60 37 -102t91 -42q49 0 97 34t66 79q18 46 19 167v56zM293 738l-209 46q38 162 126 232t251 70q146 0 223 -41t110 -111t33 -257l-2 -328q0 -137 11 -205t41 -144h-228l-30 116q-59 -70 -127 -105t-143 -35 q-127 0 -208 86t-81 227q0 90 33 157t93 107t192 71q160 37 223 69q-1 87 -13 115t-46 46t-94 17q-62 0 -98 -28t-57 -105zM542 1342q0 39 -22 64t-51 25t-51 -25t-22 -64q0 -38 22 -64t51 -25q29 -1 51 25t22 64zM630 1342q0 -84 -48 -140t-113 -56t-113 56t-48 140t48 140 t113 56t113 -56t48 -140z"/>
<glyph glyph-name="ae" horiz-adv-x="1494" unicode="æ" d="M606 508q-204 -67 -218 -74q-45 -20 -65 -50t-20 -70q1 -60 37 -100t91 -40q53 0 99 35t61 85t15 214zM1187 624q-7 98 -29 146t-62 75q-40 26 -88 26q-84 1 -128 -77q-42 -73 -42 -158v-12h349zM1177 339l226 -49q-94 -314 -384 -314q-186 0 -312 146q-61 -66 -153 -106 t-185 -40q-135 0 -216 86t-81 226q0 107 50 189q38 63 115 99q49 24 233 70q80 21 138 44q0 81 -14 112t-46 50q-33 19 -83 19q-63 0 -103 -31t-57 -102l-208 49q42 161 132 230t265 69q172 0 266 -98q101 98 238 98q126 0 218 -66t146 -198q52 -134 52 -374h-579 q25 -258 181 -258q119 0 161 149z"/>
<glyph glyph-name="ccedilla" horiz-adv-x="984" unicode="ç" d="M880 748l-227 -50q-25 167 -157 167q-85 0 -137 -72t-52 -243q0 -189 52 -267t139 -78q65 0 107 44.5t60 157.5l227 -47q-70 -384 -403 -384q-213 0 -316 162t-103 390q0 273 116.5 415.5t305.5 142.5q153 0 249.5 -81t138.5 -257zM268 -403v118q84 -11 155 -11 q68 0 102 26.5t34 67.5q0 37 -27.5 60.5t-77.5 23.5q-52 0 -107 -20l21 99q64 27 140 27q94 0 150.5 -52.5t56.5 -136.5q0 -96 -75 -157t-212 -61q-106 0 -160 16z"/>
<glyph glyph-name="egrave" horiz-adv-x="960" unicode="è" d="M639 622q-3 124 -53 186.5t-119 62.5q-73 0 -123 -65q-51 -66 -50 -184h345zM626 338l229 -47q-46 -160 -143 -237.5t-236 -77.5q-193 0 -298 129q-124 150 -124 420q0 266 125 426q106 135 274 135q187 0 293 -138q122 -158 122 -466l-1 -32h-577q2 -126 56.5 -195 t131.5 -69q111 0 148 152zM666 1192h-146l-226 299h258z"/>
<glyph glyph-name="eacute" horiz-adv-x="960" unicode="é" d="M639 622q-3 124 -53 186.5t-119 62.5q-73 0 -123 -65q-51 -66 -50 -184h345zM626 338l229 -47q-46 -160 -143 -237.5t-236 -77.5q-193 0 -298 129q-124 150 -124 420q0 266 125 426q106 135 274 135q187 0 293 -138q122 -158 122 -466l-1 -32h-577q2 -126 56.5 -195 t131.5 -69q111 0 148 152zM294 1192l113 299h259l-226 -299h-146z"/>
<glyph glyph-name="ecircumflex" horiz-adv-x="960" unicode="ê" d="M639 622q-3 124 -53 186.5t-119 62.5q-73 0 -123 -65q-51 -66 -50 -184h345zM626 338l229 -47q-46 -160 -143 -237.5t-236 -77.5q-193 0 -298 129q-124 150 -124 420q0 266 125 426q106 135 274 135q187 0 293 -138q122 -158 122 -466l-1 -32h-577q2 -126 56.5 -195 t131.5 -69q111 0 148 152zM202 1196l172 295h213l170 -295h-185l-95 149l-88 -149h-187z"/>
<glyph glyph-name="edieresis" horiz-adv-x="960" unicode="ë" d="M639 622q-3 124 -53 186.5t-119 62.5q-73 0 -123 -65q-51 -66 -50 -184h345zM626 338l229 -47q-46 -160 -143 -237.5t-236 -77.5q-193 0 -298 129q-124 150 -124 420q0 266 125 426q106 135 274 135q187 0 293 -138q122 -158 122 -466l-1 -32h-577q2 -126 56.5 -195 t131.5 -69q111 0 148 152zM557 1250v241h198v-241h-198zM204 1250v241h198v-241h-198z"/>
<glyph glyph-name="igrave" horiz-adv-x="507" unicode="ì" d="M344 1179h-146l-226 299h258zM121 0v1062h231v-1062h-231z"/>
<glyph glyph-name="iacute" horiz-adv-x="507" unicode="í" d="M138 1198l113 299h259l-226 -299h-146zM121 0v1062h231v-1062h-231z"/>
<glyph glyph-name="icircumflex" horiz-adv-x="507" unicode="î" d="M-24 1196l172 295h213l170 -295h-185l-95 149l-88 -149h-187zM121 0v1062h231v-1062h-231z"/>
<glyph glyph-name="idieresis" horiz-adv-x="507" unicode="ï" d="M331 1250v241h198v-241h-198zM-22 1250v241h198v-241h-198zM121 0v1062h231v-1062h-231z"/>
<glyph glyph-name="eth" horiz-adv-x="1043" unicode="ð" d="M308 530q0 -160 60 -243t145 -83q87 0 149 83t62 233q0 151 -64 236t-148 85t-144 -80t-60 -231zM272 1466h241q46 -44 89 -89l148 89l37 -98l-118 -67q151 -185 223 -378t72 -380q0 -265 -130 -417t-323 -151q-187 0 -307 142q-136 161 -136 416q0 251 141 408 q108 121 241 121q43 0 82 -14t100 -55q-49 109 -119 217l-206 -119l-35 96l179 103q-81 91 -179 176z"/>
<glyph glyph-name="ntilde" horiz-adv-x="1036" unicode="ñ" d="M913 0h-231v542q0 163 -13 217t-48.5 83t-80.5 29q-58 0 -105 -37.5t-66 -103.5t-19 -249v-481h-231v1062h214v-156q57 90 128.5 135t158.5 45q101 0 170.5 -52.5t96 -135t26.5 -238.5v-660zM339 1205h-104l-1 33q0 110 42.5 165.5t107.5 55.5q28 0 53 -8t81 -38 q74 -40 110 -40q57 0 67 87h106q-1 -136 -41.5 -193.5t-104.5 -57.5q-27 0 -53 7q-19 5 -88 37q-83 39 -118 39q-25 0 -40.5 -19.5t-16.5 -67.5z"/>
<glyph glyph-name="ograve" horiz-adv-x="1074" unicode="ò" d="M303 531q0 -161 63 -243.5t152 -82.5q87 0 149 83t62 245q0 158 -63 241t-151 83q-87 0 -149.5 -83t-62.5 -243zM67 546q0 156 62 284t162 192t225 64q210 0 330 -164.5t120 -384.5q0 -164 -62.5 -296t-164 -198.5t-222.5 -66.5q-194 0 -322 148t-128 422zM596 1187h-146 l-226 299h258z"/>
<glyph glyph-name="oacute" horiz-adv-x="1074" unicode="ó" d="M303 531q0 -161 63 -243.5t152 -82.5q87 0 149 83t62 245q0 158 -63 241t-151 83q-87 0 -149.5 -83t-62.5 -243zM67 546q0 156 62 284t162 192t225 64q210 0 330 -164.5t120 -384.5q0 -164 -62.5 -296t-164 -198.5t-222.5 -66.5q-194 0 -322 148t-128 422zM471 1212 l113 299h259l-226 -299h-146z"/>
<glyph glyph-name="ocircumflex" horiz-adv-x="1074" unicode="ô" d="M303 531q0 -161 63 -243.5t152 -82.5q87 0 149 83t62 245q0 158 -63 241t-151 83q-87 0 -149.5 -83t-62.5 -243zM67 546q0 156 62 284t162 192t225 64q210 0 330 -164.5t120 -384.5q0 -164 -62.5 -296t-164 -198.5t-222.5 -66.5q-194 0 -322 148t-128 422zM259 1196 l172 295h213l170 -295h-185l-95 149l-88 -149h-187z"/>
<glyph glyph-name="otilde" horiz-adv-x="1074" unicode="õ" d="M303 531q0 -161 63 -243.5t152 -82.5q87 0 149 83t62 245q0 158 -63 241t-151 83q-87 0 -149.5 -83t-62.5 -243zM67 546q0 156 62 284t162 192t225 64q210 0 330 -164.5t120 -384.5q0 -164 -62.5 -296t-164 -198.5t-222.5 -66.5q-194 0 -322 148t-128 422zM358 1205h-104 l-1 33q0 110 42.5 165.5t107.5 55.5q28 0 53 -8t81 -38q74 -40 110 -40q57 0 67 87h106q-1 -136 -41.5 -193.5t-104.5 -57.5q-27 0 -53 7q-19 5 -88 37q-83 39 -118 39q-25 0 -40.5 -19.5t-16.5 -67.5z"/>
<glyph glyph-name="odieresis" horiz-adv-x="1074" unicode="ö" d="M303 531q0 -161 63 -243.5t152 -82.5q87 0 149 83t62 245q0 158 -63 241t-151 83q-87 0 -149.5 -83t-62.5 -243zM67 546q0 156 62 284t162 192t225 64q210 0 330 -164.5t120 -384.5q0 -164 -62.5 -296t-164 -198.5t-222.5 -66.5q-194 0 -322 148t-128 422zM614 1250v241 h198v-241h-198zM261 1250v241h198v-241h-198z"/>
<glyph glyph-name="divide" horiz-adv-x="1163" unicode="÷" d="M421 185v281h281v-281h-281zM49 592v263h1025v-263h-1025zM421 981v281h281v-281h-281z"/>
<glyph glyph-name="oslash" horiz-adv-x="1074" unicode="ø" d="M717 695l-321 -453q55 -48 123 -48q93 0 158 85t65 244q0 89 -25 172zM647 817q-55 54 -125 54q-90 0 -156 -86t-66 -245q0 -100 24 -178zM777 999l85 120l92 -92l-89 -124q46 -66 76 -165t30 -205q-1 -163 -63 -293t-165 -197t-224 -67q-140 0 -252 84l-95 -133l-89 95 l94 134q-105 157 -105 383q0 161 61 289t162 193t226 65q147 0 256 -87z"/>
<glyph glyph-name="ugrave" horiz-adv-x="1015" unicode="ù" d="M693 0v159q-48 -86 -126 -134.5t-163 -48.5q-86 0 -154 45t-101.5 128t-33.5 241v672h231v-488q0 -209 10.5 -265.5t46.5 -87.5t87 -31q58 0 107 40.5t64.5 104t15.5 279.5v448h230v-1062h-214zM693 1192h-146l-226 299h258z"/>
<glyph glyph-name="uacute" horiz-adv-x="1015" unicode="ú" d="M693 0v159q-48 -86 -126 -134.5t-163 -48.5q-86 0 -154 45t-101.5 128t-33.5 241v672h231v-488q0 -209 10.5 -265.5t46.5 -87.5t87 -31q58 0 107 40.5t64.5 104t15.5 279.5v448h230v-1062h-214zM321 1192l113 299h259l-226 -299h-146z"/>
<glyph glyph-name="ucircumflex" horiz-adv-x="1015" unicode="û" d="M693 0v159q-48 -86 -126 -134.5t-163 -48.5q-86 0 -154 45t-101.5 128t-33.5 241v672h231v-488q0 -209 10.5 -265.5t46.5 -87.5t87 -31q58 0 107 40.5t64.5 104t15.5 279.5v448h230v-1062h-214zM230 1196l172 295h213l170 -295h-185l-95 149l-88 -149h-187z"/>
<glyph glyph-name="udieresis" horiz-adv-x="1015" unicode="ü" d="M693 0v159q-48 -86 -126 -134.5t-163 -48.5q-86 0 -154 45t-101.5 128t-33.5 241v672h231v-488q0 -209 10.5 -265.5t46.5 -87.5t87 -31q58 0 107 40.5t64.5 104t15.5 279.5v448h230v-1062h-214zM585 1250v241h198v-241h-198zM232 1250v241h198v-241h-198z"/>
<glyph glyph-name="yacute" horiz-adv-x="922" unicode="ý" d="M11 1062h246l207 -754l204 754h238l-307 -1022l-59 -199q-39 -112 -77.5 -164t-98 -80t-146.5 -28q-67 0 -131 17l-20 220q54 -13 97 -13q66 0 108.5 44t69.5 160zM275 1192l113 299h259l-226 -299h-146z"/>
<glyph glyph-name="thorn" horiz-adv-x="1062" unicode="þ" d="M343 554q0 -137 26 -209q26 -71 74 -109t101 -38q76 0 130 80t54 251q0 181 -54 261t-139 81q-80 0 -136 -78t-56 -239zM114 1466h231v-528q69 86 127 117t128 31q148 0 256 -142t108 -403q0 -273 -108 -419t-257 -146q-69 0 -129 34t-125 121v-535h-231v1870z"/>
<glyph glyph-name="OE" horiz-adv-x="1705" unicode="Œ" d="M575 1239q-120 0 -186 -99q-80 -120 -80 -384q0 -294 80 -422q62 -99 186 -99q125 0 185 98q80 128 80 424q0 265 -72 373t-193 109zM1627 249v-249h-772v173q-48 -99 -127 -149t-190 -49q-210 0 -330 166q-149 208 -149 593q0 383 146 586q123 171 324 171q99 1 185 -49 t141 -138v162h749v-248h-539v-326h494v-248h-494v-395h562z"/>
<glyph glyph-name="oe" horiz-adv-x="1617" unicode="œ" d="M309 515q0 -116 55 -211t151 -95q85 -1 143 81t58 250q0 153 -58 233t-143 80q-89 0 -147 -82t-59 -256zM1295 624q-7 133 -57 194t-122 61q-79 0 -128 -78q-34 -56 -43 -177h350zM1281 341l224 -44q-41 -157 -141 -239t-238 -82q-87 0 -167 38t-140 110 q-65 -74 -141 -111t-164 -37q-186 0 -314 152t-128 403q0 168 61 298q61 129 159 193t225 64q91 0 167 -37t137 -111q112 148 291 148q116 0 210 -67t144 -204q50 -132 50 -350v-17h-573q8 -130 59 -194t125 -64q53 0 91 34t63 117z"/>
<glyph glyph-name="Scaron" horiz-adv-x="1137" unicode="Š" d="M61 477l237 28q40 -281 262 -281q110 0 173 58t63 142q0 50 -22 85t-67 57t-218 76q-155 47 -227 102q-72 54 -114 144t-43 193q1 120 55 216t150 145t237 49q212 0 331 -115t126 -329l-243 -13q-16 118 -69 165t-151 47t-151 -41t-53 -102q0 -60 48 -101t221 -90 q182 -54 264 -112t125 -150t43 -225q0 -191 -118 -321t-367 -130q-442 0 -492 503zM282 1862h187l88 -149l95 149h185l-170 -295h-213z"/>
<glyph glyph-name="scaron" horiz-adv-x="939" unicode="š" d="M40 303l231 43q30 -167 186 -167q83 0 124 32t41 83q0 35 -18 55q-19 20 -75 35q-284 75 -361 143q-96 85 -96 233t94 237t273 89q171 0 260 -66t125 -215l-217 -49q-29 128 -164 128q-85 0 -121 -24t-36 -64q0 -35 33 -58q33 -24 205 -72q193 -54 262 -131 q68 -77 68 -205q0 -154 -106 -254t-291 -100q-169 0 -276 84t-141 243zM169 1491h187l88 -149l95 149h185l-170 -295h-213z"/>
<glyph glyph-name="Ydieresis" horiz-adv-x="1145" unicode="Ÿ" d="M438 0v617l-440 849h284l283 -580l278 580h279l-442 -851v-615h-242z"/>
<glyph glyph-name="circumflex" horiz-adv-x="602" unicode="ˆ" d="M2 1196l172 295h213l170 -295h-185l-95 149l-88 -149h-187z"/>
<glyph glyph-name="tilde" horiz-adv-x="572" unicode="˜" d="M94 1205h-104l-1 33q0 110 42.5 165.5t107.5 55.5q28 0 53 -8t81 -38q74 -40 110 -40q57 0 67 87h106q-1 -136 -41.5 -193.5t-104.5 -57.5q-27 0 -53 7q-19 5 -88 37q-83 39 -118 39q-25 0 -40.5 -19.5t-16.5 -67.5z"/>
<glyph glyph-name="uni0600" horiz-adv-x="1597" unicode="؀" d="M1516 -150q-9 -25 -17 -59q-9 -33 -17 -69t-17 -70t-19 -59q-34 -8 -100 -15t-165 -13q-195 -12 -372 -12q-200 0 -386 15q-14 1 -38 3t-54 5t-63 7t-64 9t-57 11t-43 13v235q174 -19 382 -33t464 -14q0 98 30 168t87 124q49 45 121 80t162 67q3 -8 14 -36t23 -58 q14 -35 30 -78q-47 -20 -92 -42q-38 -21 -79 -45t-70 -50q-24 -22 -34 -36t-9 -34q-1 -26 19 -38t53 -15q13 -1 25 -1q22 0 44 2q34 4 67 7t77 11t98 20z"/>
<glyph glyph-name="uni0601" horiz-adv-x="4016" unicode="؁" d="M3948 -167q1 -12 1 -23q0 -33 -10 -66q-14 -45 -42 -91q-29 -45 -69 -91t-88 -91l-135 112q56 50 98 87t50 60q1 4 -5 4t-16 -2t-21 -7q-11 -4 -19 -7q-102 -34 -224 -71t-268 -72q-294 -70 -556 -106t-481 -36q-263 0 -488 37t-418 119q-14 5 -21 8t-13 3q-15 0 -44 -47 q-21 -31 -40 -55t-30 -34q-45 -47 -101 -47q-94 0 -181 131q-25 37 -44 62t-34 40q-15 16 -27 22t-24 6q-54 0 -104 -58t-111 -166q-31 -59 -61 -98t-58 -62q-28 -22 -54 -32t-51 -10q-47 0 -87 22t-67 60q-29 40 -41 96q-8 36 -8 78q0 23 3 48q9 85 35 159t72 152l143 -75 q-23 -52 -42 -92t-33 -89q-8 -30 -7 -52t9 -37q8 -14 19 -22q12 -8 26 -8q32 0 71 50q36 48 111 179q32 57 61 98q28 41 58 67t60 40q30 12 65 12q37 0 81 -30t82 -102q36 -70 70 -104t76 -35h2q30 0 55 28q26 29 55 75q32 49 53 74t44 16q15 -6 43 -18t62 -24t70 -26 q37 -14 70 -24q129 -39 323 -63q190 -24 411 -24q128 -1 268 11t296 35t346 63t419 97q110 28 174 44t100 16q28 0 53 -10q26 -11 44 -27t30 -36t14 -41z"/>
<glyph glyph-name="uni0602" horiz-adv-x="1642" unicode="؂" d="M520 -107q0 20 -2 42t-14 41t-32 32q-21 13 -56 15q-29 2 -54 -8q-26 -10 -44 -27q-18 -18 -28 -40t-7 -44q3 -30 21 -49t44 -29q28 -10 65 -12q21 -1 43 -2q18 0 38 1q12 15 18 37t8 43zM1140 -172q111 8 224 19t230 25v-223q-26 -12 -60 -22q-34 -11 -72 -19t-78 -14 t-74 -11q-75 -11 -169 -13t-209 -6q-114 -3 -220 -6q-52 -2 -104 -2t-102 2q-98 3 -172 26q-74 22 -125 62q-50 40 -75 95t-25 121q0 93 30 160q31 68 77 110t102 60q49 16 95 16h15q68 -4 116 -28t77 -58q31 -34 45 -76q14 -40 16 -79q1 -19 0 -41t-4 -42q-3 -22 -9 -40 t-15 -31q76 0 141 1t123 3q58 3 113 5q54 2 109 6z"/>
<glyph glyph-name="uni0603" horiz-adv-x="1901" unicode="؃" d="M1541 -15q-23 -5 -46 -15t-51 -34q-28 -22 -60 -58q-33 -36 -75 -93q20 -3 34 -5q15 -2 27 -2t26 -1h35q85 -1 156 23t127 86q-10 31 -28 53t-42 34t-50 15q-27 3 -53 -3zM995 -509q15 27 29 54t29 50q-35 16 -51 23t-29 14q-14 -12 -32 -25q-15 -11 -35 -25t-43 -24 q-33 -16 -79 -24t-96 -12q-28 -2 -56 -2q-24 0 -48 2q-52 2 -99 8q-87 12 -154 24t-115 23q-55 13 -98 27l12 230q110 -18 193 -30t143 -17q30 -3 52 -5t44 -3t45 -1q24 0 56 -2h14q37 0 69 9q38 11 71 29q32 18 57 42t45 50q46 60 73 137q34 -11 64 -21q26 -8 51 -17 t36 -14q-21 -47 -39 -83t-32 -59q10 -5 34 -14t59 -21q121 180 232 282q112 103 192 103q49 -1 91 -19t77 -56t59 -87t23 -94q0 -72 -21 -134t-53 -111q-33 -50 -71 -84t-73 -52q-51 -26 -103 -38t-104 -11q-30 1 -56 3t-52 8t-52 13q-28 8 -61 19q-17 -24 -34 -52t-37 -61z "/>
<glyph glyph-name="uni060B" horiz-adv-x="951" unicode="؋" d="M427 550q49 0 96 8t80 17q-11 49 -33 93t-56 74q-32 27 -58.5 38t-49.5 11q-37 0 -64.5 -20.5t-41.5 -43.5q-17 -26 -17 -67q0 -28 12 -54.5t42 -41.5q15 -8 39 -11t51 -3zM271 251q64 0 112.5 5t85 14.5t62 23t42.5 29.5q-68 -13 -146 -13q-53 0 -104.5 9t-97.5 34l1 -1 q-50 25 -85 60t-56.5 75.5t-31.5 84.5t-10 88q0 54 14.5 104.5t38.5 89.5q19 31 50 62.5t70.5 57t87.5 41.5t102 16q63 0 129.5 -24.5t134.5 -82.5q51 -44 86.5 -102.5t58 -122t33 -127.5t10.5 -121q0 -60 -10.5 -110.5t-27.5 -83.5q-23 -44 -62.5 -90t-104 -83t-158 -60.5 t-224.5 -23.5h-276q-26 0 -48.5 10t-39.5 27.5t-27 40t-10 48.5q0 25 10 48t27 40t39.5 27t48.5 10h276zM574 1441l-176 -176l-178 178l176 176zM421 -175q4 -8 10 -30t11.5 -51t11 -61t9 -59.5t4.5 -45.5v-10q0 -8 -1 -9l-70 -30q-5 43 -10 78.5t-12 67t-16 62.5t-20 66 q2 0 12 3q8 2 25 6.5t46 12.5z"/>
<glyph glyph-name="uni060C" horiz-adv-x="602" unicode="،" d="M508 137v-8q0 -36 -16 -68q-18 -35 -47 -61t-61 -42q-32 -15 -57 -15h-2h-4q-67 -1 -117 25t-80 68q-32 42 -46 92q-11 40 -11 80q0 11 1 23q6 67 32 135t67 128t91 111t104 86l140 -140q-16 -13 -38 -31t-48 -44t-52 -63q-28 -37 -56 -89h11q37 0 68 -12q37 -14 63 -38 q26 -26 42 -61t16 -76z"/>
<glyph glyph-name="uni060D" horiz-adv-x="723" unicode="؍" d="M557 198q-71 -70 -127 -142t-100 -145t-78 -145t-63 -145q-19 9 -39 27t-37 35q-20 19 -40 41q11 36 24 72q11 31 25 66t28 64q26 50 64 108t83 117q46 59 98 117t108 112z"/>
<glyph glyph-name="uni060E" horiz-adv-x="2058" unicode="؎" d="M341 416v-14q0 -43 16 -75q19 -39 65 -63t120 -36t182 -13q10 39 14 71t5 49v9q0 44 -9 82q-10 42 -32 75q-22 32 -58 51q-35 19 -84 22h-12q-32 0 -64 -9q-38 -11 -70 -32t-52 -51t-21 -66zM924 408q0 -26 -2 -74t-19 -120q105 2 197 4t177 9q83 7 159 19t147 34 q67 20 113 45t80 55t60 64t56 73l150 -121q-32 -63 -76 -119q-44 -55 -96 -101t-109 -79t-112 -48q-141 -38 -343 -59t-483 -21q-131 -1 -229 5t-166 27q-42 13 -86 37t-81 62q-39 38 -67 89t-39 117q-4 25 -4 54q-1 20 1 40q4 52 24 106t54 106t86 90q52 39 123 62 q63 20 142 20h21q36 -1 72 -9t67 -22q32 -13 59 -33t46 -44q42 -55 60 -119t18 -149z"/>
<glyph glyph-name="uni060F" horiz-adv-x="1599" unicode="؏" d="M1224 -208q0 46 -20 82q-22 37 -58 61q-36 23 -87 33q-33 6 -68 7q-19 0 -38 -2q-73 -7 -129 -29t-102 -58q-46 -34 -86 -78t-79 -95q15 -29 49 -55t76 -46t92 -34t99 -17q27 -2 52 -2q61 -1 109 13q66 20 108 54t62 78t20 88zM1045 218q83 -2 153 -30t120 -80t78 -126 t28 -167q0 -67 -18 -141t-63 -146q-29 -44 -79 -86t-117 -73q-67 -33 -149 -51q-74 -17 -156 -16h-18q-52 0 -112 14t-120 40q-58 26 -108 66t-82 91q-35 -45 -76 -107t-91 -149l-175 144q50 94 106 179t120 152q-14 48 -26 110q-11 54 -11 115v20q2 109 26 197 q25 88 57 153t65 109t52 64q-36 16 -70 37t-62 42q-29 21 -49 41t-29 33q-35 53 -49 113q-13 58 -13 113q0 59 13 109q12 48 28 73q41 66 91 109q50 44 99 70q48 26 92 38t72 13q13 1 25 1q37 0 71 -8q46 -12 90 -33t86 -50t80 -61l-105 -185q-44 25 -91 48t-99 32 q-21 4 -43 4q-32 0 -66 -8q-58 -13 -123 -60q-3 -16 -3 -31q0 -39 17 -73q23 -47 65 -81t100 -56q56 -21 114 -26q92 56 200 105t218 81l103 -253q-46 -19 -86 -37q-35 -16 -71 -30t-56 -22q-97 -37 -175 -85q-78 -49 -137 -103t-100 -112q-42 -58 -66 -113t-32 -105 q-5 -27 -5 -51q0 -20 3 -37q62 79 131 133t141 86t145 45q68 12 132 12h10z"/>
<glyph glyph-name="uni0610" d="M184 1316q-19 -18 -32.5 -37t-24.5 -36q35 -8 80 -8q32 0 63.5 6.5t54.5 21.5q32 19 35 56q1 15 -8 25.5t-22.5 16.5t-28 7t-24.5 -2q-51 -8 -93 -50zM457 1313q-2 -33 -18 -65t-47.5 -56.5t-78 -39.5t-110.5 -15q-26 0 -47.5 1.5t-41.5 6t-40 12t-42 19.5 q0 -11 -1 -25.5t-3 -28.5q-2 -16 -4 -33h-97q1 16 3 30q1 12 2 24.5t2 19.5v17q0 26 -5 52.5t-11 50t-12 41t-9 24.5q-1 1 -1.5 4.5t-2.5 8.5t-4 11l88 36q15 -38 29.5 -71.5t34.5 -45.5q13 21 31.5 47t44.5 49q31 29 68.5 48.5t74.5 27.5q21 3 37 3q35 0 65.5 -12t53.5 -37 q22 -21 32 -49q9 -23 9 -46v-9z" unicode="ؐ"/>
<glyph glyph-name="uni0611" d="M107 1094q-20 0 -32.5 0.5t-29.5 3.5q2 -19 2 -41q0 -13 -1 -29q-2 -38 -8 -80q-21 -3 -39 -5q-16 -2 -33 -3.5t-27 -2.5q4 35 6 66.5t2 60.5q0 88 -53 211q4 12 11.5 27.5t16.5 32t18 33.5t18 31q14 -39 29 -73q13 -29 27.5 -59t27.5 -45q6 -7 15 -11t17 -6q10 -3 20 -4 q-11 17 -16.5 32.5t-5.5 36.5q0 65 47 126q48 62 105 62q15 0 29.5 -3.5t29.5 -12t33 -22t41 -33.5l-44 -60q-27 16 -42 25t-37 9q-15 0 -30 -5.5t-31 -27.5q0 -21 3.5 -37t13 -27.5t27 -20.5t44.5 -17q47 13 78 27t55 27q2 -5 8 -19.5t13 -29.5q7 -18 16 -39 q-11 -9 -25 -18q-12 -8 -30 -17.5t-40 -18.5q-42 -17 -109 -31q-64 -13 -120 -13z" unicode="ؑ"/>
<glyph glyph-name="uni0612" d="M427 1457q22 -57 22 -106q0 -31 -9 -59q-9 -27 -25 -53t-38 -51q-36 -41 -83 -73q-40 -29 -62.5 -42t-23.5 -14l-46 81q1 0 25 13.5t55.5 37.5t62 57.5t44.5 74.5q4 12 4 28q0 30 -15 70q-10 26 -19.5 42.5t-10.5 17.5l80 53q1 -2 13.5 -23.5t25.5 -53.5zM144 1262 q-42 -10 -86 -28.5t-78 -47.5q-5 -5 -9.5 -10t-7.5 -11q-7 -9 -10 -25t-5 -31q-2 -18 -2 -37q-14 0 -29 -1q-13 -1 -27.5 -1.5t-26.5 -0.5q-2 12 -2 32t6 44t19.5 50.5t39.5 52.5q20 17 47 31t55.5 24.5t57 18.5t52.5 14q-14 8 -30 17t-33 20q-26 18 -52 18q-9 0 -17 -2 q-14 -4 -26.5 -12.5t-22.5 -18t-17.5 -19t-10.5 -15.5l-71 41q2 2 9.5 14t23.5 29q43 48 95 60q16 4 32 5h6l26 -3q17 -3 35 -9.5t35 -18.5q43 -31 77 -47.5t57 -23.5t35 -8l12 -1l-26 -78q-6 -1 -14 -2q-7 -1 -16 -2t-21 -3z" unicode="ؒ"/>
<glyph glyph-name="uni0613" d="M158 1468l-70 70l70 71l71 -71zM80 1272q-18 -17 -32 -36t-24 -36q33 -9 80 -9q32 0 63.5 6t54.5 22q32 19 35 56q1 15 -8 25.5t-22.5 16.5t-28 7.5t-24.5 -1.5q-51 -9 -94 -51zM354 1269q-2 -33 -18 -64.5t-47.5 -56.5t-78 -40t-110.5 -15q-26 0 -47.5 1.5t-41.5 6 t-40 12.5t-42 20q0 -11 -1 -26t-3 -29q-2 -17 -4 -33h-97q1 16 3 30q1 12 2 24.5t2 20.5v16q0 26 -5 52.5t-11 50t-12 40.5t-9 25q-1 1 -1.5 4t-2.5 8q-2 4 -4 11l88 37q14 -38 28.5 -71t35.5 -46q13 21 31.5 47t44.5 50q30 29 68 48.5t75 27.5q21 3 37 3q35 0 65.5 -12.5 t53.5 -36.5q22 -23 32.5 -50t8.5 -55zM504 1346q22 -58 22 -106q0 -31 -9 -58q-8 -28 -24 -54t-38 -51q-35 -40 -82 -73q-41 -29 -63.5 -42t-24.5 -14l-45 81q1 0 25 13.5t55.5 37.5t62 57.5t44.5 74.5q4 13 4 28q0 30 -15 70q-11 26 -20 43q-5 10 -10 17l79 53 q2 -2 14 -23.5t25 -53.5z" unicode="ؓ"/>
<glyph glyph-name="uni0614" d="M544 1287q-78 -217 -200 -217q-75 0 -123 92q-53 -38 -130.5 -54t-163.5 -18h-31h-36q-36 1 -72.5 4t-69.5 8.5t-56 14.5l-1 97q62 -8 132 -12q32 -2 69 -2q31 0 64 2q74 2 149 17q34 6 58 18t40.5 26t28 30.5t20.5 31.5l94 -33q4 -22 11 -39q6 -14 16 -26.5t26 -12.5 t26 6t20 20t21.5 36.5t30.5 55.5z" unicode="ؔ"/>
<glyph glyph-name="uni0615" d="M24 1345q0 -2 1.5 -19.5t4 -47t5 -69t4.5 -84.5q1 -30 2 -56t1 -52q30 35 61 55t62 29q16 4 38 4q50 0 94 -33q20 -15 34.5 -38.5t20.5 -49.5q3 -15 3 -36q-1 -10 -1 -22q-2 -34 -28 -72q-44 -63 -154 -85q-17 -3 -50 -6t-74 -3q-27 0 -83.5 2.5t-128.5 16.5l13 88 q17 -3 31.5 -4.5t26.5 -3.5q13 -2 26 -2q1 0 3 13.5t4 41.5q2 29 2 73v13q0 40 -3 93q-2 45 -5 86.5t-6 73.5q-2 31 -4 51l-2 20zM49 853q78 5 128 17.5t67 38.5q10 17 12 31q0 5 1 9q0 9 -2 16q-3 11 -8.5 18.5t-8.5 9.5q-10 8 -22 12q-6 2 -12.5 2t-13.5 -2 q-22 -6 -43 -23t-39 -39t-33 -46.5t-26 -43.5z" unicode="ؕ"/>
<glyph glyph-name="uni061B" horiz-adv-x="602" unicode="؛" d="M521 632v-8q-1 -36 -17 -68q-18 -36 -46 -62t-60 -42t-58 -15h-2h-4q-66 -1 -116 25t-82 68t-45 92q-11 40 -11 80q0 11 1 23q5 67 31 135t68 128t92 112t103 86l140 -140q-17 -14 -39 -32t-46 -43q-26 -26 -54 -63t-55 -89h11q37 1 68 -11q36 -14 62 -40t42 -60 q16 -35 17 -76zM304 332q38 0 72 -14t60 -40t40 -60t14 -72t-14 -72t-40 -59t-60 -39t-72 -15q-38 1 -72 15t-60 39t-40 59t-14 72t14 72t40 60t60 40t72 14z"/>
<glyph glyph-name="uni061E" horiz-adv-x="752" unicode="؞" d="M539 409l-155 -154l-156 156l154 155zM368 153l-176 -175l-178 178l176 176zM740 158l-174 -181l-177 177l175 177z"/>
<glyph glyph-name="uni061F" horiz-adv-x="1126" unicode="؟" d="M459 416q1 125 -19 173t-104 127q-164 152 -214 242t-50 189q0 179 136 315t365 136q219 0 353 -134t145 -325l-246 -34q-25 133 -93 199t-170 65q-106 -1 -168 -63t-62 -151q0 -64 35 -115q23 -34 140 -140t156 -193q39 -86 39 -219q0 -13 -2 -72h-241zM566 292 q30 0 56 -12t46 -30q20 -20 30 -46q12 -26 12 -56t-12 -56t-30 -46q-20 -20 -46 -30q-26 -12 -56 -12t-56 12t-46 30q-20 20 -30 46q-12 26 -12 56t12 56t30 46q20 20 46 30q26 12 56 12z"/>
<glyph glyph-name="uni0640" horiz-adv-x="720" unicode="ـ" d="M0 0q-20 0 -20 20v211q0 20 20 20h718q21 0 21 -20v-211q0 -20 -21 -20h-718z"/>
<glyph glyph-name="uni064B" d="M423 1436l-438 -177l-46 113l438 177zM511 1213l-438 -177l-46 113l438 176z" unicode="ً"/>
<glyph glyph-name="uni064C" d="M258 1249q5 14 5.5 32t-3.5 31q-3 10 -11.5 17.5t-19.5 12t-23 4.5t-22 -6q-8 -3 -12 -10.5t-4.5 -16.5t3 -18.5t9.5 -16.5q12 -15 33 -19.5t45 -9.5zM260 1458q54 -18 84 -55q28 -37 36 -83q3 -17 3 -35q1 -30 -7 -61q-12 -50 -42 -95q-24 -36 -67 -70t-94 -60 t-105 -42.5t-99 -18.5v2l-2 -2h-2l-29 110q3 0 9 3h1q6 2 13.5 6.5t14 10.5t10 14.5t2.5 19.5q-2 8 -8 18.5t-26 18.5q-8 3 -15 5t-13 4q-7 2 -13 2l5 112q4 0 26.5 -3t51.5 -15q42 -18 69 -50t34 -74q0 -5 0.5 -9t0.5 -9l4 2q21 11 39 21.5t33 21.5q-27 10 -53 26.5 t-45 40.5q-25 30 -32 64q-3 16 -3 31q0 17 4 35q8 32 28 58.5t49 43.5q28 16 64 20q9 1 19 2q27 0 55 -10z" unicode="ٌ"/>
<glyph glyph-name="uni064D" d="M399 -299l-428 -165l-46 113l428 165zM489 -515l-428 -165l-46 113l428 165z" unicode="ٍ"/>
<glyph glyph-name="uni064E" d="M438 1212l-403 -168l-45 112l403 168z" unicode="َ"/>
<glyph glyph-name="uni064F" d="M226 1265q5 14 5.5 31.5t-2.5 30.5q-8 20 -31.5 30.5t-45.5 -1.5q-8 -4 -12 -11.5t-4.5 -16.5t3 -18t9.5 -16q12 -16 33 -20t45 -9zM229 1474q54 -18 83 -55q28 -37 36 -83q3 -17 3 -35q1 -30 -7 -61q-12 -50 -42 -95q-24 -36 -64.5 -71.5t-89.5 -63t-100.5 -45.5 t-96.5 -19l-38 121q22 0 62 12t95 41q44 22 72 43q-27 10 -53 26.5t-45 40.5q-25 30 -32 64q-3 16 -3 31q0 17 4 35q8 32 28 58t49 43t65 21q9 1 19 2q27 0 55 -10z" unicode="ُ"/>
<glyph glyph-name="uni0650" d="M457 -338l-442 -180l-46 112l442 180z" unicode="ِ"/>
<glyph glyph-name="uni0651" d="M397 1369q44 -79 44 -154q0 -12 -1 -23q-1 -15 -7.5 -35.5t-21.5 -41t-40.5 -39t-62.5 -29.5q-16 -6 -34 -6.5t-36 4t-34.5 12t-29.5 17.5q-9 -9 -21 -17.5t-27.5 -15.5t-35.5 -10q-12 -2 -27 -2q-10 0 -21 1q-3 0 -17 3.5t-32.5 12.5t-38 25t-33.5 42q-21 38 -21 84 q0 56 32 124l112 -51q-7 -14 -13 -31.5t-7 -34.5t6 -31t26 -21q23 1 34 15t15 34t3 45t-1 49l121 17q2 -12 2.5 -36.5t3.5 -49t12.5 -43t29.5 -16.5q22 3 31.5 15.5t10.5 30t-5 38.5t-16 42t-22 39.5t-22 30.5l94 82q2 -3 17.5 -23t32.5 -53z" unicode="ّ"/>
<glyph glyph-name="uni0652" d="M217 1472q40 0 78 -19t67 -53q27 -32 41.5 -70t14.5 -77q0 -38 -14.5 -76.5t-41.5 -70.5q-29 -35 -67 -54t-78 -19q-41 0 -79 19t-67 54q-27 32 -41.5 70.5t-14.5 76.5q0 39 14.5 77t41.5 70q29 34 67 53t79 19zM217 1171q14 0 26.5 7.5t21.5 19.5t14.5 26.5t5.5 28.5 q0 13 -5.5 27.5t-14.5 26t-21.5 19t-26.5 7.5t-26.5 -7.5t-22 -19t-15 -26t-5.5 -27.5q0 -14 5.5 -28.5t15 -26.5t22 -19.5t26.5 -7.5z" unicode="ْ"/>
<glyph glyph-name="uni0653" d="M-211 1341q1 2 6 14.5t12.5 29.5t16 35.5t16.5 32.5q32 51 72.5 80.5t87.5 41.5q10 2 31 4t49.5 0.5t62.5 -9t69 -23.5q53 -24 89.5 -24t62 13t43.5 33t35 35l143 -92q-1 -2 -10.5 -15.5t-27 -32.5t-42 -40.5t-54.5 -39.5t-64.5 -29.5t-72.5 -11.5q-47 1 -89 13t-77.5 25 t-64 21.5t-48.5 2.5q-18 -7 -31 -21.5t-22.5 -31.5t-16 -33.5t-10.5 -28.5z" unicode="ٓ"/>
<glyph glyph-name="uni0654" d="M424 1279q-20 -7 -39.5 -11.5t-38.5 -9.5q-38 -11 -87.5 -25.5t-103.5 -32t-108.5 -37t-101.5 -39.5l-57 137q27 11 56 21.5t58 21.5q-52 51 -63 132q-2 14 -2 28q0 68 45 124q19 24 44 41.5t51.5 29.5t52.5 19t48 9q15 1 29 1q29 0 55 -6q38 -8 65.5 -21.5t44 -26.5 t20.5 -17l-100 -108q-2 1 -7 5q-8 6 -21.5 12.5t-31.5 11t-40 2.5q-28 -2 -54.5 -14.5t-40.5 -30.5q-13 -18 -12 -41q4 -23 11.5 -33.5t17.5 -15.5q6 -5 20 -10t37 -7.5t56 -0.5t79 13q33 10 53.5 15t23.5 7z" unicode="ٔ"/>
<glyph glyph-name="uni0655" d="M506 -415q-20 -7 -39.5 -11.5t-38.5 -9.5q-38 -11 -87.5 -25.5t-103.5 -32t-108.5 -37t-101.5 -39.5l-57 137q27 11 56 21.5t58 21.5q-52 51 -63 132q-2 14 -2 28q0 68 45 124q19 24 44 41.5t51.5 29.5t52.5 19t48 9q15 1 29 1q29 0 55 -6q38 -8 65.5 -21.5t44 -26.5 t20.5 -17l-100 -108q-2 1 -7 5q-8 6 -21.5 12.5t-31.5 11t-40 2.5q-28 -2 -54.5 -14.5t-40.5 -30.5q-13 -18 -12 -41q4 -23 11.5 -33.5t17.5 -15.5q6 -5 20 -10t37 -7.5t56 -0.5t79 13q33 10 53.5 15t23.5 7z" unicode="ٕ"/>
<glyph glyph-name="uni0656" d="M60 -302q4 -8 10 -30t11.5 -51t11 -61t9 -59.5t4.5 -45.5v-10q0 -8 -1 -9l-70 -30q-5 43 -10 78.5t-12 67t-16 62.5t-20 66q2 0 12 3q8 2 25 6.5t46 12.5z" unicode="ٖ"/>
<glyph glyph-name="uni0657" d="M107 1192q-6 -15 -6 -35.5t2 -28.5q4 -21 15 -33.5t24.5 -17.5t26 -4t20.5 9q12 13 10 28.5t-14 30.5t-32.5 28.5t-45.5 22.5zM470 1394q-80 -17 -141 -43t-122 -69q48 -28 67 -60q21 -36 21 -75q1 -31 -15 -63q-16 -34 -42 -60q-27 -28 -59 -44q-30 -16 -58 -15h-3 q-42 5 -65 35t-33 91q-2 7 -3.5 21t-2 30.5t0.5 34.5t6 35q-20 4 -42.5 6.5t-50.5 2.5l5 25t6 31t5.5 31t4.5 26l141 -13q47 63 143 115q29 16 64.5 28t65.5 21q35 10 70 18z" unicode="ٗ"/>
<glyph glyph-name="uni0658" d="M401 1381q-18 -146 -74 -226t-141 -80t-140.5 60t-68.5 171l-6 69l34 8q14 3 29 6t26 3q5 -47 13 -82.5t23 -59t38.5 -35t59.5 -11.5q31 0 50.5 11.5t31.5 34.5t19.5 58.5t13.5 83.5z" unicode="٘"/>
<glyph glyph-name="uni0659" d="M2 1081l25 164q101 0 323.5 14t294.5 19q0 -46 -16.5 -103t-34.5 -59q-112 -12 -314.5 -23.5t-277.5 -11.5z" unicode="ٙ"/>
<glyph glyph-name="uni065A" d="M351 696l-133 8q-19 53 -41 108t-46 103.5t-49.5 86.5t-51.5 56l82 117q23 -15 50 -47.5t52 -72.5t44.5 -82.5t28.5 -77.5q2 20 13.5 63t31 92.5t46.5 98t61 79.5l97 -105q-19 -18 -34 -43t-28 -55t-25.5 -65.5t-25.5 -74.5q-15 -46 -32 -92t-40 -97z" unicode="ٚ"/>
<glyph glyph-name="uni065B" d="M208 1248l134 -7q18 -53 40 -108t46.5 -104t50 -86.5t51.5 -55.5l-82 -118q-24 15 -51 47.5t-52 72.5t-44.5 82.5t-27.5 77.5q-2 -13 -7.5 -37t-15 -54t-22.5 -64t-29.5 -66.5t-36.5 -61.5t-42 -49l-97 105q38 35 62.5 97t50.5 140q15 46 32 92.5t40 96.5z" unicode="ٛ"/>
<glyph glyph-name="uni065C" d="M200 91l-176 -176l-178 178l176 176z" unicode="ٜ"/>
<glyph glyph-name="uni065D" d="M175 1335q24 5 45 9t33 20q6 7 9.5 16t3 18t-4.5 16.5t-12 11.5q-22 12 -45.5 1.5t-31.5 -30.5q-3 -13 -2.5 -30.5t5.5 -31.5zM172 1544q28 10 55 10q9 0 19 -2q36 -4 65 -21t49 -43t28 -58q4 -17 4 -35q0 -15 -3 -31q-7 -34 -32 -64q-19 -24 -45 -40.5t-53 -26.5 q28 -21 72 -43q55 -29 95 -41t62 -12l-38 -121q-45 1 -96.5 19t-100.5 45.5t-89.5 63t-64.5 71.5q-29 45 -41 95q-8 31 -8 61q0 18 3 35q7 46 36 83t83 55z" unicode="ٝ"/>
<glyph glyph-name="uni065E" d="M270 1049q19 34 44.5 64t43.5 54q63 -40 129 -110q-48 -75 -90 -115q-58 51 -127 107zM12 1419q19 34 44.5 64t43.5 55q69 -45 129 -111q-51 -76 -90 -114q-45 40 -127 106zM2 1040l25 144q97 36 242 144q171 128 192 140q16 -32 16 -94q0 -48 -14 -59 q-279 -194 -461 -275z" unicode="ٞ"/>
<glyph glyph-name="uni0660" horiz-adv-x="864" unicode="٠" d="M414 610l290 -290l-289 -289l-290 290z"/>
<glyph glyph-name="uni0661" horiz-adv-x="888" unicode="١" d="M598 506q14 -118 14 -227v-45q-4 -130 -26 -248l-242 46q22 113 22 230t-14 229.5t-37 216t-48 189.5q-28 96 -57 176t-52.5 138t-39 90.5t-15.5 33.5l219 109q1 -3 18.5 -39t43 -98t56.5 -147.5t61 -187.5q36 -122 60.5 -238t36.5 -228z"/>
<glyph glyph-name="uni0662" horiz-adv-x="1274" unicode="٢" d="M1158 1443q0 -3 2 -27q2 -20 2 -48v-15q0 -39 -4.5 -89t-16.5 -103q-36 -161 -129 -255t-233 -112q-47 -5 -98 -6h-7q-48 0 -98 12q68 -257 86 -462q7 -75 7 -144q0 -118 -20 -215l-241 48q15 76 15 165v30q-3 106 -20.5 218.5t-45.5 225.5t-59 216t-62 191t-55 150 q-11 29 -23.5 58.5t-24.5 61.5l228 92q2 -3 15.5 -34.5t34.5 -85.5q83 -189 168 -249q37 -27 76 -31q16 -2 34 -2q27 0 60 4q49 6 81 36.5t50 72.5t26 89t10 87q1 17 0 33q0 21 -1 35q-2 26 -2 27z"/>
<glyph glyph-name="uni0663" horiz-adv-x="1632" unicode="٣" d="M1459 1417q7 -45 13 -105q4 -45 4 -92v-33q-8 -177 -91 -277q-16 -18 -38.5 -37.5t-53 -35.5t-70 -27t-88.5 -13q-9 0 -32.5 1.5t-54 9.5t-65 25.5t-67.5 49.5q-8 7 -16 15t-14 17q-48 -45 -108 -67q-54 -20 -117 -19h-12q-12 0 -25 1t-26 3q66 -281 81 -491 q5 -63 5 -120q0 -132 -25 -230l-240 45q17 61 19 156v20q0 87 -12 187q-10 95 -30.5 204.5t-50.5 232.5q-20 79 -40 152t-38.5 135t-34.5 111.5t-27 81.5q-5 13 -9 25.5t-9 26.5l232 81q2 -6 5 -14q2 -7 5 -17t8 -23q28 -80 52.5 -134.5t45.5 -90t39 -55t33 -28.5t27.5 -11 t22.5 -2q21 -2 36.5 4.5t29.5 20.5q25 25 43 73t29 114q5 31 6.5 57.5t2.5 45.5v37l246 5v-44v-46.5t-0.5 -52.5t-0.5 -49.5v-38.5v-10q0 -43 8 -75q9 -36 26 -53q14 -14 27 -17t16 -3h1q38 2 52 11.5t19 14.5q20 23 26 65q6 39 6 81v7q0 46 -5.5 90t-8.5 72q-2 11 -3 21.5 t-2 20.5l244 28q1 -8 1.5 -17t2.5 -20z"/>
<glyph glyph-name="uni0664" horiz-adv-x="1292" unicode="٤" d="M1104 124q-62 -30 -137 -56t-152 -43t-152 -21l-34 -2q-55 0 -103 12q-54 12 -92 44t-62 72t-37 84q-12 44 -12 85q0 55 22 125t63 146q40 76 98 157q58 80 130 158q-61 35 -112 71t-88 76q-38 40 -58 86t-20 103q0 69 38 129t106 115t163 105t208 96l97 -224 q-92 -38 -156 -68t-104 -57t-58 -49t-16 -44q0 -12 10 -26t24 -29q15 -15 34 -30t39 -30q47 -34 107 -70l71 -223q-76 -100 -139 -186q-27 -36 -54 -74t-50 -72t-40 -61t-24 -43q-16 -33 -16 -57q0 -11 4 -19q10 -28 61 -30h12q55 0 122 16q75 18 184 62z"/>
<glyph glyph-name="uni0665" horiz-adv-x="1417" unicode="٥" d="M925 425q27 53 45 119t24 136q4 41 4 82q0 29 -2 57q-4 70 -20 133q-23 88 -63 150t-105 95q-16 9 -35 9q-16 0 -33 -7q-37 -15 -74 -53t-72 -94q-36 -56 -64 -122t-47 -139q-19 -72 -23 -141q-1 -16 -1 -33q0 -53 12 -103q15 -66 49 -118t84 -84t116 -32q60 0 112 33 t93 112zM1159 1231q25 -71 43 -161t26 -188q4 -58 4 -117q0 -42 -2 -86q-5 -105 -27 -203q-21 -98 -61 -186t-102 -158q-36 -38 -74 -64t-80 -44q-42 -16 -84 -24t-85 -9q-15 -1 -29 -1q-81 0 -146 20q-76 24 -133 66t-95 101t-62 127t-34 140q-10 73 -10 144q0 108 27 232 t75 242q48 120 112 226t140 178t158 102q39 14 77 13l87 -17q96 -38 164 -125t111 -208z"/>
<glyph glyph-name="uni0666" horiz-adv-x="1453" unicode="٦" d="M1078 -33q-50 75 -90 174t-70 211q-28 112 -44 232t-18 240v22q0 107 14 208q14 112 46 206q-34 -30 -86 -46t-114 -18q-20 -1 -41 -2q-45 0 -91 6q-68 8 -133 24q-65 18 -122 44t-98 57v331q83 -58 161 -92t152 -48q58 -11 112 -11q14 1 27 1q67 4 127 16q60 14 114 35 q53 21 99 44q3 1 13 -6t22 -21l30 -30q16 -18 33 -36q39 -43 87 -98q-54 -209 -67 -430q-4 -63 -4 -131q0 -34 1 -69q4 -106 20 -216t49 -224q33 -112 89 -219z"/>
<glyph glyph-name="uni0667" horiz-adv-x="1489" unicode="٧" d="M1159 1497l213 -122q-73 -128 -132 -257t-105.5 -249.5t-81.5 -229.5t-60 -198q-27 -98 -45 -178.5t-29 -138.5q-11 -60 -16 -92l-5 -32l-244 1q-25 204 -70.5 383t-99 329t-109.5 268t-101.5 200.5t-75 126.5t-30.5 46l199 144q1 -2 20 -30t50.5 -79.5t72 -125.5 t84.5 -170q51 -111 95.5 -226t80.5 -233l6 -20l6 -20q27 93 63.5 200t83 223t104 237.5t126.5 242.5z"/>
<glyph glyph-name="uni0668" horiz-adv-x="1510" unicode="٨" d="M1213 486q40 -87 77 -155t65.5 -115t45.5 -72l17 -25l-199 -145q-2 2 -20.5 30t-49.5 79t-71.5 125t-84.5 168q-103 223 -175 458q-3 9 -5.5 18t-5.5 18q-27 -92 -63 -198t-82.5 -220.5t-103 -235t-124.5 -240.5l-214 121q93 163 164 327.5t123 316t87 282.5t56.5 228.5 t30.5 153.5t10 58l243 -1q19 -158 51.5 -300t70.5 -265.5t79 -227t78 -183.5z"/>
<glyph glyph-name="uni0669" horiz-adv-x="1267" unicode="٩" d="M511 949q24 -6 51 -5t54 5.5t53 12.5t49 17q-8 40 -17.5 82t-27 78t-46 61.5t-74.5 33.5q-42 -5 -71 -26t-44.5 -50.5t-18 -63t7 -63t30.5 -52.5t54 -30zM1013 558q28 -145 70.5 -247.5t94.5 -152.5l-169 -178q-165 157 -237 534q-12 60 -19.5 114t-12.5 98 q-66 -20 -142 -28q-20 -2 -40 -1q-56 0 -113 15q-73 20 -130 67.5t-95 118.5q-6 15 -16 54.5t-13 91.5q-1 13 -1 27q0 41 7 87q9 62 42 122q36 67 97 115q60 49 132 69q47 13 96 13q26 0 52 -4q76 -11 145 -61q198 -147 216 -556v-1l1 -25q2 -24 6 -64.5t11 -94.5t18 -113z "/>
<glyph glyph-name="uni066A" horiz-adv-x="1135" unicode="٪" d="M1072 279l-185 -295l-296 185l185 295zM557 1192l-182 -297l-297 182l182 297zM317 -23q-15 13 -27 27t-25 30t-27 34t-32 42q74 154 164 334t183 365q187 366 301 572q18 -12 36 -31t35 -38q19 -22 39 -45q-14 -31 -26 -59q-10 -24 -22 -48t-19 -37q-59 -104 -131 -242 t-159 -312q-86 -174 -158 -321t-132 -271z"/>
<glyph glyph-name="uni066B" horiz-adv-x="602" unicode="٫" d="M459 86q-1 -149 -95 -251t-272 -150v106q100 35 140 71t40 89q0 21 -16 37t-58 41q-75 43 -75 141q0 69 42 105t105 36q87 0 138 -60t51 -165z"/>
<glyph glyph-name="uni066C" horiz-adv-x="573" unicode="٬" d="M132 -61q0 147 92 250t274 152v-107q-100 -36 -140 -72t-40 -88q0 -30 39 -54l36 -23q75 -47 75 -142q0 -69 -42 -105t-106 -36q-88 0 -138 60t-50 165z"/>
<glyph glyph-name="uni066D" horiz-adv-x="965" unicode="٭" d="M922 772l-252 -194l84 -306l-13 -8l-262 174l-262 -174l-12 8l86 306l-248 194l6 16l313 13l111 297h16l109 -297l317 -13z"/>
<glyph glyph-name="uni066E" horiz-adv-x="1887" unicode="ٮ" d="M1739 662q80 -179 80 -303q0 -44 -10 -81q-14 -50 -49.5 -95t-98.5 -77q-90 -46 -207.5 -78t-251.5 -48q-133 -18 -277 -18h-8l-280 17q-123 14 -217.5 53t-161.5 100q-121 109 -138 282q-3 27 -3 55q0 61 12 125q17 94 62 206l230 -91q-35 -81 -48 -149q-9 -49 -9 -91 q0 -16 1 -31q3 -40 17.5 -70.5t40.5 -54.5q38 -34 100 -56.5t145 -33.5q39 -5 100 -7q60 -4 128 -4h23q56 0 113 2q68 2 121 9q161 17 268 48t164 82q2 16 -11.5 62.5t-54.5 137.5q-17 36 -32.5 67.5t-29.5 55.5q-16 28 -30 52l207 131q1 -2 11 -17.5t25 -42t33 -62 t36 -75.5z"/>
<glyph glyph-name="uni066F" horiz-adv-x="1571" unicode="ٯ" d="M904 326q23 -34 61.5 -51t83.5 -23q28 -3 56 -3q18 -1 36 1q47 4 87 12q-6 70 -17.5 121t-25 86.5t-27.5 57.5t-26 34q-26 27 -62 33q-15 3 -30 3q-20 0 -40 -5q-34 -9 -63 -30t-44 -48q-11 -21 -16 -46t-4 -49.5t9 -48.5t22 -44zM1441 474q23 -88 33 -198q6 -72 6 -152 q0 -43 -2 -88q-1 -39 -5 -81.5t-13.5 -86t-25.5 -87.5t-41 -87q-127 -220 -443 -278q-26 -3 -58 -5.5t-68 -2.5q-59 0 -126 8t-134.5 27.5t-133 50.5t-120.5 78q-91 77 -137.5 181t-46.5 230q0 67 11 135t27 131t35.5 117.5t36.5 95.5t29 66t13 28l220 -111l-10 -20 q-10 -20 -23.5 -53.5t-30 -79t-30.5 -96.5t-23.5 -106t-9.5 -107q0 -141 96 -222q45 -38 105 -61t122 -34q62 -12 118 -13h13q48 0 83 6q101 18 163 51.5t96.5 78t47 98.5t15.5 113q-22 -4 -45 -3.5t-47 -1.5q-18 -1 -36 -1q-72 0 -130 14q-72 16 -124 44.5t-88 64.5t-59 69 q-50 74 -66 150q-9 45 -9 87q0 31 4 61q12 72 46.5 137.5t86 115t116.5 79.5t137 34h16q64 0 130 -24q75 -28 147 -94q48 -44 80 -110t52 -148z"/>
<glyph glyph-name="uni0670" d="M28 1375q4 -8 10 -30t11.5 -51t11 -61t9 -59.5t4.5 -45.5v-10q0 -8 -1 -9l-70 -30q-5 43 -10 78.5t-12 67t-16 62.5t-20 66q2 0 12 3q8 2 25 6.5t46 12.5z" unicode="ٰ"/>
<glyph glyph-name="uni0672" horiz-adv-x="766" unicode="ٲ" d="M543 1321q2 -6 6 -19t9 -39.5t9.5 -70.5t8 -111t4.5 -161v-56q0 -74 -2 -165q-2 -127 -9.5 -290.5t-21.5 -369.5l-245 -37q13 205 20.5 358.5t9.5 268.5q2 96 3 170q-1 15 -1 29q0 84 -3 154q-3 76 -7.5 128.5t-8 85t-6.5 46.5l-3 14zM618 1685q-16 16 -34 27 q-16 10 -37.5 18t-46.5 7q-18 0 -30.5 -9t-21.5 -21q-8 -11 -12 -23t-4 -23q0 -35 29 -55q28 -20 76 -19h9q31 2 56 5t43 7q21 4 37 10l19 -134q-26 -7 -59 -17.5t-76 -17.5q-42 -8 -98 -8q-2 0 -5 -1q-54 0 -123 13q-9 1 -21.5 5t-26 7.5t-26 6t-21.5 1.5q-28 -2 -46 -8.5 t-31 -15.5t-23.5 -19.5t-23.5 -21.5l-73 97q12 11 29 26.5t38.5 30.5t47 26t54.5 14q20 2 39 -1.5t35 -7.5q18 -5 35 -11q-14 27 -18 53t-3 48t5 39t7 25q21 55 70 91t115 36q43 0 78 -13t61 -29q30 -18 53 -42z"/>
<glyph glyph-name="uni0673" horiz-adv-x="600" unicode="ٳ" d="M364 1416q2 -8 8.5 -36.5t13 -90t11.5 -161.5q5 -91 5 -224v-26q0 -150 -8 -357t-26 -482l-245 -37q13 205 21 373t10 301q2 111 2 198v34q0 100 -4 169q-3 76 -7.5 128.5t-8.5 84.5q-4 34 -6 48l-3 13zM452 -341q-16 16 -34 27q-16 10 -37.5 18t-46.5 7q-18 0 -30.5 -9 t-21.5 -21q-8 -11 -12 -23t-4 -23q0 -35 29 -55q28 -20 76 -19h9q31 2 56 5t43 7q21 4 37 10l19 -134q-26 -7 -59 -17.5t-76 -17.5q-42 -8 -98 -8q-2 0 -5 -1q-54 0 -123 13q-9 1 -21.5 5t-26 7.5t-26 6t-21.5 1.5q-28 -2 -46 -8.5t-31 -15.5t-23.5 -19.5t-23.5 -21.5 l-73 97q12 11 29 26.5t38.5 30.5t47 26t54.5 14q20 2 39 -1.5t35 -7.5q18 -5 35 -11q-14 27 -18 53t-3 48t5 39t7 25q21 55 70 91t115 36q43 0 78 -13t61 -29q30 -18 53 -42z"/>
<glyph glyph-name="uni0675" horiz-adv-x="684" unicode="ٵ" d="M496 1321q2 -6 6 -19t9 -39.5t9.5 -70.5t8 -111t4.5 -161v-56q0 -74 -2 -165q-2 -127 -9.5 -290.5t-21.5 -369.5l-245 -37q13 205 20.5 358.5t9.5 268.5q2 96 3 170q-1 15 -1 29q0 84 -3 154q-3 76 -7.5 128.5t-8 85t-6.5 46.5l-3 14zM628 1508q-20 -7 -39.5 -11.5 t-38.5 -9.5q-38 -11 -87.5 -25.5t-103.5 -32t-108.5 -37t-101.5 -39.5l-57 137q27 11 56 21.5t58 21.5q-52 51 -63 132q-2 14 -2 28q0 68 45 124q19 24 44 41.5t51.5 29.5t52.5 19t48 9q15 1 29 1q29 0 55 -6q38 -8 65.5 -21.5t44 -26.5t20.5 -17l-100 -108q-2 1 -7 5 q-8 6 -21.5 12.5t-31.5 11t-40 2.5q-28 -2 -54.5 -14.5t-40.5 -30.5q-13 -18 -12 -41q4 -23 11.5 -33.5t17.5 -15.5q6 -5 20 -10t37 -7.5t56 -0.5t79 13q33 10 53.5 15t23.5 7z"/>
<glyph glyph-name="uni0676" horiz-adv-x="956" unicode="ٶ" d="M609 250h33t30 1q-2 87 -17 153.5t-40 117.5q-15 31 -31.5 49.5t-33 28.5t-32 13t-28.5 3q-31 0 -57 -14t-45.5 -37.5t-33 -53.5t-19.5 -62q-7 -33 -6 -57.5t8.5 -42.5t20 -31.5t29.5 -25.5q5 -4 18.5 -10.5t39.5 -13.5t66 -12t98 -6zM833 630q26 -52 42.5 -109 t25.5 -113.5t12.5 -110t3.5 -98.5q0 -199 -98 -359t-290 -274q-68 -40 -127.5 -66.5t-104.5 -42.5t-71.5 -22.5t-29.5 -6.5l-79 234l26 6q26 6 67.5 20t94 36t106.5 54q150 92 214 219h-19q-124 1 -212.5 22.5t-148.5 63.5q-34 24 -67.5 60t-57.5 85q-24 48 -32 112 q-3 23 -3 48q0 45 10 97q14 72 45 136t76 112q114 125 274 125q111 0 199 -58t144 -170zM696 1141q-20 -7 -39.5 -11.5t-38.5 -9.5q-38 -11 -87.5 -25.5t-103.5 -32t-108.5 -37t-101.5 -39.5l-57 137q27 11 56 21.5t58 21.5q-52 51 -63 132q-2 14 -2 28q0 68 45 124 q19 24 44 41.5t51.5 29.5t52.5 19t48 9q15 1 29 1q29 0 55 -6q38 -8 65.5 -21.5t44 -26.5t20.5 -17l-100 -108q-2 1 -7 5q-8 6 -21.5 12.5t-31.5 11t-40 2.5q-28 -2 -54.5 -14.5t-40.5 -30.5q-13 -18 -12 -41q4 -23 11.5 -33.5t17.5 -15.5q6 -5 20 -10t37 -7.5t56 -0.5 t79 13q33 10 53.5 15t23.5 7z"/>
<glyph glyph-name="uni0677" horiz-adv-x="1097" unicode="ٷ" d="M722 250h33t30 1q-2 87 -17 153.5t-40 117.5q-15 31 -31.5 49.5t-33 28.5t-32 13t-28.5 3q-31 0 -57 -14t-45.5 -37.5t-33 -53.5t-19.5 -62q-7 -33 -6 -57.5t8.5 -42.5t20 -31.5t29.5 -25.5q5 -4 18.5 -10.5t39.5 -13.5t66 -12t98 -6zM946 630q26 -52 42.5 -109 t25.5 -113.5t12.5 -110t3.5 -98.5q0 -199 -98 -359t-290 -274q-68 -40 -127.5 -66.5t-104.5 -42.5t-71.5 -22.5t-29.5 -6.5l-79 234l26 6q26 6 67.5 20t94 36t106.5 54q150 92 214 219h-19q-124 1 -212.5 22.5t-148.5 63.5q-34 24 -67.5 60t-57.5 85q-24 48 -32 112 q-3 23 -3 48q0 45 10 97q14 72 45 136t76 112q114 125 274 125q111 0 199 -58t144 -170zM834 1091q-20 -7 -39.5 -11.5t-38.5 -9.5q-38 -11 -87.5 -25.5t-103.5 -32t-108.5 -37t-101.5 -39.5l-57 137q27 11 56 21.5t58 21.5q-52 51 -63 132q-2 14 -2 28q0 68 45 124 q19 24 44 41.5t51.5 29.5t52.5 19t48 9q15 1 29 1q29 0 55 -6q38 -8 65.5 -21.5t44 -26.5t20.5 -17l-100 -108q-2 1 -7 5q-8 6 -21.5 12.5t-31.5 11t-40 2.5q-28 -2 -54.5 -14.5t-40.5 -30.5q-13 -18 -12 -41q4 -23 11.5 -33.5t17.5 -15.5q6 -5 20 -10t37 -7.5t56 -0.5 t79 13q33 10 53.5 15t23.5 7zM682 1846q5 14 5.5 31.5t-2.5 30.5q-8 20 -31.5 30.5t-45.5 -1.5q-8 -4 -12 -11.5t-4.5 -16.5t3 -18t9.5 -16q12 -16 33 -20t45 -9zM685 2055q54 -18 83 -55q28 -37 36 -83q3 -17 3 -35q1 -30 -7 -61q-12 -50 -42 -95q-24 -36 -64.5 -71.5 t-89.5 -63t-100.5 -45.5t-96.5 -19l-38 121q22 0 62 12t95 41q44 22 72 43q-27 10 -53 26.5t-45 40.5q-25 30 -32 64q-3 16 -3 31q0 17 4 35q8 32 28 58t49 43t65 21q9 1 19 2q27 0 55 -10z"/>
<glyph glyph-name="uni0678" horiz-adv-x="1625" unicode="ٸ" d="M1525 593q-77 17 -138 17h-21q-69 -4 -120 -22.5t-86.5 -48.5t-58.5 -64t-36 -67t-19 -58q-6 -26 -6 -39.5t1 -18.5q2 -3 3 -5t5 -5q16 -14 53 -26t74 -22q51 -14 103.5 -31t100.5 -49q64 -46 96 -110q31 -61 31 -137v-9q-3 -146 -102 -256q-38 -42 -89 -75.5t-115 -60.5 q-59 -24 -118.5 -39.5t-113 -24.5t-96 -12.5t-67.5 -4.5h-44q-219 0 -372 79q-107 57 -178 150q-75 102 -102 243q-12 66 -12 145v28q2 96 23 200q7 38 19 84.5t29.5 97.5t41.5 105t56 107l210 -129q-42 -69 -70.5 -150.5t-44 -162t-18.5 -154.5q-1 -17 -1 -32q0 -53 8 -94 q6 -31 17 -63.5t31.5 -63.5t52 -58.5t79.5 -47.5q47 -21 113 -31q51 -8 116 -8q18 0 38 1q15 0 48 2.5t75.5 9.5t90.5 18.5t94 30.5q57 24 88.5 49.5t46 49t17.5 43t3 30.5q0 14 -2 25t-16 21t-44 20.5t-86 25.5q-28 8 -57.5 16.5t-58.5 20t-57 26.5t-52 36q-22 19 -43 47 t-35 66t-16 88v14q0 44 13 98q7 30 21.5 71t40 86.5t63 92t91.5 86.5q52 39 111.5 64t126.5 37q58 11 122 11q92 0 195 -23zM938 828q-20 -7 -39.5 -11.5t-38.5 -9.5q-38 -11 -87.5 -25.5t-103.5 -32t-108.5 -37t-101.5 -39.5l-57 137q27 11 56 21.5t58 21.5q-52 51 -63 132 q-2 14 -2 28q0 68 45 124q19 24 44 41.5t51.5 29.5t52.5 19t48 9q15 1 29 1q29 0 55 -6q38 -8 65.5 -21.5t44 -26.5t20.5 -17l-100 -108q-2 1 -7 5q-8 6 -21.5 12.5t-31.5 11t-40 2.5q-28 -2 -54.5 -14.5t-40.5 -30.5q-13 -18 -12 -41q4 -23 11.5 -33.5t17.5 -15.5 q6 -5 20 -10t37 -7.5t56 -0.5t79 13q33 10 53.5 15t23.5 7z"/>
<glyph glyph-name="uni067A" horiz-adv-x="1837" unicode="ٺ" d="M1659 662q80 -179 80 -303q0 -44 -10 -81q-14 -50 -49.5 -95t-98.5 -77q-90 -46 -207.5 -78t-251.5 -48q-133 -18 -277 -18h-8l-280 17q-123 14 -217.5 53t-161.5 100q-121 109 -138 282q-3 27 -3 55q0 61 12 125q17 94 62 206l230 -91q-35 -81 -48 -149q-9 -49 -9 -91 q0 -16 1 -31q3 -40 17.5 -70.5t40.5 -54.5q38 -34 100 -56.5t145 -33.5q39 -5 100 -7q60 -4 128 -4h23q56 0 113 2q68 2 121 9q161 17 268 48t164 82q2 16 -11.5 62.5t-54.5 137.5q-17 36 -32.5 67.5t-29.5 55.5q-16 28 -30 52l207 131q1 -2 11 -17.5t25 -42t33 -62 t36 -75.5zM744 1299l177 178l177 -175l-179 -179zM919 1123l176 -175l-179 -179l-175 176z"/>
<glyph glyph-name="uni067B" horiz-adv-x="1831" unicode="ٻ" d="M692 -422l177 178l177 -175l-179 -179zM867 -598l176 -175l-179 -179l-175 176zM1659 662q80 -179 80 -303q0 -44 -10 -81q-14 -50 -49.5 -95t-98.5 -77q-90 -46 -207.5 -78t-251.5 -48q-133 -18 -277 -18h-8l-280 17q-123 14 -217.5 53t-161.5 100q-121 109 -138 282 q-3 27 -3 55q0 61 12 125q17 94 62 206l230 -91q-35 -81 -48 -149q-9 -49 -9 -91q0 -16 1 -31q3 -40 17.5 -70.5t40.5 -54.5q38 -34 100 -56.5t145 -33.5q39 -5 100 -7q60 -4 128 -4h23q56 0 113 2q68 2 121 9q161 17 268 48t164 82q2 16 -11.5 62.5t-54.5 137.5 q-17 36 -32.5 67.5t-29.5 55.5q-16 28 -30 52l207 131q1 -2 11 -17.5t25 -42t33 -62t36 -75.5z"/>
<glyph glyph-name="uni067C" horiz-adv-x="1824" unicode="ټ" d="M1659 662q80 -179 80 -303q0 -44 -10 -81q-14 -50 -49.5 -95t-98.5 -77q-90 -46 -207.5 -78t-251.5 -48q-133 -18 -277 -18h-8l-280 17q-123 14 -217.5 53t-161.5 100q-121 109 -138 282q-3 27 -3 55q0 61 12 125q17 94 62 206l230 -91q-35 -81 -48 -149q-9 -49 -9 -91 q0 -16 1 -31q3 -40 17.5 -70.5t40.5 -54.5q38 -34 100 -56.5t145 -33.5q39 -5 100 -7q60 -4 128 -4h23q56 0 113 2q68 2 121 9q161 17 268 48t164 82q2 16 -11.5 62.5t-54.5 137.5q-17 36 -32.5 67.5t-29.5 55.5q-16 28 -30 52l207 131q1 -2 11 -17.5t25 -42t33 -62 t36 -75.5zM1241 952l-176 -175l-178 178l-176 -175l-178 177l175 177l179 -179l175 176zM888 1593q40 0 78 -19t67 -53q27 -32 41.5 -70t14.5 -77q0 -38 -14.5 -76.5t-41.5 -70.5q-29 -35 -67 -54t-78 -19q-41 0 -79 19t-67 54q-27 32 -41.5 70.5t-14.5 76.5q0 39 14.5 77 t41.5 70q29 34 67 53t79 19zM888 1292q14 0 26.5 7.5t21.5 19.5t14.5 26.5t5.5 28.5q0 13 -5.5 27.5t-14.5 26t-21.5 19t-26.5 7.5t-26.5 -7.5t-22 -19t-15 -26t-5.5 -27.5q0 -14 5.5 -28.5t15 -26.5t22 -19.5t26.5 -7.5z"/>
<glyph glyph-name="uni067D" horiz-adv-x="1831" unicode="ٽ" d="M1659 662q80 -179 80 -303q0 -44 -10 -81q-14 -50 -49.5 -95t-98.5 -77q-90 -46 -207.5 -78t-251.5 -48q-133 -18 -277 -18h-8l-280 17q-123 14 -217.5 53t-161.5 100q-121 109 -138 282q-3 27 -3 55q0 61 12 125q17 94 62 206l230 -91q-35 -81 -48 -149q-9 -49 -9 -91 q0 -16 1 -31q3 -40 17.5 -70.5t40.5 -54.5q38 -34 100 -56.5t145 -33.5q39 -5 100 -7q60 -4 128 -4h23q56 0 113 2q68 2 121 9q161 17 268 48t164 82q2 16 -11.5 62.5t-54.5 137.5q-17 36 -32.5 67.5t-29.5 55.5q-16 28 -30 52l207 131q1 -2 11 -17.5t25 -42t33 -62 t36 -75.5zM706 686l155 154l155 -156l-153 -155zM876 942l176 176l179 -179l-177 -176zM504 937l174 181l177 -177l-175 -176z"/>
<glyph glyph-name="uni067F" horiz-adv-x="1817" unicode="ٿ" d="M1659 662q80 -179 80 -303q0 -44 -10 -81q-14 -50 -49.5 -95t-98.5 -77q-90 -46 -207.5 -78t-251.5 -48q-133 -18 -277 -18h-8l-280 17q-123 14 -217.5 53t-161.5 100q-121 109 -138 282q-3 27 -3 55q0 61 12 125q17 94 62 206l230 -91q-35 -81 -48 -149q-9 -49 -9 -91 q0 -16 1 -31q3 -40 17.5 -70.5t40.5 -54.5q38 -34 100 -56.5t145 -33.5q39 -5 100 -7q60 -4 128 -4h23q56 0 113 2q68 2 121 9q161 17 268 48t164 82q2 16 -11.5 62.5t-54.5 137.5q-17 36 -32.5 67.5t-29.5 55.5q-16 28 -30 52l207 131q1 -2 11 -17.5t25 -42t33 -62 t36 -75.5zM1184 793l-154 -154l-157 156l154 155zM861 791l-155 -154l-156 156l154 155zM1182 1122l-155 -154l-156 156l154 155zM861 1124l-155 -154l-156 156l154 155z"/>
<glyph glyph-name="uni0680" horiz-adv-x="1824" unicode="ڀ" d="M1214 -747l-154 -154l-157 156l154 155zM891 -749l-155 -154l-156 156l154 155zM1212 -418l-155 -154l-156 156l154 155zM891 -416l-155 -154l-156 156l154 155zM1659 662q80 -179 80 -303q0 -44 -10 -81q-14 -50 -49.5 -95t-98.5 -77q-90 -46 -207.5 -78t-251.5 -48 q-133 -18 -277 -18h-8l-280 17q-123 14 -217.5 53t-161.5 100q-121 109 -138 282q-3 27 -3 55q0 61 12 125q17 94 62 206l230 -91q-35 -81 -48 -149q-9 -49 -9 -91q0 -16 1 -31q3 -40 17.5 -70.5t40.5 -54.5q38 -34 100 -56.5t145 -33.5q39 -5 100 -7q60 -4 128 -4h23 q56 0 113 2q68 2 121 9q161 17 268 48t164 82q2 16 -11.5 62.5t-54.5 137.5q-17 36 -32.5 67.5t-29.5 55.5q-16 28 -30 52l207 131q1 -2 11 -17.5t25 -42t33 -62t36 -75.5z"/>
<glyph glyph-name="uni0681" horiz-adv-x="1579" unicode="ځ" d="M964 382q-63 -15 -128.5 -36.5t-128.5 -49t-122 -63t-110 -79.5q-28 -25 -52.5 -62.5t-40.5 -81.5q-16 -46 -19 -94q-1 -11 -1 -22q0 -37 10 -74q16 -58 53 -100t85.5 -70.5t102.5 -46t105 -26.5q58 -11 121 -11q76 0 161 16q156 28 353 110l94 -227q-347 -144 -610 -144 q-44 0 -84.5 3.5t-80.5 10.5q-222 42 -362 156q-66 53 -110 119.5t-64 144.5q-19 68 -19 139q1 11 1 23q4 83 30 166q25 75 67.5 141t97.5 115q60 52 140 93.5t166 73.5t171.5 56t157.5 42q-43 23 -90 50.5t-98 59.5q-82 53 -157 53q-25 0 -50 -6q-43 -11 -80.5 -36.5 t-67.5 -54.5t-51 -57.5t-30 -44.5v1l-213 120q2 5 27 43t70 87q64 69 136 114.5t148 65.5q48 11 96 13h19l77 -6q53 -9 106 -29t102 -55q130 -93 231 -142.5t170 -71t105 -24.5t37 -3l-76 -234q-2 0 -41.5 -6t-111.5 -15zM891 1279q-20 -7 -39.5 -11.5t-38.5 -9.5 q-38 -11 -87.5 -25.5t-103.5 -32t-108.5 -37t-101.5 -39.5l-57 137q27 11 56 21.5t58 21.5q-52 51 -63 132q-2 14 -2 28q0 68 45 124q19 24 44 41.5t51.5 29.5t52.5 19t48 9q15 1 29 1q29 0 55 -6q38 -8 65.5 -21.5t44 -26.5t20.5 -17l-100 -108q-2 1 -7 5q-8 6 -21.5 12.5 t-31.5 11t-40 2.5q-28 -2 -54.5 -14.5t-40.5 -30.5q-13 -18 -12 -41q4 -23 11.5 -33.5t17.5 -15.5q6 -5 20 -10t37 -7.5t56 -0.5t79 13q33 10 53.5 15t23.5 7z"/>
<glyph glyph-name="uni0682" horiz-adv-x="1579" unicode="ڂ" d="M964 382q-63 -15 -128.5 -36.5t-128.5 -49t-122 -63t-110 -79.5q-28 -25 -52.5 -62.5t-40.5 -81.5q-16 -46 -19 -94q-1 -11 -1 -22q0 -37 10 -74q16 -58 53 -100t85.5 -70.5t102.5 -46t105 -26.5q58 -11 121 -11q76 0 161 16q156 28 353 110l94 -227q-347 -144 -610 -144 q-44 0 -84.5 3.5t-80.5 10.5q-222 42 -362 156q-66 53 -110 119.5t-64 144.5q-19 68 -19 139q1 11 1 23q4 83 30 166q25 75 67.5 141t97.5 115q60 52 140 93.5t166 73.5t171.5 56t157.5 42q-43 23 -90 50.5t-98 59.5q-82 53 -157 53q-25 0 -50 -6q-43 -11 -80.5 -36.5 t-67.5 -54.5t-51 -57.5t-30 -44.5v1l-213 120q2 5 27 43t70 87q64 69 136 114.5t148 65.5q48 11 96 13h19l77 -6q53 -9 106 -29t102 -55q130 -93 231 -142.5t170 -71t105 -24.5t37 -3l-76 -234q-2 0 -41.5 -6t-111.5 -15zM413 1664l177 178l177 -175l-179 -179zM588 1488 l176 -175l-179 -179l-175 176z"/>
<glyph glyph-name="uni0683" horiz-adv-x="1579" unicode="ڃ" d="M964 382q-63 -15 -128.5 -36.5t-128.5 -49t-122 -63t-110 -79.5q-28 -25 -52.5 -62.5t-40.5 -81.5q-16 -46 -19 -94q-1 -11 -1 -22q0 -37 10 -74q16 -58 53 -100t85.5 -70.5t102.5 -46t105 -26.5q58 -11 121 -11q76 0 161 16q156 28 353 110l94 -227q-347 -144 -610 -144 q-44 0 -84.5 3.5t-80.5 10.5q-222 42 -362 156q-66 53 -110 119.5t-64 144.5q-19 68 -19 139q1 11 1 23q4 83 30 166q25 75 67.5 141t97.5 115q60 52 140 93.5t166 73.5t171.5 56t157.5 42q-43 23 -90 50.5t-98 59.5q-82 53 -157 53q-25 0 -50 -6q-43 -11 -80.5 -36.5 t-67.5 -54.5t-51 -57.5t-30 -44.5v1l-213 120q2 5 27 43t70 87q64 69 136 114.5t148 65.5q48 11 96 13h19l77 -6q53 -9 106 -29t102 -55q130 -93 231 -142.5t170 -71t105 -24.5t37 -3l-76 -234q-2 0 -41.5 -6t-111.5 -15zM1230 -66l-176 -175l-178 178l-176 -175l-178 177 l175 177l179 -179l175 176z"/>
<glyph glyph-name="uni0684" horiz-adv-x="1608" unicode="ڄ" d="M1059 320q-63 -15 -128.5 -36.5t-129 -49t-122.5 -63t-109 -79.5q-28 -25 -52.5 -62.5t-39.5 -81.5q-16 -46 -20 -94q-1 -11 -1 -22q0 -37 10 -74q8 -29 27 -55t45 -48.5t56.5 -42t60.5 -34.5q71 -36 157 -63q-8 -44 -16 -87q-7 -37 -15 -78.5t-16 -76.5 q-221 42 -361 156q-66 53 -110 119.5t-65 144.5q-18 68 -18 138v24q4 83 31 166q25 75 67 141t97 115q60 52 140 93.5t166.5 73.5t172 56t157.5 42q-44 23 -91 50.5t-98 59.5q-82 53 -157 53q-25 0 -49 -6q-43 -11 -80.5 -36.5t-67.5 -54.5t-51.5 -57.5t-30.5 -44.5v1 l-213 120q3 5 28 43t70 87q63 69 135.5 114.5t148.5 65.5q48 11 96 13h19l77 -6q52 -9 105 -29t103 -55q130 -93 231 -142.5t170 -71t105 -24.5t37 -3l-76 -234q-2 0 -42 -6t-112 -15zM856 -31l177 178l177 -175l-179 -179zM1031 -207l176 -175l-179 -179l-175 176z"/>
<glyph glyph-name="uni0685" horiz-adv-x="1579" unicode="څ" d="M964 382q-63 -15 -128.5 -36.5t-128.5 -49t-122 -63t-110 -79.5q-28 -25 -52.5 -62.5t-40.5 -81.5q-16 -46 -19 -94q-1 -11 -1 -22q0 -37 10 -74q16 -58 53 -100t85.5 -70.5t102.5 -46t105 -26.5q58 -11 121 -11q76 0 161 16q156 28 353 110l94 -227q-347 -144 -610 -144 q-44 0 -84.5 3.5t-80.5 10.5q-222 42 -362 156q-66 53 -110 119.5t-64 144.5q-19 68 -19 139q1 11 1 23q4 83 30 166q25 75 67.5 141t97.5 115q60 52 140 93.5t166 73.5t171.5 56t157.5 42q-43 23 -90 50.5t-98 59.5q-82 53 -157 53q-25 0 -50 -6q-43 -11 -80.5 -36.5 t-67.5 -54.5t-51 -57.5t-30 -44.5v1l-213 120q2 5 27 43t70 87q64 69 136 114.5t148 65.5q48 11 96 13h19l77 -6q53 -9 106 -29t102 -55q130 -93 231 -142.5t170 -71t105 -24.5t37 -3l-76 -234q-2 0 -41.5 -6t-111.5 -15zM760 1556l-155 -154l-156 156l154 155zM589 1300 l-176 -175l-178 178l176 176zM961 1305l-174 -181l-177 177l175 177z"/>
<glyph glyph-name="uni0687" horiz-adv-x="1662" unicode="ڇ" d="M1059 320q-63 -15 -128.5 -36.5t-129 -49t-122.5 -63t-109 -79.5q-28 -25 -52.5 -62.5t-39.5 -81.5q-16 -46 -20 -94q-1 -11 -1 -22q0 -37 10 -74q8 -29 27 -55t45 -48.5t56.5 -42t60.5 -34.5q71 -36 157 -63q-8 -44 -16 -87q-7 -37 -15 -78.5t-16 -76.5 q-221 42 -361 156q-66 53 -110 119.5t-65 144.5q-18 68 -18 138v24q4 83 31 166q25 75 67 141t97 115q60 52 140 93.5t166.5 73.5t172 56t157.5 42q-44 23 -91 50.5t-98 59.5q-82 53 -157 53q-25 0 -49 -6q-43 -11 -80.5 -36.5t-67.5 -54.5t-51.5 -57.5t-30.5 -44.5v1 l-213 120q3 5 28 43t70 87q63 69 135.5 114.5t148.5 65.5q48 11 96 13h19l77 -6q52 -9 105 -29t103 -55q130 -93 231 -142.5t170 -71t105 -24.5t37 -3l-76 -234q-2 0 -42 -6t-112 -15zM1319 -299l-154 -154l-157 156l154 155zM996 -301l-155 -154l-156 156l154 155zM1317 30 l-155 -154l-156 156l154 155zM996 32l-155 -154l-156 156l154 155z"/>
<glyph glyph-name="uni0689" horiz-adv-x="1047" unicode="ډ" d="M750 775q90 -107 134 -199q44 -90 54 -166q5 -33 5 -64q0 -38 -8 -72q-14 -60 -39 -105q-12 -20 -30.5 -42.5t-45.5 -44t-64.5 -39.5t-87.5 -29q-70 -14 -150 -14q-24 0 -48.5 1t-50.5 4q-57 5 -109.5 12.5t-93 14t-65.5 11.5t-27 5l56 227q1 0 23.5 -4.5t59.5 -10.5 t83.5 -11.5t94.5 -6.5h26q96 0 146 13q56 15 68 35q15 28 15 60q0 10 -2 21q-6 44 -27 88.5t-50 85.5t-54 71q-41 48 -82.5 88.5t-75.5 70.5t-56 47l-22 17l145 198q2 -2 28 -22t66 -55t88.5 -82t95.5 -103zM460 1655q40 0 78 -19t67 -53q27 -32 41.5 -70t14.5 -77 q0 -38 -14.5 -76.5t-41.5 -70.5q-29 -35 -67 -54t-78 -19q-41 0 -79 19t-67 54q-27 32 -41.5 70.5t-14.5 76.5q0 39 14.5 77t41.5 70q29 34 67 53t79 19zM460 1354q14 0 26.5 7.5t21.5 19.5t14.5 26.5t5.5 28.5q0 13 -5.5 27.5t-14.5 26t-21.5 19t-26.5 7.5t-26.5 -7.5 t-22 -19t-15 -26t-5.5 -27.5q0 -14 5.5 -28.5t15 -26.5t22 -19.5t26.5 -7.5z"/>
<glyph glyph-name="uni068A" horiz-adv-x="1047" unicode="ڊ" d="M750 775q90 -107 134 -199q44 -90 54 -166q5 -33 5 -64q0 -38 -8 -72q-14 -60 -39 -105q-12 -20 -30.5 -42.5t-45.5 -44t-64.5 -39.5t-87.5 -29q-70 -14 -150 -14q-24 0 -48.5 1t-50.5 4q-57 5 -109.5 12.5t-93 14t-65.5 11.5t-27 5l56 227q1 0 23.5 -4.5t59.5 -10.5 t83.5 -11.5t94.5 -6.5h26q96 0 146 13q56 15 68 35q15 28 15 60q0 10 -2 21q-6 44 -27 88.5t-50 85.5t-54 71q-41 48 -82.5 88.5t-75.5 70.5t-56 47l-22 17l145 198q2 -2 28 -22t66 -55t88.5 -82t95.5 -103zM692 -428l-176 -176l-178 178l176 176z"/>
<glyph glyph-name="uni068B" horiz-adv-x="1061" unicode="ڋ" d="M764 775q90 -107 134 -199q44 -90 54 -166q5 -33 5 -64q0 -38 -8 -72q-14 -60 -39 -105q-12 -20 -30.5 -42.5t-45.5 -44t-64.5 -39.5t-87.5 -29q-70 -14 -150 -14q-24 0 -48.5 1t-50.5 4q-57 5 -109.5 12.5t-93 14t-65.5 11.5t-27 5l56 227q1 0 23.5 -4.5t59.5 -10.5 t83.5 -11.5t94.5 -6.5h26q96 0 146 13q56 15 68 35q15 28 15 60q0 10 -2 21q-6 44 -27 88.5t-50 85.5t-54 71q-41 48 -82.5 88.5t-75.5 70.5t-56 47l-22 17l145 198q2 -2 28 -22t66 -55t88.5 -82t95.5 -103zM729 -428l-176 -176l-178 178l176 176zM461 1801q0 -2 1.5 -19.5 t4 -47t5 -69t4.5 -84.5q1 -30 2 -56t1 -52q30 35 61 55t62 29q16 4 38 4q50 0 94 -33q20 -15 34.5 -38.5t20.5 -49.5q3 -15 3 -36q-1 -10 -1 -22q-2 -34 -28 -72q-44 -63 -154 -85q-17 -3 -50 -6t-74 -3q-27 0 -83.5 2.5t-128.5 16.5l13 88q17 -3 31.5 -4.5t26.5 -3.5 q13 -2 26 -2q1 0 3 13.5t4 41.5q2 29 2 73v13q0 40 -3 93q-2 45 -5 86.5t-6 73.5q-2 31 -4 51l-2 20zM486 1309q78 5 128 17.5t67 38.5q10 17 12 31q0 5 1 9q0 9 -2 16q-3 11 -8.5 18.5t-8.5 9.5q-10 8 -22 12q-6 2 -12.5 2t-13.5 -2q-22 -6 -43 -23t-39 -39t-33 -46.5 t-26 -43.5z"/>
<glyph glyph-name="uni068C" horiz-adv-x="1047" unicode="ڌ" d="M750 775q90 -107 134 -199q44 -90 54 -166q5 -33 5 -64q0 -38 -8 -72q-14 -60 -39 -105q-12 -20 -30.5 -42.5t-45.5 -44t-64.5 -39.5t-87.5 -29q-70 -14 -150 -14q-24 0 -48.5 1t-50.5 4q-57 5 -109.5 12.5t-93 14t-65.5 11.5t-27 5l56 227q1 0 23.5 -4.5t59.5 -10.5 t83.5 -11.5t94.5 -6.5h26q96 0 146 13q56 15 68 35q15 28 15 60q0 10 -2 21q-6 44 -27 88.5t-50 85.5t-54 71q-41 48 -82.5 88.5t-75.5 70.5t-56 47l-22 17l145 198q2 -2 28 -22t66 -55t88.5 -82t95.5 -103zM841 1392l-176 -175l-178 178l-176 -175l-178 177l175 177 l179 -179l175 176z"/>
<glyph glyph-name="uni068D" horiz-adv-x="1047" unicode="ڍ" d="M750 775q90 -107 134 -199q44 -90 54 -166q5 -33 5 -64q0 -38 -8 -72q-14 -60 -39 -105q-12 -20 -30.5 -42.5t-45.5 -44t-64.5 -39.5t-87.5 -29q-70 -14 -150 -14q-24 0 -48.5 1t-50.5 4q-57 5 -109.5 12.5t-93 14t-65.5 11.5t-27 5l56 227q1 0 23.5 -4.5t59.5 -10.5 t83.5 -11.5t94.5 -6.5h26q96 0 146 13q56 15 68 35q15 28 15 60q0 10 -2 21q-6 44 -27 88.5t-50 85.5t-54 71q-41 48 -82.5 88.5t-75.5 70.5t-56 47l-22 17l145 198q2 -2 28 -22t66 -55t88.5 -82t95.5 -103zM885 -428l-176 -175l-178 178l-176 -175l-178 177l175 177 l179 -179l175 176z"/>
<glyph glyph-name="uni068E" horiz-adv-x="1059" unicode="ڎ" d="M762 775q90 -107 134 -199q44 -90 54 -166q5 -33 5 -64q0 -38 -8 -72q-14 -60 -39 -105q-12 -20 -30.5 -42.5t-45.5 -44t-64.5 -39.5t-87.5 -29q-70 -14 -150 -14q-24 0 -48.5 1t-50.5 4q-57 5 -109.5 12.5t-93 14t-65.5 11.5t-27 5l56 227q1 0 23.5 -4.5t59.5 -10.5 t83.5 -11.5t94.5 -6.5h26q96 0 146 13q56 15 68 35q15 28 15 60q0 10 -2 21q-6 44 -27 88.5t-50 85.5t-54 71q-41 48 -82.5 88.5t-75.5 70.5t-56 47l-22 17l145 198q2 -2 28 -22t66 -55t88.5 -82t95.5 -103zM622 1576l-155 -154l-156 156l154 155zM451 1320l-176 -175 l-178 178l176 176zM823 1325l-174 -181l-177 177l175 177z"/>
<glyph glyph-name="uni068F" horiz-adv-x="1083" unicode="ڏ" d="M787 775q90 -107 134 -199q44 -90 54 -166q5 -33 5 -64q0 -38 -8 -72q-14 -60 -39 -105q-12 -20 -30.5 -42.5t-45.5 -44t-64.5 -39.5t-87.5 -29q-70 -14 -150 -14q-24 0 -48.5 1t-50.5 4q-57 5 -109.5 12.5t-93 14t-65.5 11.5t-27 5l56 227q1 0 23.5 -4.5t59.5 -10.5 t83.5 -11.5t94.5 -6.5h26q96 0 146 13q56 15 68 35q15 28 15 60q0 10 -2 21q-6 44 -27 88.5t-50 85.5t-54 71q-41 48 -82.5 88.5t-75.5 70.5t-56 47l-22 17l145 198q2 -2 28 -22t66 -55t88.5 -82t95.5 -103zM362 1323l155 154l155 -156l-153 -155zM532 1579l176 176 l179 -179l-177 -176zM160 1574l174 181l177 -177l-175 -176z"/>
<glyph glyph-name="uni0690" horiz-adv-x="1104" unicode="ڐ" d="M807 775q90 -107 134 -199q44 -90 54 -166q5 -33 5 -64q0 -38 -8 -72q-14 -60 -39 -105q-12 -20 -30.5 -42.5t-45.5 -44t-64.5 -39.5t-87.5 -29q-70 -14 -150 -14q-24 0 -48.5 1t-50.5 4q-57 5 -109.5 12.5t-93 14t-65.5 11.5t-27 5l56 227q1 0 23.5 -4.5t59.5 -10.5 t83.5 -11.5t94.5 -6.5h26q96 0 146 13q56 15 68 35q15 28 15 60q0 10 -2 21q-6 44 -27 88.5t-50 85.5t-54 71q-41 48 -82.5 88.5t-75.5 70.5t-56 47l-22 17l145 198q2 -2 28 -22t66 -55t88.5 -82t95.5 -103zM859 1341l-154 -154l-157 156l154 155zM536 1339l-155 -154 l-156 156l154 155zM857 1670l-155 -154l-156 156l154 155zM536 1672l-155 -154l-156 156l154 155z"/>
<glyph glyph-name="uni0692" horiz-adv-x="844" unicode="ڒ" d="M706 423q46 -121 54 -226q2 -23 2 -46q0 -79 -23 -150q-23 -70 -63.5 -137.5t-97.5 -131.5q-88 -100 -211 -187q-103 -75 -161.5 -107.5t-62.5 -34.5l-116 206q1 1 30.5 16.5t75 44t100.5 70t108 93t97.5 114t67.5 132.5q11 33 11 73q0 76 -39 179q-12 33 -25.5 60.5 t-24.5 48t-18.5 32.5t-8.5 12l206 136q1 -2 10.5 -17t23.5 -41t31.5 -61.5t33.5 -77.5zM565 780l-133 8q-19 53 -41 108t-46 103.5t-49.5 86.5t-51.5 56l82 117q23 -15 50 -47.5t52 -72.5t44.5 -82.5t28.5 -77.5q2 20 13.5 63t31 92.5t46.5 98t61 79.5l97 -105 q-19 -18 -34 -43t-28 -55t-25.5 -65.5t-25.5 -74.5q-15 -46 -32 -92t-40 -97z"/>
<glyph glyph-name="uni0693" horiz-adv-x="844" unicode="ړ" d="M706 423q46 -121 54 -226q2 -23 2 -46q0 -79 -23 -150q-23 -70 -63.5 -137.5t-97.5 -131.5q-88 -100 -211 -187q-103 -75 -161.5 -107.5t-62.5 -34.5l-116 206q1 1 30.5 16.5t75 44t100.5 70t108 93t97.5 114t67.5 132.5q11 33 11 73q0 76 -39 179q-12 33 -25.5 60.5 t-24.5 48t-18.5 32.5t-8.5 12l206 136q1 -2 10.5 -17t23.5 -41t31.5 -61.5t33.5 -77.5zM491 1267q40 0 78 -19t67 -53q27 -32 41.5 -70t14.5 -77q0 -38 -14.5 -76.5t-41.5 -70.5q-29 -35 -67 -54t-78 -19q-41 0 -79 19t-67 54q-27 32 -41.5 70.5t-14.5 76.5q0 39 14.5 77 t41.5 70q29 34 67 53t79 19zM491 966q14 0 26.5 7.5t21.5 19.5t14.5 26.5t5.5 28.5q0 13 -5.5 27.5t-14.5 26t-21.5 19t-26.5 7.5t-26.5 -7.5t-22 -19t-15 -26t-5.5 -27.5q0 -14 5.5 -28.5t15 -26.5t22 -19.5t26.5 -7.5z"/>
<glyph glyph-name="uni0694" horiz-adv-x="863" unicode="ڔ" d="M706 423q46 -121 54 -226q2 -23 2 -46q0 -79 -23 -150q-23 -70 -63.5 -137.5t-97.5 -131.5q-88 -100 -211 -187q-103 -75 -161.5 -107.5t-62.5 -34.5l-116 206q1 1 30.5 16.5t75 44t100.5 70t108 93t97.5 114t67.5 132.5q11 33 11 73q0 76 -39 179q-12 33 -25.5 60.5 t-24.5 48t-18.5 32.5t-8.5 12l206 136q1 -2 10.5 -17t23.5 -41t31.5 -61.5t33.5 -77.5zM809 -528l-176 -176l-178 178l176 176z"/>
<glyph glyph-name="uni0695" horiz-adv-x="826" unicode="ڕ" d="M706 423q46 -121 54 -226q2 -23 2 -46q0 -79 -23 -150q-23 -70 -63.5 -137.5t-97.5 -131.5q-88 -100 -211 -187q-103 -75 -161.5 -107.5t-62.5 -34.5l-116 206q1 1 30.5 16.5t75 44t100.5 70t108 93t97.5 114t67.5 132.5q11 33 11 73q0 76 -39 179q-12 33 -25.5 60.5 t-24.5 48t-18.5 32.5t-8.5 12l206 136q1 -2 10.5 -17t23.5 -41t31.5 -61.5t33.5 -77.5zM608 -972l-133 8q-19 53 -41 108t-46 103.5t-49.5 86.5t-51.5 56l82 117q23 -15 50 -47.5t52 -72.5t44.5 -82.5t28.5 -77.5q2 20 13.5 63t31 92.5t46.5 98t61 79.5l97 -105 q-19 -18 -34 -43t-28 -55t-25.5 -65.5t-25.5 -74.5q-15 -46 -32 -92t-40 -97z"/>
<glyph glyph-name="uni0696" horiz-adv-x="960" unicode="ږ" d="M706 423q46 -121 54 -226q2 -23 2 -46q0 -79 -23 -150q-23 -70 -63.5 -137.5t-97.5 -131.5q-88 -100 -211 -187q-103 -75 -161.5 -107.5t-62.5 -34.5l-116 206q1 1 30.5 16.5t75 44t100.5 70t108 93t97.5 114t67.5 132.5q11 33 11 73q0 76 -39 179q-12 33 -25.5 60.5 t-24.5 48t-18.5 32.5t-8.5 12l206 136q1 -2 10.5 -17t23.5 -41t31.5 -61.5t33.5 -77.5zM365 134l-176 -176l-178 178l176 176zM918 -454l-176 -176l-178 178l176 176z"/>
<glyph glyph-name="uni0697" horiz-adv-x="886" unicode="ڗ" d="M706 423q46 -121 54 -226q2 -23 2 -46q0 -79 -23 -150q-23 -70 -63.5 -137.5t-97.5 -131.5q-88 -100 -211 -187q-103 -75 -161.5 -107.5t-62.5 -34.5l-116 206q1 1 30.5 16.5t75 44t100.5 70t108 93t97.5 114t67.5 132.5q11 33 11 73q0 76 -39 179q-12 33 -25.5 60.5 t-24.5 48t-18.5 32.5t-8.5 12l206 136q1 -2 10.5 -17t23.5 -41t31.5 -61.5t33.5 -77.5zM832 956l-176 -175l-178 178l-176 -175l-178 177l175 177l179 -179l175 176z"/>
<glyph glyph-name="uni0699" horiz-adv-x="891" unicode="ڙ" d="M706 423q46 -121 54 -226q2 -23 2 -46q0 -79 -23 -150q-23 -70 -63.5 -137.5t-97.5 -131.5q-88 -100 -211 -187q-103 -75 -161.5 -107.5t-62.5 -34.5l-116 206q1 1 30.5 16.5t75 44t100.5 70t108 93t97.5 114t67.5 132.5q11 33 11 73q0 76 -39 179q-12 33 -25.5 60.5 t-24.5 48t-18.5 32.5t-8.5 12l206 136q1 -2 10.5 -17t23.5 -41t31.5 -61.5t33.5 -77.5zM820 963l-154 -154l-157 156l154 155zM497 961l-155 -154l-156 156l154 155zM818 1292l-155 -154l-156 156l154 155zM497 1294l-155 -154l-156 156l154 155z"/>
<glyph glyph-name="uni069A" horiz-adv-x="2556" unicode="ښ" d="M2390 722q78 -147 78 -291q0 -95 -24.5 -171.5t-70.5 -130.5t-112 -84t-148 -32h-9q-66 0 -126 28q-64 30 -116 90q-5 6 -10 12.5t-10 13.5q-8 -11 -15.5 -20.5t-15.5 -18.5q-45 -51 -104 -77.5t-128 -27.5h-8q-72 0 -140 33q-1 -20 -2.5 -39t-5.5 -36 q-21 -104 -78.5 -195.5t-144.5 -160.5q-45 -35 -94.5 -62t-103.5 -46q-114 -41 -237 -41q-267 0 -426 120q-32 24 -65.5 60.5t-60.5 87t-44.5 117t-17.5 151.5q0 233 85 420q16 35 31.5 62t28.5 46.5t22.5 30.5t12.5 15l180 -168q-8 -11 -17 -24q-8 -13 -18 -31t-21 -43 q-29 -67 -43.5 -144.5t-14.5 -163.5q0 -152 90 -220q46 -35 116.5 -52.5t161.5 -17.5q87 0 159 26.5t125.5 70t87 99t45.5 112.5q5 25 5 56q-1 36 -7 80q-12 84 -45 190q-9 27 -18 51.5t-17 47.5q-24 52 -37 75t-14 25l226 102q2 -3 16.5 -28t34.5 -78q13 -25 27.5 -53 t32.5 -56q50 -82 100 -127.5t88 -45.5q34 0 54 23q23 26 39.5 77t23.5 119q3 28 3.5 56t0 51t-1 38.5t-0.5 17.5v1l245 1v-2q0 -2 2.5 -22.5t7.5 -52t14 -70.5t23 -78q6 -18 17 -45t26.5 -52.5t35 -43.5t42.5 -18h1q14 0 34 3t38 19.5t30.5 51.5t12.5 98q0 41 -12 82 t-28 75.5t-33 61t-26 38.5l188 156q4 -4 27.5 -36t51.5 -86zM2019 1127l-176 -176l-178 178l176 176zM2028 -429l-176 -176l-178 178l176 176z"/>
<glyph glyph-name="uni069B" horiz-adv-x="2556" unicode="ڛ" d="M2390 722q78 -147 78 -291q0 -95 -24.5 -171.5t-70.5 -130.5t-112 -84t-148 -32h-9q-66 0 -126 28q-64 30 -116 90q-5 6 -10 12.5t-10 13.5q-8 -11 -15.5 -20.5t-15.5 -18.5q-45 -51 -104 -77.5t-128 -27.5h-8q-72 0 -140 33q-1 -20 -2.5 -39t-5.5 -36 q-21 -104 -78.5 -195.5t-144.5 -160.5q-45 -35 -94.5 -62t-103.5 -46q-114 -41 -237 -41q-267 0 -426 120q-32 24 -65.5 60.5t-60.5 87t-44.5 117t-17.5 151.5q0 233 85 420q16 35 31.5 62t28.5 46.5t22.5 30.5t12.5 15l180 -168q-8 -11 -17 -24q-8 -13 -18 -31t-21 -43 q-29 -67 -43.5 -144.5t-14.5 -163.5q0 -152 90 -220q46 -35 116.5 -52.5t161.5 -17.5q87 0 159 26.5t125.5 70t87 99t45.5 112.5q5 25 5 56q-1 36 -7 80q-12 84 -45 190q-9 27 -18 51.5t-17 47.5q-24 52 -37 75t-14 25l226 102q2 -3 16.5 -28t34.5 -78q13 -25 27.5 -53 t32.5 -56q50 -82 100 -127.5t88 -45.5q34 0 54 23q23 26 39.5 77t23.5 119q3 28 3.5 56t0 51t-1 38.5t-0.5 17.5v1l245 1v-2q0 -2 2.5 -22.5t7.5 -52t14 -70.5t23 -78q6 -18 17 -45t26.5 -52.5t35 -43.5t42.5 -18h1q14 0 34 3t38 19.5t30.5 51.5t12.5 98q0 41 -12 82 t-28 75.5t-33 61t-26 38.5l188 156q4 -4 27.5 -36t51.5 -86zM1658 -671l155 154l156 -156l-154 -155zM1456 -420l174 181l178 -178l-175 -176zM1828 -415l177 175l177 -178l-175 -176z"/>
<glyph glyph-name="uni069C" horiz-adv-x="2556" unicode="ڜ" d="M2390 722q78 -147 78 -291q0 -95 -24.5 -171.5t-70.5 -130.5t-112 -84t-148 -32h-9q-66 0 -126 28q-64 30 -116 90q-5 6 -10 12.5t-10 13.5q-8 -11 -15.5 -20.5t-15.5 -18.5q-45 -51 -104 -77.5t-128 -27.5h-8q-72 0 -140 33q-1 -20 -2.5 -39t-5.5 -36 q-21 -104 -78.5 -195.5t-144.5 -160.5q-45 -35 -94.5 -62t-103.5 -46q-114 -41 -237 -41q-267 0 -426 120q-32 24 -65.5 60.5t-60.5 87t-44.5 117t-17.5 151.5q0 233 85 420q16 35 31.5 62t28.5 46.5t22.5 30.5t12.5 15l180 -168q-8 -11 -17 -24q-8 -13 -18 -31t-21 -43 q-29 -67 -43.5 -144.5t-14.5 -163.5q0 -152 90 -220q46 -35 116.5 -52.5t161.5 -17.5q87 0 159 26.5t125.5 70t87 99t45.5 112.5q5 25 5 56q-1 36 -7 80q-12 84 -45 190q-9 27 -18 51.5t-17 47.5q-24 52 -37 75t-14 25l226 102q2 -3 16.5 -28t34.5 -78q13 -25 27.5 -53 t32.5 -56q50 -82 100 -127.5t88 -45.5q34 0 54 23q23 26 39.5 77t23.5 119q3 28 3.5 56t0 51t-1 38.5t-0.5 17.5v1l245 1v-2q0 -2 2.5 -22.5t7.5 -52t14 -70.5t23 -78q6 -18 17 -45t26.5 -52.5t35 -43.5t42.5 -18h1q14 0 34 3t38 19.5t30.5 51.5t12.5 98q0 41 -12 82 t-28 75.5t-33 61t-26 38.5l188 156q4 -4 27.5 -36t51.5 -86zM1998 1379l-155 -154l-156 156l154 155zM1827 1123l-176 -175l-178 178l176 176zM2199 1128l-174 -181l-177 177l175 177zM1683 -676l155 154l156 -156l-154 -155zM1481 -425l174 181l178 -178l-175 -176z M1853 -420l177 175l177 -178l-175 -176z"/>
<glyph glyph-name="uni069D" horiz-adv-x="2607" unicode="ڝ" d="M1784 459q-48 -45 -83.5 -94t-61.5 -92q44 -11 96 -16.5t109 -5.5q83 0 163 16t140 56q85 51 89 144v9q0 34 -20 58q-24 28 -58 42q-32 14 -70 18q-10 1 -20 1q-25 0 -44 -6q-63 -11 -124.5 -44.5t-115.5 -85.5zM2487 451q-6 -85 -47.5 -166t-121.5 -144.5t-200 -102 t-283 -38.5q-68 0 -123.5 4t-106.5 15.5t-101.5 31t-108.5 50.5q0 -72 -14.5 -142.5t-44.5 -139.5q-53 -121 -150 -203q-167 -143 -432 -143q-20 0 -43.5 1t-46.5 3q-88 9 -162.5 29.5t-136.5 58.5h2q-120 70 -178 190h1q-29 57 -42 121q-12 60 -12 127v10q1 57 9.5 115 t24.5 123q13 54 32.5 106.5t39.5 97t38 78t28 49.5l211 -136q-5 -8 -16.5 -31.5t-26.5 -57.5t-30.5 -76t-28.5 -88t-21.5 -93.5t-8.5 -92.5q0 -39 6 -75.5t22 -66.5q29 -60 98 -93.5t173 -44.5q17 -1 33 -1.5t32 -0.5q86 0 154.5 21t118.5 61q30 28 51 61.5t35.5 68t22 68.5 t9.5 63q1 11 1 21v21q0 66 -12.5 135t-28.5 128.5t-31.5 104t-22.5 63.5l-11 33l-10 28l226 94q19 -50 37.5 -97t38 -87t41.5 -70.5t48 -46.5q33 55 81.5 120.5t112.5 127.5q79 74 176.5 125t192.5 69q54 9 94 9q91 0 168.5 -31.5t137.5 -94.5q55 -58 83 -128 q23 -60 24 -119q0 -11 -1 -22zM2296 -432l-176 -175l-178 178l-176 -175l-178 177l175 177l179 -179l175 176z"/>
<glyph glyph-name="uni069E" horiz-adv-x="2561" unicode="ڞ" d="M1784 459q-48 -45 -83.5 -94t-61.5 -92q44 -11 96 -16.5t109 -5.5q83 0 163 16t140 56q85 51 89 144v9q0 34 -20 58q-24 28 -58 42q-32 14 -70 18q-10 1 -20 1q-25 0 -44 -6q-63 -11 -124.5 -44.5t-115.5 -85.5zM2487 451q-6 -85 -47.5 -166t-121.5 -144.5t-200 -102 t-283 -38.5q-68 0 -123.5 4t-106.5 15.5t-101.5 31t-108.5 50.5q0 -72 -14.5 -142.5t-44.5 -139.5q-53 -121 -150 -203q-167 -143 -432 -143q-20 0 -43.5 1t-46.5 3q-88 9 -162.5 29.5t-136.5 58.5h2q-120 70 -178 190h1q-29 57 -42 121q-12 60 -12 127v10q1 57 9.5 115 t24.5 123q13 54 32.5 106.5t39.5 97t38 78t28 49.5l211 -136q-5 -8 -16.5 -31.5t-26.5 -57.5t-30.5 -76t-28.5 -88t-21.5 -93.5t-8.5 -92.5q0 -39 6 -75.5t22 -66.5q29 -60 98 -93.5t173 -44.5q17 -1 33 -1.5t32 -0.5q86 0 154.5 21t118.5 61q30 28 51 61.5t35.5 68t22 68.5 t9.5 63q1 11 1 21v21q0 66 -12.5 135t-28.5 128.5t-31.5 104t-22.5 63.5l-11 33l-10 28l226 94q19 -50 37.5 -97t38 -87t41.5 -70.5t48 -46.5q33 55 81.5 120.5t112.5 127.5q79 74 176.5 125t192.5 69q54 9 94 9q91 0 168.5 -31.5t137.5 -94.5q55 -58 83 -128 q23 -60 24 -119q0 -11 -1 -22zM2206 1464l-155 -154l-156 156l154 155zM2035 1208l-176 -175l-178 178l176 176zM2407 1213l-174 -181l-177 177l175 177z"/>
<glyph glyph-name="uni069F" horiz-adv-x="1494" unicode="ڟ" d="M564 1449q0 -4 4 -48t9.5 -117.5t11.5 -172t12 -212.5q2 -75 4 -140.5t3 -128.5q76 88 152.5 137.5t154.5 70.5q46 12 95 12q125 0 236 -84q49 -38 85.5 -96t51.5 -124q7 -30 9 -66q1 -11 1 -21q0 -27 -4 -57q-6 -42 -22.5 -87.5t-49.5 -93.5q-56 -81 -149.5 -132.5 t-235.5 -79.5q-20 -4 -51.5 -8t-72 -7t-88 -5t-98.5 -2q-34 0 -87 0.5t-121.5 5t-150 13.5t-171.5 27l34 222q42 -8 79.5 -13t66.5 -8q34 -4 64 -6q1 0 6.5 34t9.5 105.5t5 182.5v28q0 102 -6 236q-5 112 -12 216t-14 184t-11.5 128.5t-4.5 49.5zM626 220q193 13 318.5 44.5 t169.5 94.5q28 40 32 76q1 11 1 21q0 23 -6 43q-8 28 -22 46.5t-21 24.5q-26 20 -56 30q-15 5 -32 4q-16 0 -32 -4q-55 -15 -107 -58t-97.5 -98.5t-83 -115.5t-64.5 -108zM1133 1455l-155 -154l-156 156l154 155zM962 1199l-176 -175l-178 178l176 176zM1334 1204l-174 -181 l-177 177l175 177z"/>
<glyph glyph-name="uni06A0" horiz-adv-x="1410" unicode="ڠ" d="M1291 -304l99 -226q-91 -40 -173 -64t-154.5 -36.5t-135.5 -17t-116 -4.5h-7q-299 0 -461 145q-41 36 -67 75t-42 75.5t-23 68t-9 54.5q-3 32 -3 64q1 88 25 167q34 108 111 197q33 38 69.5 67.5t70.5 51.5q-27 21 -48 42q-59 59 -88 133q-24 61 -24 125q0 13 1 26 q6 94 52 173t126 137q67 49 150 75t167 26q57 -1 115.5 -10t107.5 -19.5t81 -19t35 -9.5l-35 -118l-36 -117l-26 7q-26 8 -66 16.5t-87.5 15.5t-90.5 8q-45 0 -90.5 -14.5t-81.5 -39.5q-12 -9 -25 -21.5t-23.5 -28t-18 -35t-8.5 -43.5q-1 -4 -0.5 -13t4 -22t12 -28t23.5 -31 q42 -41 114 -60q57 -15 128 -15q19 0 39 1l301 15l-93 -220q-62 -8 -121 -18t-111 -21.5t-96 -23.5t-76 -23q-16 -6 -41.5 -19t-54.5 -34t-57 -50.5t-49.5 -69t-32.5 -89.5q-7 -32 -7 -69q0 -20 2 -42q1 -8 3.5 -20.5t9 -27.5t18 -32t29.5 -33q45 -41 121 -62t177 -21h6 q47 0 100 3.5t112.5 14.5t126.5 31t142 53zM906 1473l-155 -154l-156 156l154 155zM735 1217l-176 -175l-178 178l176 176zM1107 1222l-174 -181l-177 177l175 177z"/>
<glyph glyph-name="uni06A1" horiz-adv-x="1860" unicode="ڡ" d="M1434 567q47 9 82 21q-19 90 -73 142q-17 16 -34 26t-31.5 15.5t-26 7t-16.5 0.5q-94 -22 -111 -81q-4 -15 -3 -31t5 -29.5t9 -24t10 -15.5q17 -18 40 -26.5t48.5 -11t51.5 0t49 6.5zM1736 713q24 -71 32 -153q4 -39 4 -80q0 -47 -5 -96q-2 -26 -8.5 -63t-26 -78 t-57.5 -81.5t-103 -71.5q-50 -24 -117 -41t-154 -28.5t-196 -17t-244 -5.5h-1q-28 0 -64 0.5t-77.5 2.5t-87 7.5t-91.5 14.5q-247 51 -355 210q-72 107 -72 250q0 145 75 326l228 -93q-17 -41 -31.5 -87.5t-20.5 -92.5q-4 -27 -4 -54q0 -18 2 -36q4 -43 27 -76 q21 -32 56 -53.5t78 -35.5t90 -21.5t92 -11.5t85.5 -4.5t69.5 -0.5h1q232 0 383 17.5t222 51.5q16 7 27 16q-2 0 -4 -0.5t-4 -0.5q-68 -13 -125 -13h-24q-66 4 -117 20.5t-88 41t-63 50.5q-28 29 -48 67.5t-32 82.5q-13 48 -13 95t13 93q7 27 24.5 63t50.5 71.5t84 67.5 t127 52q28 7 63 7q3 -1 5 -1q38 0 80.5 -10.5t86.5 -32.5t85 -57q96 -81 142 -211z"/>
<glyph glyph-name="uni06A2" horiz-adv-x="1870" unicode="ڢ" d="M1434 567q47 9 82 21q-19 90 -73 142q-17 16 -34 26t-31.5 15.5t-26 7t-16.5 0.5q-94 -22 -111 -81q-4 -15 -3 -31t5 -29.5t9 -24t10 -15.5q17 -18 40 -26.5t48.5 -11t51.5 0t49 6.5zM1736 713q24 -71 32 -153q4 -39 4 -80q0 -47 -5 -96q-2 -26 -8.5 -63t-26 -78 t-57.5 -81.5t-103 -71.5q-50 -24 -117 -41t-154 -28.5t-196 -17t-244 -5.5h-1q-28 0 -64 0.5t-77.5 2.5t-87 7.5t-91.5 14.5q-247 51 -355 210q-72 107 -72 250q0 145 75 326l228 -93q-17 -41 -31.5 -87.5t-20.5 -92.5q-4 -27 -4 -54q0 -18 2 -36q4 -43 27 -76 q21 -32 56 -53.5t78 -35.5t90 -21.5t92 -11.5t85.5 -4.5t69.5 -0.5h1q232 0 383 17.5t222 51.5q16 7 27 16q-2 0 -4 -0.5t-4 -0.5q-68 -13 -125 -13h-24q-66 4 -117 20.5t-88 41t-63 50.5q-28 29 -48 67.5t-32 82.5q-13 48 -13 95t13 93q7 27 24.5 63t50.5 71.5t84 67.5 t127 52q28 7 63 7q3 -1 5 -1q38 0 80.5 -10.5t86.5 -32.5t85 -57q96 -81 142 -211zM1512 -424l-176 -176l-178 178l176 176z"/>
<glyph glyph-name="uni06A3" horiz-adv-x="1865" unicode="ڣ" d="M1434 567q47 9 82 21q-19 90 -73 142q-17 16 -34 26t-31.5 15.5t-26 7t-16.5 0.5q-94 -22 -111 -81q-4 -15 -3 -31t5 -29.5t9 -24t10 -15.5q17 -18 40 -26.5t48.5 -11t51.5 0t49 6.5zM1736 713q24 -71 32 -153q4 -39 4 -80q0 -47 -5 -96q-2 -26 -8.5 -63t-26 -78 t-57.5 -81.5t-103 -71.5q-50 -24 -117 -41t-154 -28.5t-196 -17t-244 -5.5h-1q-28 0 -64 0.5t-77.5 2.5t-87 7.5t-91.5 14.5q-247 51 -355 210q-72 107 -72 250q0 145 75 326l228 -93q-17 -41 -31.5 -87.5t-20.5 -92.5q-4 -27 -4 -54q0 -18 2 -36q4 -43 27 -76 q21 -32 56 -53.5t78 -35.5t90 -21.5t92 -11.5t85.5 -4.5t69.5 -0.5h1q232 0 383 17.5t222 51.5q16 7 27 16q-2 0 -4 -0.5t-4 -0.5q-68 -13 -125 -13h-24q-66 4 -117 20.5t-88 41t-63 50.5q-28 29 -48 67.5t-32 82.5q-13 48 -13 95t13 93q7 27 24.5 63t50.5 71.5t84 67.5 t127 52q28 7 63 7q3 -1 5 -1q38 0 80.5 -10.5t86.5 -32.5t85 -57q96 -81 142 -211zM1526 1305l-176 -176l-178 178l176 176zM1522 -433l-176 -176l-178 178l176 176z"/>
<glyph glyph-name="uni06A4" horiz-adv-x="1865" unicode="ڤ" d="M1434 567q47 9 82 21q-19 90 -73 142q-17 16 -34 26t-31.5 15.5t-26 7t-16.5 0.5q-94 -22 -111 -81q-4 -15 -3 -31t5 -29.5t9 -24t10 -15.5q17 -18 40 -26.5t48.5 -11t51.5 0t49 6.5zM1736 713q24 -71 32 -153q4 -39 4 -80q0 -47 -5 -96q-2 -26 -8.5 -63t-26 -78 t-57.5 -81.5t-103 -71.5q-50 -24 -117 -41t-154 -28.5t-196 -17t-244 -5.5h-1q-28 0 -64 0.5t-77.5 2.5t-87 7.5t-91.5 14.5q-247 51 -355 210q-72 107 -72 250q0 145 75 326l228 -93q-17 -41 -31.5 -87.5t-20.5 -92.5q-4 -27 -4 -54q0 -18 2 -36q4 -43 27 -76 q21 -32 56 -53.5t78 -35.5t90 -21.5t92 -11.5t85.5 -4.5t69.5 -0.5h1q232 0 383 17.5t222 51.5q16 7 27 16q-2 0 -4 -0.5t-4 -0.5q-68 -13 -125 -13h-24q-66 4 -117 20.5t-88 41t-63 50.5q-28 29 -48 67.5t-32 82.5q-13 48 -13 95t13 93q7 27 24.5 63t50.5 71.5t84 67.5 t127 52q28 7 63 7q3 -1 5 -1q38 0 80.5 -10.5t86.5 -32.5t85 -57q96 -81 142 -211zM1481 1558l-155 -154l-156 156l154 155zM1310 1302l-176 -175l-178 178l176 176zM1682 1307l-174 -181l-177 177l175 177z"/>
<glyph glyph-name="uni06A5" horiz-adv-x="1886" unicode="ڥ" d="M1434 567q47 9 82 21q-19 90 -73 142q-17 16 -34 26t-31.5 15.5t-26 7t-16.5 0.5q-94 -22 -111 -81q-4 -15 -3 -31t5 -29.5t9 -24t10 -15.5q17 -18 40 -26.5t48.5 -11t51.5 0t49 6.5zM1736 713q24 -71 32 -153q4 -39 4 -80q0 -47 -5 -96q-2 -26 -8.5 -63t-26 -78 t-57.5 -81.5t-103 -71.5q-50 -24 -117 -41t-154 -28.5t-196 -17t-244 -5.5h-1q-28 0 -64 0.5t-77.5 2.5t-87 7.5t-91.5 14.5q-247 51 -355 210q-72 107 -72 250q0 145 75 326l228 -93q-17 -41 -31.5 -87.5t-20.5 -92.5q-4 -27 -4 -54q0 -18 2 -36q4 -43 27 -76 q21 -32 56 -53.5t78 -35.5t90 -21.5t92 -11.5t85.5 -4.5t69.5 -0.5h1q232 0 383 17.5t222 51.5q16 7 27 16q-2 0 -4 -0.5t-4 -0.5q-68 -13 -125 -13h-24q-66 4 -117 20.5t-88 41t-63 50.5q-28 29 -48 67.5t-32 82.5q-13 48 -13 95t13 93q7 27 24.5 63t50.5 71.5t84 67.5 t127 52q28 7 63 7q3 -1 5 -1q38 0 80.5 -10.5t86.5 -32.5t85 -57q96 -81 142 -211zM1186 -601l155 154l156 -156l-154 -155zM984 -350l174 181l178 -178l-175 -176zM1356 -345l177 175l177 -178l-175 -176z"/>
<glyph glyph-name="uni06A6" horiz-adv-x="1889" unicode="ڦ" d="M1434 567q47 9 82 21q-19 90 -73 142q-17 16 -34 26t-31.5 15.5t-26 7t-16.5 0.5q-94 -22 -111 -81q-4 -15 -3 -31t5 -29.5t9 -24t10 -15.5q17 -18 40 -26.5t48.5 -11t51.5 0t49 6.5zM1736 713q24 -71 32 -153q4 -39 4 -80q0 -47 -5 -96q-2 -26 -8.5 -63t-26 -78 t-57.5 -81.5t-103 -71.5q-50 -24 -117 -41t-154 -28.5t-196 -17t-244 -5.5h-1q-28 0 -64 0.5t-77.5 2.5t-87 7.5t-91.5 14.5q-247 51 -355 210q-72 107 -72 250q0 145 75 326l228 -93q-17 -41 -31.5 -87.5t-20.5 -92.5q-4 -27 -4 -54q0 -18 2 -36q4 -43 27 -76 q21 -32 56 -53.5t78 -35.5t90 -21.5t92 -11.5t85.5 -4.5t69.5 -0.5h1q232 0 383 17.5t222 51.5q16 7 27 16q-2 0 -4 -0.5t-4 -0.5q-68 -13 -125 -13h-24q-66 4 -117 20.5t-88 41t-63 50.5q-28 29 -48 67.5t-32 82.5q-13 48 -13 95t13 93q7 27 24.5 63t50.5 71.5t84 67.5 t127 52q28 7 63 7q3 -1 5 -1q38 0 80.5 -10.5t86.5 -32.5t85 -57q96 -81 142 -211zM1642 1283l-154 -154l-157 156l154 155zM1319 1281l-155 -154l-156 156l154 155zM1640 1612l-155 -154l-156 156l154 155zM1319 1614l-155 -154l-156 156l154 155z"/>
<glyph glyph-name="uni06A7" horiz-adv-x="1571" unicode="ڧ" d="M904 326q23 -34 61.5 -51t83.5 -23q28 -3 56 -3q18 -1 36 1q47 4 87 12q-6 70 -17.5 121t-25 86.5t-27.5 57.5t-26 34q-26 27 -62 33q-15 3 -30 3q-20 0 -40 -5q-34 -9 -63 -30t-44 -48q-11 -21 -16 -46t-4 -49.5t9 -48.5t22 -44zM1441 474q23 -88 33 -198q6 -72 6 -152 q0 -43 -2 -88q-1 -39 -5 -81.5t-13.5 -86t-25.5 -87.5t-41 -87q-127 -220 -443 -278q-26 -3 -58 -5.5t-68 -2.5q-59 0 -126 8t-134.5 27.5t-133 50.5t-120.5 78q-91 77 -137.5 181t-46.5 230q0 67 11 135t27 131t35.5 117.5t36.5 95.5t29 66t13 28l220 -111l-10 -20 q-10 -20 -23.5 -53.5t-30 -79t-30.5 -96.5t-23.5 -106t-9.5 -107q0 -141 96 -222q45 -38 105 -61t122 -34q62 -12 118 -13h13q48 0 83 6q101 18 163 51.5t96.5 78t47 98.5t15.5 113q-22 -4 -45 -3.5t-47 -1.5q-18 -1 -36 -1q-72 0 -130 14q-72 16 -124 44.5t-88 64.5t-59 69 q-50 74 -66 150q-9 45 -9 87q0 31 4 61q12 72 46.5 137.5t86 115t116.5 79.5t137 34h16q64 0 130 -24q75 -28 147 -94q48 -44 80 -110t52 -148zM1233 1243l-176 -176l-178 178l176 176z"/>
<glyph glyph-name="uni06A8" horiz-adv-x="1571" unicode="ڨ" d="M904 326q23 -34 61.5 -51t83.5 -23q28 -3 56 -3q18 -1 36 1q47 4 87 12q-6 70 -17.5 121t-25 86.5t-27.5 57.5t-26 34q-26 27 -62 33q-15 3 -30 3q-20 0 -40 -5q-34 -9 -63 -30t-44 -48q-11 -21 -16 -46t-4 -49.5t9 -48.5t22 -44zM1441 474q23 -88 33 -198q6 -72 6 -152 q0 -43 -2 -88q-1 -39 -5 -81.5t-13.5 -86t-25.5 -87.5t-41 -87q-127 -220 -443 -278q-26 -3 -58 -5.5t-68 -2.5q-59 0 -126 8t-134.5 27.5t-133 50.5t-120.5 78q-91 77 -137.5 181t-46.5 230q0 67 11 135t27 131t35.5 117.5t36.5 95.5t29 66t13 28l220 -111l-10 -20 q-10 -20 -23.5 -53.5t-30 -79t-30.5 -96.5t-23.5 -106t-9.5 -107q0 -141 96 -222q45 -38 105 -61t122 -34q62 -12 118 -13h13q48 0 83 6q101 18 163 51.5t96.5 78t47 98.5t15.5 113q-22 -4 -45 -3.5t-47 -1.5q-18 -1 -36 -1q-72 0 -130 14q-72 16 -124 44.5t-88 64.5t-59 69 q-50 74 -66 150q-9 45 -9 87q0 31 4 61q12 72 46.5 137.5t86 115t116.5 79.5t137 34h16q64 0 130 -24q75 -28 147 -94q48 -44 80 -110t52 -148zM1206 1369l-155 -154l-156 156l154 155zM1035 1113l-176 -175l-178 178l176 176zM1407 1118l-174 -181l-177 177l175 177z"/>
<glyph glyph-name="uni06AA" horiz-adv-x="2474" unicode="ڪ" d="M2355 396l26 -58.5t15.5 -35.5t7.5 -18.5t3 -6.5l-81 -167q-2 0 -71.5 -8.5t-188.5 -20.5t-277.5 -26t-337.5 -25q-193 -12 -364 -18.5t-325 -6.5q-466 0 -740 57l31 240q108 -23 250.5 -35.5t317.5 -16.5q68 -1 141 -1q114 -1 240 3q206 6 438 20q75 5 158.5 12 t164 14.5t153.5 15t128 13.5q56 6 88 10l32 4q-17 36 -52 57q-35 20 -89 30q-49 9 -113 9h-14q-72 -1 -163 -8q-50 -4 -129 -15.5t-172 -22.5t-191 -19q-64 -5 -124 -4q-32 0 -62 1q-47 1 -111 8.5t-127.5 19t-118 26.5t-82.5 33q-31 20 -49.5 42t-29 44t-14.5 41.5t-6 33.5 q-4 28 -0.5 63t17 74t39 81t67.5 84q51 51 124.5 106t169.5 112q78 49 156.5 86t142.5 61.5t105.5 37t44.5 14.5l46 -210q-66 -18 -135 -43q-59 -21 -129 -52.5t-134 -71.5q-72 -45 -130 -90t-99 -84.5t-63 -70t-22 -44.5q9 -6 31.5 -16.5t67 -21t116.5 -18.5q63 -7 153 -6 h25q101 7 207 17q45 4 95.5 9t102.5 10t104 11.5t101 13.5q63 9 119 9h32q69 -4 122 -15t90 -25.5t56 -24.5q29 -16 57.5 -32t55.5 -40t53 -58.5t50 -86.5z"/>
<glyph glyph-name="uni06AB" horiz-adv-x="2094" unicode="ګ" d="M1524 893q52 -62 93 -119t70 -111q67 -130 67 -242q0 -21 -2 -42q-2 -8 -7 -33.5t-18.5 -60t-36.5 -74t-60 -74.5q-43 -42 -100.5 -70t-135.5 -45q-73 -17 -170.5 -25t-224.5 -8h-14q-11 0 -35 1t-55.5 2.5t-68 3.5t-71.5 5t-66.5 6t-52.5 6q-81 13 -154.5 39.5 t-135.5 64t-112 84t-84 98.5q-70 107 -70 241q0 133 74 289l222 -105q-32 -70 -42 -120q-7 -38 -8 -68q0 -10 1 -18q3 -34 13 -54.5t16 -30.5q38 -60 130 -104t226 -68q56 -11 107 -16t90 -7.5t62 -2.5h23h4q193 0 307 19.5t156 58.5q14 14 23 30.5t14 30.5q6 17 9 34l1 3 q3 25 -7 60t-32 76t-55 87.5t-76 96.5q-38 44 -75.5 81.5t-67 65t-47.5 43.5l-19 16l26 207l813 377l103 -224l-646 -298q23 -25 48 -51t51 -55zM1333 1749q40 0 78 -19t67 -53q27 -32 41.5 -70t14.5 -77q0 -38 -14.5 -76.5t-41.5 -70.5q-29 -35 -67 -54t-78 -19 q-41 0 -79 19t-67 54q-27 32 -41.5 70.5t-14.5 76.5q0 39 14.5 77t41.5 70q29 34 67 53t79 19zM1333 1448q14 0 26.5 7.5t21.5 19.5t14.5 26.5t5.5 28.5q0 13 -5.5 27.5t-14.5 26t-21.5 19t-26.5 7.5t-26.5 -7.5t-22 -19t-15 -26t-5.5 -27.5q0 -14 5.5 -28.5t15 -26.5 t22 -19.5t26.5 -7.5z"/>
<glyph glyph-name="uni06AC" horiz-adv-x="1960" unicode="ڬ" d="M826 1333l178 178l176 -175l-179 -179zM1827 435q-6 -78 -34.5 -133.5t-78 -96t-119 -71.5t-159.5 -61q-89 -26 -190 -43.5t-209 -25.5q-81 -6 -165 -5q-28 1 -56 1q-113 2 -225 15q-244 30 -379 153q-121 109 -138 282q-3 27 -3 55q0 61 12 125q17 94 62 206l229 -91 q-57 -137 -57 -237q0 -18 2 -34q3 -40 17.5 -70.5t40.5 -54.5q38 -34 100 -56.5t145 -33.5q39 -5 100 -7q60 -4 128 -4h23q56 0 113 2q68 2 121 9q29 4 57 7t54 8q31 3 77.5 13.5t93 25.5t85.5 32t56 33q14 14 23 38t14.5 52.5t8 58t2.5 53.5v38v16v785h246v-774 q0 -75 3 -125q2 -25 2 -46t-2 -39zM1237 674q-20 -7 -39.5 -11.5t-38.5 -9.5q-38 -11 -87.5 -25.5t-103.5 -32t-108.5 -37t-101.5 -39.5l-57 137q27 11 56 21.5t58 21.5q-52 51 -63 132q-2 14 -2 28q0 68 45 124q19 24 44 41.5t51.5 29.5t52.5 19t48 9q15 1 29 1q28 1 54 -5 q38 -8 66 -22t44.5 -27t20.5 -17l-100 -108q-2 2 -7 6q-8 6 -21.5 12t-31.5 10.5t-40 2.5q-28 -2 -54.5 -14.5t-40.5 -30.5q-13 -18 -12 -41q4 -23 11.5 -33.5t17.5 -15.5q6 -5 20 -10t37 -7.5t56 -0.5t79 13q33 10 53.5 15t23.5 7z"/>
<glyph glyph-name="uni06AD" horiz-adv-x="1944" unicode="ڭ" d="M1130 1561l-155 -154l-156 156l154 155zM959 1305l-176 -175l-178 178l176 176zM1331 1311l-174 -182l-177 177l175 177zM1827 435q-6 -78 -34.5 -133.5t-78 -96t-119 -71.5t-159.5 -61q-89 -26 -190 -43.5t-209 -25.5q-81 -6 -165 -5q-28 1 -56 1q-113 2 -225 15 q-244 30 -379 153q-121 109 -138 282q-3 27 -3 55q0 61 12 125q17 94 62 206l229 -91q-57 -137 -57 -237q0 -18 2 -34q3 -40 17.5 -70.5t40.5 -54.5q38 -34 100 -56.5t145 -33.5q39 -5 100 -7q60 -4 128 -4h23q56 0 113 2q68 2 121 9q29 4 57 7t54 8q31 3 77.5 13.5t93 25.5 t85.5 32t56 33q14 14 23 38t14.5 52.5t8 58t2.5 53.5v38v16v785h246v-774q0 -75 3 -125q2 -25 2 -46t-2 -39zM1237 674q-20 -7 -39.5 -11.5t-38.5 -9.5q-38 -11 -87.5 -25.5t-103.5 -32t-108.5 -37t-101.5 -39.5l-57 137q27 11 56 21.5t58 21.5q-52 51 -63 132q-2 14 -2 28 q0 68 45 124q19 24 44 41.5t51.5 29.5t52.5 19t48 9q15 1 29 1q28 1 54 -5q38 -8 66 -22t44.5 -27t20.5 -17l-100 -108q-2 2 -7 6q-8 6 -21.5 12t-31.5 10.5t-40 2.5q-28 -2 -54.5 -14.5t-40.5 -30.5q-13 -18 -12 -41q4 -23 11.5 -33.5t17.5 -15.5q6 -5 20 -10t37 -7.5 t56 -0.5t79 13q33 10 53.5 15t23.5 7z"/>
<glyph glyph-name="uni06AE" horiz-adv-x="1927" unicode="ڮ" d="M1827 435q-6 -78 -34.5 -133.5t-78 -96t-119 -71.5t-159.5 -61q-89 -26 -190 -43.5t-209 -25.5q-81 -6 -165 -5q-28 1 -56 1q-113 2 -225 15q-244 30 -379 153q-121 109 -138 282q-3 27 -3 55q0 61 12 125q17 94 62 206l229 -91q-57 -137 -57 -237q0 -18 2 -34 q3 -40 17.5 -70.5t40.5 -54.5q38 -34 100 -56.5t145 -33.5q39 -5 100 -7q60 -4 128 -4h23q56 0 113 2q68 2 121 9q29 4 57 7t54 8q31 3 77.5 13.5t93 25.5t85.5 32t56 33q14 14 23 38t14.5 52.5t8 58t2.5 53.5v38v16v785h246v-774q0 -75 3 -125q2 -25 2 -46t-2 -39z M1237 674q-20 -7 -39.5 -11.5t-38.5 -9.5q-38 -11 -87.5 -25.5t-103.5 -32t-108.5 -37t-101.5 -39.5l-57 137q27 11 56 21.5t58 21.5q-52 51 -63 132q-2 14 -2 28q0 68 45 124q19 24 44 41.5t51.5 29.5t52.5 19t48 9q15 1 29 1q28 1 54 -5q38 -8 66 -22t44.5 -27t20.5 -17 l-100 -108q-2 2 -7 6q-8 6 -21.5 12t-31.5 10.5t-40 2.5q-28 -2 -54.5 -14.5t-40.5 -30.5q-13 -18 -12 -41q4 -23 11.5 -33.5t17.5 -15.5q6 -5 20 -10t37 -7.5t56 -0.5t79 13q33 10 53.5 15t23.5 7zM869 -600l155 154l156 -156l-154 -155zM667 -349l174 181l178 -178 l-175 -176zM1039 -344l177 175l177 -178l-175 -176z"/>
<glyph glyph-name="uni06B0" horiz-adv-x="2110" unicode="ڰ" d="M1512 893q52 -62 93 -119t70 -111q67 -130 67 -242q0 -21 -2 -42q-2 -8 -7 -33.5t-18.5 -60t-36.5 -74t-60 -74.5q-43 -42 -100.5 -70t-135.5 -45q-73 -17 -170.5 -25t-224.5 -8h-14q-11 0 -35 1t-55.5 2.5t-68 3.5t-71.5 5t-66.5 6t-52.5 6q-81 13 -154.5 39.5 t-135.5 64t-112 84t-84 98.5q-70 107 -70 241q0 133 74 289l222 -105q-32 -70 -42 -120q-7 -38 -8 -68q0 -10 1 -18q3 -34 13 -54.5t16 -30.5q38 -60 130 -104t226 -68q56 -11 107 -16t90 -7.5t62 -2.5h23h4q193 0 307 19.5t156 58.5q14 14 23 30.5t14 30.5q6 17 9 34l1 3 q3 25 -7 60t-32 76t-55 87.5t-76 96.5q-38 44 -75.5 81.5t-67 65t-47.5 43.5l-19 16l26 207l813 377l103 -224l-646 -298q23 -25 48 -51t51 -55zM1155 1219q-2 19 -2 39.5v37t1 27t3 10.5l730 351l42 -90q-159 -77 -305 -148q-62 -30 -127.5 -62t-128 -62t-117.5 -57 t-96 -46zM1788 1222q40 0 78 -19t67 -53q27 -32 41.5 -70t14.5 -77q0 -38 -14.5 -76.5t-41.5 -70.5q-29 -35 -67 -54t-78 -19q-41 0 -79 19t-67 54q-27 32 -41.5 70.5t-14.5 76.5q0 39 14.5 77t41.5 70q29 34 67 53t79 19zM1788 921q14 0 26.5 7.5t21.5 19.5t14.5 26.5 t5.5 28.5q0 13 -5.5 27.5t-14.5 26t-21.5 19t-26.5 7.5t-26.5 -7.5t-22 -19t-15 -26t-5.5 -27.5q0 -14 5.5 -28.5t15 -26.5t22 -19.5t26.5 -7.5z"/>
<glyph glyph-name="uni06B1" horiz-adv-x="2075" unicode="ڱ" d="M1512 893q52 -62 93 -119t70 -111q67 -130 67 -242q0 -21 -2 -42q-2 -8 -7 -33.5t-18.5 -60t-36.5 -74t-60 -74.5q-43 -42 -100.5 -70t-135.5 -45q-73 -17 -170.5 -25t-224.5 -8h-14q-11 0 -35 1t-55.5 2.5t-68 3.5t-71.5 5t-66.5 6t-52.5 6q-81 13 -154.5 39.5 t-135.5 64t-112 84t-84 98.5q-70 107 -70 241q0 133 74 289l222 -105q-32 -70 -42 -120q-7 -38 -8 -68q0 -10 1 -18q3 -34 13 -54.5t16 -30.5q38 -60 130 -104t226 -68q56 -11 107 -16t90 -7.5t62 -2.5h23h4q193 0 307 19.5t156 58.5q14 14 23 30.5t14 30.5q6 17 9 34l1 3 q3 25 -7 60t-32 76t-55 87.5t-76 96.5q-38 44 -75.5 81.5t-67 65t-47.5 43.5l-19 16l26 207l813 377l103 -224l-646 -298q23 -25 48 -51t51 -55zM1146 1216q-2 19 -2 39.5v37t1 27t3 10.5l730 351l42 -90q-159 -77 -305 -148q-62 -30 -127.5 -62t-128 -62t-117.5 -57 t-96 -46zM1452 1807l142 -142l-140 -141l-142 143l-141 -141l-142 143l140 140l143 -142z"/>
<glyph glyph-name="uni06B2" horiz-adv-x="2083" unicode="ڲ" d="M1512 893q52 -62 93 -119t70 -111q67 -130 67 -242q0 -21 -2 -42q-2 -8 -7 -33.5t-18.5 -60t-36.5 -74t-60 -74.5q-43 -42 -100.5 -70t-135.5 -45q-73 -17 -170.5 -25t-224.5 -8h-14q-11 0 -35 1t-55.5 2.5t-68 3.5t-71.5 5t-66.5 6t-52.5 6q-81 13 -154.5 39.5 t-135.5 64t-112 84t-84 98.5q-70 107 -70 241q0 133 74 289l222 -105q-32 -70 -42 -120q-7 -38 -8 -68q0 -10 1 -18q3 -34 13 -54.5t16 -30.5q38 -60 130 -104t226 -68q56 -11 107 -16t90 -7.5t62 -2.5h23h4q193 0 307 19.5t156 58.5q14 14 23 30.5t14 30.5q6 17 9 34l1 3 q3 25 -7 60t-32 76t-55 87.5t-76 96.5q-38 44 -75.5 81.5t-67 65t-47.5 43.5l-19 16l26 207l813 377l103 -224l-646 -298q23 -25 48 -51t51 -55zM1140 1216q-2 19 -2 39.5v37t1 27t3 10.5l730 351l42 -90q-159 -77 -305 -148q-62 -30 -127.5 -62t-128 -62t-117.5 -57 t-96 -46zM1346 -428l-176 -175l-178 178l-176 -175l-178 177l175 177l179 -179l175 176z"/>
<glyph glyph-name="uni06B3" horiz-adv-x="2102" unicode="ڳ" d="M1512 893q52 -62 93 -119t70 -111q67 -130 67 -242q0 -21 -2 -42q-2 -8 -7 -33.5t-18.5 -60t-36.5 -74t-60 -74.5q-43 -42 -100.5 -70t-135.5 -45q-73 -17 -170.5 -25t-224.5 -8h-14q-11 0 -35 1t-55.5 2.5t-68 3.5t-71.5 5t-66.5 6t-52.5 6q-81 13 -154.5 39.5 t-135.5 64t-112 84t-84 98.5q-70 107 -70 241q0 133 74 289l222 -105q-32 -70 -42 -120q-7 -38 -8 -68q0 -10 1 -18q3 -34 13 -54.5t16 -30.5q38 -60 130 -104t226 -68q56 -11 107 -16t90 -7.5t62 -2.5h23h4q193 0 307 19.5t156 58.5q14 14 23 30.5t14 30.5q6 17 9 34l1 3 q3 25 -7 60t-32 76t-55 87.5t-76 96.5q-38 44 -75.5 81.5t-67 65t-47.5 43.5l-19 16l26 207l813 377l103 -224l-646 -298q23 -25 48 -51t51 -55zM1140 1226q-2 19 -2 39.5v37t1 27t3 10.5l730 351l42 -90q-159 -77 -305 -148q-62 -30 -127.5 -62t-128 -62t-117.5 -57 t-96 -46zM809 -366l177 178l177 -175l-179 -179zM984 -542l176 -175l-179 -179l-175 176z"/>
<glyph glyph-name="uni06B4" horiz-adv-x="2083" unicode="ڴ" d="M1512 893q52 -62 93 -119t70 -111q67 -130 67 -242q0 -21 -2 -42q-2 -8 -7 -33.5t-18.5 -60t-36.5 -74t-60 -74.5q-43 -42 -100.5 -70t-135.5 -45q-73 -17 -170.5 -25t-224.5 -8h-14q-11 0 -35 1t-55.5 2.5t-68 3.5t-71.5 5t-66.5 6t-52.5 6q-81 13 -154.5 39.5 t-135.5 64t-112 84t-84 98.5q-70 107 -70 241q0 133 74 289l222 -105q-32 -70 -42 -120q-7 -38 -8 -68q0 -10 1 -18q3 -34 13 -54.5t16 -30.5q38 -60 130 -104t226 -68q56 -11 107 -16t90 -7.5t62 -2.5h23h4q193 0 307 19.5t156 58.5q14 14 23 30.5t14 30.5q6 17 9 34l1 3 q3 25 -7 60t-32 76t-55 87.5t-76 96.5q-38 44 -75.5 81.5t-67 65t-47.5 43.5l-19 16l26 207l813 377l103 -224l-646 -298q23 -25 48 -51t51 -55zM1140 1206q-2 19 -2 39.5v37t1 27t3 10.5l730 351l42 -90q-159 -77 -305 -148q-62 -30 -127.5 -62t-128 -62t-117.5 -57 t-96 -46zM1458 1890l-124 -123l-125 125l123 124zM1321 1686l-141 -140l-142 142l140 141zM1618 1690l-139 -145l-141 141l140 142z"/>
<glyph glyph-name="uni06B5" horiz-adv-x="1410" unicode="ڵ" d="M1292 39v-18.5v-27.5q-1 -32 -10 -75q-12 -72 -43.5 -134.5t-77.5 -114.5q-87 -95 -218.5 -142.5t-308.5 -47.5q-65 0 -128 11t-120 34q-68 26 -121.5 65t-93.5 90q-24 31 -47 73q-22 42 -36 98q-14 57 -15 126q0 67 20 147q9 39 21.5 82.5t26.5 85.5t27 80t24 68 t18 48.5t8 20.5l229 -89l-7 -17q-6 -16 -16 -43.5t-22.5 -63.5t-25 -75t-24.5 -78.5t-20 -74.5q-12 -52 -12 -96q0 -84 44 -140q19 -25 48 -44.5t64 -33t75 -21t83 -7.5q242 0 344 108q27 30 41 60t20 55.5t6 43v21.5l1 18q0 48 -0.5 109.5t-2 144t-2.5 188.5t-2.5 243.5 t-2 309.5t-0.5 385h246q0 -218 1 -391.5t2.5 -310.5t2.5 -241.5t2 -184t1.5 -139t0.5 -105.5zM1196 1443l-133 8q-19 53 -41 108t-46 103.5t-49.5 86.5t-51.5 56l82 117q23 -15 50 -47.5t52 -72.5t44.5 -82.5t28.5 -77.5q2 20 13.5 63t31 92.5t46.5 98t61 79.5l97 -105 q-19 -18 -34 -43t-28 -55t-25.5 -65.5t-25.5 -74.5q-15 -46 -32 -92t-40 -97z"/>
<glyph glyph-name="uni06B6" horiz-adv-x="1386" unicode="ڶ" d="M1292 39v-18.5v-27.5q-1 -32 -10 -75q-12 -72 -43.5 -134.5t-77.5 -114.5q-87 -95 -218.5 -142.5t-308.5 -47.5q-65 0 -128 11t-120 34q-68 26 -121.5 65t-93.5 90q-24 31 -47 73q-22 42 -36 98q-14 57 -15 126q0 67 20 147q9 39 21.5 82.5t26.5 85.5t27 80t24 68 t18 48.5t8 20.5l229 -89l-7 -17q-6 -16 -16 -43.5t-22.5 -63.5t-25 -75t-24.5 -78.5t-20 -74.5q-12 -52 -12 -96q0 -84 44 -140q19 -25 48 -44.5t64 -33t75 -21t83 -7.5q242 0 344 108q27 30 41 60t20 55.5t6 43v21.5l1 18q0 48 -0.5 109.5t-2 144t-2.5 188.5t-2.5 243.5 t-2 309.5t-0.5 385h246q0 -218 1 -391.5t2.5 -310.5t2.5 -241.5t2 -184t1.5 -139t0.5 -105.5zM1322 1691l-176 -176l-178 178l176 176z"/>
<glyph glyph-name="uni06B7" horiz-adv-x="1439" unicode="ڷ" d="M1292 39v-18.5v-27.5q-1 -32 -10 -75q-12 -72 -43.5 -134.5t-77.5 -114.5q-87 -95 -218.5 -142.5t-308.5 -47.5q-65 0 -128 11t-120 34q-68 26 -121.5 65t-93.5 90q-24 31 -47 73q-22 42 -36 98q-14 57 -15 126q0 67 20 147q9 39 21.5 82.5t26.5 85.5t27 80t24 68 t18 48.5t8 20.5l229 -89l-7 -17q-6 -16 -16 -43.5t-22.5 -63.5t-25 -75t-24.5 -78.5t-20 -74.5q-12 -52 -12 -96q0 -84 44 -140q19 -25 48 -44.5t64 -33t75 -21t83 -7.5q242 0 344 108q27 30 41 60t20 55.5t6 43v21.5l1 18q0 48 -0.5 109.5t-2 144t-2.5 188.5t-2.5 243.5 t-2 309.5t-0.5 385h246q0 -218 1 -391.5t2.5 -310.5t2.5 -241.5t2 -184t1.5 -139t0.5 -105.5zM1273 1838l-124 -123l-125 125l123 124zM1136 1634l-141 -140l-142 142l140 141zM1433 1638l-139 -145l-141 141l140 142z"/>
<glyph glyph-name="uni06B8" horiz-adv-x="1392" unicode="ڸ" d="M1292 39v-18.5v-27.5q-1 -32 -10 -75q-12 -72 -43.5 -134.5t-77.5 -114.5q-87 -95 -218.5 -142.5t-308.5 -47.5q-65 0 -128 11t-120 34q-68 26 -121.5 65t-93.5 90q-24 31 -47 73q-22 42 -36 98q-14 57 -15 126q0 67 20 147q9 39 21.5 82.5t26.5 85.5t27 80t24 68 t18 48.5t8 20.5l229 -89l-7 -17q-6 -16 -16 -43.5t-22.5 -63.5t-25 -75t-24.5 -78.5t-20 -74.5q-12 -52 -12 -96q0 -84 44 -140q19 -25 48 -44.5t64 -33t75 -21t83 -7.5q242 0 344 108q27 30 41 60t20 55.5t6 43v21.5l1 18q0 48 -0.5 109.5t-2 144t-2.5 188.5t-2.5 243.5 t-2 309.5t-0.5 385h246q0 -218 1 -391.5t2.5 -310.5t2.5 -241.5t2 -184t1.5 -139t0.5 -105.5zM553 -946l124 123l125 -125l-123 -124zM690 -742l141 140l142 -142l-140 -141zM393 -746l139 145l141 -141l-140 -142z"/>
<glyph glyph-name="uni06B9" horiz-adv-x="1482" unicode="ڹ" d="M729 -548q-51 0 -122.5 8t-147.5 34q-180 61 -275 204q-85 130 -85 309q0 17 1 35q9 211 130 491l226 -97q-92 -209 -108 -362q-4 -34 -3 -65q0 -108 45 -177q30 -45 76 -72t95 -40.5t94.5 -17.5t73.5 -4q288 0 381 148q26 43 38 95q12 53 12 107q0 3 1 6q1 51 -7 102 q-8 54 -18 101q-13 58 -29 108.5t-30.5 88t-24.5 59.5q-7 16 -9 21h1l218 113l12 -25q12 -26 28.5 -69.5t35.5 -103t36 -127.5q18 -80 26 -153q6 -58 6 -113v-27q-4 -91 -24.5 -167.5t-60.5 -141.5q-79 -130 -225 -198q-151 -70 -367 -70zM1043 534l-1 2q0 -2 1 -2v0z M964 -1002l-176 -176l-178 178l176 176zM935 483l-176 -176l-178 178l176 176z"/>
<glyph glyph-name="uni06BB" horiz-adv-x="1455" unicode="ڻ" d="M729 -548q-51 0 -122.5 8t-147.5 34q-180 61 -275 204q-85 130 -85 309q0 17 1 35q9 211 130 491l226 -97q-92 -209 -108 -362q-4 -34 -3 -65q0 -108 45 -177q30 -45 76 -72t95 -40.5t94.5 -17.5t73.5 -4q288 0 381 148q26 43 38 95q12 53 12 107q0 3 1 6q1 51 -7 102 q-8 54 -18 101q-13 58 -29 108.5t-30.5 88t-24.5 59.5q-7 16 -9 21h1l218 113l12 -25q12 -26 28.5 -69.5t35.5 -103t36 -127.5q18 -80 26 -153q6 -58 6 -113v-27q-4 -91 -24.5 -167.5t-60.5 -141.5q-79 -130 -225 -198q-151 -70 -367 -70zM1043 534l-1 2q0 -2 1 -2v0z M631 1119q0 -2 1.5 -19.5t4 -47t5 -69t4.5 -84.5q1 -30 2 -56t1 -52q30 35 61 55t62 29q16 4 38 4q50 0 94 -33q20 -15 34.5 -38.5t20.5 -49.5q3 -15 3 -36q-1 -10 -1 -22q-2 -34 -28 -72q-44 -63 -154 -85q-17 -3 -50 -6t-74 -3q-27 0 -83.5 2.5t-128.5 16.5l13 88 q17 -3 31.5 -4.5t26.5 -3.5q13 -2 26 -2q1 0 3 13.5t4 41.5q2 29 2 73v13q0 40 -3 93q-2 45 -5 86.5t-6 73.5q-2 31 -4 51l-2 20zM656 627q78 5 128 17.5t67 38.5q10 17 12 31q0 5 1 9q0 9 -2 16q-3 11 -8.5 18.5t-8.5 9.5q-10 8 -22 12q-6 2 -12.5 2t-13.5 -2 q-22 -6 -43 -23t-39 -39t-33 -46.5t-26 -43.5z"/>
<glyph glyph-name="uni06BC" horiz-adv-x="1471" unicode="ڼ" d="M1185 -365q40 0 78 -19t67 -53q27 -32 41.5 -70t14.5 -77q0 -38 -14.5 -76.5t-41.5 -70.5q-29 -35 -67 -54t-78 -19q-41 0 -79 19t-67 54q-27 32 -41.5 70.5t-14.5 76.5q0 39 14.5 77t41.5 70q29 34 67 53t79 19zM1185 -666q14 0 26.5 7.5t21.5 19.5t14.5 26.5t5.5 28.5 q0 13 -5.5 27.5t-14.5 26t-21.5 19t-26.5 7.5t-26.5 -7.5t-22 -19t-15 -26t-5.5 -27.5q0 -14 5.5 -28.5t15 -26.5t22 -19.5t26.5 -7.5zM729 -548q-51 0 -122.5 8t-147.5 34q-180 61 -275 204q-85 130 -85 309q0 17 1 35q9 211 130 491l226 -97q-92 -209 -108 -362 q-4 -34 -3 -65q0 -108 45 -177q30 -45 76 -72t95 -40.5t94.5 -17.5t73.5 -4q288 0 381 148q26 43 38 95q12 53 12 107q0 3 1 6q1 51 -7 102q-8 54 -18 101q-13 58 -29 108.5t-30.5 88t-24.5 59.5q-7 16 -9 21h1l218 113l12 -25q12 -26 28.5 -69.5t35.5 -103t36 -127.5 q18 -80 26 -153q6 -58 6 -113v-27q-4 -91 -24.5 -167.5t-60.5 -141.5q-79 -130 -225 -198q-151 -70 -367 -70zM1043 534l-1 2q0 -2 1 -2v0zM845 533l-176 -176l-178 178l176 176z"/>
<glyph glyph-name="uni06BD" horiz-adv-x="1503" unicode="ڽ" d="M729 -548q-51 0 -122.5 8t-147.5 34q-180 61 -275 204q-85 130 -85 309q0 17 1 35q9 211 130 491l226 -97q-92 -209 -108 -362q-4 -34 -3 -65q0 -108 45 -177q30 -45 76 -72t95 -40.5t94.5 -17.5t73.5 -4q288 0 381 148q26 43 38 95q12 53 12 107q0 3 1 6q1 51 -7 102 q-8 54 -18 101q-13 58 -29 108.5t-30.5 88t-24.5 59.5q-7 16 -9 21h1l218 113l12 -25q12 -26 28.5 -69.5t35.5 -103t36 -127.5q18 -80 26 -153q6 -58 6 -113v-27q-4 -91 -24.5 -167.5t-60.5 -141.5q-79 -130 -225 -198q-151 -70 -367 -70zM1043 534l-1 2q0 -2 1 -2v0z M894 950l-155 -154l-156 156l154 155zM723 694l-176 -175l-178 178l176 176zM1095 699l-174 -181l-177 177l175 177z"/>
<glyph glyph-name="uni06BF" horiz-adv-x="1624" unicode="ڿ" d="M1059 320q-63 -15 -128.5 -36.5t-129 -49t-122.5 -63t-109 -79.5q-28 -25 -52.5 -62.5t-39.5 -81.5q-16 -46 -20 -94q-1 -11 -1 -22q0 -37 10 -74q8 -29 27 -55t45 -48.5t56.5 -42t60.5 -34.5q71 -36 157 -63q-8 -44 -16 -87q-7 -37 -15 -78.5t-16 -76.5 q-221 42 -361 156q-66 53 -110 119.5t-65 144.5q-18 68 -18 138v24q4 83 31 166q25 75 67 141t97 115q60 52 140 93.5t166.5 73.5t172 56t157.5 42q-44 23 -91 50.5t-98 59.5q-82 53 -157 53q-25 0 -49 -6q-43 -11 -80.5 -36.5t-67.5 -54.5t-51.5 -57.5t-30.5 -44.5v1 l-213 120q3 5 28 43t70 87q63 69 135.5 114.5t148.5 65.5q48 11 96 13h19l77 -6q52 -9 105 -29t103 -55q130 -93 231 -142.5t170 -71t105 -24.5t37 -3l-76 -234q-2 0 -42 -6t-112 -15zM847 1301l-176 -176l-178 178l176 176zM783 -281l155 154l156 -156l-154 -155zM581 -30 l174 181l178 -178l-175 -176zM953 -25l177 175l177 -178l-175 -176z"/>
<glyph glyph-name="uni06C2.fina" horiz-adv-x="1273" unicode="ۂ" d="M726 174q-36 23 -69 45.5t-66.5 38t-69.5 19.5q-8 1 -16 1q-29 0 -62 -11q-29 -10 -48.5 -30.5t-32.5 -41.5q-15 -25 -25 -53l-236 70q1 5 7.5 23t19 43t31.5 55t46 59.5t62.5 56t80.5 45.5q69 29 148 29q23 0 48 -3q59 -6 114.5 -27t111.5 -50t113.5 -61t119.5 -60 t130 -48t145 -23l1 -251q-89 0 -163.5 12.5t-140.5 35.5t-127 55t-122 71zM683 748q-20 -7 -39.5 -11.5t-38.5 -9.5q-38 -11 -87.5 -25.5t-103.5 -32t-108.5 -37t-101.5 -39.5l-57 136q53 22 114 44q-52 51 -63 132q-2 14 -2 28q0 68 45 124q19 24 44 41.5t51.5 29.5 t52.5 18.5t48 8.5q16 2 32 2q27 0 51 -6q38 -9 66 -22t44.5 -26t20.5 -17l-100 -108q-2 2 -7 6q-8 6 -21.5 12t-31.5 10.5t-40 2.5q-28 -2 -54.5 -14.5t-40.5 -31.5q-13 -16 -12 -40q4 -23 11.5 -33.5t17.5 -15.5q6 -5 20 -10t37 -7.5t56 -0.5t79 13q33 10 53.5 15t23.5 7z "/>
<glyph glyph-name="uni06C3.fina" horiz-adv-x="1324" unicode="ۃ" d="M775 174q-36 23 -69 45.5t-66.5 38t-69.5 19.5q-8 1 -16 1q-29 0 -62 -11q-29 -10 -48.5 -30.5t-32.5 -41.5q-15 -25 -25 -53l-236 70q1 5 7.5 23t19 43t31.5 55t46 59.5t62.5 56t80.5 45.5q69 29 148 29q23 0 48 -3q59 -6 114.5 -27t111.5 -50t113.5 -61t119.5 -60 t130 -48t145 -23l1 -251q-89 0 -163.5 12.5t-140.5 35.5t-127 55t-122 71zM808 836l-176 -175l-178 178l-176 -175l-178 177l175 177l179 -179l175 176z"/>
<glyph glyph-name="uni06C4" horiz-adv-x="960" unicode="ۄ" d="M609 250h33t30 1q-2 87 -17 153.5t-40 117.5q-15 31 -31.5 49.5t-33 28.5t-32 13t-28.5 3q-31 0 -57 -14t-45.5 -37.5t-33 -53.5t-19.5 -62q-7 -33 -6 -57.5t8.5 -42.5t20 -31.5t29.5 -25.5q5 -4 18.5 -10.5t39.5 -13.5t66 -12t98 -6zM833 630q26 -52 42.5 -109 t25.5 -113.5t12.5 -110t3.5 -98.5q0 -199 -98 -359t-290 -274q-68 -40 -127.5 -66.5t-104.5 -42.5t-71.5 -22.5t-29.5 -6.5l-79 234l26 6q26 6 67.5 20t94 36t106.5 54q150 92 214 219h-19q-124 1 -212.5 22.5t-148.5 63.5q-34 24 -67.5 60t-57.5 85q-24 48 -32 112 q-3 23 -3 48q0 45 10 97q14 72 45 136t76 112q114 125 274 125q111 0 199 -58t144 -170zM166 92q40 0 78 -19t67 -53q27 -32 41.5 -70t14.5 -77q0 -38 -14.5 -76.5t-41.5 -70.5q-29 -35 -67 -54t-78 -19q-41 0 -79 19t-67 54q-27 32 -41.5 70.5t-14.5 76.5q0 39 14.5 77 t41.5 70q29 34 67 53t79 19zM166 -209q14 0 26.5 7.5t21.5 19.5t14.5 26.5t5.5 28.5q0 13 -5.5 27.5t-14.5 26t-21.5 19t-26.5 7.5t-26.5 -7.5t-22 -19t-15 -26t-5.5 -27.5q0 -14 5.5 -28.5t15 -26.5t22 -19.5t26.5 -7.5z"/>
<glyph glyph-name="uni06C5" horiz-adv-x="1217" unicode="ۅ" d="M785 187h32.5t30.5 1q-2 87 -17 153.5t-41 117.5q-15 31 -31.5 50t-32.5 28.5t-31.5 12.5t-28.5 3q-31 0 -57 -14t-46 -37.5t-33.5 -53.5t-19.5 -62q-7 -33 -6 -57.5t8.5 -42.5t20.5 -31.5t30 -25.5q4 -4 17.5 -10.5t39.5 -13.5t66.5 -12t98.5 -6zM1009 567 q26 -52 42.5 -109t25.5 -113.5t12.5 -109.5t3.5 -98q0 -200 -98.5 -360t-290.5 -274q-68 -40 -127 -66.5t-104 -42.5t-71.5 -22.5t-29.5 -6.5l-79 234q2 1 25.5 6.5t60.5 17.5t84 31t97 46q-44 20 -84 23q-15 1 -28 1q-23 0 -42 -3q-36 -6 -67 -21l-78 153q38 35 82 51 q45 15 89 16h8l80 -8q44 -10 83 -24.5t71 -31t52 -28.5q23 25 42 51.5t33 54.5h-19q-125 1 -213 22.5t-148 63.5q-34 24 -67.5 60t-57 85t-32.5 113q-3 23 -3 47q0 45 10 97q14 72 45 136.5t76 112.5q56 61 125.5 92.5t148.5 31.5q110 0 198.5 -58t144.5 -170z"/>
<glyph glyph-name="uni06C6" horiz-adv-x="937" unicode="ۆ" d="M609 250h33t30 1q-2 87 -17 153.5t-40 117.5q-15 31 -31.5 49.5t-33 28.5t-32 13t-28.5 3q-31 0 -57 -14t-45.5 -37.5t-33 -53.5t-19.5 -62q-7 -33 -6 -57.5t8.5 -42.5t20 -31.5t29.5 -25.5q5 -4 18.5 -10.5t39.5 -13.5t66 -12t98 -6zM833 630q26 -52 42.5 -109 t25.5 -113.5t12.5 -110t3.5 -98.5q0 -199 -98 -359t-290 -274q-68 -40 -127.5 -66.5t-104.5 -42.5t-71.5 -22.5t-29.5 -6.5l-79 234l26 6q26 6 67.5 20t94 36t106.5 54q150 92 214 219h-19q-124 1 -212.5 22.5t-148.5 63.5q-34 24 -67.5 60t-57.5 85q-24 48 -32 112 q-3 23 -3 48q0 45 10 97q14 72 45 136t76 112q114 125 274 125q111 0 199 -58t144 -170zM521 958l-133 8q-19 53 -41 108t-46 103.5t-49.5 86.5t-51.5 56l82 117q23 -15 50 -47.5t52 -72.5t44.5 -82.5t28.5 -77.5q2 20 13.5 63t31 92.5t46.5 98t61 79.5l97 -105 q-19 -18 -34 -43t-28 -55t-25.5 -65.5t-25.5 -74.5q-15 -46 -32 -92t-40 -97z"/>
<glyph glyph-name="uni06C7" horiz-adv-x="965" unicode="ۇ" d="M615 250h33t30 1q-2 87 -17 153.5t-40 117.5q-15 31 -31.5 49.5t-33 28.5t-32 13t-28.5 3q-31 0 -57 -14t-45.5 -37.5t-33 -53.5t-19.5 -62q-7 -33 -6 -57.5t8.5 -42.5t20 -31.5t29.5 -25.5q5 -4 18.5 -10.5t39.5 -13.5t66 -12t98 -6zM839 630q26 -52 42.5 -109 t25.5 -113.5t12.5 -110t3.5 -98.5q0 -199 -98 -359t-290 -274q-68 -40 -127.5 -66.5t-104.5 -42.5t-71.5 -22.5t-29.5 -6.5l-79 234l26 6q26 6 67.5 20t94 36t106.5 54q150 92 214 219h-19q-124 1 -212.5 22.5t-148.5 63.5q-34 24 -67.5 60t-57.5 85q-24 48 -32 112 q-3 23 -3 48q0 45 10 97q14 72 45 136t76 112q114 125 274 125q111 0 199 -58t144 -170zM523 1218q5 14 5.5 31.5t-2.5 30.5q-8 20 -31.5 30.5t-45.5 -1.5q-8 -4 -12 -11.5t-4.5 -16.5t3 -18t9.5 -16q12 -16 33 -20t45 -9zM526 1427q54 -18 83 -55q28 -37 36 -83 q3 -17 3 -35q1 -30 -7 -61q-12 -50 -42 -95q-24 -36 -64.5 -71.5t-89.5 -63t-100.5 -45.5t-96.5 -19l-38 121q22 0 62 12t95 41q44 22 72 43q-27 10 -53 26.5t-45 40.5q-25 30 -32 64q-3 16 -3 31q0 17 4 35q8 32 28 58t49 43t65 21q9 1 19 2q27 0 55 -10z"/>
<glyph glyph-name="uni06C8" horiz-adv-x="956" unicode="ۈ" d="M609 250h33t30 1q-2 87 -17 153.5t-40 117.5q-15 31 -31.5 49.5t-33 28.5t-32 13t-28.5 3q-31 0 -57 -14t-45.5 -37.5t-33 -53.5t-19.5 -62q-7 -33 -6 -57.5t8.5 -42.5t20 -31.5t29.5 -25.5q5 -4 18.5 -10.5t39.5 -13.5t66 -12t98 -6zM833 630q26 -52 42.5 -109 t25.5 -113.5t12.5 -110t3.5 -98.5q0 -199 -98 -359t-290 -274q-68 -40 -127.5 -66.5t-104.5 -42.5t-71.5 -22.5t-29.5 -6.5l-79 234l26 6q26 6 67.5 20t94 36t106.5 54q150 92 214 219h-19q-124 1 -212.5 22.5t-148.5 63.5q-34 24 -67.5 60t-57.5 85q-24 48 -32 112 q-3 23 -3 48q0 45 10 97q14 72 45 136t76 112q114 125 274 125q111 0 199 -58t144 -170zM437 1406q4 -8 10 -30t11.5 -51t11 -61t9 -59.5t4.5 -45.5v-10q0 -8 -1 -9l-70 -30q-5 43 -10 78.5t-12 67t-16 62.5t-20 66q2 0 12 3q8 2 25 6.5t46 12.5z"/>
<glyph glyph-name="uni06C9" horiz-adv-x="956" unicode="ۉ" d="M609 250h33t30 1q-2 87 -17 153.5t-40 117.5q-15 31 -31.5 49.5t-33 28.5t-32 13t-28.5 3q-31 0 -57 -14t-45.5 -37.5t-33 -53.5t-19.5 -62q-7 -33 -6 -57.5t8.5 -42.5t20 -31.5t29.5 -25.5q5 -4 18.5 -10.5t39.5 -13.5t66 -12t98 -6zM833 630q26 -52 42.5 -109 t25.5 -113.5t12.5 -110t3.5 -98.5q0 -199 -98 -359t-290 -274q-68 -40 -127.5 -66.5t-104.5 -42.5t-71.5 -22.5t-29.5 -6.5l-79 234l26 6q26 6 67.5 20t94 36t106.5 54q150 92 214 219h-19q-124 1 -212.5 22.5t-148.5 63.5q-34 24 -67.5 60t-57.5 85q-24 48 -32 112 q-3 23 -3 48q0 45 10 97q14 72 45 136t76 112q114 125 274 125q111 0 199 -58t144 -170zM346 1535l134 -7q18 -53 40 -108t46.5 -104t50 -86.5t51.5 -55.5l-82 -118q-24 15 -51 47.5t-52 72.5t-44.5 82.5t-27.5 77.5q-2 -13 -7.5 -37t-15 -54t-22.5 -64t-29.5 -66.5 t-36.5 -61.5t-42 -49l-97 105q38 35 62.5 97t50.5 140q15 46 32 92.5t40 96.5z"/>
<glyph glyph-name="uni06CA" horiz-adv-x="984" unicode="ۊ" d="M640 250h33t30 1q-2 87 -17 153.5t-40 117.5q-15 31 -31.5 49.5t-33 28.5t-32 13t-28.5 3q-31 0 -57 -14t-45.5 -37.5t-33 -53.5t-19.5 -62q-7 -33 -6 -57.5t8.5 -42.5t20 -31.5t29.5 -25.5q5 -4 18.5 -10.5t39.5 -13.5t66 -12t98 -6zM864 630q26 -52 42.5 -109 t25.5 -113.5t12.5 -110t3.5 -98.5q0 -199 -98 -359t-290 -274q-68 -40 -127.5 -66.5t-104.5 -42.5t-71.5 -22.5t-29.5 -6.5l-79 234l26 6q26 6 67.5 20t94 36t106.5 54q150 92 214 219h-19q-124 1 -212.5 22.5t-148.5 63.5q-34 24 -67.5 60t-57.5 85q-24 48 -32 112 q-3 23 -3 48q0 45 10 97q14 72 45 136t76 112q114 125 274 125q111 0 199 -58t144 -170zM797 1251l-176 -175l-178 178l-176 -175l-178 177l175 177l179 -179l175 176z"/>
<glyph glyph-name="uni06CB" horiz-adv-x="1127" unicode="ۋ" d="M699 250h33t30 1q-2 87 -17 153.5t-40 117.5q-15 31 -31.5 49.5t-33 28.5t-32 13t-28.5 3q-31 0 -57 -14t-45.5 -37.5t-33 -53.5t-19.5 -62q-7 -33 -6 -57.5t8.5 -42.5t20 -31.5t29.5 -25.5q5 -4 18.5 -10.5t39.5 -13.5t66 -12t98 -6zM923 630q26 -52 42.5 -109 t25.5 -113.5t12.5 -110t3.5 -98.5q0 -199 -98 -359t-290 -274q-68 -40 -127.5 -66.5t-104.5 -42.5t-71.5 -22.5t-29.5 -6.5l-79 234l26 6q26 6 67.5 20t94 36t106.5 54q150 92 214 219h-19q-124 1 -212.5 22.5t-148.5 63.5q-34 24 -67.5 60t-57.5 85q-24 48 -32 112 q-3 23 -3 48q0 45 10 97q14 72 45 136t76 112q114 125 274 125q111 0 199 -58t144 -170zM663 1443l-155 -154l-156 156l154 155zM492 1187l-176 -175l-178 178l176 176zM864 1192l-174 -181l-177 177l175 177z"/>
<glyph glyph-name="uni06CD" horiz-adv-x="1872" unicode="ۍ" d="M1780 527q-77 17 -138 17h-21q-69 -4 -120 -22.5t-86.5 -48.5t-58.5 -64t-36 -67t-19 -58q-6 -26 -6 -39.5t1 -18.5q2 -3 3 -5t5 -5q16 -14 53 -26t74 -22q51 -14 103.5 -31t100.5 -49q65 -46 97 -110q31 -61 30 -137v-9q-3 -146 -102 -256q-38 -42 -89 -75.5t-115 -60.5 q-59 -24 -118.5 -39.5t-113 -24.5t-96 -12.5t-67.5 -4.5h-44q-219 0 -372 79q-107 57 -178 150q-25 34 -45 72t-34 81l-150 -194l-194 150l329 427v6h251q-9 -50 -14 -98q-5 -41 -7 -84q-1 -12 -1 -23q0 -28 4 -49q6 -30 17 -63t31.5 -64t52 -58.5t79.5 -47.5 q48 -21 114 -31q51 -8 115 -8q18 0 38 1q15 0 48 2.5t75.5 9.5t90.5 18.5t94 30.5q57 24 88.5 49.5t46 49t17.5 43t3 30.5q0 14 -2 25t-16 21t-44 20.5t-86 25.5q-28 8 -57.5 16.5t-58.5 20t-57 26.5t-52 36q-22 19 -43 46.5t-34.5 66t-15.5 88.5q0 7 -1 14q0 44 13 98 q7 30 21.5 71t40 86.5t63 92t91.5 86.5q52 39 111.5 64t126.5 37q58 11 122 11q92 0 195 -23z"/>
<glyph glyph-name="uni06CE" horiz-adv-x="1532" unicode="ێ" d="M1525 593q-77 17 -138 17h-21q-69 -4 -120 -22.5t-86.5 -48.5t-58.5 -64t-36 -67t-19 -58q-6 -26 -6 -39.5t1 -18.5q2 -3 3 -5t5 -5q16 -14 53 -26t74 -22q51 -14 103.5 -31t100.5 -49q64 -46 96 -110q31 -61 31 -137v-9q-3 -146 -102 -256q-38 -42 -89 -75.5t-115 -60.5 q-59 -24 -118.5 -39.5t-113 -24.5t-96 -12.5t-67.5 -4.5h-44q-219 0 -372 79q-107 57 -178 150q-75 102 -102 243q-12 66 -12 145v28q2 96 23 200q7 38 19 84.5t29.5 97.5t41.5 105t56 107l210 -129q-42 -69 -70.5 -150.5t-44 -162t-18.5 -154.5q-1 -17 -1 -32q0 -53 8 -94 q6 -31 17 -63.5t31.5 -63.5t52 -58.5t79.5 -47.5q47 -21 113 -31q51 -8 116 -8q18 0 38 1q15 0 48 2.5t75.5 9.5t90.5 18.5t94 30.5q57 24 88.5 49.5t46 49t17.5 43t3 30.5q0 14 -2 25t-16 21t-44 20.5t-86 25.5q-28 8 -57.5 16.5t-58.5 20t-57 26.5t-52 36q-22 19 -43 47 t-35 66t-16 88v14q0 44 13 98q7 30 21.5 71t40 86.5t63 92t91.5 86.5q52 39 111.5 64t126.5 37q58 11 122 11q92 0 195 -23zM679 572l-133 8q-19 53 -41 108t-46 103.5t-49.5 86.5t-51.5 56l82 117q23 -15 50 -47.5t52 -72.5t44.5 -82.5t28.5 -77.5q2 20 13.5 63t31 92.5 t46.5 98t61 79.5l97 -105q-19 -18 -34 -43t-28 -55t-25.5 -65.5t-25.5 -74.5q-15 -46 -32 -92t-40 -97z"/>
<glyph glyph-name="uni06CF" horiz-adv-x="974" unicode="ۏ" d="M609 250h33t30 1q-2 87 -17 153.5t-40 117.5q-15 31 -31.5 49.5t-33 28.5t-32 13t-28.5 3q-31 0 -57 -14t-45.5 -37.5t-33 -53.5t-19.5 -62q-7 -33 -6 -57.5t8.5 -42.5t20 -31.5t29.5 -25.5q5 -4 18.5 -10.5t39.5 -13.5t66 -12t98 -6zM833 630q26 -52 42.5 -109 t25.5 -113.5t12.5 -110t3.5 -98.5q0 -199 -98 -359t-290 -274q-68 -40 -127.5 -66.5t-104.5 -42.5t-71.5 -22.5t-29.5 -6.5l-79 234l26 6q26 6 67.5 20t94 36t106.5 54q150 92 214 219h-19q-124 1 -212.5 22.5t-148.5 63.5q-34 24 -67.5 60t-57.5 85q-24 48 -32 112 q-3 23 -3 48q0 45 10 97q14 72 45 136t76 112q114 125 274 125q111 0 199 -58t144 -170zM622 1252l-176 -176l-178 178l176 176z"/>
<glyph glyph-name="uni06D0" horiz-adv-x="1605" unicode="ې" d="M1525 593q-77 17 -138 17h-21q-69 -4 -120 -22.5t-86.5 -48.5t-58.5 -64t-36 -67t-19 -58q-6 -26 -6 -39.5t1 -18.5q2 -3 3 -5t5 -5q16 -14 53 -26t74 -22q51 -14 103.5 -31t100.5 -49q64 -46 96 -110q31 -61 31 -137v-9q-3 -146 -102 -256q-38 -42 -89 -75.5t-115 -60.5 q-59 -24 -118.5 -39.5t-113 -24.5t-96 -12.5t-67.5 -4.5h-44q-219 0 -372 79q-107 57 -178 150q-75 102 -102 243q-12 66 -12 145v28q2 96 23 200q7 38 19 84.5t29.5 97.5t41.5 105t56 107l210 -129q-42 -69 -70.5 -150.5t-44 -162t-18.5 -154.5q-1 -17 -1 -32q0 -53 8 -94 q6 -31 17 -63.5t31.5 -63.5t52 -58.5t79.5 -47.5q47 -21 113 -31q51 -8 116 -8q18 0 38 1q15 0 48 2.5t75.5 9.5t90.5 18.5t94 30.5q57 24 88.5 49.5t46 49t17.5 43t3 30.5q0 14 -2 25t-16 21t-44 20.5t-86 25.5q-28 8 -57.5 16.5t-58.5 20t-57 26.5t-52 36q-22 19 -43 47 t-35 66t-16 88v14q0 44 13 98q7 30 21.5 71t40 86.5t63 92t91.5 86.5q52 39 111.5 64t126.5 37q58 11 122 11q92 0 195 -23zM565 -842l142 142l141 -140l-143 -143zM705 -983l141 -140l-143 -143l-140 141z"/>
<glyph glyph-name="uni06D1" horiz-adv-x="1632" unicode="ۑ" d="M1525 593q-77 17 -138 17h-21q-69 -4 -120 -22.5t-86.5 -48.5t-58.5 -64t-36 -67t-19 -58q-6 -26 -6 -39.5t1 -18.5q2 -3 3 -5t5 -5q16 -14 53 -26t74 -22q51 -14 103.5 -31t100.5 -49q64 -46 96 -110q31 -61 31 -137v-9q-3 -146 -102 -256q-38 -42 -89 -75.5t-115 -60.5 q-59 -24 -118.5 -39.5t-113 -24.5t-96 -12.5t-67.5 -4.5h-44q-219 0 -372 79q-107 57 -178 150q-75 102 -102 243q-12 66 -12 145v28q2 96 23 200q7 38 19 84.5t29.5 97.5t41.5 105t56 107l210 -129q-42 -69 -70.5 -150.5t-44 -162t-18.5 -154.5q-1 -17 -1 -32q0 -53 8 -94 q6 -31 17 -63.5t31.5 -63.5t52 -58.5t79.5 -47.5q47 -21 113 -31q51 -8 116 -8q18 0 38 1q15 0 48 2.5t75.5 9.5t90.5 18.5t94 30.5q57 24 88.5 49.5t46 49t17.5 43t3 30.5q0 14 -2 25t-16 21t-44 20.5t-86 25.5q-28 8 -57.5 16.5t-58.5 20t-57 26.5t-52 36q-22 19 -43 47 t-35 66t-16 88v14q0 44 13 98q7 30 21.5 71t40 86.5t63 92t91.5 86.5q52 39 111.5 64t126.5 37q58 11 122 11q92 0 195 -23zM831 -1161l124 123l125 -125l-123 -124zM968 -957l141 140l142 -142l-140 -141zM671 -961l139 145l141 -141l-140 -142z"/>
<glyph glyph-name="uni06D4" horiz-adv-x="564" unicode="۔" d="M567 252q11 0 11 -8v-234q0 -10 -11 -10h-577q-10 0 -10 10v234q0 8 10 8h577z"/>
<glyph glyph-name="uni06D5" horiz-adv-x="1027" unicode="ە" d="M715 327q2 14 2 27q0 107 -146 218q-35 25 -68.5 45.5t-62.5 34.5q-38 -51 -59.5 -89t-33.5 -67t-16.5 -53.5t-8.5 -48.5q-3 -32 2 -58t21 -45q18 -23 45 -36t48 -15q14 -1 27 -1.5t25 -0.5q58 0 100 10.5t69 25t40.5 29.5t15.5 24zM897 580q66 -108 66 -223 q0 -38 -7 -76q-12 -63 -53.5 -117.5t-107.5 -94.5q-63 -38 -140 -57.5t-165 -19.5q-19 0 -37.5 1t-37.5 3q-29 3 -63.5 12t-69.5 26.5t-68.5 42.5t-61.5 60q-16 21 -32 49t-27.5 64.5t-15.5 80.5q-1 16 -1 33q0 30 4 64q5 35 13.5 79t33.5 101q26 59 69.5 125.5t109.5 147.5 l55 70l84 -31q2 -1 26.5 -11t62 -28.5t85 -45.5t95.5 -63q120 -89 183 -192z"/>
<glyph glyph-name="uni06D6" d="M578 1320q23 20 26 51q0 13 -6.5 23t-16.5 17t-22.5 10.5t-23.5 3.5h-10t-11 -1q-25 -3 -52.5 -18.5t-50.5 -37.5q-24 -23 -41 -47t-28 -44q10 -1 21 -1h22q26 0 53.5 2t53 7.5t48 14t38.5 20.5zM537 1534q33 0 65.5 -12.5t58 -35t40.5 -54.5q13 -26 13 -56q0 -6 -1 -12 q-3 -38 -20 -70.5t-46 -56.5q-27 -21 -59.5 -34.5t-67 -21.5t-69 -11t-64.5 -3q-35 0 -61 1.5t-37 3.5q-17 2 -32 6t-29 10q-14 7 -26 16t-26 23q-23 -23 -49.5 -36.5t-76.5 -15.5h-1h-13h-6h-3q-9 0 -14 2q-25 3 -52 12t-50 32l-8 8q-13 -12 -27.5 -21.5t-31.5 -15.5 q-25 -10 -60 -15v-1q-1 0 -31 -1.5t-73.5 -4.5t-91 -8t-83.5 -12q-23 -5 -46 -11.5t-43 -13t-36.5 -13t-25.5 -10.5q11 -1 32.5 -2t47.5 -1.5t54 -0.5h52h41.5h22.5q25 0 60.5 2t75 4.5t78.5 6t70.5 6t51.5 4.5l19 2l13 -107q-1 0 -21.5 -2t-52.5 -5t-72 -6t-80.5 -6 t-77.5 -5t-63 -2q-17 0 -34 0.5t-35 1.5q-66 3 -118.5 11t-89 16.5t-58 16.5t-25.5 12v89q1 2 18 16.5t48 33.5t76 38.5t104 32.5q25 5 56 8.5t63 6.5t62 5t54 3q4 2 12 2h6q29 0 52.5 6t35.5 20q8 9 12.5 27.5t6.5 36.5q2 21 2 46v338h106v-333q0 -62 8.5 -90t18.5 -37 q5 -5 14.5 -9t31.5 -5q35 1 50.5 10t21.5 17q11 14 17.5 39t11.5 48q3 15 7.5 33t12.5 45l106 -32q-5 -13 -9.5 -29t-6.5 -31.5t-2 -30.5t3 -25q14 25 36.5 56.5t54.5 62.5q40 38 92 63t110 25z" unicode="ۖ"/>
<glyph glyph-name="uni06D7" d="M250 1641l-76 76l75 76l77 -77zM335 1408q21 0 41 3.5t34 7.5q-5 21 -14.5 39.5t-23.5 32.5q-25 21 -46 21q-17 0 -29 -9t-17 -19q-7 -10 -7 -29q0 -12 5 -23t18 -18q6 -4 16.5 -5t22.5 -1zM439 1569q22 -19 37.5 -44t25 -52.5t14 -55.5t4.5 -52q0 -25 -4.5 -47 t-11.5 -36q-10 -19 -27 -38.5t-45 -35.5t-68 -26t-97 -10h-80h-2h-7h-29q-12 0 -24 5q-20 5 -40.5 14.5t-37.5 26.5l-7 8q-25 -25 -60 -38q-27 -11 -59 -14v-2q-1 0 -31.5 -1t-73.5 -4t-91 -8t-83 -12q-47 -11 -89.5 -25t-62.5 -24q11 -1 33 -1.5t48 -1t54 -0.5h51.5h41 h22.5q25 0 60 1.5t73 4t76 5.5t68 5.5t49 4.5l19 1l14 -106q-1 0 -21 -2t-50.5 -4.5t-69.5 -5.5t-78.5 -5.5t-76 -4.5t-62.5 -2q-17 0 -34 0.5t-34 1.5q-67 3 -119 10.5t-89 16t-58 16.5t-26 13v88q2 2 18.5 16.5t47.5 33.5t76.5 39t104.5 32q25 5 56 9t62.5 7t61.5 5t54 3 q4 1 13 1h5q29 0 52.5 6.5t35.5 20.5q9 9 13 27.5t6 36.5q2 21 2 46v337h106v-333q0 -31 2.5 -52.5t6.5 -36.5t8.5 -24t9.5 -13q5 -5 15.5 -9.5t35.5 -5.5h94q55 0 85.5 8.5t44.5 22.5l-30 -4t-32 -2q-23 0 -45 4t-42 15q-43 22 -61 58t-18 74q0 23 6.5 45t16.5 39 q8 13 21 26.5t30.5 24.5t38 18t44.5 7q26 0 55 -10.5t58 -35.5zM326 1716l75 76l77 -77l-76 -75z" unicode="ۗ"/>
<glyph glyph-name="uni06D8" d="M63 1072q25 0 35 20t7.5 43t-17 41t-39.5 14q-6 -1 -11.5 -4.5t-12.5 -12t-16.5 -23t-23.5 -37.5q17 -15 38.5 -28t39.5 -13zM58 1290q49 0 87 -29q19 -15 31 -31.5t17 -30.5q16 -37 16 -67q0 -6 -1 -12q-4 -34 -14 -56q-15 -35 -39.5 -55t-46.5 -28q-19 -8 -45 -8 q-24 0 -52.5 9t-62.5 34q-6 4 -11 8l-10 8q-35 -35 -70.5 -46.5t-64.5 -11.5h-13q-21 0 -36 15.5t-15 35.5q0 21 15 36t36 15h13q9 0 19 1.5t21 7t23 17t24 31.5l3 3q23 37 38.5 61.5t29.5 41.5q18 20 37.5 32t43.5 18q7 0 13.5 0.5t13.5 0.5z" unicode="ۘ"/>
<glyph glyph-name="uni06D9" d="M217 1182q1 -9 1 -17q0 -33 -12 -64q-16 -38 -48 -67q-24 -21 -57 -37t-71 -25q-20 -5 -39.5 -6.5t-39.5 -1.5q-28 0 -69 7l17 99q33 -6 52 -6q11 0 21 0.5t21 2.5q-9 39 -26.5 82.5t-38 86t-42 81t-39.5 67.5t-30 46.5t-12 18.5l88 63q0 -1 13 -23.5t33 -58t44 -80.5 t45.5 -89.5t37.5 -86t20 -69.5l4 3q27 25 27 60v7q-4 43 -8 91t-8 96.5t-8 96.5t-7 92l97 9q0 -1 2 -18t5 -46.5t7 -67.5t7.5 -80t7 -85t5.5 -81z" unicode="ۙ"/>
<glyph glyph-name="uni06DA" d="M33 1156l77 -78l-77 -77l-77 77zM71 1245q-51 -12 -103 -34t-93 -57q-11 -10 -21 -25t-16 -33t-7.5 -37.5t3.5 -38.5q6 -23 21 -40t34 -28t41 -18t42 -11q23 -5 49 -5q31 0 65 7q62 12 140 44l38 -91q-138 -57 -244 -57q-17 0 -33.5 1.5t-32.5 3.5q-89 18 -145 63 q-54 43 -69 105q-8 29 -8 59v7q1 34 12 66q22 62 66 102q24 21 56 37.5t66.5 29t68.5 22t63 17.5q-17 9 -36 20t-39 24q-33 21 -63 21q-10 0 -20 -2q-17 -5 -32 -15t-27 -21.5t-20 -23t-12 -17.5l-85 48q1 2 10.5 17t27.5 35q26 28 55 46t59 26q23 5 46 5q15 0 31 -2 q21 -4 42 -12t41 -22q52 -37 92.5 -56.5t68 -28.5t41.5 -10l15 -1l-30 -94q-1 0 -16.5 -2t-44.5 -6z" unicode="ۚ"/>
<glyph glyph-name="uni06DB" d="M90 997l-124 -123l-125 125l123 124zM-47 793l-141 -140l-142 142l140 141zM250 797l-139 -145l-141 141l140 142z" unicode="ۛ"/>
<glyph glyph-name="uni06DC" d="M427 1369q31 -60 31 -117q0 -76 -38 -120.5t-104 -46.5h-2q-56 0 -99 47q-2 3 -4 5.5t-4 5.5q-3 -5 -6 -8.5t-6 -7.5q-36 -40 -93 -42q-32 0 -59 13q0 -15 -3 -30q-8 -42 -31 -78t-58 -64q-34 -27 -80 -43q-46 -17 -94 -17q-106 0 -171 48q-13 10 -26 24.5t-24 34.5 t-18 47t-7 61q0 92 34 168q13 28 24.5 43t13.5 18l72 -67q-3 -4 -7 -9q-3 -5 -7 -12.5t-8 -17.5q-24 -54 -24 -123q0 -61 36 -88q37 -28 112 -28q35 0 63.5 10.5t50 28t34.5 39.5t18 45q5 21 0 54.5t-18 75.5q-4 11 -7.5 21t-6.5 19q-10 21 -15 30t-6 10l91 41q1 -2 6.5 -12 t13.5 -31l10.5 -21t13.5 -22q20 -33 40 -51t35 -18q14 0 22 9q19 22 25 78q2 23 1.5 43t-0.5 22v1h98v-1q0 -2 4 -29.5t15 -59.5q2 -7 6.5 -18t10.5 -21t14 -17t17 -7q6 0 14 1t15 7.5t12 20.5t5 39q0 16 -4.5 32.5t-11 30.5t-13 24.5t-10.5 15.5l75 63q2 -2 11.5 -15 t20.5 -34zM-325 1243v0v1v-1z" unicode="ۜ"/>
<glyph glyph-name="uni06DD" horiz-adv-x="2300" unicode="۝" d="M933 -248q0 14 -13 30t-37 25q-73 22 -164 67t-156 89q-21 21 -43 21q-24 0 -42 -18t-19 -47q0 -34 28 -48q157 -111 365 -182q38 -1 60 17t21 46zM1251 -279q0 45 -31 75t-79 30q-45 0 -74 -29t-29 -76q0 -46 29 -75t74 -29q48 0 79 29t31 75zM1770 -11q-22 0 -44 -22 q-173 -108 -321 -153q-23 -10 -37 -26t-13 -31q1 -29 23 -47t58 -17q204 70 364 184q28 14 28 52q0 27 -18 43t-40 17zM1829 1397q-29 -17 -60 -17q-69 69 -155 124t-176 85t-145 30q-35 0 -77 -12t-75 -42q-27 30 -65 42t-72 12q-56 -1 -152 -31t-183 -85t-151 -123 q-34 0 -63 17q-275 -277 -275 -652q0 -188 69 -352t206 -289q30 0 63 11q62 -71 140 -123t183 -89t141 -37q30 0 74 16t85 52q48 -37 92 -54t76 -17q23 0 45 8q166 57 256 113t159 131q29 -11 60 -11q130 119 202 285t72 346q0 199 -68 361t-206 301zM854 1800 q-208 -71 -362 -184q-30 -15 -30 -51q0 -23 18 -41t41 -20q22 0 44 22q62 40 151 84t169 69q47 19 47 61q0 60 -78 60zM1251 1763q0 45 -31 74t-79 29q-45 0 -74 -29t-29 -74q0 -48 29 -78t74 -30q48 0 79 30t31 78zM1831 1563q0 36 -27 49q-162 111 -366 182q-79 0 -79 -51 q-1 -21 13 -41t35 -27q161 -49 322 -155q21 -21 42 -21q24 0 42 19t18 45zM2238 745q0 -301 -135 -555q20 14 41 14t37 -14q-258 -462 -827 -593q-113 -27 -213 -152q-93 132 -197 152q-553 101 -821 593q18 14 36 14t38 -14q-152 295 -152 555q0 147 43 283t109 264 q-21 -7 -38 -7q-18 0 -36 7q128 234 350 396t471 196q46 6 100 53t97 111q40 -61 98 -106t115 -58q269 -57 484 -211t343 -381q-16 -7 -37 -7q-20 0 -41 7q135 -250 135 -547z"/>
<glyph glyph-name="uni06DE" horiz-adv-x="2220" unicode="۞" d="M1253 750q0 59 -42 101t-101 42t-100 -42t-41 -101q0 -60 41 -102t100 -42t101 42t42 102zM1327 750q1 -90 -63 -154t-154 -64q-88 0 -152 64t-65 154q1 90 65 154t152 63q90 1 154 -63t63 -154zM2064 750l-202 204v-409zM1786 1030l-395 395h-560l-395 -395v-561 l395 -393h560l395 393v561zM1315 1499l-205 207l-205 -207h410zM360 954l-204 -204l204 -205v409zM905 0l205 -205l205 205h-410zM1786 76v289l-291 -289h291zM1786 1137v288h-291zM725 1425h-289v-288zM436 365v-289h289zM2171 750l-309 -312v-438h-441l-311 -311l-309 311 h-441v438l-311 312l311 311v438h441l309 311l311 -311h441v-438z"/>
<glyph glyph-name="uni06DF" d="M0 997q-53 0 -84 32t-31 91t30.5 91t84.5 32q55 0 85 -33.5t30 -89.5t-30 -89.5t-85 -33.5z" unicode="۟"/>
<glyph glyph-name="uni06E0" d="M98 1120h-196v197h196v-197z" unicode="۠"/>
<glyph glyph-name="uni06E1" d="M-265 970q-20 0 -35 14.5t-15 35.5t15 36t35 15h6q71 0 126 6t98.5 15.5t77 21.5t62.5 24q-30 10 -56 20.5t-43 19.5q-37 20 -65 20q-12 0 -22 -4q-11 -5 -19 -13.5t-13 -16.5q-6 -10 -10 -20l-94 28q1 3 6 16.5t16.5 31t30.5 35.5t46 29q29 12 61 12q8 0 17 -1 q46 -5 93 -31q16 -8 46.5 -19.5t64.5 -23t66 -21.5t50 -15l-26 -96q-20 -1 -43 -11.5t-50 -22.5q-31 -14 -69 -28.5t-88 -27.5t-114 -21t-148 -8h-7z" unicode="ۡ"/>
<glyph glyph-name="uni06E2" d="M101 1264q7 14 5.5 33.5t-10.5 36t-24 26.5t-35 6q-22 -4 -54 -70q5 -2 10.5 -5t11.5 -5q18 -8 38.5 -17.5t44.5 -20.5q2 2 6 5.5t7 10.5zM181 1382q23 -46 23 -92q0 -10 -1 -20q-5 -51 -38 -84q-21 -23 -49 -32q-32 -11 -62 2q-27 11 -49.5 21.5t-40.5 19.5 q-26 12 -46.5 21t-33.5 12q-5 1 -6.5 1h-2.5l-1 -1q-1 0 -1 -0.5t-1 -0.5q-2 -2 -4.5 -7t-4.5 -22q-2 -19 -1.5 -59t2.5 -84q0 -17 0.5 -42t1.5 -53.5t1.5 -58.5t0.5 -56h-98q0 26 -0.5 55t-1.5 57.5t-1.5 53t-1.5 41.5q-3 48 -3 90v12q0 34 3 55q2 22 10.5 47.5t34.5 46.5 q30 24 70 24h9q27 57 56.5 91t73.5 43q16 3 31 3q14 0 26 -2q26 -6 46.5 -18t35 -29t23.5 -35z" unicode="ۢ"/>
<glyph glyph-name="uni06E3" d="M417 -13q31 -60 31 -117q0 -76 -38 -120.5t-104 -46.5h-2q-56 0 -99 47q-2 3 -4 5.5t-4 5.5q-3 -5 -6 -8.5t-6 -7.5q-36 -40 -93 -42q-32 0 -59 13q0 -15 -3 -30q-8 -42 -31 -78t-58 -64q-34 -27 -80 -43q-46 -17 -94 -17q-106 0 -171 48q-13 10 -26 24.5t-24 34.5 t-18 47t-7 61q0 92 34 168q13 28 24.5 43t13.5 18l72 -67q-3 -4 -7 -9q-3 -5 -7 -12.5t-8 -17.5q-24 -54 -24 -123q0 -61 36 -88q37 -28 112 -28q35 0 63.5 10.5t50 28t34.5 39.5t18 45q5 21 0 54.5t-18 75.5q-4 11 -7.5 21t-6.5 19q-10 21 -15 30t-6 10l91 41q1 -2 6.5 -12 t13.5 -31l10.5 -21t13.5 -22q20 -33 40 -51t35 -18q14 0 22 9q19 22 25 78q2 23 1.5 43t-0.5 22v1h98v-1q0 -2 4 -29.5t15 -59.5q2 -7 6.5 -18t10.5 -21t14 -17t17 -7q6 0 14 1t15 7.5t12 20.5t5 39q0 16 -4.5 32.5t-11 30.5t-13 24.5t-10.5 15.5l75 63q2 -2 11.5 -15 t20.5 -34zM-335 -139v0v1v-1z" unicode="ۣ"/>
<glyph glyph-name="uni06E4" d="M-153 1061q0 1 2 6t5 11.5t6.5 14t6.5 13.5q13 20 29 31.5t35 16.5q8 2 32 2t53 -13q21 -9 35.5 -9t25 5t17.5 13t14 14l57 -37q0 -1 -8.5 -12t-23 -23t-34 -22t-42.5 -10q-19 0 -36 5t-31.5 10t-25.5 8.5t-19 1.5q-14 -6 -21 -21.5t-11 -25.5z" unicode="ۤ"/>
<glyph glyph-name="uni06E5" d="M73 1175h25q-1 35 -7 61t-16 48q-11 25 -25 31t-25 6q-25 -1 -41 -21t-21 -46t1 -40t20 -22q4 -4 23 -10t66 -7zM162 1327q22 -41 28 -89t6 -84q0 -79 -40 -143t-115 -110q-27 -17 -51 -27t-42 -16t-29 -10q-11 -2 -12 -2l-31 94q18 4 37 10q17 5 37 14t43 22 q60 36 86 88h-8q-95 0 -144 34q-14 10 -27 24q-12 14 -22 34t-14 46q-1 9 -1 19q0 18 4 38q12 59 48 99q45 50 110 50q45 0 80 -23t57 -68z" unicode="ۥ"/>
<glyph glyph-name="uni06E6" d="M-95 1294l98 -21q-1 -8 -7 -22t-13 -30q-7 -17 -19 -31t-25 -22q-29 -16 -53 -26t-46 -18t-42 -14q-20 -8 -38 -20q4 -2 22 -4t48 -5q30 -1 70 -3t83 -2q63 0 122 8t104 18t72 18t28 8l30 -98q-1 0 -16 -4t-37 -10t-49 -12q-26 -6 -49 -10q-40 -6 -88 -12t-119 -8 q-24 -1 -48 -1l-36 1q-42 2 -79 6q-38 4 -68 12t-51 21q-15 11 -27 25t-19 30v29q9 30 31 51t49 37t55 27t53 20q17 6 27 11t16 11t12 16q4 10 9 24z" unicode="ۦ"/>
<glyph glyph-name="uni06E7" d="M-95 1294l98 -21q-1 -8 -6.5 -22t-13.5 -30t-19.5 -30.5t-24.5 -22.5q-28 -17 -52.5 -26.5t-46.5 -17t-42 -15t-38 -19.5q3 -2 21.5 -4.5t48.5 -4.5t69.5 -3.5t83.5 -1.5q63 0 122 8t104 17.5t72 18t28 8.5l30 -98q-1 0 -16 -4l-37.5 -10t-48.5 -12t-49 -10 q-40 -7 -87.5 -12.5t-119.5 -7.5q-24 -1 -48 -1l-36 1q-42 2 -79 6t-67.5 12.5t-51.5 20.5q-16 10 -27.5 24.5t-18.5 30.5v29q10 30 31.5 51t48.5 37t55.5 27t52.5 20q16 6 26.5 11t17 11t11 15.5t9.5 24.5z" unicode="ۧ"/>
<glyph glyph-name="uni06E8" d="M72 1304l-77 -77l-77 77l77 78zM-18 895q-20 0 -48.5 3t-59.5 14q-73 26 -110 82q-33 52 -33 122v15q3 84 52 197l90 -39q-44 -103 -44 -170q0 -43 18 -72q12 -18 30.5 -28.5t38 -16t37.5 -7t29 -1.5q116 0 153 59q10 17 14.5 38t5 42.5t-2.5 43t-7 40.5q-11 47 -24 79 q-11 27 -13 32l87 45l5 -10q5 -10 11.5 -27.5t14.5 -41.5t14 -51q13 -54 13 -104v-13q-3 -73 -34 -123q-31 -52 -90 -80q-62 -28 -147 -28z" unicode="ۨ"/>
<glyph glyph-name="uni06E9" horiz-adv-x="1229" unicode="۩" d="M780 1108l-166 170l-165 -170l73 -82v-717h183v717zM834 1108l-89 -96v-746h-262v746l-88 96l219 223zM922 1108l-308 307l-307 -307l125 -139v-783h365v783zM995 1108l-149 -170v-807h-463v807l-150 170l381 381zM1102 1108l-488 489l-487 -489l211 -238v-630l-160 -185 h873l-160 185v630zM1180 0h-1131l230 260v590l-230 258l565 567l566 -567l-230 -258v-590z"/>
<glyph glyph-name="uni06EA" d="M104 -489l-104 104l-104 -104l104 -105zM168 -489l-168 -168l-168 168l168 167z" unicode="۪"/>
<glyph glyph-name="uni06EB" d="M104 1157l-104 103l-104 -103l104 -104zM168 1157l-168 -168l-168 168l168 168z" unicode="۫"/>
<glyph glyph-name="uni06ED" d="M102 -243q7 14 5.5 33.5t-10.5 36t-24 26.5t-35 6q-22 -4 -54 -70q5 -2 10.5 -5t11.5 -5q18 -8 38.5 -17.5t44.5 -20.5q2 2 6 5.5t7 10.5zM182 -125q23 -46 23 -92q0 -10 -1 -20q-5 -51 -38 -84q-21 -23 -49 -32q-32 -11 -62 2q-27 11 -49.5 21.5t-40.5 19.5 q-26 12 -46.5 21t-33.5 12q-5 1 -6.5 1h-2.5l-1 -1q-1 0 -1 -0.5t-1 -0.5q-2 -2 -4.5 -7t-4.5 -22q-2 -19 -1.5 -59t2.5 -84q0 -17 0.5 -42t1.5 -53.5t1.5 -58.5t0.5 -56h-98q0 26 -0.5 55t-1.5 57.5t-1.5 53t-1.5 41.5q-2 48 -2 90q0 6 -1 12q0 34 3 55q2 22 10.5 47.5 t34.5 46.5q30 24 70 24h9q27 57 56.5 91t73.5 43q16 3 31 3q14 -1 26 -3q26 -6 46.5 -17.5t35 -28.5t23.5 -35z" unicode="ۭ"/>
<glyph glyph-name="uni06EE" horiz-adv-x="1047" unicode="ۮ" d="M750 775q90 -107 134 -199q44 -90 54 -166q5 -33 5 -64q0 -38 -8 -72q-14 -60 -39 -105q-12 -20 -30.5 -42.5t-45.5 -44t-64.5 -39.5t-87.5 -29q-70 -14 -150 -14q-24 0 -48.5 1t-50.5 4q-57 5 -109.5 12.5t-93 14t-65.5 11.5t-27 5l56 227q1 0 23.5 -4.5t59.5 -10.5 t83.5 -11.5t94.5 -6.5h26q96 0 146 13q56 15 68 35q15 28 15 60q0 10 -2 21q-6 44 -27 88.5t-50 85.5t-54 71q-41 48 -82.5 88.5t-75.5 70.5t-56 47l-22 17l145 198q2 -2 28 -22t66 -55t88.5 -82t95.5 -103zM416 1656l134 -7q18 -53 40 -108t46.5 -104t50 -86.5t51.5 -55.5 l-82 -118q-24 15 -51 47.5t-52 72.5t-44.5 82.5t-27.5 77.5q-2 -13 -7.5 -37t-15 -54t-22.5 -64t-29.5 -66.5t-36.5 -61.5t-42 -49l-97 105q38 35 62.5 97t50.5 140q15 46 32 92.5t40 96.5z"/>
<glyph glyph-name="uni06EF" horiz-adv-x="909" unicode="ۯ" d="M706 423q46 -121 54 -226q2 -23 2 -46q0 -79 -23 -150q-23 -70 -63.5 -137.5t-97.5 -131.5q-88 -100 -211 -187q-103 -75 -161.5 -107.5t-62.5 -34.5l-116 206q1 1 30.5 16.5t75 44t100.5 70t108 93t97.5 114t67.5 132.5q11 33 11 73q0 76 -39 179q-12 33 -25.5 60.5 t-24.5 48t-18.5 32.5t-8.5 12l206 136q1 -2 10.5 -17t23.5 -41t31.5 -61.5t33.5 -77.5zM422 1213l134 -7q18 -53 40 -108t46.5 -104t50 -86.5t51.5 -55.5l-82 -118q-24 15 -51 47.5t-52 72.5t-44.5 82.5t-27.5 77.5q-2 -13 -7.5 -37t-15 -54t-22.5 -64t-29.5 -66.5 t-36.5 -61.5t-42 -49l-97 105q38 35 62.5 97t50.5 140q15 46 32 92.5t40 96.5z"/>
<glyph glyph-name="uni06F0" horiz-adv-x="864" unicode="۰" d="M414 610l290 -290l-289 -289l-290 290z"/>
<glyph glyph-name="uni06F1" horiz-adv-x="827" unicode="۱" d="M598 506q14 -118 14 -227v-45q-4 -130 -26 -248l-242 46q22 113 22 230t-14 229.5t-37 216t-48 189.5q-28 96 -57 176t-52.5 138t-39 90.5t-15.5 33.5l219 109q1 -3 18.5 -39t43 -98t56.5 -147.5t61 -187.5q36 -122 60.5 -238t36.5 -228z"/>
<glyph glyph-name="uni06F2" horiz-adv-x="1267" unicode="۲" d="M1158 1443q0 -3 2 -27q2 -20 2 -48v-15q0 -39 -4.5 -89t-16.5 -103q-36 -161 -129 -255t-233 -112q-47 -5 -98 -6h-7q-48 0 -98 12q68 -257 86 -462q7 -75 7 -144q0 -118 -20 -215l-241 48q15 76 15 165v30q-3 106 -20.5 218.5t-45.5 225.5t-59 216t-62 191t-55 150 q-11 29 -23.5 58.5t-24.5 61.5l228 92q2 -3 15.5 -34.5t34.5 -85.5q83 -189 168 -249q37 -27 76 -31q16 -2 34 -2q27 0 60 4q49 6 81 36.5t50 72.5t26 89t10 87q1 17 0 33q0 21 -1 35q-2 26 -2 27z"/>
<glyph glyph-name="uni06F3" horiz-adv-x="1596" unicode="۳" d="M1459 1417q7 -45 13 -105q4 -45 4 -92v-33q-8 -177 -91 -277q-16 -18 -38.5 -37.5t-53 -35.5t-70 -27t-88.5 -13q-9 0 -32.5 1.5t-54 9.5t-65 25.5t-67.5 49.5q-8 7 -16 15t-14 17q-48 -45 -108 -67q-54 -20 -117 -19h-12q-12 0 -25 1t-26 3q66 -281 81 -491 q5 -63 5 -120q0 -132 -25 -230l-240 45q17 61 19 156v20q0 87 -12 187q-10 95 -30.5 204.5t-50.5 232.5q-20 79 -40 152t-38.5 135t-34.5 111.5t-27 81.5q-5 13 -9 25.5t-9 26.5l232 81q2 -6 5 -14q2 -7 5 -17t8 -23q28 -80 52.5 -134.5t45.5 -90t39 -55t33 -28.5t27.5 -11 t22.5 -2q21 -2 36.5 4.5t29.5 20.5q25 25 43 73t29 114q5 31 6.5 57.5t2.5 45.5v37l246 5v-44v-46.5t-0.5 -52.5t-0.5 -49.5v-38.5v-10q0 -43 8 -75q9 -36 26 -53q14 -14 27 -17t16 -3h1q38 2 52 11.5t19 14.5q20 23 26 65q6 39 6 81v7q0 46 -5.5 90t-8.5 72q-2 11 -3 21.5 t-2 20.5l244 28q1 -8 1.5 -17t2.5 -20z"/>
<glyph glyph-name="uni06F4" horiz-adv-x="1468" unicode="۴" d="M1371 669q-1 -1 -2 -1h-2q-61 -24 -119 -40t-121 -24q-61 -7 -119 -7q-177 0 -331 68q-21 9 -39 19t-38 22q92 -373 92 -613q0 -103 -17 -182l-240 51q11 52 11 123v12q-2 79 -14 179t-36 218t-60 252q-28 106 -57 200t-53 166q-24 71 -38 113q-16 42 -16 43l230 85 q54 -142 124 -244q22 48 46 88t54 73q44 52 96 86t112 52q55 16 114 16q26 0 52 -3q87 -10 176 -52q31 -15 56 -30t44 -28t30 -22t13 -10l-159 -188q-16 13 -44 31t-64 33t-74 21q-15 2 -29 3q-24 0 -47 -7q-30 -9 -55 -29q-25 -19 -46 -47t-37 -61t-30 -66q16 -17 42 -37 t62 -39q91 -47 205 -47h7q118 2 254 53z"/>
<glyph glyph-name="uni06F5" horiz-adv-x="1510" unicode="۵" d="M1140 358q4 30 3 50t-1 21l-2 6v6q-2 95 -32 185t-75 174q-45 82 -101 154t-110 128q-20 22 -42 44l-42 42q-79 -114 -137 -206q-57 -92 -97 -170t-62 -149q-22 -70 -28 -142q-3 -32 -3 -60q0 -117 47 -171q10 -12 21 -20t21 -12t18 -6t10 -1h8l1 -1q26 -2 40 4t23 15 q20 19 34 51t24 66q10 36 15 72t7 67v23t1 22l246 -2v-14t-1 -32q0 -58 6 -100t15 -70q9 -30 19 -48t18 -28q15 -16 27 -20t17 -5h3h1q19 0 32 3q14 3 22 7t13 8t7 7q28 32 34 102zM1386 452q1 -16 2 -56v-10q0 -36 -7 -82q-8 -52 -29 -108t-63 -103q-17 -17 -40 -37 t-55 -36t-71 -25q-40 -10 -89 -10q-12 -1 -34 1t-52 11t-62 27q-34 18 -67 50q-5 6 -11 12l-12 12q-6 -8 -13 -14t-15 -14q-91 -86 -219 -86h-15t-15 1q-13 0 -39 4q-26 5 -59 17t-71 35t-72 61q-112 124 -112 339q0 39 4 82q10 101 40 199t88 209q44 83 106 179t146 218 q-22 18 -34 26t-13 9l137 204q2 -3 34 -25t83 -63t115 -99t132 -130q79 -86 143 -174t111 -176q60 -114 92 -226t36 -222z"/>
<glyph glyph-name="uni06F6" horiz-adv-x="1296" unicode="۶" d="M1223 781q-27 -11 -54 -21t-53 -19q-46 -21 -107 -53t-130 -82q-352 -246 -494 -643l-231 82q46 131 113 249t154 225q39 47 82 90t89 85q-66 18 -111 44t-73 52q-36 32 -62 70t-39 80q-14 40 -16 82v12q0 35 9 67q46 155 162 247t286 110q41 4 79 4h31q52 -2 94 -8 q41 -6 67 -12t31 -8l-66 -236l-18 4q-18 4 -49 8t-69 6h-17q-30 0 -63 -4q-61 -7 -102 -26q-41 -18 -67 -44t-40 -54t-22 -55q0 -3 2 -11q1 -8 7 -16q6 -10 16 -22t24 -21q16 -11 48 -25t84 -18q17 -1 37 -2q41 0 92 6q76 10 179 45q52 23 83 33t34 11z"/>
<glyph glyph-name="uni06F7" horiz-adv-x="1475" unicode="۷" d="M1159 1497l213 -122q-73 -128 -132 -257t-105.5 -249.5t-81.5 -229.5t-60 -198q-27 -98 -45 -178.5t-29 -138.5q-11 -60 -16 -92l-5 -32l-244 1q-25 204 -70.5 383t-99 329t-109.5 268t-101.5 200.5t-75 126.5t-30.5 46l199 144q1 -2 20 -30t50.5 -79.5t72 -125.5 t84.5 -170q51 -111 95.5 -226t80.5 -233l6 -20l6 -20q27 93 63.5 200t83 223t104 237.5t126.5 242.5z"/>
<glyph glyph-name="uni06F8" horiz-adv-x="1532" unicode="۸" d="M1213 486q40 -87 77 -155t65.5 -115t45.5 -72l17 -25l-199 -145q-2 2 -20.5 30t-49.5 79t-71.5 125t-84.5 168q-103 223 -175 458q-3 9 -5.5 18t-5.5 18q-27 -92 -63 -198t-82.5 -220.5t-103 -235t-124.5 -240.5l-214 121q93 163 164 327.5t123 316t87 282.5t56.5 228.5 t30.5 153.5t10 58l243 -1q19 -158 51.5 -300t70.5 -265.5t79 -227t78 -183.5z"/>
<glyph glyph-name="uni06F9" horiz-adv-x="1360" unicode="۹" d="M549 949q24 -6 51 -5t54 5.5t53 12.5t49 17q-8 40 -17.5 82t-27 78t-46 61.5t-74.5 33.5q-42 -5 -71 -26t-44.5 -50.5t-18 -63t7 -63t30.5 -52.5t54 -30zM1051 558q28 -145 70.5 -247.5t94.5 -152.5l-169 -178q-165 157 -237 534q-12 60 -19.5 114t-12.5 98 q-66 -20 -142 -28q-20 -2 -40 -1q-56 0 -113 15q-73 20 -130 67.5t-95 118.5q-6 15 -16 54.5t-13 91.5q-1 13 -1 27q0 41 7 87q9 62 42 122q36 67 97 115q60 49 132 69q47 13 96 13q26 0 52 -4q76 -11 145 -61q198 -147 216 -556v-1l1 -25q2 -24 6 -64.5t11 -94.5t18 -113z "/>
<glyph glyph-name="uni06FA" horiz-adv-x="2556" unicode="ۺ" d="M2390 722q78 -147 78 -291q0 -95 -24.5 -171.5t-70.5 -130.5t-112 -84t-148 -32h-9q-66 0 -126 28q-64 30 -116 90q-5 6 -10 12.5t-10 13.5q-8 -11 -15.5 -20.5t-15.5 -18.5q-45 -51 -104 -77.5t-128 -27.5h-8q-72 0 -140 33q-1 -20 -2.5 -39t-5.5 -36 q-21 -104 -78.5 -195.5t-144.5 -160.5q-45 -35 -94.5 -62t-103.5 -46q-114 -41 -237 -41q-267 0 -426 120q-32 24 -65.5 60.5t-60.5 87t-44.5 117t-17.5 151.5q0 233 85 420q16 35 31.5 62t28.5 46.5t22.5 30.5t12.5 15l180 -168q-8 -11 -17 -24q-8 -13 -18 -31t-21 -43 q-29 -67 -43.5 -144.5t-14.5 -163.5q0 -152 90 -220q46 -35 116.5 -52.5t161.5 -17.5q87 0 159 26.5t125.5 70t87 99t45.5 112.5q5 25 5 56q-1 36 -7 80q-12 84 -45 190q-9 27 -18 51.5t-17 47.5q-24 52 -37 75t-14 25l226 102q2 -3 16.5 -28t34.5 -78q13 -25 27.5 -53 t32.5 -56q50 -82 100 -127.5t88 -45.5q34 0 54 23q23 26 39.5 77t23.5 119q3 28 3.5 56t0 51t-1 38.5t-0.5 17.5v1l245 1v-2q0 -2 2.5 -22.5t7.5 -52t14 -70.5t23 -78q6 -18 17 -45t26.5 -52.5t35 -43.5t42.5 -18h1q14 0 34 3t38 19.5t30.5 51.5t12.5 98q0 41 -12 82 t-28 75.5t-33 61t-26 38.5l188 156q4 -4 27.5 -36t51.5 -86zM1981 1300l-155 -154l-156 156l154 155zM1810 1044l-176 -175l-178 178l176 176zM2182 1049l-174 -181l-177 177l175 177zM1998 -365l-176 -176l-178 178l176 176z"/>
<glyph glyph-name="uni06FB" horiz-adv-x="2565" unicode="ۻ" d="M1784 459q-48 -45 -83.5 -94t-61.5 -92q44 -11 96 -16.5t109 -5.5q83 0 163 16t140 56q85 51 89 144v9q0 34 -20 58q-24 28 -58 42q-32 14 -70 18q-10 1 -20 1q-25 0 -44 -6q-63 -11 -124.5 -44.5t-115.5 -85.5zM2487 451q-6 -85 -47.5 -166t-121.5 -144.5t-200 -102 t-283 -38.5q-68 0 -123.5 4t-106.5 15.5t-101.5 31t-108.5 50.5q0 -72 -14.5 -142.5t-44.5 -139.5q-53 -121 -150 -203q-167 -143 -432 -143q-20 0 -43.5 1t-46.5 3q-88 9 -162.5 29.5t-136.5 58.5h2q-120 70 -178 190h1q-29 57 -42 121q-12 60 -12 127v10q1 57 9.5 115 t24.5 123q13 54 32.5 106.5t39.5 97t38 78t28 49.5l211 -136q-5 -8 -16.5 -31.5t-26.5 -57.5t-30.5 -76t-28.5 -88t-21.5 -93.5t-8.5 -92.5q0 -39 6 -75.5t22 -66.5q29 -60 98 -93.5t173 -44.5q17 -1 33 -1.5t32 -0.5q86 0 154.5 21t118.5 61q30 28 51 61.5t35.5 68t22 68.5 t9.5 63q1 11 1 21v21q0 66 -12.5 135t-28.5 128.5t-31.5 104t-22.5 63.5l-11 33l-10 28l226 94q19 -50 37.5 -97t38 -87t41.5 -70.5t48 -46.5q33 55 81.5 120.5t112.5 127.5q79 74 176.5 125t192.5 69q54 9 94 9q91 0 168.5 -31.5t137.5 -94.5q55 -58 83 -128 q23 -60 24 -119q0 -11 -1 -22zM2231 1135l-176 -176l-178 178l176 176zM2236 -365l-176 -176l-178 178l176 176z"/>
<glyph glyph-name="uni06FC" horiz-adv-x="1327" unicode="ۼ" d="M1193 -304l99 -226q-91 -40 -173 -64t-154.5 -36.5t-135.5 -17t-116 -4.5h-7q-299 0 -461 145q-41 36 -67 75t-42 75.5t-23 68t-9 54.5q-3 32 -3 64q1 88 25 167q34 108 111 197q33 38 69.5 67.5t70.5 51.5q-27 21 -48 42q-59 59 -88 133q-24 61 -24 125q0 13 1 26 q6 94 52 173t126 137q67 49 150 75t167 26q57 -1 115.5 -10t107.5 -19.5t81 -19t35 -9.5l-35 -118l-36 -117l-26 7q-26 8 -66 16.5t-87.5 15.5t-90.5 8q-45 0 -90.5 -14.5t-81.5 -39.5q-12 -9 -25 -21.5t-23.5 -28t-18 -35t-8.5 -43.5q-1 -4 -0.5 -13t4 -22t12 -28t23.5 -31 q42 -41 114 -60q57 -15 128 -15q19 0 39 1l301 15l-93 -220q-62 -8 -121 -18t-111 -21.5t-96 -23.5t-76 -23q-16 -6 -41.5 -19t-54.5 -34t-57 -50.5t-49.5 -69t-32.5 -89.5q-7 -32 -7 -69q0 -20 2 -42q1 -8 3.5 -20.5t9 -27.5t18 -32t29.5 -33q45 -41 121 -62t177 -21h6 q47 0 100 3.5t112.5 14.5t126.5 31t142 53zM896 1253l-176 -176l-178 178l176 176zM895 -194l-176 -176l-178 178l176 176z"/>
<glyph glyph-name="uni06FD" horiz-adv-x="1198" unicode="۽" d="M780 473q-13 7 -30 13q-14 5 -35 10.5t-47 10.5q-10 1 -35.5 1t-52.5 -8.5t-50 -28.5t-29 -59q-3 -23 4.5 -47t24 -44.5t40.5 -34.5t54 -15h10q30 -1 68 9q44 12 81 26q45 17 91 38l85 -159q-59 -32 -148 -65.5t-216 -80.5l-341 -126l-69 179l241 89q-30 29 -55.5 66.5 t-37.5 88.5q-6 25 -7.5 50.5t3.5 54.5q6 43 25.5 82t49 70.5t68 54t82.5 32.5q43 10 85 10q27 0 55 -4q31 -5 60 -14t52 -17q26 -10 50 -21zM791 -308q4 -8 10 -30t11.5 -51t11 -61t9 -59.5t4.5 -45.5v-10q0 -8 -1 -9l-70 -30q-5 43 -10 78.5t-12 67t-16 62.5t-20 66 q2 0 12 3q8 2 25 6.5t46 12.5zM541 -308q4 -8 10 -30t11.5 -51t11 -61t9 -59.5t4.5 -45.5v-10q0 -8 -1 -9l-70 -30q-5 43 -10 78.5t-12 67t-16 62.5t-20 66q2 0 12 3q8 2 25 6.5t46 12.5z"/>
<glyph glyph-name="uni06FE" horiz-adv-x="1256" unicode="۾" d="M939 336q12 24 14.5 54t-4 60.5t-21.5 59t-36.5 48.5t-49.5 30t-61 3q-29 -5 -62 -47.5t-75 -127.5q14 -5 28 -12t29 -13q86 -41 206 -94q5 4 14.5 13t17.5 26zM1140 632q36 -72 50 -142q9 -45 9 -89q0 -25 -3 -50q-6 -61 -30.5 -114.5t-64.5 -95.5q-55 -56 -123 -79 q-36 -12 -71 -12h-10q-40 2 -75 17q-67 28 -123.5 54t-101.5 47q-66 31 -116.5 53t-82.5 30q-13 2 -17 2h-6q-1 0 -2 -1t-2 -1.5t-3 -2.5q-3 -2 -6 -5.5t-6.5 -11t-6.5 -20.5t-5 -34q-4 -25 -4 -63v-40.5v-44.5q0 -47 2.5 -101t4.5 -108l2.5 -105t3 -134.5t3 -146 t1.5 -139.5h-244q-1 64 -2.5 137.5t-3.5 143.5t-3.5 131.5t-2.5 103.5q-2 60 -4 117q-3 57 -3 108v33q0 32 1 61q1 43 4 74q3 27 9.5 57t19 60.5t33 60.5t52.5 56q74 61 167 61q15 0 30 -1q34 72 68.5 129t73.5 99t83.5 69t98.5 38q42 8 80 8q33 0 63 -6q65 -13 116 -43.5 t88 -73t59 -86.5zM824 -144q4 -8 10 -30t11.5 -51t11 -61t9 -59.5t4.5 -45.5v-10q0 -8 -1 -9l-70 -30q-5 43 -10 78.5t-12 67t-16 62.5t-20 66q2 0 12 3q8 2 25 6.5t46 12.5zM574 -144q4 -8 10 -30t11.5 -51t11 -61t9 -59.5t4.5 -45.5v-10q0 -8 -1 -9l-70 -30 q-5 43 -10 78.5t-12 67t-16 62.5t-20 66q2 0 12 3q8 2 25 6.5t46 12.5z"/>
<glyph glyph-name="uni0750" horiz-adv-x="1791" unicode="ݐ" d="M1659 662q80 -179 80 -303q0 -44 -10 -81q-14 -50 -49.5 -95t-98.5 -77q-90 -46 -207.5 -78t-251.5 -48q-133 -18 -277 -18h-8l-280 17q-123 14 -217.5 53t-161.5 100q-121 109 -138 282q-3 27 -3 55q0 61 12 125q17 94 62 206l230 -91q-35 -81 -48 -149q-9 -49 -9 -91 q0 -16 1 -31q3 -40 17.5 -70.5t40.5 -54.5q38 -34 100 -56.5t145 -33.5q39 -5 100 -7q60 -4 128 -4h23q56 0 113 2q68 2 121 9q161 17 268 48t164 82q2 16 -11.5 62.5t-54.5 137.5q-17 36 -32.5 67.5t-29.5 55.5q-16 28 -30 52l207 131q1 -2 11 -17.5t25 -42t33 -62 t36 -75.5zM1094 -382l178 178l175 -175l-178 -179zM752 -406l179 178l175 -176l-179 -179zM412 -431l179 178l175 -175l-179 -179z"/>
<glyph glyph-name="endash" horiz-adv-x="927" unicode="–" d="M-3 426v210h934v-210h-934z"/>
<glyph glyph-name="emdash" horiz-adv-x="1680" unicode="—" d="M0 426v210h1679v-210h-1679z"/>
<glyph glyph-name="quoteleft" horiz-adv-x="503" unicode="‘" d="M356 857h-231v202q1 171 45 264t159 143l45 -117q-68 -27 -98 -76t-32 -135h112v-281z"/>
<glyph glyph-name="quotesinglbase" horiz-adv-x="452" unicode="‚" d="M115 281h230v-201q0 -171 -40 -254q-49 -103 -164 -153l-45 116q68 27 98 75t32 136h-111v281z"/>
<glyph glyph-name="quotedblleft" horiz-adv-x="856" unicode="“" d="M339 857h-231v202q0 171 44 264t160 143l45 -117q-67 -27 -97 -76t-33 -135h112v-281zM723 857h-230v202q0 170 39 253q49 103 165 154l45 -117q-68 -27 -98 -76t-32 -135h111v-281z"/>
<glyph glyph-name="quotedblright" horiz-adv-x="879" unicode="”" d="M105 1466h230v-202q0 -170 -40 -254q-49 -102 -164 -153l-45 117q68 28 98 76t32 135h-111v281zM492 1466h230v-202q0 -169 -39 -253q-49 -103 -165 -154l-45 117q69 28 99 78t31 133h-111v281z"/>
<glyph glyph-name="dagger" horiz-adv-x="915" unicode="†" d="M355 -350v1180h-299v232h299v386h216v-386h297v-232h-297v-1180h-216z"/>
<glyph glyph-name="daggerdbl" horiz-adv-x="908" unicode="‡" d="M357 -350v333h-301v233h301v656h-301v233h301v343h216v-343h295v-233h-295v-656h295v-233h-295v-333h-216z"/>
<glyph glyph-name="ellipsis" horiz-adv-x="1678" unicode="…" d="M165 0v281h231v-281h-231zM725 0v281h230v-281h-230zM1285 0v281h230v-281h-230z"/>
<glyph glyph-name="perthousand" horiz-adv-x="1707" unicode="‰" d="M1364 326q0 -112 7 -145q10 -47 33 -69q15 -15 35 -15q35 0 53 37q25 51 25 192q0 140 -25 191q-17 37 -51 37q-35 0 -52 -37q-25 -52 -25 -191zM1205 338q-1 188 67 280t172 92q102 0 168 -92t67 -289q0 -203 -67 -295t-174 -93q-103 0 -168 91t-65 306zM815 326 q0 -141 24 -191q18 -37 52 -37t51 36q25 52 25 192t-24 191q-18 37 -52 37t-52 -37q-24 -51 -24 -191zM655 338q-1 188 67 280t172 92q102 0 168 -92t67 -290q-1 -202 -67 -294t-173 -93q-104 0 -169 91t-65 306zM230 -52l502 1543h161l-502 -1543h-161zM161 1107 q0 -141 24 -191q18 -37 52 -37t51 36q25 52 25 192t-24 191q-18 37 -52 37q-35 0 -52 -36q-24 -52 -24 -192zM1 1119q-1 188 67 280t172 92q102 1 168 -91t67 -291q0 -202 -67 -294t-173 -92q-104 0 -169 91t-65 305z"/>
<glyph glyph-name="guilsinglleft" horiz-adv-x="612" unicode="‹" d="M502 983l-212 -451l212 -462h-181l-259 462l259 451h181z"/>
<glyph glyph-name="guilsinglright" horiz-adv-x="579" unicode="›" d="M61 70l213 452l-213 461h181l259 -461l-259 -452h-181z"/>
<glyph glyph-name="Euro" horiz-adv-x="921" unicode="€" d="M883 1430l-49 -277q-74 84 -199 84q-228 0 -287 -281h451l-29 -155h-438l-2 -15v-79q0 -21 2 -37h418l-27 -156h-373q56 -287 283 -287q142 0 241 119v-305q-105 -66 -245 -66q-205 0 -345 139t-188 400h-123l27 156h80v131h-107l27 155h98q52 260 194 398t349 137 q136 0 242 -61z"/>
<glyph glyph-name="trademark" horiz-adv-x="1696" unicode="™" d="M803 647v819h213l122 -564l123 564h212v-819h-129v653l-145 -653h-124l-143 653v-653h-129zM385 647v677h-208v142h545v-142h-201v-677h-136z"/>
<glyph glyph-name="feh_dotless.isol" d="M1422 567q47 9 82 21q-19 90 -73 142q-17 16 -34 26t-31.5 15.5t-26 7t-16.5 0.5q-94 -22 -111 -81q-4 -15 -3 -31t5 -29.5t9 -24t10 -15.5q17 -18 40 -26.5t48.5 -11t51.5 0t49 6.5zM1724 713q24 -71 32 -153q4 -39 4 -80q0 -47 -5 -96q-2 -26 -8.5 -63t-26 -78 t-57.5 -81.5t-103 -71.5q-50 -24 -117 -41t-154 -28.5t-196 -17t-244 -5.5h-1q-28 0 -64 0.5t-77.5 2.5t-87 7.5t-91.5 14.5q-247 51 -355 210q-72 107 -72 250q0 145 75 326l228 -93q-17 -41 -31.5 -87.5t-20.5 -92.5q-4 -27 -4 -54q0 -18 2 -36q4 -43 27 -76 q21 -32 56 -53.5t78 -35.5t90 -21.5t92 -11.5t85.5 -4.5t69.5 -0.5h1q232 0 383 17.5t222 51.5q16 7 27 16q-2 0 -4 -0.5t-4 -0.5q-68 -13 -125 -13h-24q-66 4 -117 20.5t-88 41t-63 50.5q-28 29 -48 67.5t-32 82.5q-13 48 -13 95t13 93q7 27 24.5 63t50.5 71.5t84 67.5 t127 52q28 7 63 7q3 -1 5 -1q38 0 80.5 -10.5t86.5 -32.5t85 -57q96 -81 142 -211z" horiz-adv-x="1876"/>
<glyph glyph-name="onedot.above" d="M665 988l-176 -176l-178 178l176 176z" horiz-adv-x="1024"/>
<glyph glyph-name="twodots.above" d="M824 1052l-176 -175l-178 178l-176 -175l-178 177l175 177l179 -179l175 176z" horiz-adv-x="1024"/>
<glyph glyph-name="threedots.above" d="M677 1277l-155 -154l-156 156l154 155zM506 1021l-176 -175l-178 178l176 176zM878 1026l-174 -181l-177 177l175 177z" horiz-adv-x="1024"/>
<glyph glyph-name="threedots.below" d="M349 -629l155 154l156 -156l-154 -155zM147 -378l174 181l178 -178l-175 -176zM519 -373l177 175l177 -178l-175 -176z" horiz-adv-x="1024"/>
<glyph glyph-name="wasla" d="M-222 1306l-24 89q24 12 50 21q22 8 46.5 12.5t46.5 1.5q20 -4 36 -10t27 -12q13 -7 24 -16q10 19 26.5 44.5t54.5 62.5q29 28 64 46.5t71 23.5q19 4 38 4q20 1 40 -5q36 -10 63 -39q19 -20 29 -43q7 -17 7 -37q0 -6 -1 -12q0 -60 -53 -104q-22 -18 -49.5 -29t-57 -17.5 t-60 -9t-57.5 -2.5q-29 0 -52 1.5t-33 3.5q-14 2 -26 5t-23 8q-13 7 -26 16.5t-27 28.5q-16 12 -39 8.5t-44 -12.5q-25 -11 -51 -28zM61 1358q27 -3 54 -3t53 3q54 6 97 35q19 12 23 33q1 5 1 10q0 15 -11 29q-15 17 -36 19q-7 1 -13 1l-29 -3q-21 -6 -39.5 -17.5 t-30.5 -22.5q-15 -15 -27.5 -30t-21.5 -27q-11 -14 -20 -27z"/>
<glyph glyph-name="onedot.below" d="M620 -375l-176 -176l-178 178l176 176z" horiz-adv-x="1024"/>
<glyph glyph-name="twodots.below" d="M811 -424l-176 -175l-178 178l-176 -175l-178 177l175 177l179 -179l175 176z" horiz-adv-x="1024"/>
<glyph glyph-name="alef_alt.isol" d="M457 1321q2 -6 6 -19t9 -39.5t9.5 -70.5t8 -111t4.5 -161v-56q0 -74 -2 -165q-2 -127 -9.5 -290.5t-21.5 -369.5l-245 -37q13 205 20.5 358.5t9.5 268.5q2 96 3 170q-1 15 -1 29q0 84 -3 154q-3 76 -7.5 128.5t-8 85t-6.5 46.5l-3 14z" horiz-adv-x="650"/>
<glyph glyph-name="twodots.small.above" d="M630 1182l142 -142l-140 -141l-142 143l-141 -141l-142 143l140 140l143 -142z" horiz-adv-x="1024"/>
<glyph glyph-name="twodots.vert.above" orientation="v" horiz-adv-x="547" d="M97 1388l177 178l177 -175l-179 -179zM272 1212l176 -175l-179 -179l-175 176z"/>
<glyph glyph-name="twodots.vert.below" orientation="v" horiz-adv-x="553" d="M102 -445l177 178l177 -175l-179 -179zM277 -621l176 -175l-179 -179l-175 176z"/>
<glyph glyph-name="twodots.vert.small.below" orientation="v" horiz-adv-x="553" d="M131 -478l142 142l141 -140l-143 -143zM271 -619l141 -140l-143 -143l-140 141z"/>
<glyph glyph-name="threedots.small.above" d="M676 1263l-124 -123l-125 125l123 124zM539 1059l-141 -140l-142 142l140 141zM836 1063l-139 -145l-141 141l140 142z" horiz-adv-x="1024"/>
<glyph glyph-name="threedots.small.below" d="M421 -581l124 123l125 -125l-123 -124zM558 -377l141 140l142 -142l-140 -141zM261 -381l139 145l141 -141l-140 -142z" horiz-adv-x="1024"/>
<glyph glyph-name="fourdots.above" d="M786 1068l-154 -154l-157 156l154 155zM463 1066l-155 -154l-156 156l154 155zM784 1397l-155 -154l-156 156l154 155zM463 1399l-155 -154l-156 156l154 155z" horiz-adv-x="1024"/>
<glyph glyph-name="fourdots.below" d="M784 -767l-154 -154l-157 156l154 155zM461 -769l-155 -154l-156 156l154 155zM782 -438l-155 -154l-156 156l154 155zM461 -436l-155 -154l-156 156l154 155z" horiz-adv-x="1024"/>
<glyph glyph-name="threedots.horz.below" d="M835 -410l178 178l175 -175l-178 -179zM493 -434l179 178l175 -176l-179 -179zM153 -459l179 178l175 -175l-179 -179z" horiz-adv-x="1262"/>
<glyph glyph-name="smallv.arabic" d="M351 966l-133 8q-19 53 -41 108t-46 103.5t-49.5 86.5t-51.5 56l82 117q23 -15 50 -47.5t52 -72.5t44.5 -82.5t28.5 -77.5q2 20 13.5 63t31 92.5t46.5 98t61 79.5l97 -105q-19 -18 -34 -43t-28 -55t-25.5 -65.5t-25.5 -74.5q-15 -46 -32 -92t-40 -97z" horiz-adv-x="563"/>
<glyph glyph-name="circumflex.arabic" d="M208 1465l134 -7q18 -53 40 -108t46.5 -104t50 -86.5t51.5 -55.5l-82 -118q-24 15 -51 47.5t-52 72.5t-44.5 82.5t-27.5 77.5q-2 -13 -7.5 -37t-15 -54t-22.5 -64t-29.5 -66.5t-36.5 -61.5t-42 -49l-97 105q38 35 62.5 97t50.5 140q15 46 32 92.5t40 96.5z" horiz-adv-x="584"/>
<glyph glyph-name="hamza_medial" d="M463 960q-20 -7 -39.5 -11.5t-38.5 -9.5q-38 -11 -87.5 -25.5t-103.5 -32t-108.5 -37t-101.5 -39.5l-57 136q53 22 114 44q-52 51 -63 132q-2 14 -2 28q0 68 45 124q19 24 44 41.5t51.5 29.5t52.5 18.5t48 8.5q16 2 32 2q27 0 51 -6q38 -9 66 -22t44.5 -26t20.5 -17 l-100 -108q-2 2 -7 6q-8 6 -21.5 12t-31.5 10.5t-40 2.5q-28 -2 -54.5 -14.5t-40.5 -31.5q-13 -16 -12 -40q4 -23 11.5 -33.5t17.5 -15.5q6 -5 20 -10t37 -7.5t56 -0.5t79 13q33 10 53.5 15t23.5 7z"/>
<glyph glyph-name="wavyhamza_above" d="M272 1431q-16 16 -34 27q-16 10 -37.5 18t-46.5 7q-18 0 -30.5 -9t-21.5 -21q-8 -11 -12 -23t-4 -23q0 -35 29 -55q28 -20 76 -19h9q31 2 56 5t43 7q21 4 37 10l19 -134q-26 -7 -59 -17.5t-76 -17.5q-42 -8 -98 -8q-2 0 -5 -1q-54 0 -123 13q-9 1 -21.5 5t-26 7.5t-26 6 t-21.5 1.5q-28 -2 -46 -8.5t-31 -15.5t-23.5 -19.5t-23.5 -21.5l-73 97q12 11 29 26.5t38.5 30.5t47 26t54.5 14q20 2 39 -1.5t35 -7.5q18 -5 35 -11q-14 27 -18 53t-3 48t5 39t7 25q21 55 70 91t115 36q43 0 78 -13t61 -29q30 -18 53 -42z"/>
<glyph glyph-name="threedots.rev.above" d="M426 1026l155 154l155 -156l-153 -155zM596 1282l176 176l179 -179l-177 -176zM224 1277l174 181l177 -177l-175 -176z" horiz-adv-x="1151"/>
<glyph glyph-name="hah_alt.isol" d="M1059 320q-63 -15 -128.5 -36.5t-129 -49t-122.5 -63t-109 -79.5q-28 -25 -52.5 -62.5t-39.5 -81.5q-16 -46 -20 -94q-1 -11 -1 -22q0 -37 10 -74q8 -29 27 -55t45 -48.5t56.5 -42t60.5 -34.5q71 -36 157 -63q-8 -44 -16 -87q-7 -37 -15 -78.5t-16 -76.5 q-221 42 -361 156q-66 53 -110 119.5t-65 144.5q-18 68 -18 138v24q4 83 31 166q25 75 67 141t97 115q60 52 140 93.5t166.5 73.5t172 56t157.5 42q-44 23 -91 50.5t-98 59.5q-82 53 -157 53q-25 0 -49 -6q-43 -11 -80.5 -36.5t-67.5 -54.5t-51.5 -57.5t-30.5 -44.5v1 l-213 120q3 5 28 43t70 87q63 69 135.5 114.5t148.5 65.5q48 11 96 13h19l77 -6q52 -9 105 -29t103 -55q130 -93 231 -142.5t170 -71t105 -24.5t37 -3l-76 -234q-2 0 -42 -6t-112 -15z" horiz-adv-x="1619"/>
<glyph glyph-name="diagonal" d="M24 1280q-2 19 -2 39.5v37t1 27t3 10.5l730 351l42 -90q-159 -77 -305 -148q-62 -30 -127.5 -62t-128 -62t-117.5 -57t-96 -46z" horiz-adv-x="1024"/>
</font>
</defs>
</svg>
